<svg xmlns="http://www.w3.org/2000/svg" width="36" height="36" fill="none" viewBox="0 0 36 36"><g clip-path="url(#a)"><path fill="#3987CD" d="M21.877 7.053c.32.593.595 1.223.815 1.87 2.209 6.487-1.352 13.558-7.95 15.788a12.743 12.743 0 0 1-6.969.326c2.988 4.177 8.46 6.033 13.617 4.29 6.278-2.12 9.674-8.863 7.572-15.036-1.15-3.375-3.792-6.011-7.085-7.238Z"/><path fill="#3987CD" d="M11.763 16h1.5v10h-1.5V16Z"/><rect width="1.5" height="5.209" x="8.643" y="18.336" fill="#3987CD" rx=".75" transform="rotate(-45 8.643 18.336)"/><rect width="1.5" height="4.782" x="15.046" y="20.059" fill="#3987CD" rx=".75" transform="rotate(45 15.046 20.059)"/><path fill="#3987CD" fill-rule="evenodd" d="M12.513 13.667a.833.833 0 1 0 0 1.666.833.833 0 0 0 0-1.666Zm2.5.833a2.5 2.5 0 1 1-5 0 2.5 2.5 0 0 1 5 0ZM16 19.333a.667.667 0 1 0 0 1.334.667.667 0 0 0 0-1.334ZM18 20a2 2 0 1 1-4 0 2 2 0 0 1 4 0Z" clip-rule="evenodd"/><circle cx="18" cy="18" r="16.5" stroke="#3987CD" stroke-width="3"/></g><defs><clipPath id="a"><path fill="#fff" d="M0 18C0 8.059 8.059 0 18 0s18 8.059 18 18-8.059 18-18 18S0 27.941 0 18Z"/></clipPath></defs></svg>