<svg xmlns="http://www.w3.org/2000/svg" width="36" height="36" fill="none" viewBox="0 0 36 36"><path fill="#3987CD" d="M0 4a4 4 0 0 1 4-4h28a4 4 0 0 1 4 4v28a4 4 0 0 1-4 4H4a4 4 0 0 1-4-4V4Z"/><path fill="#fff" fill-opacity=".5" fill-rule="evenodd" d="M18.948 21.254c.314-9.582 7.828-17.25 17.052-17.25v5.108c-6.531 0-11.862 5.381-12.173 12.142h5.837l-8.227 9.75-8.227-9.75h5.738Z" clip-rule="evenodd"/><path fill="#fff" fill-rule="evenodd" d="M17.052 21.254C16.738 11.672 9.224 4.004 0 4.004v5.108c6.531 0 11.862 5.381 12.173 12.142H6.336l8.227 9.75 8.227-9.75h-5.738Z" clip-rule="evenodd"/></svg>