<svg width="36" height="36" viewBox="0 0 36 36" fill="none" xmlns="http://www.w3.org/2000/svg">
<path d="M0 4C0 1.79086 1.79086 0 4 0H32C34.2091 0 36 1.79086 36 4V32C36 34.2091 34.2091 36 32 36H4C1.79086 36 0 34.2091 0 32V4Z" fill="#3987CD"/>
<path fill-rule="evenodd" clip-rule="evenodd" d="M18.9475 21.2544C19.2619 11.6717 26.7761 4.00439 35.9998 4.00439V9.11154C29.4689 9.11154 24.1377 14.4932 23.8267 21.2544H29.6644L21.4372 31.0044L13.21 21.2544H18.9475Z" fill="white" fill-opacity="0.5"/>
<path fill-rule="evenodd" clip-rule="evenodd" d="M17.0525 21.2544C16.7381 11.6717 9.22386 4.00439 0.000188828 4.00439V9.11154C6.53113 9.11154 11.8623 14.4932 12.1733 21.2544H6.33555L14.5628 31.0044L22.79 21.2544H17.0525Z" fill="white"/>
</svg>
