<svg xmlns="http://www.w3.org/2000/svg" width="36" height="36" fill="none" viewBox="0 0 36 36"><path fill="#3987CD" d="M0 4a4 4 0 0 1 4-4h28a4 4 0 0 1 4 4v28a4 4 0 0 1-4 4H4a4 4 0 0 1-4-4V4Z"/><path fill="#fff" fill-opacity=".5" d="M26 19H4c0 6.5 1.3 11 10.5 11S27 25.5 27 22c0 0 1.194-.274 3-.5 3.2-.4 4-1.5 4-2-.167-.333-1.1-1-3.5-1-3 0 .5-5.5-2-4.5-2 .8-2.5 3.667-2.5 5Z"/><path fill="#fff" d="M19.38 17h4.24c.201 0 .38-.172.38-.417v-4.166c0-.22-.156-.417-.38-.417h-4.24c-.201 0-.38.172-.38.417v4.166c0 .245.156.417.38.417Zm-3-7h4.24c.201 0 .38-.196.38-.417V5.417c0-.22-.156-.417-.38-.417h-4.24c-.201 0-.38.172-.38.417v4.166c.022.22.179.417.38.417Zm-4 7h4.24c.201 0 .38-.196.38-.417v-4.166c0-.22-.156-.417-.38-.417h-4.24c-.201 0-.38.172-.38.417v4.166c0 .22.156.417.38.417Zm-7 0h4.24c.201 0 .38-.196.38-.417v-4.166c0-.22-.156-.417-.38-.417H5.38c-.201 0-.38.172-.38.417v4.166c0 .22.156.417.38.417Z"/></svg>