<svg xmlns="http://www.w3.org/2000/svg" width="36" height="36" fill="none" viewBox="0 0 36 36"><path fill="#041B7A" d="M0 4a4 4 0 0 1 4-4h28a4 4 0 0 1 4 4v28a4 4 0 0 1-4 4H4a4 4 0 0 1-4-4V4Z"/><path fill="#fff" d="M15.244 8.691a7.65 7.65 0 0 1 1.27-.174c4.298-.23 7.968 3.127 8.192 7.497a8.006 8.006 0 0 1-.99 4.27c3.034-1.096 5.09-4.088 4.914-7.504-.213-4.158-3.712-7.36-7.802-7.14-2.237.12-4.281 1.269-5.584 3.051Z"/><path fill="#fff" fill-opacity=".3" d="m7.798 32.985-.154-.146c-1.077-1.032-1.91-2.226-2.413-3.636-.141-.395-.248-.798-.229-1.223.002-.04.002-.08.005-.12.038-.55.406-.827.943-.697.17.044.334.107.49.187.587.294 1.067.73 1.507 1.206a9.58 9.58 0 0 1 1.887 2.92c.006.01.02.018.048.044a15.075 15.075 0 0 1 6.914-2.117c-.015-.074-.024-.131-.038-.187a9.556 9.556 0 0 1-.226-3.147 7.144 7.144 0 0 1 .379-1.853c.1-.315.26-.609.467-.866.079-.092.17-.173.27-.24a.6.6 0 0 1 .686-.005c.213.144.385.342.498.573.21.392.362.813.45 1.25.198.923.26 1.87.18 2.81a8.123 8.123 0 0 1-.297 1.695c.607.112 1.212.199 1.804.339a16.06 16.06 0 0 1 1.745.511c.576.211 1.139.455 1.687.73.541.27 1.057.59 1.597.897.018-.037.043-.08.06-.128a9.253 9.253 0 0 1 2.808-3.982 3.22 3.22 0 0 1 1.009-.585c.102-.036.207-.06.314-.073.534-.06.759.275.798.676.03.295.008.594-.066.881a7.476 7.476 0 0 1-.915 2.103c-.58.934-1.268 1.775-2.142 2.454-.026.02-.048.044-.092.085a15.104 15.104 0 0 1 2.27 2.63.951.951 0 0 1-.145.025c-.904 0-1.808-.002-2.712.003a.342.342 0 0 1-.271-.143 12.629 12.629 0 0 0-10.11-4.063A12.51 12.51 0 0 0 9.762 34.5c-.52.409-1.004.86-1.448 1.35a.404.404 0 0 1-.33.149c-.864-.006-1.728-.003-2.591-.003h-.184c.053-.205.584-.932 1.185-1.58.448-.483.923-.943 1.405-1.432Z"/></svg>