<svg xmlns="http://www.w3.org/2000/svg" width="36" height="36" fill="none" viewBox="0 0 36 36"><g clip-path="url(#a)"><path fill="#326CE5" d="M0 4a4 4 0 0 1 4-4h28a4 4 0 0 1 4 4v28a4 4 0 0 1-4 4H4a4 4 0 0 1-4-4V4Z"/><path fill="#fff" d="M15.244 8.691a7.65 7.65 0 0 1 1.27-.174c4.298-.23 7.968 3.127 8.192 7.497a8.006 8.006 0 0 1-.99 4.27c3.034-1.096 5.09-4.088 4.914-7.504-.213-4.158-3.712-7.36-7.802-7.14-2.237.12-4.281 1.269-5.584 3.051Z"/><path fill="#fff" fill-opacity=".15" d="M18.498-7c-.768 0-1.39.694-1.39 1.55 0 .013.002.025.003.038-.001.117-.007.257-.003.358.018.494.125.871.19 1.326.117.973.215 1.78.155 2.53-.06.283-.267.542-.452.721l-.033.59a18.15 18.15 0 0 0-2.514.388 17.879 17.879 0 0 0-9.088 5.206 23.28 23.28 0 0 1-.502-.358c-.248.034-.5.11-.826-.08-.623-.42-1.19-1-1.875-1.699-.315-.334-.542-.652-.916-.974-.085-.073-.214-.172-.309-.248a1.651 1.651 0 0 0-.969-.366 1.338 1.338 0 0 0-1.108.491c-.479.603-.326 1.523.342 2.057l.02.015c.092.074.204.17.289.232.396.293.758.444 1.153.677.832.515 1.521.942 2.068 1.457.214.228.251.63.28.804l.445.4A18.087 18.087 0 0 0 .62 20.696l-.582.17c-.154.199-.37.512-.598.605-.715.226-1.52.31-2.493.411-.456.038-.85.016-1.334.108-.107.02-.255.059-.372.086l-.012.003-.02.006c-.82.199-1.347.954-1.177 1.699.17.744.97 1.197 1.795 1.019.006-.002.014-.002.02-.003.01-.002.018-.007.027-.01.115-.024.26-.053.36-.08.476-.127.82-.315 1.248-.48.92-.33 1.682-.607 2.425-.715.31-.024.637.192.8.284l.606-.105a18.14 18.14 0 0 0 8.02 10.043l-.252.608c.091.236.191.555.124.788-.27.702-.733 1.443-1.26 2.27-.254.381-.515.677-.745 1.114-.055.104-.125.265-.179.375-.357.767-.095 1.65.592 1.982.69.334 1.548-.018 1.92-.787l.003-.003v-.003c.052-.109.127-.252.172-.354.197-.453.263-.84.401-1.279.368-.927.57-1.9 1.077-2.505.139-.166.365-.23.6-.293l.314-.572a17.923 17.923 0 0 0 12.836.033c.088.157.253.46.297.536.238.078.498.118.71.432.379.65.638 1.418.954 2.346.138.437.207.825.404 1.278.045.103.12.248.172.357.37.771 1.231 1.124 1.923.79.687-.331.95-1.215.591-1.982-.053-.11-.126-.27-.18-.375-.23-.437-.492-.73-.747-1.111-.526-.826-.963-1.513-1.233-2.215-.113-.362.02-.587.107-.822-.053-.06-.165-.403-.232-.563 3.848-2.278 6.685-5.915 8.018-10.115.18.029.493.084.595.105.209-.139.401-.32.778-.29.743.108 1.505.385 2.425.716.428.164.772.355 1.248.483.1.027.245.052.36.077.01.002.017.007.027.009l.02.003c.825.178 1.626-.274 1.795-1.02.17-.744-.357-1.5-1.177-1.698-.119-.027-.288-.073-.404-.095-.484-.092-.877-.07-1.334-.107-.972-.103-1.778-.186-2.493-.412-.292-.113-.5-.461-.6-.605l-.562-.163a18.058 18.058 0 0 0-.292-6.512 18.078 18.078 0 0 0-2.606-6.04c.144-.132.416-.373.493-.444.023-.25.004-.513.262-.79.547-.515 1.237-.942 2.068-1.457.395-.233.76-.383 1.156-.677.09-.066.212-.171.306-.247.668-.534.821-1.454.342-2.056-.479-.602-1.407-.66-2.074-.125-.095.075-.224.173-.31.247-.373.322-.603.64-.917.974-.686.699-1.253 1.282-1.876 1.702-.27.157-.664.103-.844.092l-.529.379C28.561 2.544 24.454.516 20.032.122a33.365 33.365 0 0 1-.033-.623c-.18-.173-.4-.322-.454-.697-.06-.75.04-1.557.157-2.53.065-.455.172-.832.19-1.326.005-.112-.002-.275-.003-.396 0-.856-.622-1.55-1.39-1.55Zm-1.74 10.817-.414 7.316-.03.015a1.228 1.228 0 0 1-1.946.942l-.012.006-5.982-4.253a14.316 14.316 0 0 1 6.9-3.77c.495-.112.99-.196 1.483-.256Zm3.485 0c3.164.39 6.09 1.827 8.333 4.03l-5.944 4.225-.02-.009a1.225 1.225 0 0 1-1.95-.939l-.006-.003-.413-7.304Zm-14.039 6.76 5.462 4.898-.006.03a1.23 1.23 0 0 1-.481 2.113l-.006.024-7.001 2.026a14.396 14.396 0 0 1 2.032-9.092Zm24.55.002a14.564 14.564 0 0 1 1.792 4.39 14.56 14.56 0 0 1 .303 4.675l-7.037-2.032-.006-.03a1.23 1.23 0 0 1-.481-2.113l-.003-.014 5.432-4.876Zm-13.376 5.275h2.238l1.39 1.743-.498 2.175-2.01.969-2.014-.971-.5-2.176 1.394-1.74Zm7.174 5.966c.095-.005.19.004.282.02l.012-.014 7.243 1.227a14.376 14.376 0 0 1-5.798 7.305l-2.812-6.81.01-.012a1.232 1.232 0 0 1 1.063-1.716Zm-12.163.03a1.227 1.227 0 0 1 1.108 1.713l.02.027-2.78 6.74a14.434 14.434 0 0 1-5.78-7.253l7.179-1.221.012.014a1.31 1.31 0 0 1 .24-.02Zm6.065 2.953a1.21 1.21 0 0 1 .573.122c.244.117.432.303.55.524h.027l3.54 6.413c-.46.155-.932.287-1.415.397-2.707.616-5.405.43-7.849-.405l3.53-6.402h.007a1.227 1.227 0 0 1 1.037-.65Z"/></g><defs><clipPath id="a"><path fill="#fff" d="M0 4a4 4 0 0 1 4-4h28a4 4 0 0 1 4 4v28a4 4 0 0 1-4 4H4a4 4 0 0 1-4-4V4Z"/></clipPath></defs></svg>