<svg xmlns="http://www.w3.org/2000/svg" width="36" height="36" fill="none" viewBox="0 0 36 36"><path fill="#3987CD" d="M0 4a4 4 0 0 1 4-4h28a4 4 0 0 1 4 4v28a4 4 0 0 1-4 4H4a4 4 0 0 1-4-4V4Z"/><path fill="#fff" d="M18.5 7s5.938 2.3 5.938 11.5c0 3.565-.891 6.613-1.984 9.005-.392.828-1.235 1.345-2.173 1.345H16.72c-.938 0-1.782-.518-2.173-1.346-1.081-2.392-1.983-5.439-1.983-9.004C12.563 9.3 18.5 7 18.5 7Zm0 11.5c1.306 0 2.375-1.035 2.375-2.3s-1.069-2.3-2.375-2.3-2.375 1.035-2.375 2.3 1.069 2.3 2.375 2.3Z"/><path fill="#fff" fill-opacity=".5" d="m28.5 30-4.584-1.782a23.337 23.337 0 0 0 1.793-5.428L28.5 30Zm-15.416-1.782L8.5 30l2.79-7.21a23.328 23.328 0 0 0 1.794 5.428Z"/></svg>