<svg xmlns="http://www.w3.org/2000/svg" width="36" height="36" fill="none" viewBox="0 0 36 36"><path fill="#3987CD" d="M0 4a4 4 0 0 1 4-4h28a4 4 0 0 1 4 4v28a4 4 0 0 1-4 4H4a4 4 0 0 1-4-4V4Z"/><path fill="#fff" fill-rule="evenodd" d="M26 15.423v.064l-1.811 9.735c-.24 1.27-.558 1.778-1.772 1.778h-.537c-1.075 0-1.632-.55-1.89-1.65l-1.573-6.477c-.02-.085-.02-.106-.06-.106-.04 0-.04.021-.06.106l-1.572 6.476c-.259 1.1-.816 1.651-1.89 1.651h-.538c-1.214 0-1.533-.508-1.772-1.778l-.516-2.909c-.031.137.02-.047.153-.553l.199-.76.918-3.506h.444l.932 6.84c.02.19.06.296.1.296.04 0 .099-.085.139-.297l1.652-7.11c.199-.826.438-.91 1.114-.91h1.394c.676 0 .915.084 1.114.91l1.652 7.11c.04.212.1.297.14.297.04 0 .08-.106.1-.297l1.253-8.952c.02-.19.16-.381.358-.381h1.93c.22 0 .399.19.399.423ZM11 23.42C11 25.15 9.819 27 6.069 27c-1.407 0-2.419-.12-3.319-.308-.188-.035-.356-.154-.356-.343v-1.233c0-.189.168-.325.356-.325h.038c.75.085 2.624.17 3.318.17 1.669 0 2.175-.547 2.175-1.54 0-.669-.356-1.011-1.594-1.68L4.213 20.39C2.469 19.447 2 18.453 2 17.254 2 15.37 3.2 14 6.688 14c1.237 0 2.962.171 3.6.308.187.035.337.155.337.326V15.9a.306.306 0 0 1-.319.308h-.037a44.782 44.782 0 0 0-3.694-.17c-1.388 0-1.969.444-1.969 1.215 0 .566.319.908 1.538 1.525l2.25 1.147C10.456 20.971 11 22.067 11 23.42Z" clip-rule="evenodd"/><path fill="#fff" fill-opacity=".6" d="M20.62 10.449a7.65 7.65 0 0 1 1.27-.175c4.3-.23 7.969 3.128 8.193 7.497a8.005 8.005 0 0 1-.99 4.27c3.034-1.096 5.089-4.088 4.914-7.503-.213-4.158-3.712-7.36-7.802-7.14-2.237.12-4.281 1.268-5.584 3.05Z"/></svg>