<svg xmlns="http://www.w3.org/2000/svg" width="36" height="36" fill="none" viewBox="0 0 36 36"><g clip-path="url(#a)"><path fill="#3987CD" d="M0 4a4 4 0 0 1 4-4h28a4 4 0 0 1 4 4v28a4 4 0 0 1-4 4H4a4 4 0 0 1-4-4V4Z"/><path fill="#fff" fill-opacity=".5" fill-rule="evenodd" d="M9.188 30h4.874c0-9.872-7.639-17.875-17.062-17.875v5.107c6.731 0 12.188 5.716 12.188 12.768Z" clip-rule="evenodd"/><path fill="#fff" fill-rule="evenodd" d="M26.25 17.232v-5.107c-9.423 0-17.063 8.003-17.063 17.875h4.876c0-7.052 5.456-12.768 12.187-12.768Z" clip-rule="evenodd"/><path fill="#fff" d="m33 14.5-7.5 6.495V8.005L33 14.5Z"/></g><defs><clipPath id="a"><path fill="#fff" d="M0 4a4 4 0 0 1 4-4h28a4 4 0 0 1 4 4v28a4 4 0 0 1-4 4H4a4 4 0 0 1-4-4V4Z"/></clipPath></defs></svg>