<svg width="36" height="36" viewBox="0 0 36 36" fill="none" xmlns="http://www.w3.org/2000/svg">
<g clip-path="url(#clip0_248_719)">
<path d="M0 4C0 1.79086 1.79086 0 4 0H32C34.2091 0 36 1.79086 36 4V32C36 34.2091 34.2091 36 32 36H4C1.79086 36 0 34.2091 0 32V4Z" fill="#3987CD"/>
<path fill-rule="evenodd" clip-rule="evenodd" d="M9.1875 30H14.0625C14.0625 20.1279 6.42336 12.125 -3 12.125V17.2321C3.73097 17.2321 9.1875 22.9485 9.1875 30Z" fill="white" fill-opacity="0.5"/>
<path fill-rule="evenodd" clip-rule="evenodd" d="M26.25 17.2321V12.125C16.8266 12.125 9.1875 20.1279 9.1875 30H14.0625C14.0625 22.9485 19.519 17.2321 26.25 17.2321Z" fill="white"/>
<path d="M33 14.5L25.5 20.9952L25.5 8.00481L33 14.5Z" fill="white"/>
</g>
<defs>
<clipPath id="clip0_248_719">
<path d="M0 4C0 1.79086 1.79086 0 4 0H32C34.2091 0 36 1.79086 36 4V32C36 34.2091 34.2091 36 32 36H4C1.79086 36 0 34.2091 0 32V4Z" fill="white"/>
</clipPath>
</defs>
</svg>
