<svg xmlns="http://www.w3.org/2000/svg" width="36" height="36" fill="none" viewBox="0 0 36 36"><path fill="#3987CD" d="M0 4a4 4 0 0 1 4-4h28a4 4 0 0 1 4 4v28a4 4 0 0 1-4 4H4a4 4 0 0 1-4-4V4Z"/><path fill="#fff" fill-opacity=".5" fill-rule="evenodd" d="M22.95 18c0 .748-.066 1.474-.154 2.2h3.681a8.715 8.715 0 0 1-.905 2.2h-3.205a17.23 17.23 0 0 1-1.496 3.875c-.9.312-1.865.481-2.871.481a8.745 8.745 0 0 1-2.885-.486c-.647-1.208-1.135-2.512-1.515-3.87h-3.172a8.705 8.705 0 0 1-.906-2.2h3.682a18.167 18.167 0 0 1-.154-2.2c0-.748.066-1.474.154-2.2H9.522c.203-.78.51-1.52.906-2.2H13.6c.38-1.358.868-2.662 1.515-3.87a8.743 8.743 0 0 1 2.878-.486c-.91 1.317-1.644 2.787-2.094 4.356h4.202c-.45-1.569-1.184-3.039-2.093-4.356 1.003 0 1.966.17 2.863.481a17.227 17.227 0 0 1 1.496 3.875h3.205c.396.68.703 1.42.905 2.2h-3.68c.087.726.153 1.452.153 2.2Zm-7.524 2.2h5.148c.1-.726.176-1.452.176-2.2 0-.748-.077-1.485-.176-2.2h-5.148a14.48 14.48 0 0 0-.176 2.2c0 .748.066 1.474.176 2.2Zm.473 2.2c.451 1.573 1.188 3.036 2.101 4.356.913-1.32 1.65-2.783 2.101-4.356H15.9Z" clip-rule="evenodd"/><path fill="#fff" fill-rule="evenodd" d="M26.8 18a8.8 8.8 0 1 1-17.6 0 8.8 8.8 0 0 1 17.6 0ZM7 18c0-6.05 4.917-11 11-11A11 11 0 1 1 7 18Z" clip-rule="evenodd"/></svg>