<svg xmlns="http://www.w3.org/2000/svg" width="36" height="36" fill="none" viewBox="0 0 36 36"><g clip-path="url(#a)"><path fill="#3987CD" d="M0 4a4 4 0 0 1 4-4h28a4 4 0 0 1 4 4v28a4 4 0 0 1-4 4H4a4 4 0 0 1-4-4V4Z"/><path stroke="#fff" stroke-linecap="round" stroke-linejoin="round" stroke-width="3" d="M21.95 12.05a7 7 0 1 1-9.9 9.9 7 7 0 0 1 9.9-9.9"/><path fill="#fff" fill-opacity=".5" d="M2.414 15.753A2 2 0 1 1-.414 18.58a2 2 0 0 1 2.828-2.828Zm7 0a2 2 0 1 1-2.828 2.828 2 2 0 0 1 2.828-2.828Zm7 0a2 2 0 1 1-2.828 2.828 2 2 0 0 1 2.828-2.828Zm7 0a2 2 0 1 1-2.828 2.828 2 2 0 0 1 2.828-2.828Zm7 0a2 2 0 1 1-2.828 2.828 2 2 0 0 1 2.828-2.828Zm7 0a2 2 0 1 1-2.828 2.828 2 2 0 0 1 2.828-2.828Z"/><path stroke="#fff" stroke-linecap="round" stroke-linejoin="round" stroke-width="3" d="m22 22 5.85 5.93"/></g><defs><clipPath id="a"><path fill="#fff" d="M0 4a4 4 0 0 1 4-4h28a4 4 0 0 1 4 4v28a4 4 0 0 1-4 4H4a4 4 0 0 1-4-4V4Z"/></clipPath></defs></svg>