<svg xmlns="http://www.w3.org/2000/svg" width="36" height="36" fill="none" viewBox="0 0 36 36"><path fill="#3987CD" d="M0 4a4 4 0 0 1 4-4h28a4 4 0 0 1 4 4v28a4 4 0 0 1-4 4H4a4 4 0 0 1-4-4V4Z"/><path fill="#fff" fill-rule="evenodd" d="M19.095 8.511a1.095 1.095 0 0 0-2.19 0v1.825H15.47c-.446 0-.882.117-1.269.336l-1.88 1.076a.365.365 0 0 1-.183.048h-3.26a1.095 1.095 0 1 0 0 2.19H9.5l-3.083 6.85a1.095 1.095 0 0 0 .225 1.223l.773-.774-.773.774v.001l.002.003.003.003.01.009.023.021.065.059a5.13 5.13 0 0 0 1.002.657c.919.448 1.93.675 2.953.663 1.284 0 2.271-.322 2.953-.663.358-.18.694-.4 1.002-.657l.065-.059.024-.021.008-.01.003-.002.002-.003-.772-.775.773.774a1.095 1.095 0 0 0 .225-1.224l-3.083-6.85h.236c.446 0 .882-.116 1.269-.335l1.882-1.076a.364.364 0 0 1 .18-.048h1.437v13.868h-3.65a1.095 1.095 0 1 0 0 2.19h9.49a1.095 1.095 0 0 0 0-2.19h-3.65V12.526h1.436c.064 0 .126.017.181.048l1.884 1.075c.385.221.821.337 1.267.337h.236l-3.083 6.85a1.096 1.096 0 0 0 .225 1.223l.774-.774-.774.774v.001l.003.003.003.003.008.009.024.021.066.059a5.13 5.13 0 0 0 1 .657 6.57 6.57 0 0 0 2.954.663c1.285 0 2.272-.322 2.953-.663.359-.18.695-.4 1.002-.657l.066-.059.014-.014.009-.007.009-.01.003-.002.001-.003-.772-.775.774.774a1.096 1.096 0 0 0 .224-1.224l-3.081-6.85h.623a1.095 1.095 0 1 0 0-2.189h-3.261a.365.365 0 0 1-.181-.048l-1.883-1.075a2.555 2.555 0 0 0-1.266-.337h-1.438V8.511Zm-10.3 12.375c.417.197 1.049.399 1.906.399s1.489-.202 1.905-.399l-1.905-4.233-1.905 4.233Zm14.6 0c.415.197 1.047.399 1.904.399s1.49-.202 1.905-.399L25.3 16.653l-1.905 4.233Z" clip-rule="evenodd"/></svg>