<svg xmlns="http://www.w3.org/2000/svg" width="38" height="41" fill="none" viewBox="0 0 38 41"><path fill="#0B2B40" d="M1 4a4 4 0 0 1 4-4h28a4 4 0 0 1 4 4v28a4 4 0 0 1-4 4H5a4 4 0 0 1-4-4V4Z"/><g filter="url(#a)"><path fill="url(#b)" d="m32.887 17.652-1.182-.732c-.01-.115-.021-.23-.034-.345l1.016-.947a.41.41 0 0 0-.135-.678l-1.299-.486a10.027 10.027 0 0 0-.102-.336l.81-1.125a.407.407 0 0 0-.265-.64l-1.368-.221a11.372 11.372 0 0 0-.165-.308l.575-1.263a.409.409 0 0 0-.385-.575l-1.39.048a7.856 7.856 0 0 0-.22-.266l.32-1.353a.408.408 0 0 0-.49-.49l-1.353.32a16.175 16.175 0 0 0-.267-.22l.049-1.39a.404.404 0 0 0-.575-.385l-1.263.576a15.25 15.25 0 0 0-.308-.165l-.223-1.37a.409.409 0 0 0-.64-.265l-1.125.81a9.932 9.932 0 0 0-.335-.101l-.486-1.299a.408.408 0 0 0-.678-.135l-.947 1.017c-.115-.013-.23-.024-.345-.033l-.731-1.183a.406.406 0 0 0-.692 0l-.732 1.183c-.115.01-.23.021-.344.033l-.948-1.017a.407.407 0 0 0-.678.135l-.486 1.299c-.113.032-.223.067-.335.101l-1.125-.81a.409.409 0 0 0-.64.265l-.223 1.37a9.059 9.059 0 0 0-.307.165l-1.263-.576a.406.406 0 0 0-.575.385l.049 1.39c-.09.071-.18.145-.267.22l-1.353-.32a.407.407 0 0 0-.49.49l.319 1.353c-.074.088-.148.177-.22.266l-1.389-.048a.406.406 0 0 0-.385.575l.576 1.263a12.8 12.8 0 0 0-.165.308l-1.368.222a.409.409 0 0 0-.265.64l.81 1.124c-.036.112-.069.223-.102.335l-1.299.487a.41.41 0 0 0-.135.678l1.016.947c-.013.115-.024.23-.034.345l-1.182.732a.404.404 0 0 0 0 .691l1.182.732c.01.116.022.23.034.345l-1.016.948a.406.406 0 0 0 .135.679l1.299.486c.032.113.066.224.102.335l-.81 1.125a.405.405 0 0 0 .266.64l1.368.222c.054.103.108.205.166.307l-.577 1.264a.407.407 0 0 0 .385.575l1.389-.05c.072.091.145.18.22.268l-.319 1.355a.406.406 0 0 0 .49.488l1.353-.318a9.4 9.4 0 0 0 .267.218L11 29.352a.404.404 0 0 0 .575.385l1.263-.575c.102.057.204.111.308.165l.223 1.369a.408.408 0 0 0 .64.266l1.124-.81c.112.035.222.07.335.102l.486 1.298a.405.405 0 0 0 .678.136l.948-1.016c.114.013.23.024.345.034l.732 1.183a.408.408 0 0 0 .69 0l.733-1.183c.115-.01.23-.021.344-.034l.947 1.016a.408.408 0 0 0 .678-.136l.486-1.298c.113-.033.225-.067.335-.103l1.125.81a.405.405 0 0 0 .639-.265l.223-1.37c.104-.053.206-.109.308-.165l1.263.576a.408.408 0 0 0 .575-.384l-.049-1.39c.09-.072.18-.144.266-.22l1.353.32a.406.406 0 0 0 .49-.489l-.319-1.355c.074-.088.148-.177.219-.267l1.39.049a.403.403 0 0 0 .384-.576l-.574-1.263c.055-.102.111-.204.165-.307l1.368-.223a.409.409 0 0 0 .265-.639l-.81-1.125.102-.335 1.299-.486a.407.407 0 0 0 .135-.679l-1.016-.948c.012-.114.024-.23.033-.345l1.183-.732a.404.404 0 0 0 0-.691Zm-7.91 9.807a.838.838 0 1 1 .325.005.836.836 0 0 1-.327-.005h.001Zm-.402-2.717a.761.761 0 0 0-.905.587l-.42 1.959a10.24 10.24 0 0 1-4.247.915 10.25 10.25 0 0 1-4.335-.956l-.42-1.958a.759.759 0 0 0-.905-.586l-1.728.37c-.322-.33-.62-.682-.894-1.053h8.41c.096 0 .16-.017.16-.104V20.94c0-.087-.063-.104-.16-.104h-2.46V18.95h2.662c.242 0 1.298.07 1.635 1.42.106.414.338 1.765.497 2.198.158.484.802 1.453 1.488 1.453h4.191a.872.872 0 0 0 .152-.016c-.29.395-.609.769-.952 1.118l-1.77-.38Zm-11.633 2.676a.836.836 0 0 1-1-.97.838.838 0 1 1 1 .97ZM9.75 14.475a.838.838 0 1 1-1.51.728.838.838 0 0 1 1.51-.728Zm-.98 2.326 1.8-.801a.763.763 0 0 0 .388-1.008l-.37-.839h1.458v6.576H9.105a10.303 10.303 0 0 1-.333-3.93l-.001.002Zm7.902-.638v-1.938h3.473c.18 0 1.267.208 1.267 1.02 0 .675-.834.918-1.52.918h-3.22Zm12.623 1.744c0 .257-.01.512-.029.764H28.21c-.106 0-.148.07-.148.174v.485c0 1.142-.644 1.39-1.209 1.453-.537.06-1.132-.225-1.205-.554-.318-1.782-.845-2.164-1.679-2.82 1.035-.658 2.111-1.628 2.111-2.925 0-1.401-.96-2.284-1.616-2.718-.918-.606-1.935-.727-2.209-.727h-10.92a10.284 10.284 0 0 1 5.757-3.251l1.288 1.35a.76.76 0 0 0 1.078.026l1.44-1.379a10.295 10.295 0 0 1 7.045 5.02l-.986 2.228a.765.765 0 0 0 .387 1.007l1.898.844c.034.338.05.677.05 1.023h.003ZM18.382 6.64a.837.837 0 1 1 1.155 1.21.837.837 0 0 1-1.155-1.21Zm9.785 7.876a.834.834 0 0 1 1.471-.108.838.838 0 1 1-1.472.109l.001-.001Z" shape-rendering="crispEdges"/></g><path fill="#fff" d="M18.14 7.449a7.687 7.687 0 0 1 1.27-.175c4.3-.23 7.968 3.128 8.192 7.498a8.005 8.005 0 0 1-.99 4.269c3.035-1.096 5.09-4.088 4.915-7.503-.213-4.158-3.712-7.36-7.803-7.14-2.236.12-4.28 1.268-5.583 3.05Z" opacity=".9"/><defs><linearGradient id="b" x1="4.919" x2="33.081" y1="32.08" y2="3.919" gradientUnits="userSpaceOnUse"><stop stop-color="#fff" stop-opacity=".6"/><stop offset="1" stop-color="#fff" stop-opacity="0"/></linearGradient><filter id="a" width="36.161" height="36.161" x=".919" y="3.919" color-interpolation-filters="sRGB" filterUnits="userSpaceOnUse"><feFlood flood-opacity="0" result="BackgroundImageFix"/><feColorMatrix in="SourceAlpha" result="hardAlpha" values="0 0 0 0 0 0 0 0 0 0 0 0 0 0 0 0 0 0 127 0"/><feOffset dy="4"/><feGaussianBlur stdDeviation="2"/><feComposite in2="hardAlpha" operator="out"/><feColorMatrix values="0 0 0 0 0 0 0 0 0 0 0 0 0 0 0 0 0 0 0.25 0"/><feBlend in2="BackgroundImageFix" result="effect1_dropShadow_1024_3704"/><feBlend in="SourceGraphic" in2="effect1_dropShadow_1024_3704" result="shape"/></filter></defs></svg>