<svg xmlns="http://www.w3.org/2000/svg" xml:space="preserve" style="enable-background:new 0 0 131 40" viewBox="0 0 131 40"><path d="M36.5 8.4s-4.3 5-12.9 6.1c0 0 4.2 1.2 7.5 0 4.4-1.5 5.4-6.1 5.4-6.1zm88.4 31.1.4-1.1h3v-1.5H126c-.5 0-.9-.4-.9-.9v-1.7c0-.5.4-.9.9-.9h3.8l-.4 1.1h-2.8V36h2.3c.5 0 .9.4.9.9v1.7c0 .5-.4.9-.9.9h-4zm-6.9 0 .4-1.1h3v-1.5h-2.3c-.5 0-.9-.4-.9-.9v-1.7c0-.5.4-.9.9-.9h3.8l-.4 1.1h-2.8V36h2.3c.5 0 .9.4.9.9v1.7c0 .5-.4.9-.9.9h-4zm-6.5 0v-6.2h4.5l-.4 1.1H113V36h2.5v.7H113v1.6h3l-.4 1.1h-4.1v.1zm-3.7 0-1.5-3.1h1.3v-1.9h-2.2v5h-1.5v-6.2h4.2c.5 0 .9.4.9.9V36c0 .4-.3.7-.7.7h-.4l.1.3 1.3 2.4h-1.5v.1zm-11.2 0v-6.2h4.1c.5 0 .9.4.9.9v2.2c0 .5-.4.9-.9.9H98v2.1h-1.4v.1zm1.5-3.2h2.1v-1.9h-2.1v1.9zm-5.2 3.2L92 37h-.6l-.9 2.4h-1.7l1-2.5c.1-.3.3-.4.5-.5l.9-.2-.9-.2c-.2-.1-.4-.2-.5-.6l-.9-2.2h1.6l.9 2.4h.6l.9-2.4h1.6l-.9 2.2c-.1.3-.3.5-.5.6l-.9.3.9.2c.2 0 .4.1.5.5l1 2.5h-1.7zm-10.6 0v-6.2h4.5l-.4 1.1h-2.6V36h2.5v.7h-2.5v1.6h3l-.4 1.1-4.1.1zm-8.6 0v-.9h1.4l-.9-3.8h-.8l-1.2 4.8h-1.6l1.7-6.2h3l1.7 6.2h-3.3v-.1zm-6.4 0v-5H65v5h-1.5v-6.2h4.3c.5 0 .9.4.9.9v5.3h-1.4zm-7.6 0v-6.2h1.5v6.2h-1.5zm-3.8 0V37h-2.3v2.5h-1.5v-6.2h1.5v2.5h2.3v-2.5h1.5v6.2h-1.5zm-9.5 0c-.5 0-.9-.4-.9-.9v-4.4c0-.5.4-.9.9-.9h3.5l-.4 1.1H47v3.9h2.9l-.4 1.1h-3.1v.1zm64-11.8v-2.4h8.3v-2.9h-6.6V20h15.8v2.4H121v2.9h8.6v2.4h-19.2zm19.2-12.8h-2.4v-2.2H123V16c0 .4.2.5.8.5h.9c.7 0 1.6-.1 1.8-.2.3-.1.4-.4.4-1.2l2.2.7c-.1 1.3-.3 1.8-.8 2.2-.6.4-1.5.5-4.1.5-2.9 0-3.5-.3-3.5-1.7v-4.2h-1.9c-.1 1.8-.6 3.1-1.5 4.1-.7.8-1.7 1.5-3 2.1-.6.3-1.2.5-2.4.8l-1.4-2c2.2-.4 3.3-.9 4.3-1.6 1.2-.9 1.5-1.5 1.7-3.3H113v2.9h-2.4v-5.1h8v-2h2.4v2h8.4l.2 4.4zm-23.7 10.5c0 .2.1.3.4.3.2 0 .3 0 .4-.2.1-.2.2-1.2.2-2.7v-1.6c.8.5 1 .6 1.9.9-.1 5.4-.3 5.9-2.8 5.9-1.8 0-2.3-.4-2.3-1.6V17h-2.2c0 4.3-.1 5.7-.5 7.4-.4 1.8-.9 2.6-2.2 4.2l-1.6-1.8c-.3.8-.9 1.1-2.6 1.1-.3 0-.5 0-1.1-.1l-.5-2.1c.6.2 1.3.2 1.9.2.3 0 .5-.1.5-.4v-6.2H95c-.4 0-.4 0-.6.1v5.2h-1.8v-5.1h-.4c-.3 0-.3 0-.5.1-.1 2.1-.3 4.2-.7 5.7-.3 1.2-.6 2.1-1.2 3.2L88 26.8c1-1.7 1.4-3.5 1.6-7-1 .1-1.4.2-1.4.2l-.2-2.2 1.7-.2v-3.3c0-2.1 0-2.9-.1-3.8H92c.3-.9.5-1.5.6-2.3l2.3.3c-.3.8-.5 1.3-.8 2h3v6.4l1-.1v2l-1 .2v6.9c0 .3 0 .5-.1.8 1.6-1.5 2.2-3.9 2.2-9.5 0-1.1 0-1.6-.1-2.3h6.6l.2 10.5zM91.8 12.6v4.9c2.2-.2 2.2-.2 3.6-.3v-4.6h-3.6zm1.8.4-1.4.8c.6 1.2.9 1.9 1.3 3.1l1.6-.8c-.6-1.2-.9-1.9-1.5-3.1zm10.2-1.8V8.4h-2.2v2.8h-3.8v2.3h10.6v-2.3h-4.6zM82.5 21.5l1 1.3c-.3.2-.5.3-.8.6-.7.6-2 1.5-3.1 2.1 1.8.4 4.4.7 6.2.7h1l-1 2.3c-3.7-.2-6.5-.8-9-1.8-2.8 1-5.4 1.5-9.3 1.8l-.9-2.1c2.8-.1 5.2-.4 7.6-1-1-.6-1.6-1-2.5-1.8-1.1.7-2 1.1-3.7 1.7l-1.3-1.8c1.8-.5 2.8-.9 4-1.6.8-.5 1.4-.8 1.9-1.3h-3v-8.9h5c.3-.4.3-.4.5-.8h-8v-2h19.1v2.2h-8.6c-.3.5-.2.4-.5.8h6.7v8.9h-8.3c-.5.5-.5.4-.8.7h7.8zm-10.6-7h9.5v-.8h-9.5v.8zm0 2.2h9.5v-.8h-9.5v.8zm0 2.3h9.5v-.8h-9.5v.8zm2.4 4.3c.9.6 1.5.9 2.7 1.4 1.2-.5 1.8-.7 2.8-1.4h-5.5zm-29.1-8.9c2.2-1.5 4.1-3.6 5.6-6.1l2.2.9c-.7 1.1-1.5 2.2-2.2 3.2v8h-2.2v-5.6c-.7.8-1.6 1.5-2.5 2.2l-.9-2.6zm.2 10.1h8.7v4.8h2.2v-4.8h8.8v-2.2h-8.8V20h-2.2v2.3h-8.7v2.2zm6.1-10 .8 2.1c1.2-.5 2.3-.9 3.3-1.3v1.5c-.1 2.1.9 3.1 2.9 3h3.1c1.8.1 2.8-.6 3.1-2.1.2-.8.3-1.7.5-2.7l-2.2-.8s-.3 1.8-.4 2.3c-.2.9-.8 1.3-1.7 1.2h-1.6c-1.1.1-1.5-.4-1.5-1.5v-2c2.4-1.2 4.6-2.5 6.6-3.9l-1.3-1.7c-1.8 1.3-3.5 2.4-5.2 3.2V8.6h-2.2V13c-1.3.4-2.7.9-4.2 1.5zM36.7 0c-1 5.8-2.5 8.4-7.9 10.3-3.8 1.3-7.6.8-10.4 2.1-2.8 1.3-2.8 4.7-2.4 7.5.7 5-2.5 5.9-3.3 6.1-1.3.3-3 .2-5.3-1.2-2.4-1.6-3.6-1.7-4.7-1.7S0 24 0 24c2.2.9 4.3 4.2 5.6 5.8.1.1.2.2.2.3-.4.1-.9.3-1.3.7-1.4 1.2-2.5 6 5.6 8 5.8 1.5 14.7.2 17.5-1C6.3 40.4 5 34.1 5.7 32.7c.4-.8 1.2-1 2-.9 2.8 2.1 5.9 2.7 7.8 2.8 4 .2 7.6-1.2 7.6-1.2C13 34.4 8.5 30 6.3 27.6 2.8 23.8 0 24 0 24c3.6-4.6 7.4-1.1 9.6-.5 2 .6 4.6.2 4-2.9-1.1-5.7.4-9.1 4-11 2.2-1.2 6.2-1.5 9.8-2.6 6.8-2 9.3-7 9.3-7zm-3.6 21.7s-3.6 3.9-13.2 2.6c0 0 3.8 2.3 7.6 1.9 4.1-.5 5.6-4.5 5.6-4.5zm2-6.4s-1.7 4.5-6.3 5.1c-3.2.4-6.1-.9-6.1-.9 7.1 0 12.4-4.2 12.4-4.2z" style="fill-rule:evenodd;clip-rule:evenodd;fill:#00469b"/></svg>