<?xml version="1.0" standalone="no"?><!DOCTYPE svg PUBLIC "-//W3C//DTD SVG 1.1//EN" "http://www.w3.org/Graphics/SVG/1.1/DTD/svg11.dtd"><svg t="1543670901687" class="icon" style="" viewBox="0 0 1024 1024" version="1.1" xmlns="http://www.w3.org/2000/svg" p-id="7809" xmlns:xlink="http://www.w3.org/1999/xlink" width="500" height="500"><defs><style type="text/css"></style></defs><path d="M958.2 532.6c0 246.8-200 446.8-446.8 446.8S64.6 779.4 64.6 532.6s200-446.8 446.8-446.8c246.7 0 446.8 200 446.8 446.8z m0 0" fill="#eee" p-id="7810" data-spm-anchor-id="a313x.7781069.0.i25" class=""></path><path d="M612.2 186.7c0 23.9-19.4 43.2-43.2 43.2-23.9 0-43.2-19.4-43.2-43.2 0-23.9 19.4-43.2 43.2-43.2 23.9-0.1 43.2 19.3 43.2 43.2z m0 0M396 532.6c0 15.9-12.9 28.8-28.8 28.8s-28.8-12.9-28.8-28.8 12.9-28.8 28.8-28.8 28.8 12.9 28.8 28.8z m0 0M194.2 748.8c0 15.9-12.9 28.8-28.8 28.8s-28.8-12.9-28.8-28.8 12.9-28.8 28.8-28.8 28.8 12.9 28.8 28.8z m0 0M684.3 388.5c0 15.9-12.9 28.8-28.8 28.8s-28.8-12.9-28.8-28.8 12.9-28.8 28.8-28.8c15.9-0.1 28.8 12.8 28.8 28.8z m0 0M453.7 864.1c0 23.9-19.4 43.2-43.2 43.2-23.9 0-43.2-19.4-43.2-43.2 0-23.9 19.4-43.2 43.2-43.2 23.8 0 43.2 19.3 43.2 43.2z m0 0M295.1 402.9c0 55.7-45.2 100.9-100.9 100.9S93.3 458.6 93.3 402.9 138.5 302 194.2 302s100.9 45.1 100.9 100.9z m0 0" fill="#F9FAFA" p-id="7811"></path><path d="M511.3 85.8c246.8 0 446.8 200 446.8 446.8s-200 446.8-446.8 446.8c0 0 323.7-555.9 0-893.6" fill="#F9FAFA" p-id="7812" data-spm-anchor-id="a313x.7781069.0.i27" class=""></path><path d="M569 243.7c-31.4 0-57-25.6-57-57s25.6-57 57-57 57 25.6 57 57-25.6 57-57 57z m0-86.5c-16.3 0-29.5 13.2-29.5 29.5s13.2 29.5 29.5 29.5 29.5-13.2 29.5-29.5-13.3-29.5-29.5-29.5z m0 0M367.2 575.2c-23.5 0-42.6-19.1-42.6-42.6s19.1-42.6 42.6-42.6 42.6 19.1 42.6 42.6-19.1 42.6-42.6 42.6z m0-57.7c-8.3 0-15.1 6.8-15.1 15.1s6.8 15.1 15.1 15.1 15.1-6.8 15.1-15.1-6.8-15.1-15.1-15.1z m0 0M410.4 921.1c-31.4 0-57-25.6-57-57s25.6-57 57-57 57 25.6 57 57-25.5 57-57 57z m0-86.5c-16.3 0-29.5 13.2-29.5 29.5s13.2 29.5 29.5 29.5 29.5-13.2 29.5-29.5-13.2-29.5-29.5-29.5z m0 0M713.1 834.6c-47.3 0-85.8-38.5-85.8-85.8s38.5-85.8 85.8-85.8 85.8 38.5 85.8 85.8-38.5 85.8-85.8 85.8z m0-144.1c-32.2 0-58.3 26.2-58.3 58.3 0 32.2 26.2 58.3 58.3 58.3 32.1 0 58.3-26.2 58.3-58.3 0-32.2-26.1-58.3-58.3-58.3z m0 0M655.5 431c-23.5 0-42.6-19.1-42.6-42.6s19.1-42.6 42.6-42.6 42.6 19.1 42.6 42.6-19.2 42.6-42.6 42.6z m0-57.6c-8.3 0-15.1 6.8-15.1 15.1s6.8 15.1 15.1 15.1 15.1-6.8 15.1-15.1c-0.1-8.4-6.8-15.1-15.1-15.1z m0 0" fill="#F9FAFA" p-id="7813" data-spm-anchor-id="a313x.7781069.0.i26" class="selected"></path><path d="M837.5 206.5c-87.1-87.2-203-135.1-326.2-135.1-123.2 0-239 48-326.1 135.1C98.1 293.6 50.1 409.4 50.1 532.6s48 239 135.1 326.1c87.1 87.1 202.9 135.1 326.1 135.1 80.9 0 160.5-21.2 230.1-61.4 67.6-39 124.6-94.9 165-161.7 43.3-71.6 66.1-154 66.1-238.1 0.1-123.2-47.9-239-135-326.1z m49.2 138.7c0 32.2-26.2 58.3-58.3 58.3-32.2 0-58.3-26.2-58.3-58.3 0-32.2 26.2-58.3 58.3-58.3 32.2 0 58.3 26.2 58.3 58.3z m-692.5-29.5c48.1 0 87.1 39.1 87.1 87.1 0 48.1-39.1 87.1-87.1 87.1s-87.1-39.1-87.1-87.1 39.1-87.1 87.1-87.1z m-43.9 433.1c0-8.3 6.8-15.1 15.1-15.1s15.1 6.8 15.1 15.1-6.8 15.1-15.1 15.1-15.1-6.8-15.1-15.1z m731.5 7c-37.8 62.7-91.3 115.1-154.7 151.6-65.3 37.7-139.9 57.6-215.8 57.6-115.5 0-224.1-45-305.8-126.6-14.8-14.8-28.4-30.5-40.7-47h0.6c23.5 0 42.6-19.1 42.6-42.6s-19.1-42.6-42.6-42.6c-17 0-31.8 10.1-38.6 24.6-31.3-60.5-47.9-128.1-47.9-198.2 0-29.7 3-58.9 8.8-87.4 16.9 42.3 58.2 72.3 106.5 72.3 63.2 0 114.6-51.4 114.6-114.6 0-63.2-51.4-114.6-114.6-114.6-16.5 0-32.1 3.5-46.3 9.8 16.5-25.4 35.7-49.3 57.6-71.2 81.7-81.7 190.3-126.6 305.8-126.6s224.1 45 305.8 126.6c11.2 11.2 21.6 22.8 31.4 34.9-6.4-1.5-13.1-2.4-20-2.4-47.3 0-85.8 38.5-85.8 85.8s38.5 85.8 85.8 85.8c39.6 0 73-26.9 82.8-63.4 21.3 51.6 32.5 107.5 32.5 165-0.1 78.9-21.5 156-62 223.2z m0 0" fill="#F9FAFA" p-id="7814" data-spm-anchor-id="a313x.7781069.0.i28" class="selected"></path><path d="M107.8 547.7h28.8v27.5h-28.8z" fill="#F9FAFA" p-id="7815"></path><path d="M396 330.8h28.8v28.8H396z" fill="#F9FAFA" p-id="7816"></path><path d="M698.7 216.1h28.8v27.5h-28.8z" fill="#F9FAFA" p-id="7817"></path><path d="M511.3 460.5h28.8v28.8h-28.8z" fill="#F9FAFA" p-id="7818"></path><path d="M698.7 533.3h28.8v27.5h-28.8zM857.3 475.6h28.8v27.5h-28.8zM857.3 648.6h28.8v27.5h-28.8z" fill="#F9FAFA" p-id="7819"></path><path d="M525.7 604.7h28.8v28.8h-28.8zM352.8 662.3h28.8v28.8h-28.8zM496.9 792h28.8v28.8h-28.8z" fill="#F9FAFA" p-id="7820"></path><path d="M597.8 879.2h28.8v27.5h-28.8z" fill="#F9FAFA" p-id="7821"></path><path d="M237.5 748.8h28.8v28.8h-28.8zM280.7 229.9h28.8v28.8h-28.8zM424.8 143.4h28.8v28.8h-28.8z" fill="#eee" p-id="7822"></path></svg>