<svg xmlns="http://www.w3.org/2000/svg" xmlns:xlink="http://www.w3.org/1999/xlink" version="1.1" baseProfile="full" width="896" height="550" style="user-select: none; position: absolute; left: 0px; top: 0px;">
<g>
<rect width="896" height="550" x="0" y="0" id="0" style="fill: transparent;">
</rect>
</g>
<g>
<path d="M 41.3584 469.5 L 881 469.5" fill="none" stroke="#E0E6F1" stroke-width="1" paint-order="fill" stroke-opacity="1" stroke-dasharray="" stroke-linecap="butt" stroke-miterlimit="10">
</path>
<path d="M 41.3584 391.5 L 881 391.5" fill="none" stroke="#E0E6F1" stroke-width="1" paint-order="fill" stroke-opacity="1" stroke-dasharray="" stroke-linecap="butt" stroke-miterlimit="10">
</path>
<path d="M 41.3584 313.5 L 881 313.5" fill="none" stroke="#E0E6F1" stroke-width="1" paint-order="fill" stroke-opacity="1" stroke-dasharray="" stroke-linecap="butt" stroke-miterlimit="10">
</path>
<path d="M 41.3584 235.5 L 881 235.5" fill="none" stroke="#E0E6F1" stroke-width="1" paint-order="fill" stroke-opacity="1" stroke-dasharray="" stroke-linecap="butt" stroke-miterlimit="10">
</path>
<path d="M 41.3584 158.5 L 881 158.5" fill="none" stroke="#E0E6F1" stroke-width="1" paint-order="fill" stroke-opacity="1" stroke-dasharray="" stroke-linecap="butt" stroke-miterlimit="10">
</path>
<path d="M 41.3584 80.5 L 881 80.5" fill="none" stroke="#E0E6F1" stroke-width="1" paint-order="fill" stroke-opacity="1" stroke-dasharray="" stroke-linecap="butt" stroke-miterlimit="10">
</path>
<path d="M 41.3584 469.5 L 881 469.5" fill="none" stroke="#6E7079" stroke-width="1" paint-order="fill" stroke-opacity="1" stroke-dasharray="" stroke-linecap="round" stroke-miterlimit="10">
</path>
<path d="M 63.5 469.2987 L 63.5 474.2987" fill="none" stroke="#6E7079" stroke-width="1" paint-order="fill" stroke-opacity="1" stroke-dasharray="" stroke-linecap="butt" stroke-miterlimit="10">
</path>
<path d="M 212.5 469.2987 L 212.5 474.2987" fill="none" stroke="#6E7079" stroke-width="1" paint-order="fill" stroke-opacity="1" stroke-dasharray="" stroke-linecap="butt" stroke-miterlimit="10">
</path>
<path d="M 360.5 469.2987 L 360.5 474.2987" fill="none" stroke="#6E7079" stroke-width="1" paint-order="fill" stroke-opacity="1" stroke-dasharray="" stroke-linecap="butt" stroke-miterlimit="10">
</path>
<path d="M 508.5 469.2987 L 508.5 474.2987" fill="none" stroke="#6E7079" stroke-width="1" paint-order="fill" stroke-opacity="1" stroke-dasharray="" stroke-linecap="butt" stroke-miterlimit="10">
</path>
<path d="M 657.5 469.2987 L 657.5 474.2987" fill="none" stroke="#6E7079" stroke-width="1" paint-order="fill" stroke-opacity="1" stroke-dasharray="" stroke-linecap="butt" stroke-miterlimit="10">
</path>
<path d="M 805.5 469.2987 L 805.5 474.2987" fill="none" stroke="#6E7079" stroke-width="1" paint-order="fill" stroke-opacity="1" stroke-dasharray="" stroke-linecap="butt" stroke-miterlimit="10">
</path>
<text xml:space="preserve" fill="#6E7079" fill-opacity="1" stroke="none" transform="matrix(1,0,0,1,33.3584,469.2987)" dominant-baseline="central" text-anchor="end" x="0" y="0" style="font: 14px sans-serif;">0</text>
<text xml:space="preserve" fill="#6E7079" fill-opacity="1" stroke="none" transform="matrix(1,0,0,1,33.3584,391.4389)" dominant-baseline="central" text-anchor="end" x="0" y="0" style="font: 14px sans-serif;">100</text>
<text xml:space="preserve" fill="#6E7079" fill-opacity="1" stroke="none" transform="matrix(1,0,0,1,33.3584,313.5792)" dominant-baseline="central" text-anchor="end" x="0" y="0" style="font: 14px sans-serif;">200</text>
<text xml:space="preserve" fill="#6E7079" fill-opacity="1" stroke="none" transform="matrix(1,0,0,1,33.3584,235.7195)" dominant-baseline="central" text-anchor="end" x="0" y="0" style="font: 14px sans-serif;">300</text>
<text xml:space="preserve" fill="#6E7079" fill-opacity="1" stroke="none" transform="matrix(1,0,0,1,33.3584,157.8597)" dominant-baseline="central" text-anchor="end" x="0" y="0" style="font: 14px sans-serif;">400</text>
<text xml:space="preserve" fill="#6E7079" fill-opacity="1" stroke="none" transform="matrix(1,0,0,1,33.3584,80)" dominant-baseline="central" text-anchor="end" x="0" y="0" style="font: 14px sans-serif;">500</text>
<text xml:space="preserve" fill="#6E7079" fill-opacity="1" stroke="none" transform="matrix(0.707,-0.707,0.707,0.707,63.6283,477.2987)" dominant-baseline="central" text-anchor="end" x="0" y="0" style="font: 14px sans-serif;">2016</text>
<text xml:space="preserve" fill="#6E7079" fill-opacity="1" stroke="none" transform="matrix(0.707,-0.707,0.707,0.707,212.2193,477.2987)" dominant-baseline="central" text-anchor="end" x="0" y="0" style="font: 14px sans-serif;">2017</text>
<text xml:space="preserve" fill="#6E7079" fill-opacity="1" stroke="none" transform="matrix(0.707,-0.707,0.707,0.707,360.4043,477.2987)" dominant-baseline="central" text-anchor="end" x="0" y="0" style="font: 14px sans-serif;">2018</text>
<text xml:space="preserve" fill="#6E7079" fill-opacity="1" stroke="none" transform="matrix(0.707,-0.707,0.707,0.707,508.5893,477.2987)" dominant-baseline="central" text-anchor="end" x="0" y="0" style="font: 14px sans-serif;">2019</text>
<text xml:space="preserve" fill="#6E7079" fill-opacity="1" stroke="none" transform="matrix(0.707,-0.707,0.707,0.707,656.7743,477.2987)" dominant-baseline="central" text-anchor="end" x="0" y="0" style="font: 14px sans-serif;">2020</text>
<text xml:space="preserve" fill="#6E7079" fill-opacity="1" stroke="none" transform="matrix(0.707,-0.707,0.707,0.707,805.3652,477.2987)" dominant-baseline="central" text-anchor="end" x="0" y="0" style="font: 14px sans-serif;">2021</text>
<g clip-path="url(#zr2608-clip-1)">
<path d="M 41.3584 467.7415 C 41.3584 467.7415 41.3621 466.2053 42.2465 466.1843 C 74.9491 465.4057 75.3923 465.9465 108.5324 465.4057 C 123.1042 465.1679 123.1002 464.9709 137.6702 464.6271 C 156.0965 464.1923 156.1003 464.3335 174.525 463.8485 C 185.68 463.5549 185.7013 463.707 196.8297 463.0699 C 199.3019 462.9284 199.2917 462.751 201.7263 462.2913 C 203.415 461.9724 203.3623 461.5999 205.0763 461.5127 C 218.6659 460.8213 218.707 461.1839 232.3337 460.7341 C 242.2935 460.4053 242.3299 460.6225 252.2493 459.9555 C 253.9089 459.8439 253.8656 459.5445 255.4919 459.1769 C 257.3105 458.7659 257.2796 458.4867 259.139 458.3983 C 273.6642 457.7081 273.6999 458.0026 288.2611 457.6197 C 303.3102 457.224 306.5824 457.5985 318.3596 456.8411 C 318.6905 456.8198 318.5178 456.4486 318.6905 456.0625 C 318.866 455.67 318.6905 455.4096 319.0558 455.2839 C 322.0857 454.2417 322.6538 454.7318 326.0161 453.7267 C 326.561 453.5639 326.3521 453.1745 326.8702 452.9481 C 328.1336 452.3959 328.1984 452.4374 329.579 452.1695 C 332.2108 451.6588 332.3639 452.036 334.8949 451.3909 C 335.4188 451.2574 335.1777 450.7876 335.6889 450.6123 C 337.4488 450.009 337.75 450.4677 339.437 449.8337 C 339.8219 449.6891 339.437 449.0915 339.8327 449.0551 C 347.9154 448.3129 348.7761 448.9199 357.6548 448.2766 C 359.5207 448.1413 359.5812 448.0828 361.3219 447.498 C 361.8987 447.3042 361.7407 446.9925 362.2899 446.7194 C 363.3065 446.2139 363.3689 446.3219 364.4535 445.9407 C 365.5845 445.5433 365.5765 445.5167 366.7213 445.1621 C 368.0905 444.7381 368.073 444.6346 369.4815 444.3835 C 372.4413 443.856 372.5701 444.2442 375.4577 443.6049 C 376.0869 443.4657 376.0479 443.2764 376.5152 442.8264 C 376.8563 442.4978 376.652 442.2263 377.0746 442.0478 C 378.4957 441.4477 378.6049 441.4463 380.2025 441.2692 C 385.6285 440.6677 385.7111 441.2059 391.1218 440.4906 C 394.5447 440.038 394.4647 439.5345 397.8698 438.9334 C 401.0803 438.3666 401.1512 438.7211 404.3529 438.1548 C 405.5527 437.9426 406.4391 437.9662 406.6726 437.3762 C 406.7473 437.1876 406.6726 436.9652 406.7473 436.5976 C 406.8307 436.1866 407.0265 436.2366 407.1454 435.819 C 407.47 434.6794 407.1454 433.986 407.6342 433.4832 C 408.3912 432.7046 409.47 433.1936 411.2466 432.7046 C 412.2985 432.415 412.3168 432.4059 413.2913 431.926 C 413.8978 431.6273 413.767 431.3401 414.4084 431.1474 C 416.3584 430.5615 416.5113 430.9401 418.4742 430.3688 C 419.1864 430.1615 419.1956 430.0652 419.7587 429.5902 C 420.1185 429.2867 420.1362 429.2497 420.32 428.8116 C 420.7894 427.6925 420.3782 427.3683 421.0651 426.4758 C 421.5768 425.811 421.8781 426.0562 422.7172 425.6972 C 423.698 425.2776 423.6625 425.1173 424.7048 424.9186 C 427.747 424.3387 427.7942 424.5184 430.8863 424.14 C 434.1569 423.7398 434.1842 423.8893 437.4302 423.3614 C 438.9718 423.1107 439.1252 423.1925 440.4615 422.5828 C 440.8317 422.4139 440.4947 422.0172 440.8434 421.8042 C 441.7695 421.2386 441.9701 421.5027 443.0111 421.0256 C 443.6691 420.7241 443.5642 420.4919 444.2414 420.247 C 445.7176 419.7133 445.7888 419.8902 447.318 419.4684 C 448.6117 419.1116 448.9011 419.2834 449.8874 418.6898 C 450.1949 418.5048 449.8874 418.0694 450.1949 417.9113 C 451.4015 417.2908 451.958 417.7444 453.3857 417.1327 C 453.7751 416.9658 453.5381 416.6858 453.8291 416.3541 C 454.2211 415.9071 454.3614 416.0233 454.7517 415.5754 C 455.04 415.2447 454.965 415.1838 455.1863 414.7968 C 455.4104 414.4052 455.2688 414.2285 455.6425 414.0182 C 456.6527 413.4499 457.6506 414.0182 457.9542 413.2397 C 458.3448 412.2378 458.0119 411.6349 458.3448 410.1253 C 458.4412 409.6884 458.5183 409.6855 458.8127 409.3467 C 459.1947 408.9069 459.226 408.9188 459.6977 408.5681 C 460.2731 408.1402 460.3509 408.2369 460.9069 407.7895 C 461.3184 407.4583 461.1136 407.0671 461.6328 407.0109 C 468.3041 406.2885 468.6588 407.0109 475.2878 406.2323 C 476.625 406.0752 476.7099 405.5757 477.5654 404.6751 C 477.8193 404.4078 477.5654 404.0665 477.8193 403.8965 C 478.7283 403.2879 479.4655 403.8763 480.6456 403.1179 C 481.8886 402.3191 481.6793 401.9695 482.6654 400.7821 C 483.2958 400.023 483.1624 399.8902 483.8787 399.2249 C 484.839 398.333 485.55 398.6423 486.0187 397.6677 C 486.2989 397.0851 486.0187 396.3981 486.2989 396.1105 C 487.0574 395.3319 488.4836 395.9645 490.5107 395.3319 C 492.2263 394.7966 492.2334 394.6733 493.7842 393.7747 C 494.2489 393.5054 494.155 393.3774 494.5418 392.9961 C 494.9448 392.5988 495.0397 392.6654 495.3638 392.2175 C 495.6032 391.8868 495.3638 391.5526 495.6688 391.4389 C 497.4528 390.774 498.2293 391.3054 500.4981 390.6603 C 500.9678 390.5268 500.7794 390.2271 501.1456 389.8817 C 501.6052 389.4485 501.7199 389.5568 502.1498 389.1031 C 502.4577 388.7782 502.2381 388.5257 502.6212 388.3246 C 503.7208 387.7471 503.9452 388.1092 505.1152 387.546 C 507.1802 386.552 507.1483 386.4422 509.0912 385.2101 C 509.6038 384.885 509.47 384.6464 510.0262 384.4315 C 511.4859 383.8678 511.7463 384.2627 513.1231 383.653 C 513.5044 383.4841 513.3393 383.2671 513.5424 382.8744 C 513.7419 382.4885 513.5975 382.343 513.9283 382.0958 C 514.6391 381.5644 514.7384 381.6009 515.6257 381.3172 C 518.3912 380.433 518.394 380.3695 521.234 379.76 C 523.8357 379.2016 523.9255 379.5554 526.509 378.9814 C 527.4296 378.7768 527.7394 378.8341 528.2422 378.2028 C 528.6695 377.6662 528.3461 377.3686 528.6695 376.6456 C 528.8685 376.2007 529.0154 376.2804 529.287 375.867 C 529.527 375.5018 529.5176 375.4897 529.6928 375.0884 C 529.8575 374.7111 529.697 374.5945 529.9668 374.3098 C 530.4349 373.8159 530.7517 374.0702 531.1686 373.5312 C 531.655 372.9023 531.3937 372.7134 531.7734 371.974 C 532.1933 371.1562 532.2939 371.2088 532.7679 370.4168 C 532.9929 370.0409 532.9157 369.9927 533.1714 369.6382 C 534.0386 368.4356 534.258 368.5584 535.0135 367.3024 C 535.4289 366.6119 535.2375 366.5141 535.5133 365.7452 C 535.6565 365.3461 535.5359 365.2139 535.8515 364.9666 C 536.5295 364.4353 536.8058 364.7131 537.5005 364.188 C 537.8361 363.9345 537.7194 363.8051 537.9122 363.4094 C 538.0987 363.0265 537.9885 362.9518 538.2592 362.6308 C 538.9734 361.7839 538.8785 361.4783 539.8821 361.0736 C 541.7751 360.3104 542.0457 360.8788 544.0524 360.295 C 544.7219 360.1003 544.6757 359.9469 545.2345 359.5164 C 545.6864 359.1683 545.6927 359.1612 546.0738 358.7379 C 546.3936 358.3826 546.5185 358.4027 546.6364 357.9593 C 546.8289 357.2348 546.6364 356.9336 546.8289 356.4021 C 547.0595 355.7657 547.7571 356.1169 548.5386 355.6234 C 548.9904 355.3382 548.9731 355.2748 549.2956 354.8448 C 549.5571 354.4962 549.4543 354.4231 549.7067 354.0663 C 550.005 353.6445 550.1326 353.7233 550.3971 353.2877 C 550.6053 352.9447 550.5166 352.8956 550.652 352.5091 C 550.7894 352.117 550.6604 352.0055 550.9427 351.7305 C 551.4595 351.2269 551.6627 351.4189 552.2501 350.9519 C 552.642 350.6403 552.4462 350.3529 552.9013 350.1733 C 554.4192 349.5743 554.5781 349.8767 556.196 349.3947 C 557.1914 349.0981 557.1877 349.0588 558.1279 348.6161 C 558.8412 348.2802 559.3753 348.4913 559.5031 347.8375 C 559.7557 346.5448 559.5031 346.0492 559.7557 344.7231 C 559.8739 344.1027 560.3319 344.2468 560.9929 343.9445 C 562.0339 343.4682 562.1199 343.6519 563.1596 343.1659 C 564.6187 342.484 565.1573 342.6476 565.9905 341.6087 C 566.4061 341.0904 566.1683 340.8202 566.4061 340.0515 C 566.5296 339.6523 566.5025 339.6294 566.7131 339.2729 C 566.9625 338.8508 567.0078 338.8738 567.326 338.4943 C 567.6606 338.0952 567.7279 338.1418 568.0187 337.7157 C 568.2594 337.3632 568.0669 337.1903 568.389 336.9371 C 569.0574 336.4117 569.1567 336.4459 569.9997 336.1585 C 571.4407 335.6673 571.5 335.836 572.9571 335.3799 C 573.9875 335.0574 574.0593 335.126 574.9747 334.6013 C 575.4177 334.3474 575.3933 334.2611 575.6739 333.8227 C 576.3899 332.704 575.9343 332.0364 576.968 331.4869 C 578.4327 330.7083 578.856 331.2156 580.6708 330.7083 C 581.6416 330.437 581.6697 330.4224 582.5392 329.9297 C 583.0439 329.6438 582.9066 329.4194 583.4193 329.1512 C 584.3948 328.6408 584.4594 328.7391 585.5154 328.3726 C 586.7028 327.9605 586.9795 328.2875 587.9061 327.594 C 588.5398 327.1196 588.1565 326.7292 588.636 326.0368 C 588.9653 325.5613 589.0286 325.5708 589.5237 325.2581 C 590.2618 324.7921 590.2805 324.7862 591.1024 324.4796 C 592.3671 324.0076 593.3496 324.4403 593.6969 323.701 C 593.8982 323.2724 593.6969 322.6719 593.8982 322.1438 C 594.142 321.504 594.8138 321.8404 595.6335 321.3652 C 596.8284 320.6725 596.8146 320.6303 597.9274 319.808 C 598.3951 319.4624 598.4028 319.4563 598.7944 319.0294 C 599.117 318.6777 599.0951 318.653 599.3558 318.2508 C 599.5998 317.8744 599.4101 317.6322 599.8039 317.4722 C 601.3267 316.8536 601.716 317.4343 603.189 316.6936 C 604.0385 316.2664 603.7744 315.8722 604.449 315.1364 C 604.8452 314.7043 604.9386 314.79 605.3307 314.3578 C 605.645 314.0114 605.6171 313.9811 605.8619 313.5792 C 606.0914 313.2025 606.1016 313.2034 606.2794 312.8006 C 606.4452 312.4248 606.2794 312.216 606.5491 312.022 C 607.3622 311.4374 607.7665 311.7192 608.9073 311.2434 C 609.6333 310.9406 609.6131 310.8829 610.2827 310.4648 C 610.86 310.1043 610.7767 309.938 611.4009 309.6862 C 612.7068 309.1594 613.6948 309.5175 614.1429 308.9076 C 614.2669 308.7389 614.1456 308.4994 614.2669 308.129 C 614.4007 307.7208 614.324 307.6006 614.6532 307.3504 C 615.3485 306.822 615.6673 307.1611 616.3157 306.5718 C 616.9524 305.9932 616.4753 305.4306 617.2234 305.0146 C 619.2757 303.8734 619.622 304.3501 621.9164 303.4574 C 622.6237 303.1822 622.6738 303.1688 623.2269 302.6788 C 623.5527 302.3902 623.4313 302.2775 623.6743 301.9002 C 624.1835 301.1096 624.108 301.0302 624.7314 300.343 C 625.1676 299.8623 625.4619 300.0478 625.7935 299.5645 C 625.9961 299.2692 625.8226 299.1413 625.9961 298.7859 C 626.2027 298.3627 626.2565 298.382 626.5537 298.0073 C 626.874 297.6034 626.8506 297.5728 627.2312 297.2287 C 627.7118 296.7942 627.6646 296.6541 628.2762 296.4501 C 631.1661 295.4861 631.4025 295.8981 634.2342 294.8929 C 634.6923 294.7302 634.4966 294.454 634.8558 294.1143 C 635.3197 293.6754 635.3539 293.7048 635.8803 293.3357 C 636.4641 292.9262 636.5223 292.9997 637.0763 292.5571 C 637.4967 292.2211 637.653 292.2789 637.829 291.7785 C 638.6118 289.5538 638.3229 289.4082 638.9939 287.1069 C 639.1175 286.6831 639.1794 286.7006 639.4182 286.3283 C 639.6787 285.922 639.7449 285.9624 639.9924 285.5497 C 640.2118 285.1838 640.0347 285.0266 640.3519 284.7711 C 641.0013 284.248 641.1918 284.4602 641.9256 283.9925 C 642.4135 283.6816 642.269 283.4357 642.7953 283.2139 C 644.1161 282.6571 644.2412 282.9154 645.6198 282.4353 C 646.4772 282.1368 646.5347 282.1607 647.2672 281.6567 C 647.6662 281.3822 647.5328 281.2259 647.8828 280.8781 C 648.3162 280.4473 648.4662 280.5649 648.8341 280.0995 C 649.0817 279.7863 648.8341 279.5289 649.1137 279.3209 C 649.8809 278.7503 650.1713 278.9066 651.2459 278.5423 C 652.4681 278.128 652.6192 278.3377 653.7073 277.7637 C 654.0951 277.5591 653.7949 277.1557 654.1976 276.9851 C 655.6336 276.3771 656.0719 276.825 657.3847 276.2065 C 657.7247 276.0464 657.5348 275.8073 657.7247 275.4279 C 657.9245 275.0287 657.8813 274.9882 658.1641 274.6493 C 658.5311 274.2096 658.6881 274.3241 659.0242 273.8707 C 659.2654 273.5455 659.039 273.3722 659.3188 273.0921 C 659.8169 272.5936 659.9488 272.7019 660.58 272.3135 C 661.2142 271.9233 661.219 271.9308 661.8497 271.5349 C 662.4594 271.1522 662.4394 271.1186 663.0609 270.7563 C 663.7751 270.34 663.7252 270.1702 664.5211 269.9778 C 666.945 269.3916 667.1011 269.8126 669.5004 269.1992 C 670.1462 269.034 670.1179 268.8739 670.6113 268.4206 C 670.9653 268.0953 670.8791 268.0107 671.1953 267.642 C 671.5467 267.2321 671.5 267.154 671.9466 266.8634 C 672.6962 266.3754 672.9127 266.6152 673.5876 266.0848 C 673.9034 265.8366 673.7564 265.6948 673.928 265.3062 C 674.1002 264.9162 674.0215 264.8593 674.2752 264.5276 C 674.6169 264.0807 674.7661 264.1962 675.119 263.749 C 675.6876 263.0283 675.5591 262.9221 676.1182 262.1918 C 676.4532 261.7543 676.4495 261.7136 676.907 261.4132 C 677.6352 260.935 677.7712 261.1213 678.4897 260.6346 C 678.9206 260.3427 678.722 260.023 679.2057 259.856 C 680.9769 259.2444 681.1524 259.6123 682.9995 259.0774 C 683.841 258.8337 684.0033 258.8926 684.5829 258.2988 C 685.1432 257.7247 684.9781 257.5385 685.2793 256.7416 C 685.7138 255.592 685.2793 254.8314 686.0543 254.4058 C 687.472 253.6272 688.4212 254.2657 690.4887 253.6272 C 690.9423 253.4871 690.9313 253.298 691.0964 252.8486 C 691.3605 252.1301 691.2092 252.0663 691.3605 251.2914 C 691.5132 250.5091 691.4366 250.4728 691.7045 249.7342 C 691.8602 249.3049 691.8306 249.1915 692.2076 248.9556 C 693.075 248.4129 693.1561 248.3995 694.1933 248.177 C 696.7862 247.6209 696.957 248.0425 699.4679 247.3984 C 699.9922 247.2639 699.7567 246.8098 700.2638 246.6198 C 701.8352 246.0312 702.0093 246.3872 703.6249 245.8412 C 704.3132 245.6086 704.2112 245.378 704.8715 245.0626 C 705.8415 244.5994 705.9023 244.7253 706.8854 244.284 C 707.6371 243.9467 707.9008 244.0957 708.3411 243.5054 C 708.772 242.9278 708.4543 242.6764 708.772 241.9482 C 708.9639 241.5085 708.9929 241.4784 709.3602 241.1696 C 709.919 240.6999 709.9591 240.7147 710.6242 240.3911 C 711.5591 239.9361 711.6785 240.1278 712.5602 239.6125 C 713.0107 239.3492 712.7971 238.9914 713.2886 238.8339 C 715.227 238.2128 715.4741 238.672 717.4201 238.0553 C 717.9309 237.8934 717.8766 237.7128 718.2021 237.2767 C 718.4578 236.9342 718.3143 236.8278 718.5824 236.4981 C 718.9473 236.0492 718.9471 235.9732 719.4682 235.7195 C 720.5462 235.1946 720.9917 235.7107 721.7805 234.9409 C 722.5873 234.1535 722.1852 233.7575 722.6594 232.6051 C 722.8259 232.2003 722.7496 232.1222 723.0618 231.8265 C 723.9827 230.9543 724.1231 231.0824 725.1255 230.2693 C 725.5629 229.9146 725.4881 229.8197 725.9415 229.4907 C 726.5608 229.0412 726.5435 228.9395 727.271 228.7121 C 729.0344 228.1609 729.2265 228.5431 730.9234 227.9335 C 731.3938 227.7645 731.2687 227.5478 731.6057 227.1549 C 732.2704 226.3799 732.4564 226.4368 732.9268 225.5977 C 733.1111 225.2689 732.9456 225.1757 733.1111 224.8191 C 733.307 224.3971 733.4094 224.4468 733.6497 224.0405 C 733.8699 223.6682 733.8499 223.6554 734.032 223.2619 C 734.2102 222.8768 734.1102 222.8049 734.3704 222.4833 C 734.7403 222.0263 734.7654 221.9826 735.2922 221.7047 C 736.2412 221.204 736.6613 221.5928 737.322 220.9261 C 737.8187 220.4249 737.3281 219.9781 737.8187 219.3689 C 738.5821 218.4209 738.998 218.7344 739.8299 217.8117 C 740.402 217.1772 739.9407 216.7429 740.6266 216.2545 C 742.6747 214.7964 743.8002 215.4032 745.2979 213.9187 C 745.764 213.4567 745.3813 213.0621 745.764 212.3615 C 746.2321 211.5049 746.3009 211.4967 746.9995 210.8044 C 747.4794 210.3288 748.0272 210.5212 748.1211 210.0258 C 748.1747 209.7426 748.1211 209.4775 748.1747 209.2472 C 748.3024 208.6989 749.018 208.858 749.8611 208.4686 C 750.7034 208.0794 750.771 208.1771 751.5457 207.69 C 752.0091 207.3985 751.949 207.3081 752.3372 206.9114 C 753.0916 206.1402 752.8968 205.8033 753.8309 205.3542 C 755.3255 204.6355 755.5511 205.0784 757.1946 204.5756 C 758.0958 204.2998 758.0211 204.0803 758.9204 203.797 C 760.4925 203.3017 760.8137 203.638 762.1373 203.0184 C 762.477 202.8594 762.1373 202.4099 762.477 202.2398 C 763.6925 201.6313 764.382 202.0731 765.415 201.4612 C 765.6964 201.2945 765.5155 201.0525 765.6964 200.6826 C 765.8962 200.2739 765.9398 200.2953 766.1765 199.904 C 766.4107 199.5167 766.5066 199.551 766.6381 199.1254 C 766.8674 198.3831 766.6929 198.3229 766.8981 197.5682 C 767.0104 197.155 766.9603 197.0597 767.2731 196.7896 C 767.8618 196.2811 768.0443 196.4763 768.7012 196.011 C 769.1437 195.6977 768.9942 195.4736 769.4719 195.2324 C 770.5366 194.695 770.7575 195.0582 771.7859 194.4538 C 772.7449 193.8903 772.9858 193.8134 773.4467 192.8966 C 773.7686 192.2562 773.4467 192.0215 773.7686 191.3394 C 773.9978 190.8536 774.2285 190.9902 774.5909 190.5608 C 774.8857 190.2116 774.7591 190.0974 775.0829 189.7822 C 775.5591 189.3188 775.5979 189.3237 776.1909 189.0036 C 777.0401 188.5451 777.1627 188.7303 777.9672 188.225 C 778.4024 187.9517 778.311 187.8286 778.6702 187.4464 C 779.0428 187.0499 779.102 187.0957 779.4307 186.6678 C 779.7001 186.3171 779.6023 186.2469 779.8663 185.8892 C 780.4644 185.079 780.5742 185.1511 781.1548 184.332 C 781.4022 183.9832 781.3146 183.9296 781.5224 183.5535 C 781.7448 183.151 781.8808 183.2091 782.0151 182.7748 C 782.3626 181.6519 782.058 181.5035 782.486 180.4391 C 782.6841 179.9463 782.9886 180.1106 783.2673 179.6605 C 783.4707 179.332 783.3481 179.2648 783.4707 178.8819 C 783.7221 178.0969 783.5678 177.9733 784.0153 177.3247 C 784.3735 176.8054 784.5825 176.976 785.0822 176.5461 C 785.94 175.8081 785.9849 175.8282 786.7302 174.9889 C 787.0219 174.6603 786.8583 174.5258 787.1562 174.2103 C 787.5933 173.7472 787.676 173.818 788.2003 173.4317 C 788.7325 173.0394 788.8025 173.1146 789.2691 172.6531 C 789.9833 171.9467 789.9768 171.9139 790.562 171.0959 C 790.8122 170.746 790.6018 170.5474 790.94 170.3173 C 791.746 169.7688 792.0266 170.0801 792.8504 169.5387 C 793.2114 169.3015 792.96 169.0176 793.3097 168.7601 C 794.0172 168.239 794.5279 168.6038 794.9648 167.9815 C 795.3478 167.4359 795.0762 167.1743 795.3478 166.4243 C 795.6401 165.6171 795.5542 165.4972 796.0924 164.8671 C 796.5518 164.3293 796.7987 164.5627 797.343 164.0885 C 797.6923 163.7841 797.5832 163.6768 797.8795 163.3099 C 798.2119 162.8982 798.2941 162.9584 798.6002 162.5313 C 798.8522 162.1798 798.731 162.0922 798.9955 161.7527 C 799.3378 161.3136 799.4936 161.4224 799.8138 160.9741 C 800.0496 160.6438 799.9149 160.5627 800.1075 160.1955 C 800.5277 159.3948 800.7568 159.4835 801.0393 158.6383 C 801.4075 157.537 801.0393 157.3802 801.409 156.3025 C 801.5735 155.823 801.7293 155.8769 802.1168 155.5239 C 802.584 155.0983 802.5952 155.1021 803.1184 154.7453 C 803.7372 154.3235 803.9529 154.5188 804.4008 153.9668 C 804.9004 153.3509 804.4019 152.9048 805.0134 152.4095 C 806.3247 151.3476 806.7562 151.8118 808.2463 150.8524 C 809.1747 150.2546 809.1035 150.1194 809.8505 149.2952 C 810.162 148.9515 810.1955 148.9452 810.3633 148.5166 C 810.6526 147.7773 810.3633 147.6203 810.7646 146.9594 C 811.3087 146.0631 811.6069 146.2371 812.2908 145.4022 C 812.5635 145.0692 812.4247 144.9739 812.6779 144.6236 C 813.269 143.806 813.1677 143.6148 813.9796 143.0664 C 814.8965 142.4469 815.2213 142.8547 816.1356 142.2878 C 816.4769 142.0761 816.154 141.7293 816.4908 141.5092 C 817.3454 140.9507 817.5898 141.2495 818.5182 140.7306 C 818.9829 140.4709 818.8309 140.2497 819.2769 139.952 C 819.9974 139.4711 820.1926 139.6931 820.8513 139.1734 C 821.1795 138.9145 820.8775 138.5684 821.2507 138.3948 C 822.5518 137.7898 822.7586 138.0985 824.1999 137.6162 C 825.0852 137.3199 825.154 137.3518 825.904 136.8376 C 826.2896 136.5732 826.2115 136.4641 826.4711 136.059 C 826.9599 135.2962 826.9629 135.2946 827.4008 134.5018 C 827.608 134.1267 827.5967 134.1192 827.7613 133.7232 C 828.0821 132.9513 828.272 132.9812 828.3716 132.166 C 828.5574 130.6454 828.3716 130.3187 828.5574 129.0516 C 828.7142 127.9829 829.736 128.3722 830.679 127.4944 C 830.9906 127.2043 830.7688 127.0133 831.0667 126.7158 C 831.5485 126.2347 831.8755 126.4816 832.2385 125.9372 C 832.6543 125.3137 832.3364 125.1148 832.6543 124.3801 C 833.1786 123.1683 833.1566 123.1149 833.923 122.0443 C 834.5499 121.1684 834.547 121.0565 835.4409 120.4871 C 836.3801 119.8886 836.6148 120.2441 837.5892 119.7085 C 838.0312 119.4655 837.8775 119.2566 838.2737 118.9299 C 838.8216 118.478 838.8718 118.5346 839.4775 118.1513 C 840.1021 117.756 840.1642 117.8369 840.7341 117.3727 C 841.5979 116.669 841.5977 116.6418 842.345 115.8155 C 842.6539 115.4739 842.42 115.1546 842.8465 115.0369 C 845.2413 114.376 846.4026 114.9311 847.9877 114.2583 C 848.2369 114.1525 848.1788 113.8823 848.2369 113.4797 C 848.4035 112.3251 848.2369 112.0818 848.4372 111.1439 C 848.5695 110.5246 849.357 110.9365 849.7752 110.3653 C 850.2122 109.7686 849.8391 109.4925 850.2122 108.8081 C 850.4757 108.3246 850.6903 108.4704 851.0484 108.0295 C 851.6388 107.3025 851.708 107.3107 852.1091 106.4723 C 852.453 105.7535 852.1802 105.6105 852.5383 104.9151 C 852.7816 104.4426 852.8135 104.3261 853.3118 104.1365 C 854.8602 103.5475 855.0766 103.9421 856.6318 103.3579 C 857.1493 103.1635 856.9552 102.8163 857.4573 102.5793 C 858.6046 102.0377 858.8086 102.3607 859.9306 101.8007 C 860.3685 101.5821 860.2291 101.388 860.5771 101.0221 C 860.9698 100.6094 860.8982 100.4598 861.412 100.2435 C 862.7481 99.6812 862.9972 100.0597 864.2769 99.4649 C 864.6724 99.2811 864.4111 98.9571 864.7623 98.6863 C 865.4209 98.1785 865.4735 98.1321 866.2966 97.9077 C 868.3303 97.3535 868.4344 97.6704 870.4758 97.1291 C 871.3712 96.8918 871.3303 96.755 872.1701 96.3505 C 872.9469 95.9764 872.9922 96.0443 873.709 95.5719 C 874.7645 94.8764 874.7067 94.7865 875.7148 94.0148 C 876.7408 93.2293 877.179 93.4192 877.7774 92.4576 C 878.148 91.862 877.8684 91.6381 878.148 90.9004 C 878.3111 90.4702 878.4252 90.5228 878.6628 90.1218 C 878.8865 89.7442 879.0006 89.7679 879.0706 89.3432 C 879.2571 88.2107 879.0706 88.0382 879.2571 87.0074 C 879.3523 86.481 879.7763 86.6724 880.1655 86.2288 C 880.4594 85.8938 880.4729 85.8712 880.6234 85.4502 C 880.8902 84.7033 881 83.893 881 83.893 L 881 469.2987 L 880.1655 469.2987 L 879.2571 469.2987 L 878.148 469.2987 L 875.7148 469.2987 L 873.709 469.2987 L 872.1701 469.2987 L 870.4758 469.2987 L 866.2966 469.2987 L 864.7623 469.2987 L 861.412 469.2987 L 860.5771 469.2987 L 857.4573 469.2987 L 856.6318 469.2987 L 853.3118 469.2987 L 852.5383 469.2987 L 851.0484 469.2987 L 850.2122 469.2987 L 848.4372 469.2987 L 842.8465 469.2987 L 840.7341 469.2987 L 839.4775 469.2987 L 838.2737 469.2987 L 835.4409 469.2987 L 833.923 469.2987 L 832.6543 469.2987 L 831.0667 469.2987 L 828.5574 469.2987 L 827.7613 469.2987 L 826.4711 469.2987 L 824.1999 469.2987 L 821.2507 469.2987 L 819.2769 469.2987 L 818.5182 469.2987 L 816.4908 469.2987 L 813.9796 469.2987 L 812.6779 469.2987 L 810.7646 469.2987 L 809.8505 469.2987 L 808.2463 469.2987 L 805.0134 469.2987 L 803.1184 469.2987 L 802.1168 469.2987 L 801.409 469.2987 L 800.1075 469.2987 L 798.9955 469.2987 L 797.8795 469.2987 L 796.0924 469.2987 L 795.3478 469.2987 L 793.3097 469.2987 L 790.94 469.2987 L 789.2691 469.2987 L 788.2003 469.2987 L 787.1562 469.2987 L 785.0822 469.2987 L 784.0153 469.2987 L 783.2673 469.2987 L 782.486 469.2987 L 781.5224 469.2987 L 779.8663 469.2987 L 778.6702 469.2987 L 776.1909 469.2987 L 775.0829 469.2987 L 773.7686 469.2987 L 771.7859 469.2987 L 769.4719 469.2987 L 768.7012 469.2987 L 767.2731 469.2987 L 766.1765 469.2987 L 765.415 469.2987 L 762.477 469.2987 L 758.9204 469.2987 L 757.1946 469.2987 L 753.8309 469.2987 L 752.3372 469.2987 L 751.5457 469.2987 L 749.8611 469.2987 L 748.1747 469.2987 L 746.9995 469.2987 L 745.764 469.2987 L 740.6266 469.2987 L 739.8299 469.2987 L 737.8187 469.2987 L 735.2922 469.2987 L 734.3704 469.2987 L 733.6497 469.2987 L 732.9268 469.2987 L 731.6057 469.2987 L 727.271 469.2987 L 725.9415 469.2987 L 725.1255 469.2987 L 723.0618 469.2987 L 721.7805 469.2987 L 719.4682 469.2987 L 718.5824 469.2987 L 717.4201 469.2987 L 713.2886 469.2987 L 712.5602 469.2987 L 710.6242 469.2987 L 709.3602 469.2987 L 708.3411 469.2987 L 706.8854 469.2987 L 704.8715 469.2987 L 703.6249 469.2987 L 700.2638 469.2987 L 699.4679 469.2987 L 694.1933 469.2987 L 692.2076 469.2987 L 691.3605 469.2987 L 690.4887 469.2987 L 686.0543 469.2987 L 685.2793 469.2987 L 682.9995 469.2987 L 679.2057 469.2987 L 678.4897 469.2987 L 676.907 469.2987 L 676.1182 469.2987 L 675.119 469.2987 L 674.2752 469.2987 L 671.9466 469.2987 L 671.1953 469.2987 L 669.5004 469.2987 L 664.5211 469.2987 L 663.0609 469.2987 L 661.8497 469.2987 L 660.58 469.2987 L 659.3188 469.2987 L 658.1641 469.2987 L 657.3847 469.2987 L 654.1976 469.2987 L 651.2459 469.2987 L 649.1137 469.2987 L 647.8828 469.2987 L 645.6198 469.2987 L 642.7953 469.2987 L 641.9256 469.2987 L 640.3519 469.2987 L 639.4182 469.2987 L 637.829 469.2987 L 637.0763 469.2987 L 635.8803 469.2987 L 634.8558 469.2987 L 628.2762 469.2987 L 627.2312 469.2987 L 625.9961 469.2987 L 624.7314 469.2987 L 623.6743 469.2987 L 621.9164 469.2987 L 617.2234 469.2987 L 616.3157 469.2987 L 614.6532 469.2987 L 611.4009 469.2987 L 610.2827 469.2987 L 608.9073 469.2987 L 606.5491 469.2987 L 605.3307 469.2987 L 604.449 469.2987 L 603.189 469.2987 L 599.8039 469.2987 L 598.7944 469.2987 L 597.9274 469.2987 L 595.6335 469.2987 L 593.8982 469.2987 L 591.1024 469.2987 L 589.5237 469.2987 L 588.636 469.2987 L 587.9061 469.2987 L 585.5154 469.2987 L 583.4193 469.2987 L 582.5392 469.2987 L 580.6708 469.2987 L 576.968 469.2987 L 575.6739 469.2987 L 572.9571 469.2987 L 569.9997 469.2987 L 568.389 469.2987 L 567.326 469.2987 L 566.4061 469.2987 L 563.1596 469.2987 L 560.9929 469.2987 L 559.7557 469.2987 L 558.1279 469.2987 L 556.196 469.2987 L 552.9013 469.2987 L 550.9427 469.2987 L 549.7067 469.2987 L 548.5386 469.2987 L 546.8289 469.2987 L 546.0738 469.2987 L 545.2345 469.2987 L 544.0524 469.2987 L 539.8821 469.2987 L 538.2592 469.2987 L 537.5005 469.2987 L 535.8515 469.2987 L 535.0135 469.2987 L 533.1714 469.2987 L 531.7734 469.2987 L 529.9668 469.2987 L 528.6695 469.2987 L 526.509 469.2987 L 521.234 469.2987 L 515.6257 469.2987 L 513.9283 469.2987 L 513.1231 469.2987 L 510.0262 469.2987 L 509.0912 469.2987 L 505.1152 469.2987 L 502.6212 469.2987 L 501.1456 469.2987 L 495.6688 469.2987 L 494.5418 469.2987 L 493.7842 469.2987 L 490.5107 469.2987 L 486.2989 469.2987 L 483.8787 469.2987 L 482.6654 469.2987 L 480.6456 469.2987 L 477.8193 469.2987 L 475.2878 469.2987 L 461.6328 469.2987 L 460.9069 469.2987 L 459.6977 469.2987 L 458.8127 469.2987 L 457.9542 469.2987 L 455.6425 469.2987 L 454.7517 469.2987 L 453.8291 469.2987 L 450.1949 469.2987 L 447.318 469.2987 L 444.2414 469.2987 L 443.0111 469.2987 L 440.8434 469.2987 L 437.4302 469.2987 L 430.8863 469.2987 L 424.7048 469.2987 L 422.7172 469.2987 L 421.0651 469.2987 L 420.32 469.2987 L 418.4742 469.2987 L 414.4084 469.2987 L 413.2913 469.2987 L 411.2466 469.2987 L 407.6342 469.2987 L 406.7473 469.2987 L 404.3529 469.2987 L 397.8698 469.2987 L 391.1218 469.2987 L 380.2025 469.2987 L 377.0746 469.2987 L 375.4577 469.2987 L 369.4815 469.2987 L 366.7213 469.2987 L 364.4535 469.2987 L 362.2899 469.2987 L 361.3219 469.2987 L 357.6548 469.2987 L 339.8327 469.2987 L 335.6889 469.2987 L 334.8949 469.2987 L 329.579 469.2987 L 326.8702 469.2987 L 326.0161 469.2987 L 319.0558 469.2987 L 288.2611 469.2987 L 259.139 469.2987 L 255.4919 469.2987 L 252.2493 469.2987 L 232.3337 469.2987 L 205.0763 469.2987 L 201.7263 469.2987 L 196.8297 469.2987 L 174.525 469.2987 L 137.6702 469.2987 L 108.5324 469.2987 L 42.2465 469.2987 L 41.3584 469.2987 Z" fill-opacity="0.7" stroke="none" fill="url(#zr2608-gradient-0)">
</path>
<path d="M 41.3584 467.7415 C 41.3584 467.7415 41.3621 466.2053 42.2465 466.1843 C 74.9491 465.4057 75.3923 465.9465 108.5324 465.4057 C 123.1042 465.1679 123.1002 464.9709 137.6702 464.6271 C 156.0965 464.1923 156.1003 464.3335 174.525 463.8485 C 185.68 463.5549 185.7013 463.707 196.8297 463.0699 C 199.3019 462.9284 199.2917 462.751 201.7263 462.2913 C 203.415 461.9724 203.3623 461.5999 205.0763 461.5127 C 218.6659 460.8213 218.707 461.1839 232.3337 460.7341 C 242.2935 460.4053 242.3299 460.6225 252.2493 459.9555 C 253.9089 459.8439 253.8656 459.5445 255.4919 459.1769 C 257.3105 458.7659 257.2796 458.4867 259.139 458.3983 C 273.6642 457.7081 273.6999 458.0026 288.2611 457.6197 C 303.3102 457.224 306.5824 457.5985 318.3596 456.8411 C 318.6905 456.8198 318.5178 456.4486 318.6905 456.0625 C 318.866 455.67 318.6905 455.4096 319.0558 455.2839 C 322.0857 454.2417 322.6538 454.7318 326.0161 453.7267 C 326.561 453.5639 326.3521 453.1745 326.8702 452.9481 C 328.1336 452.3959 328.1984 452.4374 329.579 452.1695 C 332.2108 451.6588 332.3639 452.036 334.8949 451.3909 C 335.4188 451.2574 335.1777 450.7876 335.6889 450.6123 C 337.4488 450.009 337.75 450.4677 339.437 449.8337 C 339.8219 449.6891 339.437 449.0915 339.8327 449.0551 C 347.9154 448.3129 348.7761 448.9199 357.6548 448.2766 C 359.5207 448.1413 359.5812 448.0828 361.3219 447.498 C 361.8987 447.3042 361.7407 446.9925 362.2899 446.7194 C 363.3065 446.2139 363.3689 446.3219 364.4535 445.9407 C 365.5845 445.5433 365.5765 445.5167 366.7213 445.1621 C 368.0905 444.7381 368.073 444.6346 369.4815 444.3835 C 372.4413 443.856 372.5701 444.2442 375.4577 443.6049 C 376.0869 443.4657 376.0479 443.2764 376.5152 442.8264 C 376.8563 442.4978 376.652 442.2263 377.0746 442.0478 C 378.4957 441.4477 378.6049 441.4463 380.2025 441.2692 C 385.6285 440.6677 385.7111 441.2059 391.1218 440.4906 C 394.5447 440.038 394.4647 439.5345 397.8698 438.9334 C 401.0803 438.3666 401.1512 438.7211 404.3529 438.1548 C 405.5527 437.9426 406.4391 437.9662 406.6726 437.3762 C 406.7473 437.1876 406.6726 436.9652 406.7473 436.5976 C 406.8307 436.1866 407.0265 436.2366 407.1454 435.819 C 407.47 434.6794 407.1454 433.986 407.6342 433.4832 C 408.3912 432.7046 409.47 433.1936 411.2466 432.7046 C 412.2985 432.415 412.3168 432.4059 413.2913 431.926 C 413.8978 431.6273 413.767 431.3401 414.4084 431.1474 C 416.3584 430.5615 416.5113 430.9401 418.4742 430.3688 C 419.1864 430.1615 419.1956 430.0652 419.7587 429.5902 C 420.1185 429.2867 420.1362 429.2497 420.32 428.8116 C 420.7894 427.6925 420.3782 427.3683 421.0651 426.4758 C 421.5768 425.811 421.8781 426.0562 422.7172 425.6972 C 423.698 425.2776 423.6625 425.1173 424.7048 424.9186 C 427.747 424.3387 427.7942 424.5184 430.8863 424.14 C 434.1569 423.7398 434.1842 423.8893 437.4302 423.3614 C 438.9718 423.1107 439.1252 423.1925 440.4615 422.5828 C 440.8317 422.4139 440.4947 422.0172 440.8434 421.8042 C 441.7695 421.2386 441.9701 421.5027 443.0111 421.0256 C 443.6691 420.7241 443.5642 420.4919 444.2414 420.247 C 445.7176 419.7133 445.7888 419.8902 447.318 419.4684 C 448.6117 419.1116 448.9011 419.2834 449.8874 418.6898 C 450.1949 418.5048 449.8874 418.0694 450.1949 417.9113 C 451.4015 417.2908 451.958 417.7444 453.3857 417.1327 C 453.7751 416.9658 453.5381 416.6858 453.8291 416.3541 C 454.2211 415.9071 454.3614 416.0233 454.7517 415.5754 C 455.04 415.2447 454.965 415.1838 455.1863 414.7968 C 455.4104 414.4052 455.2688 414.2285 455.6425 414.0182 C 456.6527 413.4499 457.6506 414.0182 457.9542 413.2397 C 458.3448 412.2378 458.0119 411.6349 458.3448 410.1253 C 458.4412 409.6884 458.5183 409.6855 458.8127 409.3467 C 459.1947 408.9069 459.226 408.9188 459.6977 408.5681 C 460.2731 408.1402 460.3509 408.2369 460.9069 407.7895 C 461.3184 407.4583 461.1136 407.0671 461.6328 407.0109 C 468.3041 406.2885 468.6588 407.0109 475.2878 406.2323 C 476.625 406.0752 476.7099 405.5757 477.5654 404.6751 C 477.8193 404.4078 477.5654 404.0665 477.8193 403.8965 C 478.7283 403.2879 479.4655 403.8763 480.6456 403.1179 C 481.8886 402.3191 481.6793 401.9695 482.6654 400.7821 C 483.2958 400.023 483.1624 399.8902 483.8787 399.2249 C 484.839 398.333 485.55 398.6423 486.0187 397.6677 C 486.2989 397.0851 486.0187 396.3981 486.2989 396.1105 C 487.0574 395.3319 488.4836 395.9645 490.5107 395.3319 C 492.2263 394.7966 492.2334 394.6733 493.7842 393.7747 C 494.2489 393.5054 494.155 393.3774 494.5418 392.9961 C 494.9448 392.5988 495.0397 392.6654 495.3638 392.2175 C 495.6032 391.8868 495.3638 391.5526 495.6688 391.4389 C 497.4528 390.774 498.2293 391.3054 500.4981 390.6603 C 500.9678 390.5268 500.7794 390.2271 501.1456 389.8817 C 501.6052 389.4485 501.7199 389.5568 502.1498 389.1031 C 502.4577 388.7782 502.2381 388.5257 502.6212 388.3246 C 503.7208 387.7471 503.9452 388.1092 505.1152 387.546 C 507.1802 386.552 507.1483 386.4422 509.0912 385.2101 C 509.6038 384.885 509.47 384.6464 510.0262 384.4315 C 511.4859 383.8678 511.7463 384.2627 513.1231 383.653 C 513.5044 383.4841 513.3393 383.2671 513.5424 382.8744 C 513.7419 382.4885 513.5975 382.343 513.9283 382.0958 C 514.6391 381.5644 514.7384 381.6009 515.6257 381.3172 C 518.3912 380.433 518.394 380.3695 521.234 379.76 C 523.8357 379.2016 523.9255 379.5554 526.509 378.9814 C 527.4296 378.7768 527.7394 378.8341 528.2422 378.2028 C 528.6695 377.6662 528.3461 377.3686 528.6695 376.6456 C 528.8685 376.2007 529.0154 376.2804 529.287 375.867 C 529.527 375.5018 529.5176 375.4897 529.6928 375.0884 C 529.8575 374.7111 529.697 374.5945 529.9668 374.3098 C 530.4349 373.8159 530.7517 374.0702 531.1686 373.5312 C 531.655 372.9023 531.3937 372.7134 531.7734 371.974 C 532.1933 371.1562 532.2939 371.2088 532.7679 370.4168 C 532.9929 370.0409 532.9157 369.9927 533.1714 369.6382 C 534.0386 368.4356 534.258 368.5584 535.0135 367.3024 C 535.4289 366.6119 535.2375 366.5141 535.5133 365.7452 C 535.6565 365.3461 535.5359 365.2139 535.8515 364.9666 C 536.5295 364.4353 536.8058 364.7131 537.5005 364.188 C 537.8361 363.9345 537.7194 363.8051 537.9122 363.4094 C 538.0987 363.0265 537.9885 362.9518 538.2592 362.6308 C 538.9734 361.7839 538.8785 361.4783 539.8821 361.0736 C 541.7751 360.3104 542.0457 360.8788 544.0524 360.295 C 544.7219 360.1003 544.6757 359.9469 545.2345 359.5164 C 545.6864 359.1683 545.6927 359.1612 546.0738 358.7379 C 546.3936 358.3826 546.5185 358.4027 546.6364 357.9593 C 546.8289 357.2348 546.6364 356.9336 546.8289 356.4021 C 547.0595 355.7657 547.7571 356.1169 548.5386 355.6234 C 548.9904 355.3382 548.9731 355.2748 549.2956 354.8448 C 549.5571 354.4962 549.4543 354.4231 549.7067 354.0663 C 550.005 353.6445 550.1326 353.7233 550.3971 353.2877 C 550.6053 352.9447 550.5166 352.8956 550.652 352.5091 C 550.7894 352.117 550.6604 352.0055 550.9427 351.7305 C 551.4595 351.2269 551.6627 351.4189 552.2501 350.9519 C 552.642 350.6403 552.4462 350.3529 552.9013 350.1733 C 554.4192 349.5743 554.5781 349.8767 556.196 349.3947 C 557.1914 349.0981 557.1877 349.0588 558.1279 348.6161 C 558.8412 348.2802 559.3753 348.4913 559.5031 347.8375 C 559.7557 346.5448 559.5031 346.0492 559.7557 344.7231 C 559.8739 344.1027 560.3319 344.2468 560.9929 343.9445 C 562.0339 343.4682 562.1199 343.6519 563.1596 343.1659 C 564.6187 342.484 565.1573 342.6476 565.9905 341.6087 C 566.4061 341.0904 566.1683 340.8202 566.4061 340.0515 C 566.5296 339.6523 566.5025 339.6294 566.7131 339.2729 C 566.9625 338.8508 567.0078 338.8738 567.326 338.4943 C 567.6606 338.0952 567.7279 338.1418 568.0187 337.7157 C 568.2594 337.3632 568.0669 337.1903 568.389 336.9371 C 569.0574 336.4117 569.1567 336.4459 569.9997 336.1585 C 571.4407 335.6673 571.5 335.836 572.9571 335.3799 C 573.9875 335.0574 574.0593 335.126 574.9747 334.6013 C 575.4177 334.3474 575.3933 334.2611 575.6739 333.8227 C 576.3899 332.704 575.9343 332.0364 576.968 331.4869 C 578.4327 330.7083 578.856 331.2156 580.6708 330.7083 C 581.6416 330.437 581.6697 330.4224 582.5392 329.9297 C 583.0439 329.6438 582.9066 329.4194 583.4193 329.1512 C 584.3948 328.6408 584.4594 328.7391 585.5154 328.3726 C 586.7028 327.9605 586.9795 328.2875 587.9061 327.594 C 588.5398 327.1196 588.1565 326.7292 588.636 326.0368 C 588.9653 325.5613 589.0286 325.5708 589.5237 325.2581 C 590.2618 324.7921 590.2805 324.7862 591.1024 324.4796 C 592.3671 324.0076 593.3496 324.4403 593.6969 323.701 C 593.8982 323.2724 593.6969 322.6719 593.8982 322.1438 C 594.142 321.504 594.8138 321.8404 595.6335 321.3652 C 596.8284 320.6725 596.8146 320.6303 597.9274 319.808 C 598.3951 319.4624 598.4028 319.4563 598.7944 319.0294 C 599.117 318.6777 599.0951 318.653 599.3558 318.2508 C 599.5998 317.8744 599.4101 317.6322 599.8039 317.4722 C 601.3267 316.8536 601.716 317.4343 603.189 316.6936 C 604.0385 316.2664 603.7744 315.8722 604.449 315.1364 C 604.8452 314.7043 604.9386 314.79 605.3307 314.3578 C 605.645 314.0114 605.6171 313.9811 605.8619 313.5792 C 606.0914 313.2025 606.1016 313.2034 606.2794 312.8006 C 606.4452 312.4248 606.2794 312.216 606.5491 312.022 C 607.3622 311.4374 607.7665 311.7192 608.9073 311.2434 C 609.6333 310.9406 609.6131 310.8829 610.2827 310.4648 C 610.86 310.1043 610.7767 309.938 611.4009 309.6862 C 612.7068 309.1594 613.6948 309.5175 614.1429 308.9076 C 614.2669 308.7389 614.1456 308.4994 614.2669 308.129 C 614.4007 307.7208 614.324 307.6006 614.6532 307.3504 C 615.3485 306.822 615.6673 307.1611 616.3157 306.5718 C 616.9524 305.9932 616.4753 305.4306 617.2234 305.0146 C 619.2757 303.8734 619.622 304.3501 621.9164 303.4574 C 622.6237 303.1822 622.6738 303.1688 623.2269 302.6788 C 623.5527 302.3902 623.4313 302.2775 623.6743 301.9002 C 624.1835 301.1096 624.108 301.0302 624.7314 300.343 C 625.1676 299.8623 625.4619 300.0478 625.7935 299.5645 C 625.9961 299.2692 625.8226 299.1413 625.9961 298.7859 C 626.2027 298.3627 626.2565 298.382 626.5537 298.0073 C 626.874 297.6034 626.8506 297.5728 627.2312 297.2287 C 627.7118 296.7942 627.6646 296.6541 628.2762 296.4501 C 631.1661 295.4861 631.4025 295.8981 634.2342 294.8929 C 634.6923 294.7302 634.4966 294.454 634.8558 294.1143 C 635.3197 293.6754 635.3539 293.7048 635.8803 293.3357 C 636.4641 292.9262 636.5223 292.9997 637.0763 292.5571 C 637.4967 292.2211 637.653 292.2789 637.829 291.7785 C 638.6118 289.5538 638.3229 289.4082 638.9939 287.1069 C 639.1175 286.6831 639.1794 286.7006 639.4182 286.3283 C 639.6787 285.922 639.7449 285.9624 639.9924 285.5497 C 640.2118 285.1838 640.0347 285.0266 640.3519 284.7711 C 641.0013 284.248 641.1918 284.4602 641.9256 283.9925 C 642.4135 283.6816 642.269 283.4357 642.7953 283.2139 C 644.1161 282.6571 644.2412 282.9154 645.6198 282.4353 C 646.4772 282.1368 646.5347 282.1607 647.2672 281.6567 C 647.6662 281.3822 647.5328 281.2259 647.8828 280.8781 C 648.3162 280.4473 648.4662 280.5649 648.8341 280.0995 C 649.0817 279.7863 648.8341 279.5289 649.1137 279.3209 C 649.8809 278.7503 650.1713 278.9066 651.2459 278.5423 C 652.4681 278.128 652.6192 278.3377 653.7073 277.7637 C 654.0951 277.5591 653.7949 277.1557 654.1976 276.9851 C 655.6336 276.3771 656.0719 276.825 657.3847 276.2065 C 657.7247 276.0464 657.5348 275.8073 657.7247 275.4279 C 657.9245 275.0287 657.8813 274.9882 658.1641 274.6493 C 658.5311 274.2096 658.6881 274.3241 659.0242 273.8707 C 659.2654 273.5455 659.039 273.3722 659.3188 273.0921 C 659.8169 272.5936 659.9488 272.7019 660.58 272.3135 C 661.2142 271.9233 661.219 271.9308 661.8497 271.5349 C 662.4594 271.1522 662.4394 271.1186 663.0609 270.7563 C 663.7751 270.34 663.7252 270.1702 664.5211 269.9778 C 666.945 269.3916 667.1011 269.8126 669.5004 269.1992 C 670.1462 269.034 670.1179 268.8739 670.6113 268.4206 C 670.9653 268.0953 670.8791 268.0107 671.1953 267.642 C 671.5467 267.2321 671.5 267.154 671.9466 266.8634 C 672.6962 266.3754 672.9127 266.6152 673.5876 266.0848 C 673.9034 265.8366 673.7564 265.6948 673.928 265.3062 C 674.1002 264.9162 674.0215 264.8593 674.2752 264.5276 C 674.6169 264.0807 674.7661 264.1962 675.119 263.749 C 675.6876 263.0283 675.5591 262.9221 676.1182 262.1918 C 676.4532 261.7543 676.4495 261.7136 676.907 261.4132 C 677.6352 260.935 677.7712 261.1213 678.4897 260.6346 C 678.9206 260.3427 678.722 260.023 679.2057 259.856 C 680.9769 259.2444 681.1524 259.6123 682.9995 259.0774 C 683.841 258.8337 684.0033 258.8926 684.5829 258.2988 C 685.1432 257.7247 684.9781 257.5385 685.2793 256.7416 C 685.7138 255.592 685.2793 254.8314 686.0543 254.4058 C 687.472 253.6272 688.4212 254.2657 690.4887 253.6272 C 690.9423 253.4871 690.9313 253.298 691.0964 252.8486 C 691.3605 252.1301 691.2092 252.0663 691.3605 251.2914 C 691.5132 250.5091 691.4366 250.4728 691.7045 249.7342 C 691.8602 249.3049 691.8306 249.1915 692.2076 248.9556 C 693.075 248.4129 693.1561 248.3995 694.1933 248.177 C 696.7862 247.6209 696.957 248.0425 699.4679 247.3984 C 699.9922 247.2639 699.7567 246.8098 700.2638 246.6198 C 701.8352 246.0312 702.0093 246.3872 703.6249 245.8412 C 704.3132 245.6086 704.2112 245.378 704.8715 245.0626 C 705.8415 244.5994 705.9023 244.7253 706.8854 244.284 C 707.6371 243.9467 707.9008 244.0957 708.3411 243.5054 C 708.772 242.9278 708.4543 242.6764 708.772 241.9482 C 708.9639 241.5085 708.9929 241.4784 709.3602 241.1696 C 709.919 240.6999 709.9591 240.7147 710.6242 240.3911 C 711.5591 239.9361 711.6785 240.1278 712.5602 239.6125 C 713.0107 239.3492 712.7971 238.9914 713.2886 238.8339 C 715.227 238.2128 715.4741 238.672 717.4201 238.0553 C 717.9309 237.8934 717.8766 237.7128 718.2021 237.2767 C 718.4578 236.9342 718.3143 236.8278 718.5824 236.4981 C 718.9473 236.0492 718.9471 235.9732 719.4682 235.7195 C 720.5462 235.1946 720.9917 235.7107 721.7805 234.9409 C 722.5873 234.1535 722.1852 233.7575 722.6594 232.6051 C 722.8259 232.2003 722.7496 232.1222 723.0618 231.8265 C 723.9827 230.9543 724.1231 231.0824 725.1255 230.2693 C 725.5629 229.9146 725.4881 229.8197 725.9415 229.4907 C 726.5608 229.0412 726.5435 228.9395 727.271 228.7121 C 729.0344 228.1609 729.2265 228.5431 730.9234 227.9335 C 731.3938 227.7645 731.2687 227.5478 731.6057 227.1549 C 732.2704 226.3799 732.4564 226.4368 732.9268 225.5977 C 733.1111 225.2689 732.9456 225.1757 733.1111 224.8191 C 733.307 224.3971 733.4094 224.4468 733.6497 224.0405 C 733.8699 223.6682 733.8499 223.6554 734.032 223.2619 C 734.2102 222.8768 734.1102 222.8049 734.3704 222.4833 C 734.7403 222.0263 734.7654 221.9826 735.2922 221.7047 C 736.2412 221.204 736.6613 221.5928 737.322 220.9261 C 737.8187 220.4249 737.3281 219.9781 737.8187 219.3689 C 738.5821 218.4209 738.998 218.7344 739.8299 217.8117 C 740.402 217.1772 739.9407 216.7429 740.6266 216.2545 C 742.6747 214.7964 743.8002 215.4032 745.2979 213.9187 C 745.764 213.4567 745.3813 213.0621 745.764 212.3615 C 746.2321 211.5049 746.3009 211.4967 746.9995 210.8044 C 747.4794 210.3288 748.0272 210.5212 748.1211 210.0258 C 748.1747 209.7426 748.1211 209.4775 748.1747 209.2472 C 748.3024 208.6989 749.018 208.858 749.8611 208.4686 C 750.7034 208.0794 750.771 208.1771 751.5457 207.69 C 752.0091 207.3985 751.949 207.3081 752.3372 206.9114 C 753.0916 206.1402 752.8968 205.8033 753.8309 205.3542 C 755.3255 204.6355 755.5511 205.0784 757.1946 204.5756 C 758.0958 204.2998 758.0211 204.0803 758.9204 203.797 C 760.4925 203.3017 760.8137 203.638 762.1373 203.0184 C 762.477 202.8594 762.1373 202.4099 762.477 202.2398 C 763.6925 201.6313 764.382 202.0731 765.415 201.4612 C 765.6964 201.2945 765.5155 201.0525 765.6964 200.6826 C 765.8962 200.2739 765.9398 200.2953 766.1765 199.904 C 766.4107 199.5167 766.5066 199.551 766.6381 199.1254 C 766.8674 198.3831 766.6929 198.3229 766.8981 197.5682 C 767.0104 197.155 766.9603 197.0597 767.2731 196.7896 C 767.8618 196.2811 768.0443 196.4763 768.7012 196.011 C 769.1437 195.6977 768.9942 195.4736 769.4719 195.2324 C 770.5366 194.695 770.7575 195.0582 771.7859 194.4538 C 772.7449 193.8903 772.9858 193.8134 773.4467 192.8966 C 773.7686 192.2562 773.4467 192.0215 773.7686 191.3394 C 773.9978 190.8536 774.2285 190.9902 774.5909 190.5608 C 774.8857 190.2116 774.7591 190.0974 775.0829 189.7822 C 775.5591 189.3188 775.5979 189.3237 776.1909 189.0036 C 777.0401 188.5451 777.1627 188.7303 777.9672 188.225 C 778.4024 187.9517 778.311 187.8286 778.6702 187.4464 C 779.0428 187.0499 779.102 187.0957 779.4307 186.6678 C 779.7001 186.3171 779.6023 186.2469 779.8663 185.8892 C 780.4644 185.079 780.5742 185.1511 781.1548 184.332 C 781.4022 183.9832 781.3146 183.9296 781.5224 183.5535 C 781.7448 183.151 781.8808 183.2091 782.0151 182.7748 C 782.3626 181.6519 782.058 181.5035 782.486 180.4391 C 782.6841 179.9463 782.9886 180.1106 783.2673 179.6605 C 783.4707 179.332 783.3481 179.2648 783.4707 178.8819 C 783.7221 178.0969 783.5678 177.9733 784.0153 177.3247 C 784.3735 176.8054 784.5825 176.976 785.0822 176.5461 C 785.94 175.8081 785.9849 175.8282 786.7302 174.9889 C 787.0219 174.6603 786.8583 174.5258 787.1562 174.2103 C 787.5933 173.7472 787.676 173.818 788.2003 173.4317 C 788.7325 173.0394 788.8025 173.1146 789.2691 172.6531 C 789.9833 171.9467 789.9768 171.9139 790.562 171.0959 C 790.8122 170.746 790.6018 170.5474 790.94 170.3173 C 791.746 169.7688 792.0266 170.0801 792.8504 169.5387 C 793.2114 169.3015 792.96 169.0176 793.3097 168.7601 C 794.0172 168.239 794.5279 168.6038 794.9648 167.9815 C 795.3478 167.4359 795.0762 167.1743 795.3478 166.4243 C 795.6401 165.6171 795.5542 165.4972 796.0924 164.8671 C 796.5518 164.3293 796.7987 164.5627 797.343 164.0885 C 797.6923 163.7841 797.5832 163.6768 797.8795 163.3099 C 798.2119 162.8982 798.2941 162.9584 798.6002 162.5313 C 798.8522 162.1798 798.731 162.0922 798.9955 161.7527 C 799.3378 161.3136 799.4936 161.4224 799.8138 160.9741 C 800.0496 160.6438 799.9149 160.5627 800.1075 160.1955 C 800.5277 159.3948 800.7568 159.4835 801.0393 158.6383 C 801.4075 157.537 801.0393 157.3802 801.409 156.3025 C 801.5735 155.823 801.7293 155.8769 802.1168 155.5239 C 802.584 155.0983 802.5952 155.1021 803.1184 154.7453 C 803.7372 154.3235 803.9529 154.5188 804.4008 153.9668 C 804.9004 153.3509 804.4019 152.9048 805.0134 152.4095 C 806.3247 151.3476 806.7562 151.8118 808.2463 150.8524 C 809.1747 150.2546 809.1035 150.1194 809.8505 149.2952 C 810.162 148.9515 810.1955 148.9452 810.3633 148.5166 C 810.6526 147.7773 810.3633 147.6203 810.7646 146.9594 C 811.3087 146.0631 811.6069 146.2371 812.2908 145.4022 C 812.5635 145.0692 812.4247 144.9739 812.6779 144.6236 C 813.269 143.806 813.1677 143.6148 813.9796 143.0664 C 814.8965 142.4469 815.2213 142.8547 816.1356 142.2878 C 816.4769 142.0761 816.154 141.7293 816.4908 141.5092 C 817.3454 140.9507 817.5898 141.2495 818.5182 140.7306 C 818.9829 140.4709 818.8309 140.2497 819.2769 139.952 C 819.9974 139.4711 820.1926 139.6931 820.8513 139.1734 C 821.1795 138.9145 820.8775 138.5684 821.2507 138.3948 C 822.5518 137.7898 822.7586 138.0985 824.1999 137.6162 C 825.0852 137.3199 825.154 137.3518 825.904 136.8376 C 826.2896 136.5732 826.2115 136.4641 826.4711 136.059 C 826.9599 135.2962 826.9629 135.2946 827.4008 134.5018 C 827.608 134.1267 827.5967 134.1192 827.7613 133.7232 C 828.0821 132.9513 828.272 132.9812 828.3716 132.166 C 828.5574 130.6454 828.3716 130.3187 828.5574 129.0516 C 828.7142 127.9829 829.736 128.3722 830.679 127.4944 C 830.9906 127.2043 830.7688 127.0133 831.0667 126.7158 C 831.5485 126.2347 831.8755 126.4816 832.2385 125.9372 C 832.6543 125.3137 832.3364 125.1148 832.6543 124.3801 C 833.1786 123.1683 833.1566 123.1149 833.923 122.0443 C 834.5499 121.1684 834.547 121.0565 835.4409 120.4871 C 836.3801 119.8886 836.6148 120.2441 837.5892 119.7085 C 838.0312 119.4655 837.8775 119.2566 838.2737 118.9299 C 838.8216 118.478 838.8718 118.5346 839.4775 118.1513 C 840.1021 117.756 840.1642 117.8369 840.7341 117.3727 C 841.5979 116.669 841.5977 116.6418 842.345 115.8155 C 842.6539 115.4739 842.42 115.1546 842.8465 115.0369 C 845.2413 114.376 846.4026 114.9311 847.9877 114.2583 C 848.2369 114.1525 848.1788 113.8823 848.2369 113.4797 C 848.4035 112.3251 848.2369 112.0818 848.4372 111.1439 C 848.5695 110.5246 849.357 110.9365 849.7752 110.3653 C 850.2122 109.7686 849.8391 109.4925 850.2122 108.8081 C 850.4757 108.3246 850.6903 108.4704 851.0484 108.0295 C 851.6388 107.3025 851.708 107.3107 852.1091 106.4723 C 852.453 105.7535 852.1802 105.6105 852.5383 104.9151 C 852.7816 104.4426 852.8135 104.3261 853.3118 104.1365 C 854.8602 103.5475 855.0766 103.9421 856.6318 103.3579 C 857.1493 103.1635 856.9552 102.8163 857.4573 102.5793 C 858.6046 102.0377 858.8086 102.3607 859.9306 101.8007 C 860.3685 101.5821 860.2291 101.388 860.5771 101.0221 C 860.9698 100.6094 860.8982 100.4598 861.412 100.2435 C 862.7481 99.6812 862.9972 100.0597 864.2769 99.4649 C 864.6724 99.2811 864.4111 98.9571 864.7623 98.6863 C 865.4209 98.1785 865.4735 98.1321 866.2966 97.9077 C 868.3303 97.3535 868.4344 97.6704 870.4758 97.1291 C 871.3712 96.8918 871.3303 96.755 872.1701 96.3505 C 872.9469 95.9764 872.9922 96.0443 873.709 95.5719 C 874.7645 94.8764 874.7067 94.7865 875.7148 94.0148 C 876.7408 93.2293 877.179 93.4192 877.7774 92.4576 C 878.148 91.862 877.8684 91.6381 878.148 90.9004 C 878.3111 90.4702 878.4252 90.5228 878.6628 90.1218 C 878.8865 89.7442 879.0006 89.7679 879.0706 89.3432 C 879.2571 88.2107 879.0706 88.0382 879.2571 87.0074 C 879.3523 86.481 879.7763 86.6724 880.1655 86.2288 C 880.4594 85.8938 880.4729 85.8712 880.6234 85.4502 C 880.8902 84.7033 881 83.893 881 83.893" fill="none" stroke="#39a85a" stroke-width="2" paint-order="fill" stroke-opacity="1" stroke-dasharray="" stroke-linecap="butt" stroke-linejoin="bevel" stroke-miterlimit="10">
</path>
</g>
<path d="M -5 -5 L 153.5098 -5 L 153.5098 19 L -5 19 L -5 -5" fill="rgba(0,0,0,0)" fill-opacity="1" stroke="#ccc" stroke-width="0" paint-order="fill" stroke-opacity="1" stroke-dasharray="" stroke-linecap="butt" stroke-miterlimit="10" transform="matrix(1,0,0,1,373.7451,32.5)">
</path>
<path d="M 0 7 L 25 7" fill="#000" fill-opacity="1" stroke="#39a85a" stroke-width="2" paint-order="fill" stroke-opacity="1" stroke-dasharray="" transform="matrix(1,0,0,1,374.7451,32.5)">
</path>
<path d="M 18.1 7 A 5.6 5.6 0 1 1 18.1 6.9994" fill="#fff" fill-opacity="1" stroke="#39a85a" stroke-width="2" paint-order="fill" stroke-opacity="1" stroke-dasharray="" transform="matrix(1,0,0,1,374.7451,32.5)">
</path>
<text xml:space="preserve" fill="#333" fill-opacity="1" stroke="none" transform="matrix(1,0,0,1,374.7451,32.5)" dominant-baseline="central" text-anchor="start" x="30" y="7" style="font: 14px sans-serif;">apache/skywalking</text>
<path d="M -15 -14.6434 L 15 -14.6434 L 15 14.6434 L -15 14.6434 L -15 -14.6434" fill="none" fill-opacity="1" stroke="#ccc" stroke-width="0" paint-order="fill" stroke-opacity="1" stroke-dasharray="" stroke-linecap="butt" stroke-miterlimit="10" transform="matrix(1,0,0,1,881,14.6434)">
</path>
<path d="M -5 -5 L 5 -5 L 5 5 L -5 5 L -5 -5" fill="rgba(0,0,0,0)" fill-opacity="1" stroke="#ccc" stroke-width="0" paint-order="fill" stroke-opacity="1" stroke-dasharray="" stroke-linecap="butt" stroke-miterlimit="10" transform="matrix(1,0,0,1,5,5)">
</path>
<path d="M 5.1196 2.3717 C 4.1376 2.3717 3.3354 2.8977 2.9613 3.7131 L -1.7849 1.6943 C -1.508 1.2655 -1.3561 0.7401 -1.3561 0.1732 A 2.8641 2.8641 0 0 0 -1.4394 -0.518 L 1.5913 -2.8692 C 1.9932 -2.5653 2.5046 -2.3855 3.0723 -2.3855 C 4.4423 -2.3855 5.4659 -3.4084 5.4659 -4.7638 C 5.4659 -6.1191 4.4415 -7.1434 3.0723 -7.1434 C 1.7024 -7.1434 0.6919 -6.1206 0.6919 -4.7645 C 0.6919 -4.4189 0.7613 -4.1011 0.8717 -3.8242 L -1.9238 -1.6797 C -2.4769 -2.5097 -3.3902 -3.0906 -4.4277 -3.0906 A 3.0643 3.0643 0 0 0 -7.5 -0.0343 L -7.5 -0.0197 A 3.0643 3.0643 0 0 0 -4.4277 3.049 C -3.792 3.049 -3.1965 2.8838 -2.7121 2.5799 L 2.7399 4.9033 C 2.8093 6.1892 3.8059 7.1434 5.1196 7.1434 C 6.4903 7.1434 7.5 6.1206 7.5 4.7645 C 7.5 3.4092 6.4756 2.3717 5.1203 2.3717 Z" fill="none" stroke="#666" stroke-width="1" paint-order="fill" stroke-opacity="1" stroke-dasharray="" stroke-linecap="butt" stroke-miterlimit="10" transform="matrix(1,0,0,1,881,14.6434)">
</path>
<defs>
<linearGradient id="zr2608-gradient-0" x1="0" y1="0" x2="0" y2="1" gradientUnits="objectBoundingBox">
<stop offset="0%" stop-color="#39a85a80">
</stop>
<stop offset="100%" stop-color="#39a85a00">
</stop>
</linearGradient>
<clipPath id="zr2608-clip-1">
<path d="M 40 79 L 896.000000 79 L 896.000000 470.2987 L 40 470.2987 L 40 79" fill="#000" fill-opacity="1" stroke="none">
</path>
</clipPath>
</defs>
</g>
</svg>