<svg xmlns="http://www.w3.org/2000/svg" width="400" height="400" class="icon" viewBox="0 0 1024 1024"><path fill="#0091ff" d="M192 832a32 32 0 0 0 0 64h640a32 32 0 0 0 0-64H192zm0-64h640a96 96 0 0 1 0 192H192a96 96 0 0 1 0-192zm576-560a48 48 0 1 0 96 0 48 48 0 1 0-96 0Zm-608 0a48 48 0 1 0 96 0 48 48 0 1 0-96 0Z"/><path fill="#0091ff" d="M480 608a32 32 0 0 1 64 0v160a32 32 0 0 1-64 0V608z"/><path fill="#0091ff" d="M512 640a112 112 0 1 1 0-224 112 112 0 0 1 0 224zm0-64a48 48 0 1 0 0-96 48 48 0 0 0 0 96zm352-96a32 32 0 0 1 0-64h96a32 32 0 0 1 0 64h-96zm-800 0a32 32 0 0 1 0-64h96a32 32 0 0 1 0 64H64zM480 64a32 32 0 0 1 64 0v96a32 32 0 0 1-64 0V64z"/><path fill="#0091ff" d="M272.448 800h-64V512a304 304 0 0 1 608 0v288h-64V512a240 240 0 0 0-480 0v288z"/></svg>