<svg xmlns="http://www.w3.org/2000/svg" width="845.117" height="200" class="icon" viewBox="0 0 4327 1024"><path fill="#0068AF" d="M1739.617 441.967v2.334l-70.799 357.876c-9.334 46.68-21.783 65.351-69.24 65.351h-21.006c-42.01 0-63.795-20.227-73.91-60.682l-61.46-238.066c-.778-3.112-.778-3.89-2.334-3.89s-1.556.778-2.334 3.889l-61.462 238.067c-10.113 40.455-31.897 60.682-73.909 60.682h-21.005c-47.457 0-59.907-18.672-69.24-65.352l-20.2-106.943c-1.195 5.048.799-1.735 5.985-20.347l7.78-27.918 35.908-128.877h17.355l36.416 251.411c.777 7.002 2.334 10.892 3.89 10.892s3.89-3.113 5.445-10.892l64.574-261.405c7.779-30.342 17.116-33.454 43.568-33.454h54.458c26.452 0 35.788 3.112 43.569 33.454l64.572 261.404c1.556 7.78 3.89 10.892 5.446 10.892 1.556 0 3.112-3.89 3.89-10.892l49.014-329.09c.777-7.002 6.223-14.003 14.004-14.003h75.464c8.558 0 15.56 7.001 15.56 15.56zm379.539 407.668c0 8.558-7.003 15.56-15.56 15.56h-66.13c-8.557 0-15.559-7.002-15.559-15.56v-12.449c-35.788 21.785-72.353 34.232-109.697 34.232-64.573 0-134.593-24.896-134.593-129.924v-3.113c0-88.69 54.46-134.592 189.83-134.592h49.014v-34.231c0-50.57-22.562-63.017-68.463-63.017-49.792 0-101.14 3.112-126.813 6.223h-3.89c-7.78 0-14.003-2.334-14.003-13.225v-49.792c0-8.558 4.667-14.004 14.781-16.338 31.119-6.223 76.244-12.447 129.925-12.447 110.474 0 171.158 49.014 171.158 148.596v280.077zm-102.695-81.69v-95.691h-49.014c-70.796 0-86.357 22.561-86.357 66.128v3.114c0 38.12 17.116 48.234 56.016 48.234 28.008 0 56.793-9.335 79.355-21.784zm305.63 80.911c0 8.558-6.223 16.338-14.781 16.338h-72.354c-8.558 0-15.56-7.78-15.56-16.338V288.704c0-8.558 7.002-15.56 15.56-15.56h72.354c8.558 0 14.78 7.002 14.78 15.56v560.152zm453.449 7.003c0 4.667-4.668 9.335-10.892 9.335h-94.915c-8.557 0-17.893-8.558-22.561-15.559l-122.145-177.383v176.604c0 8.558-7.001 16.338-15.56 16.338h-71.575c-8.558 0-15.56-7.78-15.56-16.338V288.704c0-8.558 7.002-15.56 15.56-15.56h71.576c8.558 0 15.559 7.002 15.559 15.56v324.42l133.035-177.38c5.447-7.002 13.227-9.336 17.895-9.336h87.136c7.779 0 11.67 3.112 11.67 8.558 0 2.334-.78 4.668-3.113 7.78l-156.377 192.163 157.933 214.726c1.556 2.333 2.334 3.888 2.334 6.224zm176.483-503.36c0 8.558-7.001 15.559-15.56 15.559H2861c-8.558 0-16.338-7.001-16.338-15.56v-68.462c0-8.558 7.78-15.56 16.338-15.56h75.465c8.558 0 15.56 7.002 15.56 15.56v68.463zm-2.333 496.357c0 8.558-7.001 16.338-15.56 16.338h-71.575c-8.558 0-15.56-7.78-15.56-16.338V441.967c0-8.558 7.002-15.56 15.56-15.56h71.576c8.558 0 15.559 7.002 15.559 15.56v406.89zm458.117 0c0 8.558-7.003 16.338-15.56 16.338h-71.576c-8.557 0-15.559-7.78-15.559-16.338V595.231c0-67.685-6.224-87.134-66.13-87.134-26.451 0-55.237 10.892-87.912 28.007v312.753c0 8.558-7.002 16.338-15.56 16.338h-71.575c-8.558 0-15.56-7.78-15.56-16.338v-406.89c0-8.558 7.002-15.56 15.56-15.56h67.685c8.558 0 15.56 7.002 15.56 15.56v16.338c45.123-28.785 74.686-37.343 126.035-37.343 112.03 0 134.592 75.465 134.592 174.27v253.625zM3886.15 480.09c0 11.67-3.112 13.225-12.448 17.116l-25.673 10.113c12.448 17.895 19.449 35.01 19.449 62.24v5.446c0 97.248-66.907 141.594-184.384 141.594-41.233 0-69.24-7.002-84.8-13.226-9.337 6.224-13.226 13.226-13.226 20.228 0 15.56 8.558 21.784 26.451 25.673l91.803 21.785c105.807 24.896 174.27 41.232 174.27 124.478v5.446c0 79.354-58.348 122.144-190.607 122.144-126.036 0-192.942-47.457-192.942-129.146v-7.002c0-31.898 14.781-63.017 39.677-85.578-21.784-16.339-35.009-43.569-35.009-71.577v-.777c0-24.117 10.113-48.236 31.119-63.017-23.34-24.117-31.898-52.125-31.898-91.025v-5.446c0-77.799 50.57-143.15 185.162-143.15h182.05a20.918 20.918 0 0 1 21.006 21.005v32.676zm-119.811 97.249v-6.224c0-37.343-16.338-66.129-83.246-66.129-66.13 0-84.023 29.564-84.023 66.13v6.223c0 28.785 11.67 61.462 84.023 61.462 64.573 0 83.246-22.562 83.246-61.462zm8.558 323.644v-5.446c0-17.115-10.115-27.23-91.804-46.68l-69.241-16.338c-11.67 16.338-19.45 26.453-19.45 54.46v7.002c0 31.897 19.45 51.347 92.581 51.347 74.687 0 87.914-16.338 87.914-44.345zm-3400.775-293.9c0 78.577-49.014 162.599-204.611 162.599-58.349 0-100.36-5.446-137.704-14.004-7.78-1.555-14.782-7.001-14.782-15.56v-56.015c0-8.558 7.002-14.782 14.78-14.782h1.559c31.118 3.89 108.918 7.78 137.703 7.78 69.241 0 90.246-24.895 90.246-70.019 0-30.342-14.78-45.901-66.128-76.243L92.49 469.378C20.138 426.587.688 381.463.688 327.003c0-85.58 49.791-147.818 194.498-147.818 51.347 0 122.922 7.779 149.373 14.003 7.78 1.556 14.005 7.002 14.005 14.78v57.573c0 7.78-5.446 14.004-13.226 14.004h-1.557c-51.347-4.668-102.694-7.78-153.263-7.78-57.572 0-81.69 20.227-81.69 55.238 0 25.672 13.227 41.233 63.796 69.24l93.359 52.126c85.579 47.456 108.14 97.248 108.14 158.71zm433.999 147.04c0 4.667-4.667 9.334-10.892 9.334h-94.913c-8.56 0-17.896-8.557-22.563-15.56L557.61 570.517V747.12c0 8.558-7.004 16.338-15.56 16.338h-71.575c-8.558 0-15.56-7.78-15.56-16.338V186.966c0-8.558 7.002-15.56 15.56-15.56h71.575c8.558 0 15.56 7.002 15.56 15.56v324.422l133.036-177.38c5.446-7.002 13.226-9.336 17.893-9.336h87.136c7.78 0 11.67 3.112 11.67 8.558 0 2.334-.778 4.667-3.113 7.78L647.856 533.172 805.79 747.898c1.555 2.333 2.333 3.888 2.333 6.224zm434.777-416.226c0 1.556 0 3.113-.777 4.668l-129.925 454.347c-24.117 84.8-52.903 122.143-158.71 122.143-25.673 0-64.573-4.667-82.468-10.113-8.557-2.334-16.338-5.446-16.338-13.226v-49.79c0-8.559 7.003-14.005 15.56-14.005h1.557c21.784.778 66.13 4.669 87.912 4.669 33.454 0 50.57-9.337 61.462-49.792l6.224-23.34h-11.67c-22.562 0-50.57-5.446-67.686-64.573l-101.917-356.32c-.777-2.334-.777-3.89-.777-5.446 0-7.78 4.668-12.447 14.783-12.447h78.576c7.002 0 13.226 7.001 14.781 14.004l78.578 316.642c3.112 13.226 6.224 17.115 10.892 17.115h7.001l84.024-334.536c1.555-7.002 7.779-13.225 15.56-13.225h79.354c7.78 0 14.004 6.223 14.004 13.225z"/><path fill="#D8D8D8" d="M3643.813 155.204c21.087-4.693 42.91-7.632 64.789-8.778 219.435-11.5 406.84 158.192 418.404 378.856 3.959 75.522-14.056 150.44-50.384 215.553 154.856-55.217 259.635-206.25 250.597-378.724-11.005-209.969-189.682-371.76-398.48-360.815-114.165 5.982-218.47 63.932-284.926 153.908z"/></svg>