<svg width="213" height="76" viewBox="0 0 213 76" fill="none" xmlns="http://www.w3.org/2000/svg">
<path fill-rule="evenodd" clip-rule="evenodd" d="M57.0782 33.2905V33.368L54.7553 45.2506C54.449 46.8005 54.0406 47.4204 52.4835 47.4204H51.7942C50.4158 47.4204 49.7011 46.7488 49.3692 45.4056L47.3526 37.5011C47.3271 37.3977 47.3271 37.3719 47.2761 37.3719C47.225 37.3719 47.225 37.3977 47.1995 37.5011L45.1829 45.4056C44.851 46.7488 44.1363 47.4204 42.7579 47.4204H42.0687C40.5115 47.4204 40.1031 46.8005 39.7968 45.2506L39.1341 41.6997C39.0948 41.8673 39.1603 41.6421 39.3304 41.0241C39.5857 40.0971 39.5857 40.0971 39.5857 40.0971L40.7639 35.818C41.0191 35.818 41.3333 35.818 41.3333 35.818C41.3333 35.818 41.7316 38.6006 42.5281 44.1656C42.5537 44.3981 42.6047 44.5273 42.6558 44.5273C42.7068 44.5273 42.7834 44.424 42.8344 44.1656L44.9531 35.4862C45.2084 34.4788 45.5147 34.3754 46.3826 34.3754H48.1695C49.0374 34.3754 49.3437 34.4788 49.599 35.4862L51.7177 44.1656C51.7687 44.424 51.8453 44.5273 51.8963 44.5273C51.9474 44.5273 51.9985 44.3981 52.024 44.1656L53.6321 33.2388C53.6577 33.0063 53.8364 32.7739 54.0916 32.7739H56.5677C56.8485 32.7739 57.0782 33.0063 57.0782 33.2905ZM69.5312 46.8263C69.5312 47.1104 69.3015 47.3429 69.0207 47.3429H66.8509C66.5701 47.3429 66.3404 47.1104 66.3404 46.8263V46.413C65.1662 47.1363 63.9664 47.5496 62.7412 47.5496C60.6225 47.5496 58.3251 46.723 58.3251 43.2357V43.1324C58.3251 40.1876 60.1119 38.6635 64.5535 38.6635H66.1617V37.5269C66.1617 35.8478 65.4214 35.4345 63.9154 35.4345C62.2817 35.4345 60.5969 35.5379 59.7546 35.6412H59.6269C59.3717 35.6412 59.1675 35.5637 59.1675 35.202V33.5488C59.1675 33.2647 59.3206 33.0838 59.6525 33.0063C60.6735 32.7997 62.1541 32.593 63.9154 32.593C67.5401 32.593 69.5312 34.2204 69.5312 37.5269V46.8263ZM66.1617 44.114V40.9367H64.5535C62.2306 40.9367 61.7201 41.6858 61.7201 43.1324V43.2357C61.7201 44.5014 62.2817 44.8373 63.558 44.8373C64.477 44.8373 65.4214 44.5273 66.1617 44.114ZM76.1897 46.8005C76.1897 47.0846 75.9855 47.3429 75.7047 47.3429H73.3307C73.0499 47.3429 72.8202 47.0846 72.8202 46.8005V28.2017C72.8202 27.9175 73.0499 27.685 73.3307 27.685H75.7047C75.9855 27.685 76.1897 27.9175 76.1897 28.2017V46.8005ZM91.0677 47.033C91.0677 47.1879 90.9145 47.3429 90.7103 47.3429H87.5961C87.3153 47.3429 87.009 47.0588 86.8558 46.8263L82.8482 40.9367V46.8005C82.8482 47.0846 82.6184 47.3429 82.3376 47.3429H79.9892C79.7084 47.3429 79.4787 47.0846 79.4787 46.8005V28.2017C79.4787 27.9175 79.7084 27.685 79.9892 27.685H82.3376C82.6184 27.685 82.8482 27.9175 82.8482 28.2017V38.9735L87.2132 33.0838C87.3919 32.8514 87.6472 32.7739 87.8003 32.7739H90.6593C90.9145 32.7739 91.0422 32.8772 91.0422 33.058C91.0422 33.1355 91.0166 33.213 90.9401 33.3163L85.8092 39.6968L90.9911 46.8263C91.0422 46.9038 91.0677 46.9555 91.0677 47.033ZM96.8583 30.3199C96.8583 30.604 96.6285 30.8365 96.3477 30.8365H93.8717C93.5909 30.8365 93.3356 30.604 93.3356 30.3199V28.0467C93.3356 27.7625 93.5909 27.53 93.8717 27.53H96.3477C96.6285 27.53 96.8583 27.7625 96.8583 28.0467V30.3199ZM96.7817 46.8005C96.7817 47.0846 96.552 47.3429 96.2712 47.3429H93.9227C93.6419 47.3429 93.4122 47.0846 93.4122 46.8005V33.2905C93.4122 33.0063 93.6419 32.7739 93.9227 32.7739H96.2712C96.552 32.7739 96.7817 33.0063 96.7817 33.2905V46.8005ZM111.813 46.8005C111.813 47.0846 111.583 47.3429 111.302 47.3429H108.954C108.673 47.3429 108.443 47.0846 108.443 46.8005V38.3793C108.443 36.132 108.239 35.4862 106.274 35.4862C105.406 35.4862 104.461 35.8478 103.389 36.4161V46.8005C103.389 47.0846 103.159 47.3429 102.879 47.3429H100.53C100.249 47.3429 100.02 47.0846 100.02 46.8005V33.2905C100.02 33.0063 100.249 32.7739 100.53 32.7739H102.751C103.032 32.7739 103.261 33.0063 103.261 33.2905V33.833C104.742 32.8772 105.712 32.593 107.397 32.593C111.073 32.593 111.813 35.0987 111.813 38.3793V46.8005ZM127.508 34.5562C127.508 34.9437 127.406 34.9954 127.099 35.1245L126.257 35.4604C126.665 36.0545 126.895 36.6228 126.895 37.5269V37.7077C126.895 40.9367 124.7 42.4091 120.845 42.4091C119.492 42.4091 118.573 42.1766 118.063 41.9699C117.757 42.1766 117.629 42.4091 117.629 42.6416C117.629 43.1582 117.91 43.3649 118.497 43.494L121.509 44.2173C124.981 45.0439 127.227 45.5864 127.227 48.3504V48.5312C127.227 51.166 125.312 52.5868 120.973 52.5868C116.838 52.5868 114.642 51.011 114.642 48.2987V48.0662C114.642 47.0071 115.127 45.9739 115.944 45.2247C115.229 44.6823 114.796 43.7782 114.796 42.8482V42.8224C114.796 42.0216 115.127 41.2208 115.817 40.73C115.051 39.9292 114.77 38.9993 114.77 37.7077V37.5269C114.77 34.9437 116.429 32.7739 120.845 32.7739H126.819C127.201 32.7739 127.508 33.0838 127.508 33.4713V34.5562ZM123.577 37.7852V37.5786C123.577 36.3386 123.041 35.3829 120.845 35.3829C118.676 35.3829 118.088 36.3645 118.088 37.5786V37.7852C118.088 38.741 118.471 39.8259 120.845 39.8259C122.964 39.8259 123.577 39.0768 123.577 37.7852ZM123.857 48.5312V48.3504C123.857 47.7821 123.526 47.4463 120.845 46.8005L118.573 46.258C118.191 46.8005 117.935 47.1363 117.935 48.0662V48.2987C117.935 49.3578 118.573 50.0036 120.973 50.0036C123.423 50.0036 123.857 49.4611 123.857 48.5312Z" fill="#0068AF"/>
<path fill-rule="evenodd" clip-rule="evenodd" d="M12.2754 38.7726C12.2754 41.3816 10.6672 44.1715 5.56194 44.1715C3.64746 44.1715 2.26903 43.9906 1.04376 43.7065C0.788499 43.6548 0.558761 43.474 0.558761 43.1899V41.33C0.558761 41.0458 0.788499 40.8392 1.04376 40.8392H1.09482C2.11587 40.9683 4.66852 41.0975 5.613 41.0975C7.88485 41.0975 8.57407 40.2709 8.57407 38.7726C8.57407 37.7652 8.08906 37.2486 6.40432 36.2411L3.03483 34.2004C0.660866 32.7797 0.0227051 31.2814 0.0227051 29.4732C0.0227051 26.6317 1.6564 24.5652 6.40432 24.5652C8.08906 24.5652 10.4375 24.8235 11.3054 25.0302C11.5607 25.0818 11.7649 25.2627 11.7649 25.521V27.4325C11.7649 27.6908 11.5862 27.8975 11.3309 27.8975H11.2799C9.59512 27.7425 7.91038 27.6392 6.25116 27.6392C4.3622 27.6392 3.57088 28.3108 3.57088 29.4732C3.57088 30.3257 4.00483 30.8423 5.66405 31.7722L8.72722 33.503C11.5351 35.0787 12.2754 36.7319 12.2754 38.7726ZM26.5152 43.6548C26.5152 43.8098 26.3621 43.9648 26.1579 43.9648H23.0436C22.7628 43.9648 22.4565 43.6807 22.3034 43.4482L18.2957 37.5585V43.4223C18.2957 43.7065 18.066 43.9648 17.7852 43.9648H15.4368C15.156 43.9648 14.9262 43.7065 14.9262 43.4223V24.8235C14.9262 24.5394 15.156 24.3069 15.4368 24.3069H17.7852C18.066 24.3069 18.2957 24.5394 18.2957 24.8235V35.5953L22.6607 29.7057C22.8394 29.4732 23.0947 29.3957 23.2478 29.3957H26.1068C26.3621 29.3957 26.4897 29.4991 26.4897 29.6799C26.4897 29.7574 26.4642 29.8349 26.3876 29.9382L21.2568 36.3186L26.4387 43.4482C26.4897 43.5257 26.5152 43.5773 26.5152 43.6548ZM40.7806 29.8349C40.7806 29.8865 40.7806 29.9382 40.7551 29.9899L36.4921 45.0756C35.7008 47.8912 34.7563 49.1312 31.2847 49.1312C30.4424 49.1312 29.1661 48.9762 28.5789 48.7953C28.2982 48.7178 28.0429 48.6145 28.0429 48.3562V46.703C28.0429 46.4188 28.2726 46.238 28.5534 46.238C28.5789 46.238 28.5789 46.238 28.6045 46.238C29.3192 46.2638 30.7742 46.393 31.489 46.393C32.5866 46.393 33.1482 46.083 33.5056 44.7398L33.7098 43.9648H33.3269C32.5866 43.9648 31.6676 43.784 31.1061 41.8208L27.7621 29.9899C27.7366 29.9124 27.7366 29.8607 27.7366 29.809C27.7366 29.5507 27.8897 29.3957 28.2216 29.3957H30.7997C31.0295 29.3957 31.2337 29.6282 31.2847 29.8607L33.8629 40.3742C33.965 40.8133 34.0671 40.9425 34.2203 40.9425H34.2458C34.2969 40.9425 34.3479 40.9425 34.3735 40.9425C34.45 40.9425 34.45 40.9425 34.45 40.9425L37.2069 29.8349C37.2579 29.6024 37.4622 29.3957 37.7174 29.3957H40.3211C40.5764 29.3957 40.7806 29.6024 40.7806 29.8349Z" fill="#0068AF"/>
<path d="M119.554 23.7797C120.246 23.6235 120.963 23.5256 121.681 23.4871C128.886 23.1009 135.035 28.7285 135.41 36.0514C135.539 38.5576 134.946 41.0442 133.752 43.2058C138.837 41.3702 142.28 36.3558 141.987 30.6322C141.63 23.6643 135.767 18.2987 128.912 18.6662C125.163 18.8671 121.737 20.7924 119.554 23.7797Z" fill="#D8D8D8"/>
</svg>
