<svg xmlns="http://www.w3.org/2000/svg" width="400" height="400" class="icon" viewBox="0 0 1024 1024"><path fill="#0091ff" d="M336 544c-79.392 0-144 64.608-144 144s64.608 144 144 144 144-64.608 144-144-64.608-144-144-144zm0 224c-44.096 0-80-35.872-80-80s35.904-80 80-80 80 35.872 80 80-35.904 80-80 80zm464-512H588.576a32 32 0 1 0 0 64H800a32 32 0 1 0 0-64zm0 320H588.576a32 32 0 1 0 0 64H800a32 32 0 1 0 0-64zm0-192H588.576a32 32 0 1 0 0 64H800a32 32 0 1 0 0-64zm0 328H588.576a32 32 0 1 0 0 64H800a32 32 0 1 0 0-64zM440 235.808 319.008 384.416l-71.04-80.352a32 32 0 0 0-47.936 42.4l71.008 80.352a63.648 63.648 0 0 0 48.032 21.632 63.36 63.36 0 0 0 49.536-23.584L489.6 276.192a32 32 0 0 0-49.6-40.384z"/><path fill="#0091ff" d="M896 64H128c-35.296 0-64 28.704-64 64v768c0 35.296 28.704 64 64 64h768c35.296 0 64-28.704 64-64V128c0-35.296-28.704-64-64-64zM128 896V128h768l.064 768H128z"/></svg>