<?xml version="1.0" standalone="no"?><!DOCTYPE svg PUBLIC "-//W3C//DTD SVG 1.1//EN" "http://www.w3.org/Graphics/SVG/1.1/DTD/svg11.dtd"><svg t="1544583612048" class="icon" style="" viewBox="0 0 1024 1024" version="1.1" xmlns="http://www.w3.org/2000/svg" p-id="5978" xmlns:xlink="http://www.w3.org/1999/xlink" width="400" height="400"><defs><style type="text/css"></style></defs><path d="M856.32 428.064a32 32 0 0 0-32 32v163.328H372.48c-0.896 0-1.664 0.448-2.56 0.512v-177.696h244.48a32 32 0 1 0 0-64H130.56c-0.896 0-1.664 0.448-2.56 0.512V231.68h488.16a32 32 0 1 0 0-64H96a32 32 0 0 0-32 32v701.824a32 32 0 0 0 32 32h760.32a32 32 0 0 0 32-32V460.064a32 32 0 0 0-32-32zM128 445.728c0.896 0.064 1.664 0.512 2.56 0.512h175.36v423.264H128V445.728z m241.92 423.776v-182.624c0.896 0.064 1.664 0.512 2.56 0.512h451.84v182.08h-454.4zM960 174.656h-61.376V113.28a32 32 0 1 0-64 0v61.344H752.64a32 32 0 1 0 0 64h81.984v81.984a32 32 0 1 0 64 0V238.656H960a32 32 0 1 0 0-64z" p-id="5979" fill="#0091ff"></path></svg>