<svg xmlns="http://www.w3.org/2000/svg" width="400" height="400" class="icon" viewBox="0 0 1024 1024"><path fill="#0091ff" d="M856.32 428.064a32 32 0 0 0-32 32v163.328H372.48c-.896 0-1.664.448-2.56.512V446.208H614.4a32 32 0 1 0 0-64H130.56c-.896 0-1.664.448-2.56.512V231.68h488.16a32 32 0 1 0 0-64H96a32 32 0 0 0-32 32v701.824a32 32 0 0 0 32 32h760.32a32 32 0 0 0 32-32v-441.44a32 32 0 0 0-32-32zM128 445.728c.896.064 1.664.512 2.56.512h175.36v423.264H128V445.728zm241.92 423.776V686.88c.896.064 1.664.512 2.56.512h451.84v182.08h-454.4zM960 174.656h-61.376V113.28a32 32 0 1 0-64 0v61.344H752.64a32 32 0 1 0 0 64h81.984v81.984a32 32 0 1 0 64 0v-81.952H960a32 32 0 1 0 0-64z"/></svg>