<svg xmlns="http://www.w3.org/2000/svg" width="1556" height="1556" preserveAspectRatio="xMidYMid meet" version="1.0" viewBox="0 0 1167 1167"><metadata>Created by potrace 1.11, written by Peter Selinger 2001-2013</metadata><g fill="#000" stroke="none"><path d="M9470 8869 c-30 -4 -73 -9 -95 -12 -63 -8 -185 -35 -271 -61 -305 -92 -570 -249 -802 -474 -66 -63 -192 -210 -192 -223 0 -3 28 -1 63 7 171 36 501 40 677 9 14 -3 40 -7 57 -10 219 -36 526 -159 728 -292 356 -234 628 -568 783 -958 45 -113 92 -276 107 -365 3 -19 7 -46 10 -60 32 -169 35 -397 9 -595 -27 -210 -132 -537 -215 -671 -40 -65 -28 -63 181 38 376 182 705 517 884 899 69 148 132 342 152 465 3 21 7 41 9 44 18 30 28 445 13 563 -101 795 -681 1454 -1449 1646 -108 27 -115 28 -219 42 -101 14 -353 18 -430 8z" transform="translate(0.000000,1167.000000) scale(0.100000,-0.100000)"/><path d="M1668 8335 c-2 -2 -44 -6 -94 -9 -49 -4 -101 -8 -115 -10 -13 -3 -46 -7 -72 -11 -27 -4 -59 -8 -70 -11 -12 -2 -38 -7 -57 -10 -130 -19 -343 -87 -479 -150 -359 -168 -585 -454 -666 -842 -39 -190 -39 -476 1 -670 62 -304 239 -571 529 -800 54 -42 271 -192 279 -192 3 0 48 -27 101 -60 53 -33 98 -60 100 -60 10 0 1010 -605 1025 -620 3 -3 32 -23 65 -45 33 -22 96 -76 141 -121 92 -90 148 -189 161 -285 21 -153 -5 -347 -63 -460 -66 -132 -214 -228 -419 -275 -152 -34 -555 -38 -985 -9 -36 2 -112 7 -170 11 -58 3 -125 7 -150 9 -25 2 -85 7 -135 10 -49 4 -93 9 -96 11 -4 2 -43 5 -88 6 -91 2 -120 -11 -155 -72 -18 -30 -19 -56 -20 -309 -1 -152 2 -292 7 -311 17 -69 72 -104 207 -131 113 -22 120 -23 245 -44 107 -17 225 -33 315 -40 36 -3 83 -8 105 -10 174 -17 589 -23 789 -12 104 7 159 13 351 42 96 15 343 85 423 121 170 75 251 121 362 205 131 99 260 240 337 369 33 55 93 173 93 183 0 5 6 23 14 40 23 52 45 126 65 227 76 372 24 770 -139 1065 -71 129 -228 318 -341 410 -13 11 -47 39 -74 61 -106 87 -300 212 -525 337 -25 13 -121 67 -215 119 -93 52 -197 110 -229 128 -33 18 -98 55 -144 81 -47 27 -87 49 -89 49 -10 0 -281 161 -368 219 -113 75 -229 184 -268 251 -61 108 -77 274 -36 399 50 152 176 258 370 310 65 18 107 25 223 37 40 4 389 4 536 -1 257 -8 681 -34 832 -50 21 -2 88 -7 150 -10 101 -6 116 -4 144 13 60 38 62 55 60 392 -2 331 -1 327 -60 368 -29 20 -157 52 -266 66 -43 6 -94 13 -150 21 -45 7 -158 20 -259 30 -68 7 -108 11 -241 20 -47 3 -112 8 -145 11 -65 6 -642 14 -647 9z" transform="translate(0.000000,1167.000000) scale(0.100000,-0.100000)"/><path d="M4101 6969 c-54 -11 -99 -62 -106 -121 -4 -31 3 -82 29 -197 2 -10 7 -34 10 -52 3 -19 8 -43 10 -54 2 -11 19 -92 36 -180 17 -88 42 -212 55 -275 13 -63 27 -131 30 -150 3 -19 31 -159 61 -310 30 -151 57 -287 59 -303 3 -15 12 -59 20 -97 8 -38 17 -83 20 -99 3 -16 23 -120 45 -231 22 -111 42 -216 45 -234 3 -17 8 -38 10 -46 2 -8 6 -26 9 -40 33 -174 54 -281 106 -540 33 -168 70 -350 80 -405 59 -309 89 -416 145 -530 71 -143 176 -217 360 -252 22 -4 148 -7 280 -7 253 0 321 9 418 53 47 21 138 82 165 109 80 83 146 200 187 337 21 70 173 652 195 745 4 19 29 116 55 215 26 99 48 187 50 195 2 8 24 94 49 190 78 298 156 598 201 776 44 177 61 222 75 208 6 -7 67 -223 85 -304 3 -17 97 -381 125 -485 10 -38 48 -187 85 -330 37 -143 86 -334 110 -425 23 -91 77 -298 119 -460 90 -351 106 -402 157 -500 69 -133 176 -231 304 -279 109 -41 156 -46 415 -46 247 0 312 9 418 56 134 60 224 197 283 429 23 93 25 102 33 151 3 19 15 79 26 134 11 55 23 114 26 130 2 17 7 37 9 45 2 8 7 29 9 45 3 17 15 77 27 135 12 58 23 114 25 125 1 11 8 45 14 75 6 30 13 66 16 80 3 14 22 113 44 220 21 107 41 206 43 220 3 14 35 177 71 362 37 185 69 347 71 360 3 13 9 46 15 73 6 28 12 61 15 75 3 14 7 36 10 50 3 14 7 34 9 45 5 22 43 216 50 255 2 14 14 72 26 130 12 58 23 116 25 130 2 14 13 68 24 120 11 52 23 109 25 125 3 17 21 110 41 207 19 97 35 191 35 209 0 47 -28 96 -69 121 -36 23 -38 23 -426 23 -360 0 -393 -1 -418 -18 -39 -25 -64 -70 -72 -130 -4 -29 -9 -61 -10 -72 -2 -11 -7 -40 -10 -65 -3 -25 -10 -70 -15 -100 -5 -30 -12 -75 -15 -100 -3 -25 -10 -70 -15 -100 -5 -30 -12 -77 -16 -105 -3 -27 -8 -59 -10 -70 -2 -11 -7 -40 -10 -65 -3 -25 -7 -52 -9 -60 -2 -8 -7 -39 -10 -69 -4 -30 -8 -61 -10 -70 -2 -14 -7 -44 -20 -131 -11 -68 -36 -238 -40 -265 -4 -29 -21 -146 -31 -215 -10 -66 -13 -85 -25 -165 -6 -44 -13 -89 -15 -100 -2 -10 -6 -37 -9 -60 -3 -22 -8 -51 -10 -65 -2 -14 -7 -45 -10 -70 -5 -40 -19 -132 -30 -200 -2 -14 -7 -45 -10 -70 -8 -56 -14 -98 -20 -130 -2 -14 -7 -45 -10 -70 -6 -45 -33 -224 -41 -270 -2 -14 -6 -47 -10 -75 -3 -27 -7 -52 -9 -55 -1 -3 -6 -34 -10 -70 -4 -36 -9 -68 -11 -71 -1 -3 -6 -34 -10 -70 -8 -76 -24 -131 -41 -136 -6 -3 -19 9 -27 25 -12 23 -65 222 -91 342 -2 8 -65 263 -140 565 -75 303 -138 559 -141 570 -2 11 -29 121 -60 245 -31 124 -58 233 -60 243 -2 9 -6 25 -8 35 -2 9 -16 64 -31 122 -15 58 -29 114 -31 125 -14 72 -86 340 -104 388 -45 119 -117 179 -232 193 -67 9 -738 9 -796 1 -103 -15 -168 -64 -213 -161 -24 -52 -77 -234 -93 -316 -2 -14 -28 -117 -56 -230 -28 -113 -53 -212 -55 -221 -2 -9 -8 -33 -14 -55 -8 -30 -167 -672 -187 -756 -2 -10 -6 -26 -8 -35 -2 -10 -30 -120 -61 -245 -30 -124 -57 -234 -59 -245 -2 -10 -14 -56 -26 -103 -12 -47 -23 -92 -25 -100 -3 -14 -31 -126 -40 -160 -2 -8 -12 -51 -23 -95 -26 -106 -38 -135 -56 -135 -19 0 -33 50 -51 180 -3 25 -8 52 -10 60 -2 8 -6 38 -10 65 -3 28 -12 91 -20 140 -8 50 -17 110 -20 135 -3 25 -8 52 -10 60 -2 8 -6 38 -10 65 -3 28 -7 61 -10 75 -2 14 -7 43 -10 65 -3 22 -12 81 -19 130 -8 50 -17 113 -21 140 -3 28 -8 57 -10 65 -2 8 -7 38 -10 65 -3 28 -12 91 -20 140 -15 98 -35 225 -40 265 -2 14 -7 45 -11 70 -4 25 -8 56 -10 70 -3 31 -9 70 -35 240 -12 74 -22 146 -24 160 -2 14 -8 54 -14 90 -6 36 -13 85 -16 110 -3 25 -10 70 -15 100 -5 30 -12 78 -15 105 -4 28 -8 57 -10 65 -2 8 -7 38 -10 65 -3 28 -10 75 -15 105 -11 64 -40 259 -46 310 -11 88 -29 124 -79 156 -27 18 -51 19 -400 19 -204 0 -386 -2 -404 -6z" transform="translate(0.000000,1167.000000) scale(0.100000,-0.100000)"/></g></svg>