<svg xmlns="http://www.w3.org/2000/svg" width="1556" height="1556" version="1.0" viewBox="0 0 1167 1167"><path d="M947 280.1c-3 .4-7.3.9-9.5 1.2-6.3.8-18.5 3.5-27.1 6.1-30.5 9.2-57 24.9-80.2 47.4-6.6 6.3-19.2 21-19.2 22.3 0 .3 2.8.1 6.3-.7 17.1-3.6 50.1-4 67.7-.9 1.4.3 4 .7 5.7 1 21.9 3.6 52.6 15.9 72.8 29.2 35.6 23.4 62.8 56.8 78.3 95.8 4.5 11.3 9.2 27.6 10.7 36.5.3 1.9.7 4.6 1 6 3.2 16.9 3.5 39.7.9 59.5-2.7 21-13.2 53.7-21.5 67.1-4 6.5-2.8 6.3 18.1-3.8 37.6-18.2 70.5-51.7 88.4-89.9 6.9-14.8 13.2-34.2 15.2-46.5.3-2.1.7-4.1.9-4.4 1.8-3 2.8-44.5 1.3-56.3-10.1-79.5-68.1-145.4-144.9-164.6-10.8-2.7-11.5-2.8-21.9-4.2-10.1-1.4-35.3-1.8-43-.8zm-780.2 53.4c-.2.2-4.4.6-9.4.9-4.9.4-10.1.8-11.5 1-1.3.3-4.6.7-7.2 1.1-2.7.4-5.9.8-7 1.1-1.2.2-3.8.7-5.7 1-13 1.9-34.3 8.7-47.9 15-35.9 16.8-58.5 45.4-66.6 84.2-3.9 19-3.9 47.6.1 67 6.2 30.4 23.9 57.1 52.9 80C69.9 589 91.6 604 92.4 604c.3 0 4.8 2.7 10.1 6s9.8 6 10 6c1 0 101 60.5 102.5 62 .3.3 3.2 2.3 6.5 4.5s9.6 7.6 14.1 12.1c9.2 9 14.8 18.9 16.1 28.5 2.1 15.3-.5 34.7-6.3 46-6.6 13.2-21.4 22.8-41.9 27.5-15.2 3.4-55.5 3.8-98.5.9-3.6-.2-11.2-.7-17-1.1-5.8-.3-12.5-.7-15-.9-2.5-.2-8.5-.7-13.5-1-4.9-.4-9.3-.9-9.6-1.1-.4-.2-4.3-.5-8.8-.6-9.1-.2-12 1.1-15.5 7.2-1.8 3-1.9 5.6-2 30.9-.1 15.2.2 29.2.7 31.1 1.7 6.9 7.2 10.4 20.7 13.1 11.3 2.2 12 2.3 24.5 4.4 10.7 1.7 22.5 3.3 31.5 4 3.6.3 8.3.8 10.5 1 17.4 1.7 58.9 2.3 78.9 1.2 10.4-.7 15.9-1.3 35.1-4.2 9.6-1.5 34.3-8.5 42.3-12.1 17-7.5 25.1-12.1 36.2-20.5 13.1-9.9 26-24 33.7-36.9 3.3-5.5 9.3-17.3 9.3-18.3 0-.5.6-2.3 1.4-4 2.3-5.2 4.5-12.6 6.5-22.7 7.6-37.2 2.4-77-13.9-106.5-7.1-12.9-22.8-31.8-34.1-41-1.3-1.1-4.7-3.9-7.4-6.1-10.6-8.7-30-21.2-52.5-33.7-2.5-1.3-12.1-6.7-21.5-11.9-9.3-5.2-19.7-11-22.9-12.8-3.3-1.8-9.8-5.5-14.4-8.1-4.7-2.7-8.7-4.9-8.9-4.9-1 0-28.1-16.1-36.8-21.9-11.3-7.5-22.9-18.4-26.8-25.1-6.1-10.8-7.7-27.4-3.6-39.9 5-15.2 17.6-25.8 37-31 6.5-1.8 10.7-2.5 22.3-3.7 4-.4 38.9-.4 53.6.1 25.7.8 68.1 3.4 83.2 5 2.1.2 8.8.7 15 1 10.1.6 11.6.4 14.4-1.3 6-3.8 6.2-5.5 6-39.2-.2-33.1-.1-32.7-6-36.8-2.9-2-15.7-5.2-26.6-6.6-4.3-.6-9.4-1.3-15-2.1-4.5-.7-15.8-2-25.9-3-6.8-.7-10.8-1.1-24.1-2-4.7-.3-11.2-.8-14.5-1.1-6.5-.6-64.2-1.4-64.7-.9z"/><path d="M410.1 470.1c-5.4 1.1-9.9 6.2-10.6 12.1-.4 3.1.3 8.2 2.9 19.7.2 1 .7 3.4 1 5.2.3 1.9.8 4.3 1 5.4.2 1.1 1.9 9.2 3.6 18 1.7 8.8 4.2 21.2 5.5 27.5 1.3 6.3 2.7 13.1 3 15 .3 1.9 3.1 15.9 6.1 31 3 15.1 5.7 28.7 5.9 30.3.3 1.5 1.2 5.9 2 9.7.8 3.8 1.7 8.3 2 9.9.3 1.6 2.3 12 4.5 23.1 2.2 11.1 4.2 21.6 4.5 23.4.3 1.7.8 3.8 1 4.6.2.8.6 2.6.9 4 3.3 17.4 5.4 28.1 10.6 54 3.3 16.8 7 35 8 40.5 5.9 30.9 8.9 41.6 14.5 53 7.1 14.3 17.6 21.7 36 25.2 2.2.4 14.8.7 28 .7 25.3 0 32.1-.9 41.8-5.3 4.7-2.1 13.8-8.2 16.5-10.9 8-8.3 14.6-20 18.7-33.7 2.1-7 17.3-65.2 19.5-74.5.4-1.9 2.9-11.6 5.5-21.5s4.8-18.7 5-19.5c.2-.8 2.4-9.4 4.9-19 7.8-29.8 15.6-59.8 20.1-77.6 4.4-17.7 6.1-22.2 7.5-20.8.6.7 6.7 22.3 8.5 30.4.3 1.7 9.7 38.1 12.5 48.5 1 3.8 4.8 18.7 8.5 33s8.6 33.4 11 42.5c2.3 9.1 7.7 29.8 11.9 46 9 35.1 10.6 40.2 15.7 50 6.9 13.3 17.6 23.1 30.4 27.9 10.9 4.1 15.6 4.6 41.5 4.6 24.7 0 31.2-.9 41.8-5.6 13.4-6 22.4-19.7 28.3-42.9 2.3-9.3 2.5-10.2 3.3-15.1.3-1.9 1.5-7.9 2.6-13.4s2.3-11.4 2.6-13c.2-1.7.7-3.7.9-4.5.2-.8.7-2.9.9-4.5.3-1.7 1.5-7.7 2.7-13.5 1.2-5.8 2.3-11.4 2.5-12.5.1-1.1.8-4.5 1.4-7.5.6-3 1.3-6.6 1.6-8 .3-1.4 2.2-11.3 4.4-22 2.1-10.7 4.1-20.6 4.3-22 .3-1.4 3.5-17.7 7.1-36.2 3.7-18.5 6.9-34.7 7.1-36 .3-1.3.9-4.6 1.5-7.3.6-2.8 1.2-6.1 1.5-7.5.3-1.4.7-3.6 1-5 .3-1.4.7-3.4.9-4.5.5-2.2 4.3-21.6 5-25.5.2-1.4 1.4-7.2 2.6-13 1.2-5.8 2.3-11.6 2.5-13 .2-1.4 1.3-6.8 2.4-12 1.1-5.2 2.3-10.9 2.5-12.5.3-1.7 2.1-11 4.1-20.7 1.9-9.7 3.5-19.1 3.5-20.9 0-4.7-2.8-9.6-6.9-12.1-3.6-2.3-3.8-2.3-42.6-2.3-36 0-39.3.1-41.8 1.8-3.9 2.5-6.4 7-7.2 13-.4 2.9-.9 6.1-1 7.2-.2 1.1-.7 4-1 6.5-.3 2.5-1 7-1.5 10s-1.2 7.5-1.5 10c-.3 2.5-1 7-1.5 10s-1.2 7.7-1.6 10.5c-.3 2.7-.8 5.9-1 7-.2 1.1-.7 4-1 6.5-.3 2.5-.7 5.2-.9 6-.2.8-.7 3.9-1 6.9-.4 3-.8 6.1-1 7-.2 1.4-.7 4.4-2 13.1-1.1 6.8-3.6 23.8-4 26.5-.4 2.9-2.1 14.6-3.1 21.5-1 6.6-1.3 8.5-2.5 16.5-.6 4.4-1.3 8.9-1.5 10-.2 1-.6 3.7-.9 6-.3 2.2-.8 5.1-1 6.5-.2 1.4-.7 4.5-1 7-.5 4-1.9 13.2-3 20-.2 1.4-.7 4.5-1 7-.8 5.6-1.4 9.8-2 13-.2 1.4-.7 4.5-1 7-.6 4.5-3.3 22.4-4.1 27-.2 1.4-.6 4.7-1 7.5-.3 2.7-.7 5.2-.9 5.5-.1.3-.6 3.4-1 7s-.9 6.8-1.1 7.1c-.1.3-.6 3.4-1 7-.8 7.6-2.4 13.1-4.1 13.6-.6.3-1.9-.9-2.7-2.5-1.2-2.3-6.5-22.2-9.1-34.2-.2-.8-6.5-26.3-14-56.5-7.5-30.3-13.8-55.9-14.1-57-.2-1.1-2.9-12.1-6-24.5s-5.8-23.3-6-24.3c-.2-.9-.6-2.5-.8-3.5-.2-.9-1.6-6.4-3.1-12.2-1.5-5.8-2.9-11.4-3.1-12.5-1.4-7.2-8.6-34-10.4-38.8-4.5-11.9-11.7-17.9-23.2-19.3-6.7-.9-73.8-.9-79.6-.1-10.3 1.5-16.8 6.4-21.3 16.1-2.4 5.2-7.7 23.4-9.3 31.6-.2 1.4-2.8 11.7-5.6 23s-5.3 21.2-5.5 22.1c-.2.9-.8 3.3-1.4 5.5-.8 3-16.7 67.2-18.7 75.6-.2 1-.6 2.6-.8 3.5-.2 1-3 12-6.1 24.5-3 12.4-5.7 23.4-5.9 24.5-.2 1-1.4 5.6-2.6 10.3-1.2 4.7-2.3 9.2-2.5 10-.3 1.4-3.1 12.6-4 16-.2.8-1.2 5.1-2.3 9.5-2.6 10.6-3.8 13.5-5.6 13.5-1.9 0-3.3-5-5.1-18-.3-2.5-.8-5.2-1-6-.2-.8-.6-3.8-1-6.5-.3-2.8-1.2-9.1-2-14-.8-5-1.7-11-2-13.5-.3-2.5-.8-5.2-1-6-.2-.8-.6-3.8-1-6.5-.3-2.8-.7-6.1-1-7.5-.2-1.4-.7-4.3-1-6.5-.3-2.2-1.2-8.1-1.9-13-.8-5-1.7-11.3-2.1-14-.3-2.8-.8-5.7-1-6.5-.2-.8-.7-3.8-1-6.5-.3-2.8-1.2-9.1-2-14-1.5-9.8-3.5-22.5-4-26.5-.2-1.4-.7-4.5-1.1-7-.4-2.5-.8-5.6-1-7-.3-3.1-.9-7-3.5-24-1.2-7.4-2.2-14.6-2.4-16-.2-1.4-.8-5.4-1.4-9-.6-3.6-1.3-8.5-1.6-11-.3-2.5-1-7-1.5-10s-1.2-7.8-1.5-10.5c-.4-2.8-.8-5.7-1-6.5-.2-.8-.7-3.8-1-6.5-.3-2.8-1-7.5-1.5-10.5-1.1-6.4-4-25.9-4.6-31-1.1-8.8-2.9-12.4-7.9-15.6-2.7-1.8-5.1-1.9-40-1.9-20.4 0-38.6.2-40.4.6z"/></svg>