<svg xmlns="http://www.w3.org/2000/svg" width="1026" height="461" viewBox="134 170 1026 461"><defs><marker id="a" stroke-linejoin="miter" stroke-miterlimit="10" color="#000" markerHeight="6" markerUnits="strokeWidth" markerWidth="7" orient="auto" overflow="visible" viewBox="-1 -3 7 6"><path fill="currentColor" stroke="currentColor" d="M4.8 0 0-1.8v3.6Z"/></marker></defs><g fill="none"><path fill="#fff" d="M134 170h1026v461H134z"/><path fill="#fff" d="M134.25 170h1025v461h-1025z"/><path fill="#333" d="M643 235.5h500v40H643z"/><text fill="#fff" transform="translate(648 245.768)">
          <tspan x="239.52" y="16" font-family="Helvetica Neue" font-size="16" font-weight="bold">A</tspan>
        </text><path fill="#333" d="M685 307.732h458v40H685z"/><text fill="#fff" transform="translate(690 318)">
          <tspan x="218.368" y="16" font-family="Helvetica Neue" font-size="16" font-weight="bold">B</tspan>
        </text><path fill="#333" d="M716 370.616h414.5v40H716z"/><text fill="#fff" transform="translate(721 380.884)">
          <tspan x="196.322" y="16" font-family="Helvetica Neue" font-size="16" font-weight="bold">C</tspan>
        </text><path fill="#333" d="M928 433.5h202.5v40H928z"/><text fill="#fff" transform="translate(933 443.768)">
          <tspan x="90.322" y="16" font-family="Helvetica Neue" font-size="16" font-weight="bold">D</tspan>
        </text><path fill="#333" d="M704.5 496.384h215v40h-215z"/><text fill="#fff" transform="translate(709.5 506.652)">
          <tspan x="97.316" y="16" font-family="Helvetica Neue" font-size="16" font-weight="bold">E</tspan>
        </text><path fill="#fff" d="M629.855 246h7.5v20h-7.5zm0 256.5h7.5v20h-7.5z"/><path stroke="#000" stroke-linecap="round" stroke-linejoin="round" stroke-width="2" d="M629.855 255.82H616.5V512.5h13.355"/><text fill="#000" transform="translate(539.784 380.768)">
          <tspan x="0" y="16" font-family="Helvetica Neue" font-size="16" font-weight="bold">TRACE</tspan>
        </text><path fill="#fff" d="M643 550h7.5v20H643zm501 0h7.5v20h-7.5z"/><path stroke="#000" stroke-linecap="round" stroke-linejoin="round" stroke-width="2" d="M646.75 570v16.139H1144V570"/><text fill="#000" transform="translate(866.464 597)">
          <tspan x="0" y="16" font-family="Helvetica Neue" font-size="16" font-weight="bold">SPANS</tspan>
        </text><text fill="#000" transform="translate(1082 183.536)">
          <tspan x="0" y="16" font-family="Helvetica Neue" font-size="16" font-style="italic" font-weight="bold">time</tspan>
        </text><path fill="#fff" d="M1135.5 199h7.5v20h-7.5zm-505.645 0h7.5v20h-7.5z"/><path stroke="#000" stroke-dasharray="8.0,8.0" stroke-linecap="round" stroke-linejoin="round" stroke-width="2" marker-end="url(#a)" d="M637.355 209H1122.6"/><circle cx="411.506" cy="285.5" r="22.5" fill="#fff"/><circle cx="411.506" cy="285.5" r="22.5" stroke="gray" stroke-linecap="round" stroke-linejoin="round"/><text fill="#000" transform="translate(398.506 275.768)">
          <tspan x="7.52" y="16" font-family="Helvetica Neue" font-size="16" font-weight="bold">A</tspan>
        </text><circle cx="335.81" cy="397.5" r="22.5" fill="#fff"/><circle cx="335.81" cy="397.5" r="22.5" stroke="gray" stroke-linecap="round" stroke-linejoin="round"/><text fill="#000" transform="translate(322.81 387.768)">
          <tspan x="7.368" y="16" font-family="Helvetica Neue" font-size="16" font-weight="bold">B</tspan>
        </text><circle cx="194.864" cy="588.5" r="22.5" fill="#fff"/><circle cx="194.864" cy="588.5" r="22.5" stroke="gray" stroke-linecap="round" stroke-linejoin="round"/><text fill="#000" transform="translate(181.864 578.768)">
          <tspan x="7.072" y="16" font-family="Helvetica Neue" font-size="16" font-weight="bold">D</tspan>
        </text><circle cx="260.114" cy="502" r="22.5" fill="#fff"/><circle cx="260.114" cy="502" r="22.5" stroke="gray" stroke-linecap="round" stroke-linejoin="round"/><text fill="#000" transform="translate(247.114 492.268)">
          <tspan x="7.072" y="16" font-family="Helvetica Neue" font-size="16" font-weight="bold">C</tspan>
        </text><circle cx="411.506" cy="502" r="22.5" fill="#fff"/><circle cx="411.506" cy="502" r="22.5" stroke="gray" stroke-linecap="round" stroke-linejoin="round"/><text fill="#000" transform="translate(398.506 492.268)">
          <tspan x="7.816" y="16" font-family="Helvetica Neue" font-size="16" font-weight="bold">E</tspan>
        </text><path stroke="#000" stroke-linecap="round" stroke-linejoin="round" stroke-width="2" marker-end="url(#a)" d="m398.905 304.145-43.27 64.022"/><path stroke="#000" stroke-linecap="round" stroke-linejoin="round" stroke-width="2" marker-end="url(#a)" d="m322.609 415.724-41.726 57.604"/><path stroke="#000" stroke-linecap="round" stroke-linejoin="round" stroke-width="2" marker-end="url(#a)" d="m349.011 415.724 41.726 57.604"/><path stroke="#000" stroke-linecap="round" stroke-linejoin="round" stroke-width="2" marker-end="url(#a)" d="m246.563 519.965-30.379 40.272"/><path stroke="#000" stroke-linecap="round" stroke-linejoin="round" stroke-width="2" marker-end="url(#a)" d="M411.506 225.5v24.6"/><path fill="#fff" d="M407.756 205.5h7.5v20h-7.5z"/><text fill="#000" transform="translate(382.178 194)">
          <tspan x="0" y="16" font-family="Helvetica Neue" font-size="16" font-weight="bold">TraceID</tspan>
        </text><text fill="#000" transform="translate(311.946 318)">
          <tspan x="0" y="16" font-family="Helvetica Neue" font-size="16" font-weight="bold">Span2</tspan>
        </text><text fill="#000" transform="translate(171 532)">
          <tspan x="0" y="16" font-family="Helvetica Neue" font-size="16" font-weight="bold">Span4</tspan>
        </text><text fill="#000" transform="translate(236.25 428)">
          <tspan x="0" y="16" font-family="Helvetica Neue" font-size="16" font-weight="bold">Span3</tspan>
        </text><text fill="#000" transform="translate(387.642 432)">
          <tspan x="0" y="16" font-family="Helvetica Neue" font-size="16" font-weight="bold">Span5</tspan>
        </text><text fill="#000" transform="translate(423.114 231)">
          <tspan x="0" y="16" font-family="Helvetica Neue" font-size="16" font-weight="bold">Span1</tspan>
        </text></g></svg>