<svg xmlns="http://www.w3.org/2000/svg" width="659" height="244" viewBox="794 65 659 244"><defs><marker id="a" stroke-linejoin="miter" stroke-miterlimit="10" color="#000" markerHeight="8" markerUnits="strokeWidth" markerWidth="10" orient="auto" overflow="visible" viewBox="-1 -4 10 8"><path fill="currentColor" stroke="currentColor" d="M8 0 0-3v6Z"/></marker></defs><g fill="none"><path fill="#fff" d="M794 65h659v244H794z"/><path fill="#fff" d="M794.955 65.375h657.5v242.75h-657.5z"/><path fill="#fff" d="M1016.293 82h214.824v209.5h-214.824z"/><path stroke="gray" stroke-linecap="round" stroke-linejoin="round" d="M1016.293 82h214.824v209.5h-214.824z"/><text fill="#000" transform="translate(1021.293 87)">
          <tspan x="85.411" y="18" font-family="Helvetica Neue" font-size="18" font-weight="bold">Pod</tspan>
        </text><path fill="#333" d="M1063.705 233.5h120v40h-120z"/><text fill="#fff" transform="translate(1068.705 243.768)">
          <tspan x="39.744" y="16" font-family="Helvetica Neue" font-size="16" font-weight="bold">App</tspan>
        </text><path fill="#f15623" d="M1063.705 123.5h120v40h-120z"/><text fill="#fff" transform="translate(1068.705 133.768)">
          <tspan x="31.872" y="16" font-family="Helvetica Neue" font-size="16" font-weight="bold">Envoy</tspan>
        </text><path fill="#fff" d="M803.5 119.75H912v47.5H803.5z"/><path stroke="gray" stroke-linecap="round" stroke-linejoin="round" d="M803.5 119.75H912v47.5H803.5z"/><text fill="#000" transform="translate(808.5 133.768)">
          <tspan x=".666" y="16" font-family="Helvetica Neue" font-size="16" font-weight="bold">Downstream</tspan>
        </text><path fill="#fff" d="M1335.41 119.75h108.5v47.5h-108.5z"/><path stroke="gray" stroke-linecap="round" stroke-linejoin="round" d="M1335.41 119.75h108.5v47.5h-108.5z"/><text fill="#000" transform="translate(1340.41 133.768)">
          <tspan x="11.922" y="16" font-family="Helvetica Neue" font-size="16" font-weight="bold">Upstream</tspan>
        </text><path stroke="#000" stroke-linecap="round" stroke-linejoin="round" marker-end="url(#a)" d="M912 143.5h141.805"/><path stroke="#000" stroke-linecap="round" stroke-linejoin="round" marker-end="url(#a)" d="M1183.705 143.5h141.805"/><path fill="#fff" d="M943.823 128.768h42.039v23.571c-12.612-2.946-29.427 8.84-42.039 2.947Z"/><path stroke="gray" stroke-linecap="round" stroke-linejoin="round" d="M943.823 128.768h42.039v23.571c-12.612-2.946-29.427 8.84-42.039 2.947Z"/><text fill="#000" transform="translate(948.823 134.353)">
          <tspan x="1.457" y="12" font-family="Helvetica Neue" font-size="12" font-weight="bold">Span</tspan>
        </text><path stroke="#000" stroke-linecap="round" stroke-linejoin="round" marker-end="url(#a)" d="M1089.377 163.5v60.1"/><path stroke="#000" stroke-linecap="round" stroke-linejoin="round" marker-end="url(#a)" d="M1155.455 233.5v-60.1"/><path fill="#fff" d="M929.651 93h68.992v28.448h-68.992z"/><text fill="#000" transform="translate(934.65 98)">
          <tspan x="0" y="15" font-family="Helvetica Neue" font-size="16">Inbound</tspan>
        </text><path fill="#fff" d="M1242.239 93h82.048v28.448h-82.048z"/><text fill="#000" transform="translate(1247.24 98)">
          <tspan x="0" y="15" font-family="Helvetica Neue" font-size="16">Outbound</tspan>
        </text><path fill="#fff" d="M1068.358 181.093h42.038v23.571c-12.611-2.946-29.427 8.84-42.038 2.946Z"/><path stroke="gray" stroke-linecap="round" stroke-linejoin="round" d="M1068.358 181.093h42.038v23.571c-12.611-2.946-29.427 8.84-42.038 2.946Z"/><text fill="#000" transform="translate(1073.358 186.677)">
          <tspan x="1.457" y="12" font-family="Helvetica Neue" font-size="12" font-weight="bold">Span</tspan>
        </text><path fill="#fff" d="M1134.436 181.183h42.038v23.57c-12.611-2.946-29.427 8.84-42.038 2.947Z"/><path stroke="gray" stroke-linecap="round" stroke-linejoin="round" d="M1134.436 181.183h42.038v23.57c-12.611-2.946-29.427 8.84-42.038 2.947Z"/><text fill="#000" transform="translate(1139.436 186.767)">
          <tspan x="1.457" y="12" font-family="Helvetica Neue" font-size="12" font-weight="bold">Span</tspan>
        </text><path fill="#fff" d="M1258.362 128.768h42.038v23.571c-12.612-2.946-29.427 8.84-42.038 2.947Z"/><path stroke="gray" stroke-linecap="round" stroke-linejoin="round" d="M1258.362 128.768h42.038v23.571c-12.612-2.946-29.427 8.84-42.038 2.947Z"/><text fill="#000" transform="translate(1263.362 134.353)">
          <tspan x="1.457" y="12" font-family="Helvetica Neue" font-size="12" font-weight="bold">Span</tspan>
        </text></g></svg>