<svg xmlns="http://www.w3.org/2000/svg" width="445" height="649" viewBox="423 28 445 649"><defs><marker id="a" stroke-linejoin="miter" stroke-miterlimit="10" color="#000" markerHeight="8" markerUnits="strokeWidth" markerWidth="10" orient="auto" overflow="visible" viewBox="-1 -4 10 8"><path fill="currentColor" stroke="currentColor" d="M8 0 0-3v6Z"/></marker></defs><g fill="none"><path fill="#fff" d="M423 28h445v649H423z"/><path fill="#fff" d="M423 28h444.5v648.2H423z"/><path fill="#fff" d="M575.25 180.099h140v130h-140z"/><path stroke="gray" stroke-linecap="round" stroke-linejoin="round" d="M575.25 180.099h140v130h-140z"/><path fill="#f15623" d="M575.25 108.362h140v40h-140z"/><text fill="#fff" transform="translate(580.25 118.63)">
          <tspan x="1.304" y="16" font-family="Helvetica Neue" font-size="16" font-weight="bold">Ingress Gateway</tspan>
        </text><path fill="#333" d="M585.25 270.804h120v30h-120z"/><text fill="#fff" transform="translate(590.25 276.072)">
          <tspan x="5.808" y="16" font-family="Helvetica Neue" font-size="16" font-weight="bold">Productpage</tspan>
        </text><path fill="#f15623" d="M585.25 209.804h120v30h-120z"/><text fill="#fff" transform="translate(590.25 215.072)">
          <tspan x="31.872" y="16" font-family="Helvetica Neue" font-size="16" font-weight="bold">Envoy</tspan>
        </text><path stroke="#000" stroke-linecap="round" stroke-linejoin="round" marker-end="url(#a)" d="M645.25 76.625v21.837"/><path stroke="#000" stroke-linecap="round" stroke-linejoin="round" marker-end="url(#a)" d="M645.25 270.804v-21.1"/><path fill="#fff" d="M446.545 358.5h140v130h-140z"/><path stroke="gray" stroke-linecap="round" stroke-linejoin="round" d="M446.545 358.5h140v130h-140z"/><path fill="#333" d="M455.875 449.545h120v30h-120z"/><text fill="#fff" transform="translate(460.875 454.813)">
          <tspan x="23.008" y="16" font-family="Helvetica Neue" font-size="16" font-weight="bold">Reviews</tspan>
        </text><path fill="#f15623" d="M455.875 390.861h120v30h-120z"/><text fill="#fff" transform="translate(460.875 396.129)">
          <tspan x="31.872" y="16" font-family="Helvetica Neue" font-size="16" font-weight="bold">Envoy</tspan>
        </text><path fill="#fff" d="M702.509 358.5h140v130h-140z"/><path stroke="gray" stroke-linecap="round" stroke-linejoin="round" d="M702.509 358.5h140v130h-140z"/><path fill="#333" d="M712.602 449.545h120v30h-120z"/><text fill="#fff" transform="translate(717.602 454.813)">
          <tspan x="28.648" y="16" font-family="Helvetica Neue" font-size="16" font-weight="bold">Details</tspan>
        </text><path fill="#f15623" d="M712.415 390.861h120v30h-120z"/><text fill="#fff" transform="translate(717.415 396.129)">
          <tspan x="31.872" y="16" font-family="Helvetica Neue" font-size="16" font-weight="bold">Envoy</tspan>
        </text><path stroke="#000" stroke-linecap="round" stroke-linejoin="round" marker-end="url(#a)" d="M772.415 420.86v10l.094 4.343h.093v4.442"/><path fill="#fff" d="M446.545 525.5h140v130h-140z"/><path stroke="gray" stroke-linecap="round" stroke-linejoin="round" d="M446.545 525.5h140v130h-140z"/><path fill="#333" d="M456.545 613.889h120v30h-120z"/><text fill="#fff" transform="translate(461.545 619.157)">
          <tspan x="25.824" y="16" font-family="Helvetica Neue" font-size="16" font-weight="bold">Ratings</tspan>
        </text><path fill="#f15623" d="M456.545 558.189h120v30h-120z"/><text fill="#fff" transform="translate(461.545 563.457)">
          <tspan x="31.872" y="16" font-family="Helvetica Neue" font-size="16" font-weight="bold">Envoy</tspan>
        </text><path stroke="#000" stroke-linecap="round" stroke-linejoin="round" marker-end="url(#a)" d="M516.545 588.189v15.8"/><path stroke="#000" stroke-linecap="round" stroke-linejoin="round" marker-end="url(#a)" d="M645.25 310.1v24.2H516.545v14.3"/><path stroke="#000" stroke-linecap="round" stroke-linejoin="round" marker-end="url(#a)" d="M645.25 310.1v24.2h127.259v14.3"/><path stroke="#000" stroke-linecap="round" stroke-linejoin="round" marker-end="url(#a)" d="M516.545 488.5v27.1"/><path stroke="#000" stroke-linecap="round" stroke-linejoin="round" marker-end="url(#a)" d="M645.25 148.362v21.837"/><path fill="#000" d="m654.392 68.223-4.848-2.346a1.288 1.288 0 0 1-.742-1.161v-1.66a8.46 8.46 0 0 0 .365-.467 11.106 11.106 0 0 0 1.5-2.848c.715-.318 1.18-1.003 1.18-1.776V56c0-.472-.183-.93-.507-1.289V52.1c.028-.27.14-1.877-1.062-3.204-1.042-1.15-2.734-1.734-5.028-1.734-2.294 0-3.986.584-5.028 1.734-1.202 1.326-1.09 2.934-1.062 3.204v2.612a1.923 1.923 0 0 0-.507 1.29v1.964c0 .597.28 1.155.76 1.526.464 1.782 1.437 3.124 1.777 3.554v1.625c0 .476-.268.912-.699 1.14l-4.527 2.39c-1.472.776-2.386 2.266-2.386 3.889v1.59c0 2.33 7.635 2.946 11.672 2.946 4.037 0 11.672-.615 11.672-2.946v-1.494c0-1.689-.97-3.207-2.53-3.962Z"/><path stroke="#000" stroke-linecap="round" stroke-linejoin="round" marker-end="url(#a)" d="M484.085 420.861v18.784"/><path stroke="#000" stroke-linecap="round" stroke-linejoin="round" marker-end="url(#a)" d="M556.261 449.545v-18.784"/><path stroke="#000" stroke-linecap="round" stroke-linejoin="round" marker-end="url(#a)" d="M516.545 356.044v10l-.335 7.409-.335 7.5v.008"/><path stroke="#000" stroke-linecap="round" stroke-linejoin="round" marker-end="url(#a)" d="M516.545 519.866v28.423"/><path stroke="#000" stroke-linecap="round" stroke-linejoin="round" marker-end="url(#a)" d="M772.509 352.545v10l-.047 9.158-.047 7.5v1.758"/><path fill="#fff" d="M625.994 85.415h38.512v11h-38.512z"/><text fill="#000" transform="translate(630.994 85.415)">
          <tspan x="0" y="8" font-family="Helvetica Neue" font-size="8" font-weight="bold">1</tspan>
          <tspan y="8" font-family="PingFang SC" font-size="8" font-weight="bold"> (0ms)</tspan>
        </text><path fill="#fff" d="M626.55 253.338h37.4v10.232h-37.4z"/><text fill="#000" transform="translate(631.55 253.338)">
          <tspan x="0" y="8" font-family="Helvetica Neue" font-size="8" font-weight="bold">5 (1ms)</tspan>
        </text><path fill="#fff" d="M753.741 426.939h37.4v10.232h-37.4z"/><text fill="#000" transform="translate(758.74 426.939)">
          <tspan x="0" y="8" font-family="Helvetica Neue" font-size="8" font-weight="bold">8 (4ms)</tspan>
        </text><path fill="#fff" d="M493.397 590.878h46.296v10.232h-46.296z"/><text fill="#000" transform="translate(498.397 590.878)">
          <tspan x="0" y="8" font-family="Helvetica Neue" font-size="8" font-weight="bold">16 (16ms)</tspan>
        </text><path fill="#fff" d="M626.55 156.113h37.4v10.232h-37.4z"/><text fill="#000" transform="translate(631.55 156.113)">
          <tspan x="0" y="8" font-family="Helvetica Neue" font-size="8" font-weight="bold">2 (1ms)</tspan>
        </text><path fill="#fff" d="M566.777 329.184h42.296v10.232h-42.296z"/><text fill="#000" transform="translate(569.777 329.184)">
          <tspan x="0" y="8" font-family="Helvetica Neue" font-size="8" font-weight="bold">10 (14ms)</tspan>
        </text><path fill="#fff" d="M753.766 365.79h37.4v10.232h-37.4z"/><text fill="#000" transform="translate(758.766 365.79)">
          <tspan x="0" y="8" font-family="Helvetica Neue" font-size="8" font-weight="bold">7 (0ms)</tspan>
        </text><path fill="#fff" d="M493.397 497.859h46.296v10.232h-46.296z"/><text fill="#000" transform="translate(498.397 497.859)">
          <tspan x="0" y="8" font-family="Helvetica Neue" font-size="8" font-weight="bold">14 (16ms)</tspan>
        </text><path fill="#fff" d="M458.713 427.926h50.744v10.232h-50.744z"/><text fill="#000" transform="translate(463.713 427.926)">
          <tspan x="0" y="8" font-family="Helvetica Neue" font-size="8" font-weight="bold">12 (109ms)</tspan>
        </text><path fill="#fff" d="M535.337 435.753h41.848v10.232h-41.848z"/><text fill="#000" transform="translate(540.337 435.753)">
          <tspan x="0" y="8" font-family="Helvetica Neue" font-size="8" font-weight="bold">13 (2ms)</tspan>
        </text><path fill="#fff" d="M495.371 366.449h41.848v10.232h-41.848z"/><text fill="#000" transform="translate(500.371 366.449)">
          <tspan x="0" y="8" font-family="Helvetica Neue" font-size="8" font-weight="bold">11 (1ms)</tspan>
        </text><path fill="#fff" d="M495.621 532.536h41.848v10.232h-41.848z"/><text fill="#000" transform="translate(500.621 532.536)">
          <tspan x="0" y="8" font-family="Helvetica Neue" font-size="8" font-weight="bold">15 (1ms)</tspan>
        </text><path fill="#fff" d="M696.226 329.184h33.4v10.232h-33.4z"/><text fill="#000" transform="translate(699.226 329.184)">
          <tspan x="0" y="8" font-family="Helvetica Neue" font-size="8" font-weight="bold">6 (3ms)</tspan>
        </text><path stroke="#000" stroke-linecap="round" stroke-linejoin="round" marker-end="url(#a)" d="M645.25 175.954v23.95"/><path fill="#fff" d="M626.55 185.451h37.4v10.232h-37.4z"/><text fill="#000" transform="translate(631.55 185.45)">
          <tspan x="0" y="8" font-family="Helvetica Neue" font-size="8" font-weight="bold">3 (1ms)</tspan>
        </text><path stroke="#000" stroke-linecap="round" stroke-linejoin="round" marker-end="url(#a)" d="M606.153 239.804v21.1"/><path fill="#fff" d="M585.229 245.488h41.848v10.232h-41.848z"/><text fill="#000" transform="translate(590.23 245.488)">
          <tspan x="0" y="8" font-family="Helvetica Neue" font-size="8" font-weight="bold">4 (21ms)</tspan>
        </text><path stroke="#000" stroke-linecap="round" stroke-linejoin="round" marker-end="url(#a)" d="M688.75 270.804v-21.1"/><path fill="#fff" d="M670.05 254.421h37.4v10.232h-37.4z"/><text fill="#000" transform="translate(675.05 254.421)">
          <tspan x="0" y="8" font-family="Helvetica Neue" font-size="8" font-weight="bold">9 (0ms)</tspan>
        </text></g></svg>