<svg xmlns="http://www.w3.org/2000/svg" xmlns:xlink="http://www.w3.org/1999/xlink" width="808" height="791"><source><![CDATA[Title: 热升级/重启

新MOSN->新MOSN: 1.initializeDefaultPath
新MOSN->新MOSN: 2.initializePidFile
新MOSN->新MOSN: 3.initializeTracing
新MOSN->新MOSN: 4.initializePlugin
新MOSN->旧MOSN: 5.连接到 reconfig.sock
旧MOSN->新MOSN: 6.发送数据
旧MOSN->新MOSN: 7.多次尝试连接到listen.sock
新MOSN->新MOSN: 8.监听listen.sock
旧MOSN->新MOSN: 9.建立连接，并发送 listener 的文件描述符
旧MOSN->旧MOSN: 10.等待来自新Mosn关闭数据平面的请求
新MOSN->新MOSN: 11.设置状态为 Active_Reconfiguring
新MOSN->新MOSN: 12.重新加载配置文件
新MOSN->新MOSN: 13.initializeMetrics
新MOSN->新MOSN: 14.初始化 clustermanager
新MOSN->新MOSN: 15.初始化 routerManager
新MOSN->新MOSN: 16.初始化数据平面服务
]]></source><desc>热升级/重启</desc><defs><marker id="markerArrowBlock" markerHeight="5" markerWidth="5" orient="auto" refX="5" refY="2.5" viewBox="0 0 5 5"><path d="M 0 0 L 5 2.5 L 0 5 z"/></marker><marker id="markerArrowOpen" markerHeight="16" markerWidth="4" orient="auto" refX="9.6" refY="8" viewBox="0 0 9.6 16"><path d="M 9.6,8 1.92,16 0,13.7 5.76,8 0,2.286 1.92,0 9.6,8 z"/></marker></defs><g class="title"><rect width="100.641" height="29" x="10" y="10" fill="#fff" stroke="#000" style="stroke-width:2"/><text x="16" y="30" style="font-size:16px;font-family:&quot;Andale Mono&quot;,monospace"><tspan x="15">热升级/重启</tspan></text></g><g class="actor"><rect width="75.906" height="39" x="10" y="49" fill="#fff" stroke="#000" style="stroke-width:2"/><text x="21" y="74" style="font-size:16px;font-family:&quot;Andale Mono&quot;,monospace"><tspan x="20">新MOSN</tspan></text></g><g class="actor"><rect width="75.906" height="39" x="10" y="732" fill="#fff" stroke="#000" style="stroke-width:2"/><text x="21" y="757" style="font-size:16px;font-family:&quot;Andale Mono&quot;,monospace"><tspan x="20">新MOSN</tspan></text></g><line x1="47.953" x2="47.953" y1="88" y2="732" fill="none" stroke="#000" style="stroke-width:2"/><g class="actor"><rect width="74.906" height="39" x="371.109" y="49" fill="#fff" stroke="#000" style="stroke-width:2"/><text x="381.109" y="74" style="font-size:16px;font-family:&quot;Andale Mono&quot;,monospace"><tspan x="381.109">旧MOSN</tspan></text></g><g class="actor"><rect width="74.906" height="39" x="371.109" y="732" fill="#fff" stroke="#000" style="stroke-width:2"/><text x="381.109" y="757" style="font-size:16px;font-family:&quot;Andale Mono&quot;,monospace"><tspan x="381.109">旧MOSN</tspan></text></g><line x1="408.563" x2="408.563" y1="88" y2="732" fill="none" stroke="#000" style="stroke-width:2"/><g class="signal"><text x="72.953" y="122.5" style="font-size:16px;font-family:&quot;Andale Mono&quot;,monospace"><tspan x="72.953">1.initializeDefaultPath</tspan></text><line x1="47.953" x2="67.953" y1="108" y2="108" fill="none" stroke="#000" style="stroke-width:2"/><line x1="67.953" x2="67.953" y1="108" y2="132" fill="none" stroke="#000" style="stroke-width:2"/><line x1="67.953" x2="47.953" y1="132" y2="132" fill="none" stroke="#000" style="stroke-width:2;marker-end:url(#markerArrowBlock)"/></g><g class="signal"><text x="72.953" y="161.5" style="font-size:16px;font-family:&quot;Andale Mono&quot;,monospace"><tspan x="72.953">2.initializePidFile</tspan></text><line x1="47.953" x2="67.953" y1="147" y2="147" fill="none" stroke="#000" style="stroke-width:2"/><line x1="67.953" x2="67.953" y1="147" y2="171" fill="none" stroke="#000" style="stroke-width:2"/><line x1="67.953" x2="47.953" y1="171" y2="171" fill="none" stroke="#000" style="stroke-width:2;marker-end:url(#markerArrowBlock)"/></g><g class="signal"><text x="72.953" y="200.5" style="font-size:16px;font-family:&quot;Andale Mono&quot;,monospace"><tspan x="72.953">3.initializeTracing</tspan></text><line x1="47.953" x2="67.953" y1="186" y2="186" fill="none" stroke="#000" style="stroke-width:2"/><line x1="67.953" x2="67.953" y1="186" y2="210" fill="none" stroke="#000" style="stroke-width:2"/><line x1="67.953" x2="47.953" y1="210" y2="210" fill="none" stroke="#000" style="stroke-width:2;marker-end:url(#markerArrowBlock)"/></g><g class="signal"><text x="73.953" y="239.5" style="font-size:16px;font-family:&quot;Andale Mono&quot;,monospace"><tspan x="72.953">4.initializePlugin</tspan></text><line x1="47.953" x2="67.953" y1="225" y2="225" fill="none" stroke="#000" style="stroke-width:2"/><line x1="67.953" x2="67.953" y1="225" y2="249" fill="none" stroke="#000" style="stroke-width:2"/><line x1="67.953" x2="47.953" y1="249" y2="249" fill="none" stroke="#000" style="stroke-width:2;marker-end:url(#markerArrowBlock)"/></g><g class="signal"><text x="126.508" y="274.5" style="font-size:16px;font-family:&quot;Andale Mono&quot;,monospace"><tspan x="126.508">5.连接到 reconfig.sock</tspan></text><line x1="47.953" x2="408.563" y1="283" y2="283" fill="none" stroke="#000" style="stroke-width:2;marker-end:url(#markerArrowBlock)"/></g><g class="signal"><text x="186.117" y="313.5" style="font-size:16px;font-family:&quot;Andale Mono&quot;,monospace"><tspan x="186.117">6.发送数据</tspan></text><line x1="408.563" x2="47.953" y1="322" y2="322" fill="none" stroke="#000" style="stroke-width:2;marker-end:url(#markerArrowBlock)"/></g><g class="signal"><text x="108.953" y="352.5" style="font-size:16px;font-family:&quot;Andale Mono&quot;,monospace"><tspan x="108.953">7.多次尝试连接到listen.sock</tspan></text><line x1="408.563" x2="47.953" y1="361" y2="361" fill="none" stroke="#000" style="stroke-width:2;marker-end:url(#markerArrowBlock)"/></g><g class="signal"><text x="72.953" y="395.5" style="font-size:16px;font-family:&quot;Andale Mono&quot;,monospace"><tspan x="72.953">8.监听listen.sock</tspan></text><line x1="47.953" x2="67.953" y1="381" y2="381" fill="none" stroke="#000" style="stroke-width:2"/><line x1="67.953" x2="67.953" y1="381" y2="405" fill="none" stroke="#000" style="stroke-width:2"/><line x1="67.953" x2="47.953" y1="405" y2="405" fill="none" stroke="#000" style="stroke-width:2;marker-end:url(#markerArrowBlock)"/></g><g class="signal"><text x="57.953" y="430.5" style="font-size:16px;font-family:&quot;Andale Mono&quot;,monospace"><tspan x="57.953">9.建立连接，并发送 listener 的文件描述符</tspan></text><line x1="408.563" x2="47.953" y1="439" y2="439" fill="none" stroke="#000" style="stroke-width:2;marker-end:url(#markerArrowBlock)"/></g><g class="signal"><text x="433.563" y="473.5" style="font-size:16px;font-family:&quot;Andale Mono&quot;,monospace"><tspan x="433.563">10.等待来自新Mosn关闭数据平面的请求</tspan></text><line x1="408.563" x2="428.563" y1="459" y2="459" fill="none" stroke="#000" style="stroke-width:2"/><line x1="428.563" x2="428.563" y1="459" y2="483" fill="none" stroke="#000" style="stroke-width:2"/><line x1="428.563" x2="408.563" y1="483" y2="483" fill="none" stroke="#000" style="stroke-width:2;marker-end:url(#markerArrowBlock)"/></g><g class="signal"><text x="72.953" y="512.5" style="font-size:16px;font-family:&quot;Andale Mono&quot;,monospace"><tspan x="72.953">11.设置状态为 Active_Reconfiguring</tspan></text><line x1="47.953" x2="67.953" y1="498" y2="498" fill="none" stroke="#000" style="stroke-width:2"/><line x1="67.953" x2="67.953" y1="498" y2="522" fill="none" stroke="#000" style="stroke-width:2"/><line x1="67.953" x2="47.953" y1="522" y2="522" fill="none" stroke="#000" style="stroke-width:2;marker-end:url(#markerArrowBlock)"/></g><g class="signal"><text x="72.953" y="551.5" style="font-size:16px;font-family:&quot;Andale Mono&quot;,monospace"><tspan x="72.953">12.重新加载配置文件</tspan></text><line x1="47.953" x2="67.953" y1="537" y2="537" fill="none" stroke="#000" style="stroke-width:2"/><line x1="67.953" x2="67.953" y1="537" y2="561" fill="none" stroke="#000" style="stroke-width:2"/><line x1="67.953" x2="47.953" y1="561" y2="561" fill="none" stroke="#000" style="stroke-width:2;marker-end:url(#markerArrowBlock)"/></g><g class="signal"><text x="72.953" y="590.5" style="font-size:16px;font-family:&quot;Andale Mono&quot;,monospace"><tspan x="72.953">13.initializeMetrics</tspan></text><line x1="47.953" x2="67.953" y1="576" y2="576" fill="none" stroke="#000" style="stroke-width:2"/><line x1="67.953" x2="67.953" y1="576" y2="600" fill="none" stroke="#000" style="stroke-width:2"/><line x1="67.953" x2="47.953" y1="600" y2="600" fill="none" stroke="#000" style="stroke-width:2;marker-end:url(#markerArrowBlock)"/></g><g class="signal"><text x="72.953" y="629.5" style="font-size:16px;font-family:&quot;Andale Mono&quot;,monospace"><tspan x="72.953">14.初始化 clustermanager</tspan></text><line x1="47.953" x2="67.953" y1="615" y2="615" fill="none" stroke="#000" style="stroke-width:2"/><line x1="67.953" x2="67.953" y1="615" y2="639" fill="none" stroke="#000" style="stroke-width:2"/><line x1="67.953" x2="47.953" y1="639" y2="639" fill="none" stroke="#000" style="stroke-width:2;marker-end:url(#markerArrowBlock)"/></g><g class="signal"><text x="72.953" y="668.5" style="font-size:16px;font-family:&quot;Andale Mono&quot;,monospace"><tspan x="72.953">15.初始化 routerManager</tspan></text><line x1="47.953" x2="67.953" y1="654" y2="654" fill="none" stroke="#000" style="stroke-width:2"/><line x1="67.953" x2="67.953" y1="654" y2="678" fill="none" stroke="#000" style="stroke-width:2"/><line x1="67.953" x2="47.953" y1="678" y2="678" fill="none" stroke="#000" style="stroke-width:2;marker-end:url(#markerArrowBlock)"/></g><g class="signal"><text x="72.953" y="707.5" style="font-size:16px;font-family:&quot;Andale Mono&quot;,monospace"><tspan x="72.953">16.初始化数据平面服务</tspan></text><line x1="47.953" x2="67.953" y1="693" y2="693" fill="none" stroke="#000" style="stroke-width:2"/><line x1="67.953" x2="67.953" y1="693" y2="717" fill="none" stroke="#000" style="stroke-width:2"/><line x1="67.953" x2="47.953" y1="717" y2="717" fill="none" stroke="#000" style="stroke-width:2;marker-end:url(#markerArrowBlock)"/></g></svg>