<svg xmlns="http://www.w3.org/2000/svg" xmlns:xlink="http://www.w3.org/1999/xlink" width="522" height="557"><source><![CDATA[Title: 普通启动

新MOSN->新MOSN: 1.initializeDefaultPath
新MOSN->新MOSN: 2.initializePidFile
新MOSN->新MOSN: 3.initializeTracing
新MOSN->新MOSN: 4.initializePlugin
新MOSN->旧MOSN（不存在）: 5.尝试连接到 reconfig.sock，无法建立连接
新MOSN->新MOSN: 6. StartSerice
新MOSN->新MOSN: 7.initializeMetrics
新MOSN->新MOSN: 8.初始化 clustermanager
新MOSN->新MOSN: 9.初始化 routerManager
新MOSN->新MOSN: 10.初始化数据平面服务
]]></source><desc>普通启动</desc><defs><marker id="markerArrowBlock" markerHeight="5" markerWidth="5" orient="auto" refX="5" refY="2.5" viewBox="0 0 5 5"><path d="M 0 0 L 5 2.5 L 0 5 z"/></marker><marker id="markerArrowOpen" markerHeight="16" markerWidth="4" orient="auto" refX="9.6" refY="8" viewBox="0 0 9.6 16"><path d="M 9.6,8 1.92,16 0,13.7 5.76,8 0,2.286 1.92,0 9.6,8 z"/></marker></defs><g class="title"><rect width="76.016" height="29" x="10" y="10" fill="#fff" stroke="#000" style="stroke-width:2"/><text x="16" y="30" style="font-size:16px;font-family:&quot;Andale Mono&quot;,monospace"><tspan x="15">普通启动</tspan></text></g><g class="actor"><rect width="75.906" height="39" x="10" y="49" fill="#fff" stroke="#000" style="stroke-width:2"/><text x="21" y="74" style="font-size:16px;font-family:&quot;Andale Mono&quot;,monospace"><tspan x="20">新MOSN</tspan></text></g><g class="actor"><rect width="75.906" height="39" x="10" y="498" fill="#fff" stroke="#000" style="stroke-width:2"/><text x="21" y="523" style="font-size:16px;font-family:&quot;Andale Mono&quot;,monospace"><tspan x="20">新MOSN</tspan></text></g><line x1="47.953" x2="47.953" y1="88" y2="498" fill="none" stroke="#000" style="stroke-width:2"/><g class="actor"><rect width="154.547" height="39" x="337.82" y="49" fill="#fff" stroke="#000" style="stroke-width:2"/><text x="347.82" y="74" style="font-size:16px;font-family:&quot;Andale Mono&quot;,monospace"><tspan x="347.82">旧MOSN（不存在）</tspan></text></g><g class="actor"><rect width="154.547" height="39" x="337.82" y="498" fill="#fff" stroke="#000" style="stroke-width:2"/><text x="347.82" y="523" style="font-size:16px;font-family:&quot;Andale Mono&quot;,monospace"><tspan x="347.82">旧MOSN（不存在）</tspan></text></g><line x1="415.094" x2="415.094" y1="88" y2="498" fill="none" stroke="#000" style="stroke-width:2"/><g class="signal"><text x="72.953" y="122.5" style="font-size:16px;font-family:&quot;Andale Mono&quot;,monospace"><tspan x="72.953">1.initializeDefaultPath</tspan></text><line x1="47.953" x2="67.953" y1="108" y2="108" fill="none" stroke="#000" style="stroke-width:2"/><line x1="67.953" x2="67.953" y1="108" y2="132" fill="none" stroke="#000" style="stroke-width:2"/><line x1="67.953" x2="47.953" y1="132" y2="132" fill="none" stroke="#000" style="stroke-width:2;marker-end:url(#markerArrowBlock)"/></g><g class="signal"><text x="72.953" y="161.5" style="font-size:16px;font-family:&quot;Andale Mono&quot;,monospace"><tspan x="72.953">2.initializePidFile</tspan></text><line x1="47.953" x2="67.953" y1="147" y2="147" fill="none" stroke="#000" style="stroke-width:2"/><line x1="67.953" x2="67.953" y1="147" y2="171" fill="none" stroke="#000" style="stroke-width:2"/><line x1="67.953" x2="47.953" y1="171" y2="171" fill="none" stroke="#000" style="stroke-width:2;marker-end:url(#markerArrowBlock)"/></g><g class="signal"><text x="72.953" y="200.5" style="font-size:16px;font-family:&quot;Andale Mono&quot;,monospace"><tspan x="72.953">3.initializeTracing</tspan></text><line x1="47.953" x2="67.953" y1="186" y2="186" fill="none" stroke="#000" style="stroke-width:2"/><line x1="67.953" x2="67.953" y1="186" y2="210" fill="none" stroke="#000" style="stroke-width:2"/><line x1="67.953" x2="47.953" y1="210" y2="210" fill="none" stroke="#000" style="stroke-width:2;marker-end:url(#markerArrowBlock)"/></g><g class="signal"><text x="73.953" y="239.5" style="font-size:16px;font-family:&quot;Andale Mono&quot;,monospace"><tspan x="72.953">4.initializePlugin</tspan></text><line x1="47.953" x2="67.953" y1="225" y2="225" fill="none" stroke="#000" style="stroke-width:2"/><line x1="67.953" x2="67.953" y1="225" y2="249" fill="none" stroke="#000" style="stroke-width:2"/><line x1="67.953" x2="47.953" y1="249" y2="249" fill="none" stroke="#000" style="stroke-width:2;marker-end:url(#markerArrowBlock)"/></g><g class="signal"><text x="57.953" y="274.5" style="font-size:16px;font-family:&quot;Andale Mono&quot;,monospace"><tspan x="57.953">5.尝试连接到 reconfig.sock，无法建立连接</tspan></text><line x1="47.953" x2="415.094" y1="283" y2="283" fill="none" stroke="#000" style="stroke-width:2;marker-end:url(#markerArrowBlock)"/></g><g class="signal"><text x="72.953" y="317.5" style="font-size:16px;font-family:&quot;Andale Mono&quot;,monospace"><tspan x="72.953">6. StartSerice</tspan></text><line x1="47.953" x2="67.953" y1="303" y2="303" fill="none" stroke="#000" style="stroke-width:2"/><line x1="67.953" x2="67.953" y1="303" y2="327" fill="none" stroke="#000" style="stroke-width:2"/><line x1="67.953" x2="47.953" y1="327" y2="327" fill="none" stroke="#000" style="stroke-width:2;marker-end:url(#markerArrowBlock)"/></g><g class="signal"><text x="72.953" y="356.5" style="font-size:16px;font-family:&quot;Andale Mono&quot;,monospace"><tspan x="72.953">7.initializeMetrics</tspan></text><line x1="47.953" x2="67.953" y1="342" y2="342" fill="none" stroke="#000" style="stroke-width:2"/><line x1="67.953" x2="67.953" y1="342" y2="366" fill="none" stroke="#000" style="stroke-width:2"/><line x1="67.953" x2="47.953" y1="366" y2="366" fill="none" stroke="#000" style="stroke-width:2;marker-end:url(#markerArrowBlock)"/></g><g class="signal"><text x="72.953" y="395.5" style="font-size:16px;font-family:&quot;Andale Mono&quot;,monospace"><tspan x="72.953">8.初始化 clustermanager</tspan></text><line x1="47.953" x2="67.953" y1="381" y2="381" fill="none" stroke="#000" style="stroke-width:2"/><line x1="67.953" x2="67.953" y1="381" y2="405" fill="none" stroke="#000" style="stroke-width:2"/><line x1="67.953" x2="47.953" y1="405" y2="405" fill="none" stroke="#000" style="stroke-width:2;marker-end:url(#markerArrowBlock)"/></g><g class="signal"><text x="72.953" y="434.5" style="font-size:16px;font-family:&quot;Andale Mono&quot;,monospace"><tspan x="72.953">9.初始化 routerManager</tspan></text><line x1="47.953" x2="67.953" y1="420" y2="420" fill="none" stroke="#000" style="stroke-width:2"/><line x1="67.953" x2="67.953" y1="420" y2="444" fill="none" stroke="#000" style="stroke-width:2"/><line x1="67.953" x2="47.953" y1="444" y2="444" fill="none" stroke="#000" style="stroke-width:2;marker-end:url(#markerArrowBlock)"/></g><g class="signal"><text x="72.953" y="473.5" style="font-size:16px;font-family:&quot;Andale Mono&quot;,monospace"><tspan x="72.953">10.初始化数据平面服务</tspan></text><line x1="47.953" x2="67.953" y1="459" y2="459" fill="none" stroke="#000" style="stroke-width:2"/><line x1="67.953" x2="67.953" y1="459" y2="483" fill="none" stroke="#000" style="stroke-width:2"/><line x1="67.953" x2="47.953" y1="483" y2="483" fill="none" stroke="#000" style="stroke-width:2;marker-end:url(#markerArrowBlock)"/></g></svg>