<?xml version="1.0" encoding="utf-8" standalone="no"?><!DOCTYPE svg PUBLIC "-//W3C//DTD SVG 20010904//EN" "http://www.w3.org/TR/2001/REC-SVG-20010904/DTD/svg10.dtd"><svg xmlns="http://www.w3.org/2000/svg" width="522" height="557" xmlns:xlink="http://www.w3.org/1999/xlink"><source><![CDATA[Title: 普通启动

新MOSN->新MOSN: 1.initializeDefaultPath
新MOSN->新MOSN: 2.initializePidFile
新MOSN->新MOSN: 3.initializeTracing
新MOSN->新MOSN: 4.initializePlugin
新MOSN->旧MOSN（不存在）: 5.尝试连接到 reconfig.sock，无法建立连接
新MOSN->新MOSN: 6. StartSerice
新MOSN->新MOSN: 7.initializeMetrics
新MOSN->新MOSN: 8.初始化 clustermanager
新MOSN->新MOSN: 9.初始化 routerManager
新MOSN->新MOSN: 10.初始化数据平面服务
]]></source><desc>普通启动</desc><defs><marker viewBox="0 0 5 5" markerWidth="5" markerHeight="5" orient="auto" refX="5" refY="2.5" id="markerArrowBlock"><path d="M 0 0 L 5 2.5 L 0 5 z"></path></marker><marker viewBox="0 0 9.6 16" markerWidth="4" markerHeight="16" orient="auto" refX="9.6" refY="8" id="markerArrowOpen"><path d="M 9.6,8 1.92,16 0,13.7 5.76,8 0,2.286 1.92,0 9.6,8 z"></path></marker></defs><g class="title"><rect x="10" y="10" width="76.015625" height="29" stroke="#000000" fill="#ffffff" style="stroke-width: 2;"></rect><text x="16" y="30" style="font-size: 16px; font-family: &quot;Andale Mono&quot;, monospace;"><tspan x="15">普通启动</tspan></text></g><g class="actor"><rect x="10" y="49" width="75.90625" height="39" stroke="#000000" fill="#ffffff" style="stroke-width: 2;"></rect><text x="21" y="74" style="font-size: 16px; font-family: &quot;Andale Mono&quot;, monospace;"><tspan x="20">新MOSN</tspan></text></g><g class="actor"><rect x="10" y="498" width="75.90625" height="39" stroke="#000000" fill="#ffffff" style="stroke-width: 2;"></rect><text x="21" y="523" style="font-size: 16px; font-family: &quot;Andale Mono&quot;, monospace;"><tspan x="20">新MOSN</tspan></text></g><line x1="47.953125" x2="47.953125" y1="88" y2="498" stroke="#000000" fill="none" style="stroke-width: 2;"></line><g class="actor"><rect x="337.8203125" y="49" width="154.546875" height="39" stroke="#000000" fill="#ffffff" style="stroke-width: 2;"></rect><text x="347.8203125" y="74" style="font-size: 16px; font-family: &quot;Andale Mono&quot;, monospace;"><tspan x="347.8203125">旧MOSN（不存在）</tspan></text></g><g class="actor"><rect x="337.8203125" y="498" width="154.546875" height="39" stroke="#000000" fill="#ffffff" style="stroke-width: 2;"></rect><text x="347.8203125" y="523" style="font-size: 16px; font-family: &quot;Andale Mono&quot;, monospace;"><tspan x="347.8203125">旧MOSN（不存在）</tspan></text></g><line x1="415.09375" x2="415.09375" y1="88" y2="498" stroke="#000000" fill="none" style="stroke-width: 2;"></line><g class="signal"><text x="72.953125" y="122.5" style="font-size: 16px; font-family: &quot;Andale Mono&quot;, monospace;"><tspan x="72.953125">1.initializeDefaultPath</tspan></text><line x1="47.953125" x2="67.953125" y1="108" y2="108" stroke="#000000" fill="none" style="stroke-width: 2;"></line><line x1="67.953125" x2="67.953125" y1="108" y2="132" stroke="#000000" fill="none" style="stroke-width: 2;"></line><line x1="67.953125" x2="47.953125" y1="132" y2="132" stroke="#000000" fill="none" style="stroke-width: 2; marker-end: url(&quot;#markerArrowBlock&quot;);"></line></g><g class="signal"><text x="72.953125" y="161.5" style="font-size: 16px; font-family: &quot;Andale Mono&quot;, monospace;"><tspan x="72.953125">2.initializePidFile</tspan></text><line x1="47.953125" x2="67.953125" y1="147" y2="147" stroke="#000000" fill="none" style="stroke-width: 2;"></line><line x1="67.953125" x2="67.953125" y1="147" y2="171" stroke="#000000" fill="none" style="stroke-width: 2;"></line><line x1="67.953125" x2="47.953125" y1="171" y2="171" stroke="#000000" fill="none" style="stroke-width: 2; marker-end: url(&quot;#markerArrowBlock&quot;);"></line></g><g class="signal"><text x="72.953125" y="200.5" style="font-size: 16px; font-family: &quot;Andale Mono&quot;, monospace;"><tspan x="72.953125">3.initializeTracing</tspan></text><line x1="47.953125" x2="67.953125" y1="186" y2="186" stroke="#000000" fill="none" style="stroke-width: 2;"></line><line x1="67.953125" x2="67.953125" y1="186" y2="210" stroke="#000000" fill="none" style="stroke-width: 2;"></line><line x1="67.953125" x2="47.953125" y1="210" y2="210" stroke="#000000" fill="none" style="stroke-width: 2; marker-end: url(&quot;#markerArrowBlock&quot;);"></line></g><g class="signal"><text x="73.953125" y="239.5" style="font-size: 16px; font-family: &quot;Andale Mono&quot;, monospace;"><tspan x="72.953125">4.initializePlugin</tspan></text><line x1="47.953125" x2="67.953125" y1="225" y2="225" stroke="#000000" fill="none" style="stroke-width: 2;"></line><line x1="67.953125" x2="67.953125" y1="225" y2="249" stroke="#000000" fill="none" style="stroke-width: 2;"></line><line x1="67.953125" x2="47.953125" y1="249" y2="249" stroke="#000000" fill="none" style="stroke-width: 2; marker-end: url(&quot;#markerArrowBlock&quot;);"></line></g><g class="signal"><text x="57.953125" y="274.5" style="font-size: 16px; font-family: &quot;Andale Mono&quot;, monospace;"><tspan x="57.953125">5.尝试连接到 reconfig.sock，无法建立连接</tspan></text><line x1="47.953125" x2="415.09375" y1="283" y2="283" stroke="#000000" fill="none" style="stroke-width: 2; marker-end: url(&quot;#markerArrowBlock&quot;);"></line></g><g class="signal"><text x="72.953125" y="317.5" style="font-size: 16px; font-family: &quot;Andale Mono&quot;, monospace;"><tspan x="72.953125">6. StartSerice</tspan></text><line x1="47.953125" x2="67.953125" y1="303" y2="303" stroke="#000000" fill="none" style="stroke-width: 2;"></line><line x1="67.953125" x2="67.953125" y1="303" y2="327" stroke="#000000" fill="none" style="stroke-width: 2;"></line><line x1="67.953125" x2="47.953125" y1="327" y2="327" stroke="#000000" fill="none" style="stroke-width: 2; marker-end: url(&quot;#markerArrowBlock&quot;);"></line></g><g class="signal"><text x="72.953125" y="356.5" style="font-size: 16px; font-family: &quot;Andale Mono&quot;, monospace;"><tspan x="72.953125">7.initializeMetrics</tspan></text><line x1="47.953125" x2="67.953125" y1="342" y2="342" stroke="#000000" fill="none" style="stroke-width: 2;"></line><line x1="67.953125" x2="67.953125" y1="342" y2="366" stroke="#000000" fill="none" style="stroke-width: 2;"></line><line x1="67.953125" x2="47.953125" y1="366" y2="366" stroke="#000000" fill="none" style="stroke-width: 2; marker-end: url(&quot;#markerArrowBlock&quot;);"></line></g><g class="signal"><text x="72.953125" y="395.5" style="font-size: 16px; font-family: &quot;Andale Mono&quot;, monospace;"><tspan x="72.953125">8.初始化 clustermanager</tspan></text><line x1="47.953125" x2="67.953125" y1="381" y2="381" stroke="#000000" fill="none" style="stroke-width: 2;"></line><line x1="67.953125" x2="67.953125" y1="381" y2="405" stroke="#000000" fill="none" style="stroke-width: 2;"></line><line x1="67.953125" x2="47.953125" y1="405" y2="405" stroke="#000000" fill="none" style="stroke-width: 2; marker-end: url(&quot;#markerArrowBlock&quot;);"></line></g><g class="signal"><text x="72.953125" y="434.5" style="font-size: 16px; font-family: &quot;Andale Mono&quot;, monospace;"><tspan x="72.953125">9.初始化 routerManager</tspan></text><line x1="47.953125" x2="67.953125" y1="420" y2="420" stroke="#000000" fill="none" style="stroke-width: 2;"></line><line x1="67.953125" x2="67.953125" y1="420" y2="444" stroke="#000000" fill="none" style="stroke-width: 2;"></line><line x1="67.953125" x2="47.953125" y1="444" y2="444" stroke="#000000" fill="none" style="stroke-width: 2; marker-end: url(&quot;#markerArrowBlock&quot;);"></line></g><g class="signal"><text x="72.953125" y="473.5" style="font-size: 16px; font-family: &quot;Andale Mono&quot;, monospace;"><tspan x="72.953125">10.初始化数据平面服务</tspan></text><line x1="47.953125" x2="67.953125" y1="459" y2="459" stroke="#000000" fill="none" style="stroke-width: 2;"></line><line x1="67.953125" x2="67.953125" y1="459" y2="483" stroke="#000000" fill="none" style="stroke-width: 2;"></line><line x1="67.953125" x2="47.953125" y1="483" y2="483" stroke="#000000" fill="none" style="stroke-width: 2; marker-end: url(&quot;#markerArrowBlock&quot;);"></line></g></svg>