<svg xmlns="http://www.w3.org/2000/svg" width="303" height="94" fill="none" viewBox="0 0 303 94"><g clip-path="url(#a)"><rect width="303" height="94" fill="#E2EFF6" rx="8"/><path fill="#fff" fill-opacity=".5" d="M234.606-4.643c-6.118 2.78-12.712 4.608-19.545 5.482 6.991-4.211 12.394-10.885 14.937-18.91-6.595 3.973-13.904 6.754-21.611 8.343-6.277-6.833-15.096-10.806-25.107-10.806-18.671 0-33.925 15.255-33.925 34.085 0 2.701.318 5.323.874 7.786-28.285-1.43-53.47-15.016-70.235-35.594-2.94 5.005-4.608 10.885-4.608 17.082 0 11.838 5.959 22.326 15.175 28.285-5.64 0-10.885-1.59-15.493-3.973v.238c0 16.526 11.759 30.35 27.331 33.45-2.86.794-5.88 1.19-8.978 1.19-2.145 0-4.29-.237-6.356-.635 4.29 13.428 16.764 23.438 31.781 23.677-11.6 9.216-26.299 14.619-42.348 14.619a69.49 69.49 0 0 1-8.104-.477c15.096 9.693 33.052 15.334 52.279 15.334 62.607 0 97.01-51.961 97.01-97.01 0-1.51 0-2.94-.08-4.449 6.674-4.767 12.395-10.805 17.003-17.717Z"/><path fill="#3987CD" d="M171.984 34.823a16.367 16.367 0 0 1-4.701 1.318 8.217 8.217 0 0 0 3.593-4.548 16.522 16.522 0 0 1-5.199 2.006c-1.51-1.643-3.631-2.599-6.04-2.599-4.491 0-8.161 3.67-8.161 8.2 0 .65.077 1.28.21 1.873a23.308 23.308 0 0 1-16.896-8.563 8.113 8.113 0 0 0-1.108 4.11c0 2.847 1.433 5.37 3.651 6.803-1.357 0-2.619-.382-3.728-.955v.057a8.206 8.206 0 0 0 6.575 8.047 8.065 8.065 0 0 1-3.688.133c1.032 3.23 4.032 5.639 7.645 5.696-2.791 2.217-6.327 3.517-10.187 3.517-.65 0-1.3-.038-1.95-.115a23.21 23.21 0 0 0 12.576 3.69c15.061 0 23.337-12.5 23.337-23.338 0-.363 0-.707-.019-1.07 1.606-1.147 2.982-2.6 4.09-4.262Z"/></g><defs><clipPath id="a"><rect width="303" height="94" fill="#fff" rx="8"/></clipPath></defs></svg>