<svg xmlns="http://www.w3.org/2000/svg" width="303" height="96" fill="none" viewBox="0 0 303 96"><rect width="303" height="96" fill="#F7EFE8" rx="8"/><path fill="#fff" fill-opacity=".5" d="M106.157 77.455c2.764-2.822 4.317-6.65 4.317-10.642v-15.05H95.737c-3.909 0-7.657 1.585-10.42 4.408C82.552 58.993 81 62.82 81 66.813c0 3.992 1.553 7.82 4.316 10.642 2.764 2.823 6.512 4.409 10.42 4.409 3.91 0 7.658-1.586 10.421-4.409Zm16.001-21.285c-2.763 2.823-4.316 6.651-4.316 10.643V96h29.474V66.813c0-3.992-1.553-7.82-4.317-10.642-2.763-2.823-6.512-4.408-10.42-4.408-3.909 0-7.657 1.585-10.421 4.408ZM181.623 96h-26.939v-6.611h14.737c3.909 0 7.657 1.585 10.421 4.408.665.68 1.261 1.418 1.781 2.203ZM154.684 0h29.474v29.187c0 3.992-1.553 7.82-4.316 10.642-2.764 2.823-6.512 4.408-10.421 4.408-3.908 0-7.657-1.585-10.42-4.408-2.764-2.822-4.317-6.65-4.317-10.642V0Zm-34.307 0h26.939v6.612h-14.737c-3.909 0-7.657-1.586-10.421-4.409A15.002 15.002 0 0 1 120.377 0Zm22.622 18.545c-2.763-2.823-6.512-4.408-10.42-4.408H95.737c-3.909 0-7.657 1.585-10.42 4.408C82.552 21.367 81 25.195 81 29.187c0 3.992 1.553 7.82 4.316 10.642 2.764 2.823 6.512 4.408 10.42 4.408h36.843c3.908 0 7.657-1.585 10.42-4.408 2.764-2.822 4.317-6.65 4.317-10.642 0-3.992-1.553-7.82-4.317-10.642Zm52.844 0c-2.764 2.822-4.317 6.65-4.317 10.642v15.05h14.737c3.909 0 7.657-1.585 10.421-4.408 2.763-2.822 4.316-6.65 4.316-10.642 0-3.992-1.553-7.82-4.316-10.642-2.764-2.823-6.512-4.408-10.421-4.408-3.908 0-7.657 1.585-10.42 4.408Zm-36.842 58.91c2.763 2.823 6.512 4.409 10.42 4.409h36.842c3.909 0 7.657-1.586 10.421-4.409 2.763-2.822 4.316-6.65 4.316-10.642 0-3.992-1.553-7.82-4.316-10.642-2.764-2.823-6.512-4.408-10.421-4.408h-36.842c-3.908 0-7.657 1.585-10.42 4.408-2.764 2.822-4.317 6.65-4.317 10.642 0 3.992 1.553 7.82 4.317 10.642Z"/><path fill="#E01E5A" d="M141.311 53.098c0 2.055-1.643 3.733-3.655 3.733-2.012 0-3.656-1.678-3.656-3.733s1.644-3.734 3.656-3.734h3.655v3.734Zm1.842-.001c0-2.055 1.644-3.734 3.656-3.734 2.012 0 3.656 1.679 3.656 3.734v9.348c0 2.055-1.644 3.733-3.656 3.733-2.012 0-3.656-1.678-3.656-3.733v-9.348Z"/><path fill="#36C5F0" d="M146.809 38.105c-2.012 0-3.656-1.678-3.656-3.733s1.644-3.734 3.656-3.734c2.012 0 3.656 1.679 3.656 3.734v3.733h-3.656Zm0 1.881c2.012 0 3.656 1.679 3.656 3.734 0 2.054-1.644 3.733-3.656 3.733h-9.153c-2.012 0-3.656-1.679-3.656-3.733 0-2.055 1.644-3.734 3.656-3.734h9.153Z"/><path fill="#2EB67D" d="M161.489 43.72c0-2.055 1.643-3.734 3.655-3.734 2.012 0 3.656 1.679 3.656 3.734 0 2.054-1.644 3.733-3.656 3.733h-3.655V43.72Zm-1.842 0c0 2.055-1.644 3.733-3.656 3.733-2.012 0-3.656-1.678-3.656-3.733v-9.348c0-2.055 1.644-3.734 3.656-3.734 2.012 0 3.656 1.679 3.656 3.734v9.348Z"/><path fill="#ECB22E" d="M155.991 58.712c2.012 0 3.656 1.678 3.656 3.733s-1.644 3.733-3.656 3.733c-2.012 0-3.656-1.678-3.656-3.733v-3.733h3.656Zm0-1.882c-2.012 0-3.656-1.678-3.656-3.733s1.644-3.733 3.656-3.733h9.154c2.012 0 3.655 1.678 3.655 3.733s-1.643 3.734-3.655 3.734h-9.154Z"/></svg>