<svg xmlns="http://www.w3.org/2000/svg" width="303" height="96" fill="none" viewBox="0 0 303 96"><g clip-path="url(#a)"><rect width="303" height="96" fill="#DBECDB" rx="8"/><path fill="#fff" fill-opacity=".5" fill-rule="evenodd" d="m171.068-14.142 37.273 22.415a14.138 14.138 0 0 1 5.089 5.217 14.523 14.523 0 0 1 1.866 7.114v40.482c0 2.503-.643 4.962-1.865 7.13a14.163 14.163 0 0 1-5.098 5.233l-61.341 36.531-.016.008a13.755 13.755 0 0 1-7.018 1.929c-2.465 0-4.886-.665-7.018-1.929h-.008l-37.32-22.237a14.097 14.097 0 0 1-5.062-5.212 14.472 14.472 0 0 1-1.846-7.094V34.76c0-2.456.617-4.832 1.74-6.908l.032-.04.08-.154a13.97 13.97 0 0 1 5.063-5.196l61.452-36.612a13.628 13.628 0 0 1 6.983-1.93c2.454 0 4.863.666 6.982 1.93l.016.008h.016Zm-8.015 10.456a1.949 1.949 0 0 1 1.994 0l32.558 19.57-56.587 33.518a2.079 2.079 0 0 1-2.128 0l-32.566-19.296 56.729-33.792ZM146.976 59.89l10.8-6.4v36.04l-11.868 7.07V60.464a14.12 14.12 0 0 0 1.076-.574h-.008Zm22.66 22.576V46.47l12.034-7.127V75.3l-12.034 7.167Zm23.902-14.237 8.822-5.252h.015c.321-.191.587-.465.772-.794.185-.329.281-.702.281-1.08v-34.65l-9.89 5.859v35.917Zm-91.945 9.05 32.439 19.336V60.472a13.854 13.854 0 0 1-1.092-.582l-32.368-19.175v34.73c0 .767.396 1.462 1.021 1.834Z" clip-rule="evenodd"/><path fill="#4BA94B" fill-rule="evenodd" d="m157.274 30.752 10.31 6.2a3.91 3.91 0 0 1 1.408 1.444 4.02 4.02 0 0 1 .516 1.967V51.56a4.02 4.02 0 0 1-.516 1.973c-.338.6-.824 1.1-1.41 1.447l-16.967 10.105-.005.002a3.803 3.803 0 0 1-3.882 0h-.002l-10.323-6.15a3.899 3.899 0 0 1-1.4-1.442 4.013 4.013 0 0 1-.511-1.963V44.28c0-.68.171-1.337.482-1.911l.008-.011.022-.043a3.871 3.871 0 0 1 1.401-1.437l16.998-10.127a3.766 3.766 0 0 1 3.862 0l.005.002h.004Zm-2.217 2.892a.54.54 0 0 1 .552 0l9.005 5.414-15.652 9.27a.574.574 0 0 1-.588 0l-9.008-5.337 15.691-9.347ZM150.61 51.23l2.988-1.77v9.968l-3.283 1.956v-9.996c.101-.048.201-.101.298-.158h-.003Zm6.268 6.245v-9.958l3.329-1.971v9.946l-3.329 1.983Zm6.612-3.939 2.44-1.453h.004a.601.601 0 0 0 .291-.519v-9.583l-2.735 1.62v9.935Zm-25.433 2.504 8.973 5.348v-9.997a3.762 3.762 0 0 1-.302-.161l-8.953-5.304v9.606c0 .213.109.405.282.508Z" clip-rule="evenodd"/></g><defs><clipPath id="a"><rect width="303" height="96" fill="#fff" rx="8"/></clipPath></defs></svg>