<svg xmlns="http://www.w3.org/2000/svg" width="303" height="96" fill="none" viewBox="0 0 303 96"><g clip-path="url(#a)"><rect width="303" height="96" fill="#F8F9FA" rx="8"/><rect width="72" height="22" x="-33.5" y="23" fill="#DADDE0" rx="11"/><path fill="#939397" d="M-24.357 39V28.818h1.8v3.808h.074c.093-.185.224-.382.393-.591.17-.212.398-.393.686-.542.289-.153.657-.229 1.104-.229.59 0 1.122.151 1.596.453.477.298.855.74 1.133 1.327.282.583.423 1.3.423 2.148 0 .838-.138 1.55-.413 2.138-.275.586-.65 1.034-1.123 1.342a2.89 2.89 0 0 1-1.611.462c-.438 0-.8-.073-1.089-.218a2.215 2.215 0 0 1-.696-.527 3.408 3.408 0 0 1-.403-.592h-.104V39h-1.77Zm1.765-3.818c0 .494.07.926.209 1.297.142.372.346.662.611.87.269.206.594.309.975.309.398 0 .73-.106 1-.319.268-.215.47-.508.606-.88.139-.374.208-.8.208-1.277a3.63 3.63 0 0 0-.203-1.263 1.896 1.896 0 0 0-.607-.865c-.268-.209-.603-.313-1.004-.313-.385 0-.711.1-.98.303-.268.202-.472.486-.611.85-.136.365-.204.794-.204 1.288Zm8.751 3.972c-.484 0-.92-.086-1.307-.258a2.134 2.134 0 0 1-.915-.776c-.222-.341-.333-.762-.333-1.263 0-.43.08-.787.239-1.069.159-.281.376-.507.65-.676.276-.169.586-.296.93-.383.349-.09.708-.154 1.08-.194.447-.046.81-.087 1.088-.124.279-.04.48-.1.607-.179.129-.083.194-.21.194-.383v-.03c0-.374-.111-.664-.333-.87-.223-.205-.542-.308-.96-.308-.44 0-.79.096-1.049.289a1.43 1.43 0 0 0-.517.68l-1.68-.238c.132-.464.35-.852.656-1.163a2.86 2.86 0 0 1 1.118-.706c.441-.16.928-.239 1.462-.239.368 0 .734.043 1.099.13a3.09 3.09 0 0 1 1 .427c.3.196.543.462.725.8.186.338.278.761.278 1.268V39h-1.73v-1.049h-.06a2.195 2.195 0 0 1-.462.597 2.21 2.21 0 0 1-.74.442 2.98 2.98 0 0 1-1.04.164Zm.468-1.322c.361 0 .674-.072.94-.214a1.58 1.58 0 0 0 .61-.577 1.47 1.47 0 0 0 .22-.78v-.9a.846.846 0 0 1-.289.13 4.029 4.029 0 0 1-.447.103c-.166.03-.33.057-.492.08l-.423.06a3.142 3.142 0 0 0-.72.179 1.2 1.2 0 0 0-.503.348c-.123.145-.184.334-.184.566 0 .332.121.582.363.751.242.17.55.254.925.254Zm8.285 1.317c-.762 0-1.417-.167-1.964-.502A3.353 3.353 0 0 1-8.31 37.26c-.291-.593-.437-1.276-.437-2.048 0-.776.15-1.46.447-2.054a3.34 3.34 0 0 1 1.263-1.392c.547-.334 1.193-.502 1.94-.502.619 0 1.167.115 1.645.343.48.226.863.546 1.148.96.285.41.448.891.487 1.441h-1.72a1.644 1.644 0 0 0-.497-.92c-.259-.248-.605-.372-1.04-.372-.367 0-.69.1-.969.298-.278.196-.495.477-.65.845-.153.368-.23.81-.23 1.323 0 .52.077.968.23 1.342.152.371.365.658.64.86.279.2.605.298.98.298.265 0 .502-.05.71-.149.213-.102.39-.25.533-.442.142-.192.24-.426.293-.701h1.72a2.999 2.999 0 0 1-.477 1.437c-.275.414-.65.739-1.124.974-.473.232-1.03.348-1.67.348Zm5.97-2.545L.877 34.43h.288l2.744-3.067h2.103l-3.375 3.758h-.373L.882 36.604ZM-.758 39V28.818H1.04V39h-1.8Zm4.792 0-2.486-3.475 1.213-1.268L6.186 39H4.034Zm5.824.15c-.766 0-1.427-.16-1.984-.478a3.233 3.233 0 0 1-1.277-1.362c-.299-.59-.448-1.285-.448-2.083 0-.786.15-1.475.448-2.069a3.384 3.384 0 0 1 1.262-1.392c.54-.334 1.175-.502 1.905-.502.47 0 .914.076 1.332.229.42.149.792.381 1.114.696.324.315.58.716.765 1.203.186.484.279 1.06.279 1.73v.552h-6.26v-1.213h4.534a1.936 1.936 0 0 0-.223-.92 1.626 1.626 0 0 0-.612-.641 1.719 1.719 0 0 0-.905-.234c-.367 0-.69.09-.969.269a1.849 1.849 0 0 0-.651.696c-.153.285-.23.598-.234.94v1.058c0 .444.081.826.244 1.144.162.315.39.556.68.726a2.05 2.05 0 0 0 1.025.248c.262 0 .499-.036.71-.11.213-.075.397-.187.553-.332.155-.146.273-.327.353-.542l1.68.189a2.62 2.62 0 0 1-.607 1.163 2.957 2.957 0 0 1-1.133.766c-.46.179-.988.268-1.58.268Zm6.298-4.624V39h-1.8v-7.636h1.72v1.297h.09c.175-.427.456-.767.84-1.019.388-.252.867-.378 1.437-.378.527 0 .986.113 1.377.338.394.226.7.552.915.98.218.427.326.946.323 1.556V39h-1.8v-4.584c0-.51-.132-.91-.398-1.198-.261-.288-.624-.433-1.088-.433-.315 0-.595.07-.84.21a1.447 1.447 0 0 0-.572.59c-.136.26-.204.573-.204.94Zm9.145 4.608a2.89 2.89 0 0 1-1.61-.462c-.474-.308-.849-.756-1.124-1.342-.275-.587-.413-1.3-.413-2.138 0-.849.14-1.565.418-2.148.282-.587.661-1.03 1.138-1.327a2.926 2.926 0 0 1 1.596-.453c.448 0 .816.076 1.104.229.288.149.517.33.686.542.169.209.3.406.393.591h.074v-3.808h1.805V39h-1.77v-1.203h-.11a3.078 3.078 0 0 1-.402.592 2.216 2.216 0 0 1-.696.526c-.288.146-.651.22-1.089.22Zm.502-1.476c.381 0 .706-.103.975-.309.268-.208.472-.498.611-.87.14-.37.21-.803.21-1.297 0-.494-.07-.923-.21-1.288-.136-.364-.338-.648-.606-.85-.265-.202-.592-.303-.98-.303-.4 0-.735.104-1.004.313a1.9 1.9 0 0 0-.606.865 3.63 3.63 0 0 0-.204 1.263c0 .477.068.903.204 1.277.139.372.343.665.611.88.272.213.605.319 1 .319Z"/><rect width="115" height="22" x="46.5" y="23" fill="#DADDE0" rx="11"/><path fill="#939397" d="M58.964 42.023c-.646 0-1.201-.088-1.665-.264-.464-.172-.837-.404-1.119-.696a2.41 2.41 0 0 1-.587-.97l1.621-.392c.073.15.18.297.318.443.14.149.327.271.562.367.239.1.539.15.9.15.51 0 .933-.125 1.268-.373.334-.246.502-.65.502-1.213v-1.447h-.09a2.558 2.558 0 0 1-.407.572c-.176.195-.41.36-.701.492-.289.132-.652.199-1.09.199a3.138 3.138 0 0 1-1.595-.413c-.474-.278-.852-.693-1.133-1.243-.279-.553-.418-1.246-.418-2.078 0-.839.14-1.546.418-2.123.281-.58.66-1.02 1.138-1.317a2.926 2.926 0 0 1 1.596-.453c.447 0 .815.076 1.104.229.291.149.523.33.696.542.172.209.303.406.392.591h.1v-1.262h1.775v7.76c0 .653-.156 1.194-.468 1.621-.311.428-.737.747-1.277.96-.54.212-1.154.318-1.84.318Zm.015-4.544c.381 0 .706-.093.974-.279.269-.185.473-.452.612-.8.14-.348.209-.766.209-1.253 0-.48-.07-.901-.209-1.263-.136-.361-.338-.641-.607-.84-.265-.202-.591-.303-.979-.303-.401 0-.736.104-1.004.313-.269.209-.47.495-.607.86a3.484 3.484 0 0 0-.204 1.233c0 .467.068.877.204 1.228.14.348.343.62.612.815.272.193.605.289.999.289Zm8.325 1.67c-.746 0-1.392-.164-1.939-.492a3.342 3.342 0 0 1-1.273-1.377c-.298-.59-.447-1.28-.447-2.068 0-.79.15-1.48.447-2.074a3.335 3.335 0 0 1 1.273-1.382c.547-.328 1.193-.492 1.939-.492s1.392.164 1.939.492c.547.328.97.79 1.268 1.383.301.593.452 1.284.452 2.073 0 .788-.15 1.478-.452 2.068a3.31 3.31 0 0 1-1.268 1.377c-.547.328-1.193.492-1.939.492Zm.01-1.442c.404 0 .742-.11 1.014-.333.272-.225.474-.527.607-.905a3.71 3.71 0 0 0 .204-1.262c0-.468-.068-.89-.204-1.268a2.007 2.007 0 0 0-.607-.91c-.272-.225-.61-.338-1.014-.338-.414 0-.759.113-1.034.338a2.041 2.041 0 0 0-.612.91 3.81 3.81 0 0 0-.199 1.268c0 .464.067.885.2 1.262.135.378.34.68.61.905.276.222.62.333 1.035.333Zm8.088 1.442c-.746 0-1.392-.164-1.94-.492a3.342 3.342 0 0 1-1.272-1.377c-.298-.59-.447-1.28-.447-2.068 0-.79.149-1.48.447-2.074a3.335 3.335 0 0 1 1.273-1.382c.547-.328 1.193-.492 1.939-.492.745 0 1.392.164 1.939.492.546.328.969.79 1.267 1.383.302.593.453 1.284.453 2.073 0 .788-.151 1.478-.453 2.068a3.31 3.31 0 0 1-1.267 1.377c-.547.328-1.194.492-1.94.492Zm.01-1.442c.404 0 .742-.11 1.014-.333.272-.225.474-.527.606-.905a3.71 3.71 0 0 0 .204-1.262c0-.468-.068-.89-.204-1.268a2.007 2.007 0 0 0-.606-.91c-.272-.225-.61-.338-1.014-.338-.415 0-.76.113-1.035.338a2.041 2.041 0 0 0-.611.91 3.81 3.81 0 0 0-.199 1.268c0 .464.066.885.199 1.262.136.378.34.68.611.905.276.222.62.333 1.035.333Zm7.59 1.427a2.89 2.89 0 0 1-1.61-.462c-.475-.308-.85-.756-1.124-1.342-.275-.587-.413-1.3-.413-2.138 0-.849.14-1.565.418-2.148.281-.587.66-1.03 1.138-1.327a2.926 2.926 0 0 1 1.596-.453c.447 0 .815.076 1.104.229.288.149.517.33.686.542.169.209.3.406.392.591h.075v-3.808h1.805V39h-1.77v-1.203h-.11a3.073 3.073 0 0 1-.402.592 2.215 2.215 0 0 1-.696.526c-.288.146-.651.22-1.089.22Zm.502-1.476c.381 0 .706-.103.975-.309.268-.208.472-.498.611-.87.14-.37.209-.803.209-1.297 0-.494-.07-.923-.209-1.288-.136-.364-.338-.648-.606-.85-.266-.202-.592-.303-.98-.303-.4 0-.736.104-1.004.313-.269.209-.47.497-.607.865a3.63 3.63 0 0 0-.204 1.263c0 .477.069.903.204 1.277.14.372.343.665.612.88.272.213.605.319 1 .319Zm11.983-6.294v1.392h-4.514v-1.392h4.514ZM92.102 39v-8.357c0-.514.106-.942.318-1.283.215-.341.504-.596.865-.765.361-.17.762-.254 1.203-.254.311 0 .588.025.83.075.242.05.421.094.537.134l-.358 1.392a3.114 3.114 0 0 0-.288-.07 1.738 1.738 0 0 0-.388-.04c-.335 0-.572.082-.711.244-.136.16-.204.388-.204.686V39h-1.805Zm4.375 0v-7.636h1.8V39h-1.8Zm.904-8.72a1.05 1.05 0 0 1-.735-.284.913.913 0 0 1-.309-.69c0-.272.103-.503.309-.692a1.04 1.04 0 0 1 .735-.288c.289 0 .534.096.736.288.206.19.308.42.308.691a.913.913 0 0 1-.308.691 1.038 1.038 0 0 1-.736.284ZM99.707 39v-7.636h1.745v1.272h.08c.139-.44.377-.78.715-1.019a1.972 1.972 0 0 1 1.169-.363c.099 0 .21.005.333.015.126.007.23.018.313.035v1.655a1.888 1.888 0 0 0-.363-.07 3.336 3.336 0 0 0-.472-.034c-.328 0-.623.071-.885.214a1.568 1.568 0 0 0-.835 1.442V39h-1.8Zm11.166-5.618-1.64.18a1.329 1.329 0 0 0-.244-.468 1.212 1.212 0 0 0-.457-.353 1.67 1.67 0 0 0-.706-.135c-.375 0-.69.082-.945.244-.252.163-.376.373-.373.631a.661.661 0 0 0 .244.542c.169.14.447.254.835.343l1.303.279c.722.156 1.259.403 1.61.74.355.339.534.781.537 1.328-.003.48-.144.905-.422 1.273-.275.364-.658.65-1.149.855-.49.205-1.054.308-1.69.308-.935 0-1.687-.195-2.257-.587-.57-.394-.91-.942-1.019-1.645l1.755-.17c.079.346.248.606.507.781.258.176.595.264 1.009.264.428 0 .771-.088 1.029-.264.262-.175.393-.392.393-.65a.68.68 0 0 0-.254-.543c-.165-.142-.424-.252-.775-.328l-1.303-.273c-.732-.153-1.274-.41-1.626-.77-.351-.365-.525-.826-.522-1.383-.003-.47.125-.878.383-1.223.262-.348.625-.616 1.089-.805.467-.193 1.006-.289 1.616-.289.895 0 1.599.19 2.113.572.517.381.837.897.959 1.546Zm5.042-2.018v1.392h-4.39v-1.392h4.39Zm-3.307-1.83h1.8v7.17c0 .241.037.427.11.556a.587.587 0 0 0 .298.259c.122.046.258.07.408.07.112 0 .215-.01.308-.026.096-.016.169-.031.219-.044l.303 1.406a4.01 4.01 0 0 1-.413.11c-.176.04-.391.063-.646.07a2.933 2.933 0 0 1-1.218-.204 1.895 1.895 0 0 1-.86-.706c-.209-.319-.312-.716-.309-1.194v-7.467ZM120.052 39v-7.636h1.8V39h-1.8Zm.905-8.72a1.05 1.05 0 0 1-.736-.284.915.915 0 0 1-.308-.69c0-.272.103-.503.308-.692.206-.192.451-.288.736-.288.289 0 .534.096.736.288.205.19.308.42.308.691a.915.915 0 0 1-.308.691 1.037 1.037 0 0 1-.736.284Zm8.361 3.102-1.64.18a1.329 1.329 0 0 0-.244-.468 1.212 1.212 0 0 0-.457-.353 1.67 1.67 0 0 0-.706-.135c-.375 0-.69.082-.945.244-.252.163-.376.373-.373.631a.661.661 0 0 0 .244.542c.169.14.447.254.835.343l1.303.279c.722.156 1.259.403 1.61.74.355.339.534.781.537 1.328-.003.48-.144.905-.422 1.273-.275.364-.658.65-1.149.855-.49.205-1.054.308-1.69.308-.935 0-1.687-.195-2.257-.587-.57-.394-.91-.942-1.019-1.645l1.755-.17c.079.346.248.606.507.781.258.176.595.264 1.009.264.428 0 .771-.088 1.029-.264.262-.175.393-.392.393-.65a.68.68 0 0 0-.254-.543c-.165-.142-.424-.252-.775-.328l-1.303-.273c-.732-.153-1.274-.41-1.626-.77-.351-.365-.525-.826-.522-1.383-.003-.47.125-.878.383-1.223.262-.348.625-.616 1.089-.805.467-.193 1.006-.289 1.616-.289.895 0 1.599.19 2.113.572.517.381.837.897.959 1.546Zm7.264 0-1.641.18a1.31 1.31 0 0 0-.243-.468 1.216 1.216 0 0 0-.458-.353 1.664 1.664 0 0 0-.706-.135c-.374 0-.689.082-.944.244-.252.163-.377.373-.373.631a.66.66 0 0 0 .243.542c.169.14.448.254.836.343l1.302.279c.723.156 1.26.403 1.611.74.355.339.534.781.537 1.328-.003.48-.144.905-.423 1.273-.275.364-.658.65-1.148.855-.491.205-1.054.308-1.69.308-.935 0-1.687-.195-2.258-.587-.57-.394-.909-.942-1.019-1.645l1.755-.17c.08.346.249.606.507.781.259.176.595.264 1.01.264.427 0 .77-.088 1.029-.264.262-.175.392-.392.392-.65 0-.22-.084-.4-.253-.543-.166-.142-.424-.252-.776-.328l-1.302-.273c-.733-.153-1.275-.41-1.626-.77-.351-.365-.525-.826-.522-1.383-.003-.47.124-.878.383-1.223.262-.348.625-.616 1.089-.805.467-.193 1.006-.289 1.615-.289.895 0 1.6.19 2.113.572.517.381.837.897.96 1.546Zm6.095 2.406v-4.424h1.8V39h-1.745v-1.357h-.08a2.29 2.29 0 0 1-.85 1.049c-.391.272-.873.407-1.447.407-.5 0-.943-.11-1.327-.333a2.32 2.32 0 0 1-.895-.98c-.215-.43-.323-.95-.323-1.56v-4.862h1.8v4.583c0 .484.132.869.397 1.154.266.285.614.427 1.044.427.266 0 .522-.064.771-.194a1.57 1.57 0 0 0 .612-.576c.162-.259.243-.582.243-.97Zm6.611 3.361c-.765 0-1.427-.159-1.983-.477a3.228 3.228 0 0 1-1.278-1.362c-.298-.59-.448-1.285-.448-2.083 0-.786.15-1.475.448-2.069a3.375 3.375 0 0 1 1.263-1.392c.54-.334 1.175-.502 1.904-.502.47 0 .915.076 1.332.229.421.149.792.381 1.114.696.325.315.58.716.765 1.203.186.484.279 1.06.279 1.73v.552h-6.259v-1.213h4.534a1.942 1.942 0 0 0-.224-.92 1.627 1.627 0 0 0-.612-.641 1.716 1.716 0 0 0-.904-.234c-.368 0-.691.09-.97.269a1.853 1.853 0 0 0-.651.696c-.153.285-.23.598-.234.94v1.058c0 .444.081.826.244 1.144.162.315.389.556.681.726.292.165.633.248 1.024.248.262 0 .499-.036.711-.11.212-.075.396-.187.552-.332a1.39 1.39 0 0 0 .353-.542l1.68.189a2.622 2.622 0 0 1-.606 1.163 2.957 2.957 0 0 1-1.134.766c-.461.179-.988.268-1.581.268Z"/><rect width="105" height="22" x="169.5" y="23" fill="#DADDE0" rx="11"/><path fill="#939397" d="M181.866 39.15c-.765 0-1.427-.16-1.983-.478a3.228 3.228 0 0 1-1.278-1.362c-.298-.59-.447-1.285-.447-2.083 0-.786.149-1.475.447-2.069a3.389 3.389 0 0 1 1.263-1.392c.54-.334 1.175-.502 1.904-.502.471 0 .915.076 1.332.229.421.149.792.381 1.114.696.325.315.58.716.766 1.203.185.484.278 1.06.278 1.73v.552h-6.259v-1.213h4.534a1.942 1.942 0 0 0-.224-.92 1.632 1.632 0 0 0-.611-.641 1.722 1.722 0 0 0-.905-.234c-.368 0-.691.09-.97.269a1.853 1.853 0 0 0-.651.696c-.152.285-.23.598-.234.94v1.058c0 .444.082.826.244 1.144.162.315.389.556.681.726.292.165.633.248 1.024.248.262 0 .499-.036.711-.11.212-.075.396-.187.552-.332a1.39 1.39 0 0 0 .353-.542l1.68.189a2.622 2.622 0 0 1-.606 1.163 2.957 2.957 0 0 1-1.134.766c-.46.179-.987.268-1.581.268Zm6.298-4.624V39h-1.8v-7.636h1.721v1.297h.089a2.19 2.19 0 0 1 .84-1.019c.388-.252.867-.378 1.437-.378.527 0 .986.113 1.377.338.395.226.7.552.915.98.219.427.326.946.323 1.556V39h-1.8v-4.584c0-.51-.132-.91-.397-1.198-.262-.288-.625-.433-1.089-.433-.315 0-.595.07-.84.21a1.447 1.447 0 0 0-.572.59c-.136.26-.204.573-.204.94Zm8.111 0V39h-1.799V28.818h1.76v3.843h.089c.179-.43.456-.77.83-1.019.378-.252.859-.378 1.442-.378.53 0 .993.111 1.387.333.395.222.7.547.915.975.219.427.328.95.328 1.566V39h-1.8v-4.584c0-.513-.132-.913-.397-1.198-.262-.288-.63-.433-1.104-.433-.318 0-.603.07-.855.21a1.463 1.463 0 0 0-.587.59c-.139.26-.209.573-.209.94Zm8.564 4.628c-.484 0-.92-.086-1.307-.258a2.13 2.13 0 0 1-.915-.776c-.222-.341-.333-.762-.333-1.263 0-.43.079-.787.238-1.069.159-.281.377-.507.652-.676a3.29 3.29 0 0 1 .929-.383 7.57 7.57 0 0 1 1.079-.194c.448-.046.811-.087 1.089-.124.278-.04.481-.1.606-.179.13-.083.194-.21.194-.383v-.03c0-.374-.111-.664-.333-.87-.222-.205-.542-.308-.959-.308-.441 0-.791.096-1.049.289a1.43 1.43 0 0 0-.517.68l-1.681-.238c.133-.464.352-.852.657-1.163.304-.315.677-.55 1.118-.706a4.283 4.283 0 0 1 1.462-.239c.368 0 .734.043 1.099.13.364.086.697.228.999.427.301.196.543.462.726.8.185.338.278.761.278 1.268V39h-1.73v-1.049h-.06a2.186 2.186 0 0 1-.462.597c-.196.182-.443.33-.741.442a2.97 2.97 0 0 1-1.039.164Zm.467-1.322c.362 0 .675-.072.94-.214.265-.146.469-.338.612-.577.145-.238.218-.499.218-.78v-.9a.84.84 0 0 1-.288.13 4.17 4.17 0 0 1-.447.103c-.166.03-.33.057-.493.08l-.422.06a3.135 3.135 0 0 0-.721.179c-.212.083-.38.199-.502.348-.123.145-.184.334-.184.566 0 .332.121.582.363.751.242.17.55.254.924.254Zm6.754-3.306V39h-1.799v-7.636h1.72v1.297h.089c.176-.427.456-.767.841-1.019.387-.252.866-.378 1.436-.378.527 0 .986.113 1.378.338.394.226.699.552.914.98.219.427.327.946.323 1.556V39h-1.799v-4.584c0-.51-.133-.91-.398-1.198-.262-.288-.625-.433-1.089-.433-.315 0-.595.07-.84.21a1.447 1.447 0 0 0-.572.59c-.136.26-.204.573-.204.94Zm9.643 4.623c-.762 0-1.417-.167-1.964-.502a3.357 3.357 0 0 1-1.258-1.387c-.291-.593-.437-1.276-.437-2.048 0-.776.149-1.46.447-2.054.299-.596.72-1.06 1.263-1.392.547-.334 1.193-.502 1.939-.502.62 0 1.168.115 1.646.343.48.226.863.546 1.148.96.285.41.447.891.487 1.441h-1.72a1.645 1.645 0 0 0-.497-.92c-.259-.248-.605-.372-1.039-.372-.368 0-.691.1-.97.298-.278.196-.495.477-.651.845-.152.368-.229.81-.229 1.323 0 .52.077.968.229 1.342.153.371.366.658.641.86.279.2.605.298.98.298.265 0 .502-.05.711-.149.212-.102.389-.25.532-.442.142-.192.24-.426.293-.701h1.72a2.999 2.999 0 0 1-.477 1.437c-.275.414-.65.739-1.124.974-.474.232-1.03.348-1.67.348Zm7.71 0c-.766 0-1.427-.159-1.984-.477a3.24 3.24 0 0 1-1.278-1.362c-.298-.59-.447-1.285-.447-2.083 0-.786.149-1.475.447-2.069a3.389 3.389 0 0 1 1.263-1.392c.54-.334 1.175-.502 1.904-.502.471 0 .915.076 1.333.229a3 3 0 0 1 1.113.696c.325.315.58.716.766 1.203.186.484.278 1.06.278 1.73v.552h-6.259v-1.213h4.534a1.93 1.93 0 0 0-.224-.92 1.618 1.618 0 0 0-.611-.641 1.72 1.72 0 0 0-.905-.234c-.368 0-.691.09-.969.269a1.848 1.848 0 0 0-.652.696c-.152.285-.23.598-.233.94v1.058c0 .444.081.826.243 1.144.163.315.39.556.681.726a2.04 2.04 0 0 0 1.025.248c.261 0 .498-.036.711-.11a1.56 1.56 0 0 0 .551-.332c.156-.146.274-.327.353-.542l1.681.189a2.613 2.613 0 0 1-.607 1.163 2.961 2.961 0 0 1-1.133.766c-.461.179-.988.268-1.581.268Zm4.498-.149v-7.636h1.72v1.297h.09c.159-.437.422-.779.79-1.024.368-.248.807-.373 1.318-.373.517 0 .952.126 1.307.378.358.249.61.588.756 1.02h.079c.169-.425.454-.763.855-1.015.405-.255.884-.383 1.437-.383.703 0 1.276.222 1.72.666.444.444.667 1.093.667 1.944V39h-1.805v-4.847c0-.474-.126-.82-.378-1.04a1.35 1.35 0 0 0-.925-.332c-.434 0-.774.135-1.019.407-.242.269-.363.618-.363 1.05V39h-1.765v-4.922c0-.394-.119-.71-.358-.945-.235-.235-.543-.352-.924-.352-.259 0-.494.066-.706.198a1.39 1.39 0 0 0-.507.552c-.126.236-.189.51-.189.825V39h-1.8Zm15.525.15c-.766 0-1.427-.16-1.984-.478a3.232 3.232 0 0 1-1.277-1.362c-.299-.59-.448-1.285-.448-2.083 0-.786.149-1.475.448-2.069a3.38 3.38 0 0 1 1.262-1.392c.541-.334 1.175-.502 1.905-.502.47 0 .914.076 1.332.229.421.149.792.381 1.114.696.324.315.58.716.765 1.203.186.484.279 1.06.279 1.73v.552h-6.26v-1.213h4.534a1.93 1.93 0 0 0-.223-.92 1.627 1.627 0 0 0-.612-.641 1.717 1.717 0 0 0-.905-.234c-.367 0-.691.09-.969.269a1.845 1.845 0 0 0-.651.696 1.993 1.993 0 0 0-.234.94v1.058c0 .444.081.826.244 1.144.162.315.389.556.681.726.291.165.633.248 1.024.248.262 0 .499-.036.711-.11.212-.075.396-.187.552-.332.155-.146.273-.327.353-.542l1.68.189a2.622 2.622 0 0 1-.606 1.163 2.957 2.957 0 0 1-1.134.766c-.461.179-.988.268-1.581.268Zm6.298-4.624V39h-1.8v-7.636h1.72v1.297h.09c.175-.427.456-.767.84-1.019.388-.252.867-.378 1.437-.378.527 0 .986.113 1.377.338.394.226.699.552.915.98.218.427.326.946.323 1.556V39h-1.8v-4.584c0-.51-.132-.91-.398-1.198-.261-.288-.624-.433-1.088-.433-.315 0-.595.07-.841.21a1.45 1.45 0 0 0-.571.59c-.136.26-.204.573-.204.94Zm10.125-3.162v1.392h-4.39v-1.392h4.39Zm-3.306-1.83h1.799v7.17c0 .241.037.427.11.556a.587.587 0 0 0 .298.259c.123.046.258.07.408.07.112 0 .215-.01.308-.026.096-.016.169-.031.219-.044l.303 1.406a4.01 4.01 0 0 1-.413.11 3.38 3.38 0 0 1-.646.07 2.933 2.933 0 0 1-1.218-.204 1.895 1.895 0 0 1-.86-.706c-.209-.319-.312-.716-.308-1.194v-7.467Z"/><rect width="54" height="22" x="282.5" y="23" fill="#DADDE0" rx="11"/><path fill="#939397" d="M293.993 39.154c-.483 0-.919-.086-1.307-.258a2.13 2.13 0 0 1-.915-.776c-.222-.341-.333-.762-.333-1.263 0-.43.08-.787.239-1.069.159-.281.376-.507.651-.676.275-.169.585-.296.93-.383.348-.09.707-.154 1.078-.194.448-.046.811-.087 1.089-.124.279-.04.481-.1.607-.179.129-.083.194-.21.194-.383v-.03c0-.374-.111-.664-.333-.87-.223-.205-.542-.308-.96-.308-.441 0-.79.096-1.049.289a1.43 1.43 0 0 0-.517.68l-1.68-.238c.132-.464.351-.852.656-1.163a2.86 2.86 0 0 1 1.118-.706 4.283 4.283 0 0 1 1.462-.239c.368 0 .734.043 1.099.13.364.086.697.228.999.427.302.196.544.462.726.8.186.338.278.761.278 1.268V39h-1.73v-1.049h-.059a2.21 2.21 0 0 1-.463.597c-.195.182-.442.33-.741.442a2.97 2.97 0 0 1-1.039.164Zm.468-1.322c.361 0 .674-.072.939-.214a1.58 1.58 0 0 0 .612-.577c.146-.238.219-.499.219-.78v-.9a.857.857 0 0 1-.289.13 4.029 4.029 0 0 1-.447.103c-.166.03-.33.057-.492.08l-.423.06a3.148 3.148 0 0 0-.721.179 1.2 1.2 0 0 0-.502.348c-.123.145-.184.334-.184.566 0 .332.121.582.363.751.242.17.55.254.925.254Zm8.275 4.19c-.646 0-1.201-.087-1.665-.263-.464-.172-.837-.404-1.119-.696a2.415 2.415 0 0 1-.587-.97l1.621-.392c.073.15.179.297.318.443.139.149.327.271.562.367.239.1.539.15.9.15.51 0 .933-.125 1.268-.373.334-.246.502-.65.502-1.213v-1.447h-.09a2.557 2.557 0 0 1-.407.572c-.176.195-.41.36-.701.492-.289.132-.652.199-1.089.199a3.137 3.137 0 0 1-1.596-.413c-.474-.278-.852-.693-1.134-1.243-.278-.553-.417-1.246-.417-2.078 0-.839.139-1.546.417-2.123.282-.58.662-1.02 1.139-1.317a2.925 2.925 0 0 1 1.596-.453c.447 0 .815.076 1.104.229.291.149.523.33.696.542.172.209.303.406.392.591h.1v-1.262h1.775v7.76c0 .653-.156 1.194-.468 1.621-.311.428-.737.747-1.277.96-.541.212-1.154.318-1.84.318Zm.015-4.543c.381 0 .706-.093.974-.279.269-.185.473-.452.612-.8.139-.348.209-.766.209-1.253 0-.48-.07-.901-.209-1.263-.136-.361-.338-.641-.607-.84-.265-.202-.591-.303-.979-.303-.401 0-.736.104-1.004.313a1.896 1.896 0 0 0-.607.86 3.482 3.482 0 0 0-.204 1.233c0 .467.068.877.204 1.228.139.348.343.62.612.815.271.193.605.289.999.289Zm8.375 1.67c-.766 0-1.427-.159-1.984-.477a3.24 3.24 0 0 1-1.278-1.362c-.298-.59-.447-1.285-.447-2.083 0-.786.149-1.475.447-2.069a3.389 3.389 0 0 1 1.263-1.392c.54-.334 1.175-.502 1.904-.502.471 0 .915.076 1.333.229a3 3 0 0 1 1.113.696c.325.315.58.716.766 1.203.186.484.278 1.06.278 1.73v.552h-6.259v-1.213h4.534a1.93 1.93 0 0 0-.224-.92 1.618 1.618 0 0 0-.611-.641 1.72 1.72 0 0 0-.905-.234c-.368 0-.691.09-.969.269a1.848 1.848 0 0 0-.652.696c-.152.285-.23.598-.233.94v1.058c0 .444.081.826.243 1.144.163.315.39.556.681.726a2.04 2.04 0 0 0 1.025.248c.261 0 .498-.036.711-.11a1.56 1.56 0 0 0 .551-.332c.156-.146.274-.327.353-.542l1.681.189a2.623 2.623 0 0 1-.607 1.163 2.961 2.961 0 0 1-1.133.766c-.461.179-.988.268-1.581.268Zm6.298-4.623V39h-1.8v-7.636h1.72v1.297h.09c.175-.427.455-.767.84-1.019.387-.252.866-.378 1.437-.378.526 0 .986.113 1.377.338.394.226.699.552.914.98.219.427.327.946.324 1.556V39h-1.8v-4.584c0-.51-.133-.91-.398-1.198-.262-.288-.625-.433-1.089-.433-.315 0-.595.07-.84.21a1.453 1.453 0 0 0-.572.59c-.135.26-.203.573-.203.94Zm10.124-3.162v1.392h-4.39v-1.392h4.39Zm-3.306-1.83h1.8v7.17c0 .241.036.427.109.556a.593.593 0 0 0 .299.259c.122.046.258.07.407.07.113 0 .216-.01.309-.026a2.53 2.53 0 0 0 .218-.044l.304 1.406c-.097.034-.234.07-.413.11-.176.04-.391.063-.646.07a2.933 2.933 0 0 1-1.218-.204 1.898 1.898 0 0 1-.861-.706c-.208-.319-.311-.716-.308-1.194v-7.467Z"/><rect width="94" height="22" x="-58.5" y="51" fill="#DADDE0" rx="11"/><path fill="#939397" d="M-46.087 67.15c-.762 0-1.417-.168-1.963-.503a3.353 3.353 0 0 1-1.258-1.387c-.292-.593-.438-1.276-.438-2.048 0-.776.15-1.46.448-2.054a3.34 3.34 0 0 1 1.263-1.392c.546-.334 1.193-.502 1.938-.502.62 0 1.169.115 1.646.343.48.226.863.546 1.148.96.285.41.448.891.488 1.441h-1.72a1.644 1.644 0 0 0-.498-.92c-.258-.248-.605-.372-1.039-.372-.368 0-.69.1-.97.298-.278.196-.495.477-.65.845-.153.368-.23.81-.23 1.323 0 .52.077.968.23 1.342.152.371.366.658.64.86.28.2.606.299.98.299.265 0 .502-.05.711-.15.212-.102.39-.25.532-.442a1.7 1.7 0 0 0 .294-.701h1.72a2.998 2.998 0 0 1-.478 1.437 2.83 2.83 0 0 1-1.123.974c-.474.232-1.031.348-1.67.348Zm7.66 0c-.745 0-1.392-.165-1.938-.493a3.342 3.342 0 0 1-1.273-1.377c-.299-.59-.448-1.28-.448-2.068 0-.79.15-1.48.448-2.074a3.335 3.335 0 0 1 1.273-1.382c.546-.328 1.193-.492 1.938-.492.746 0 1.392.164 1.94.492.546.328.969.79 1.267 1.383.302.593.453 1.284.453 2.073 0 .788-.151 1.478-.453 2.068a3.31 3.31 0 0 1-1.268 1.377c-.547.328-1.193.492-1.939.492Zm.01-1.443c.405 0 .743-.11 1.015-.333.271-.225.474-.527.606-.904a3.71 3.71 0 0 0 .204-1.263c0-.468-.068-.89-.204-1.268a2.007 2.007 0 0 0-.606-.91c-.272-.225-.61-.338-1.015-.338-.414 0-.759.113-1.034.338a2.041 2.041 0 0 0-.611.91 3.81 3.81 0 0 0-.2 1.268c0 .464.067.885.2 1.262.136.378.34.68.611.905.275.222.62.333 1.034.333ZM-33.66 67v-7.636h1.745v1.272h.08c.139-.44.377-.78.716-1.019a1.97 1.97 0 0 1 1.168-.363c.1 0 .21.005.333.015.126.007.23.018.313.035v1.655a1.894 1.894 0 0 0-.363-.07 3.34 3.34 0 0 0-.472-.034 1.82 1.82 0 0 0-.885.214c-.259.14-.462.333-.612.582a1.638 1.638 0 0 0-.223.86V67h-1.8Zm8.197.15c-.766 0-1.427-.16-1.984-.478a3.233 3.233 0 0 1-1.277-1.362c-.299-.59-.448-1.285-.448-2.083 0-.786.15-1.475.448-2.069a3.384 3.384 0 0 1 1.262-1.392c.54-.334 1.175-.502 1.905-.502.47 0 .914.076 1.332.229.42.149.792.381 1.114.696.324.315.58.716.765 1.203.186.484.279 1.06.279 1.73v.552h-6.26v-1.213h4.535a1.936 1.936 0 0 0-.224-.92 1.627 1.627 0 0 0-.612-.641 1.72 1.72 0 0 0-.905-.234c-.367 0-.69.09-.969.269a1.85 1.85 0 0 0-.651.696c-.153.285-.23.598-.234.94v1.058c0 .444.081.825.244 1.144.162.315.39.556.68.726a2.05 2.05 0 0 0 1.025.248c.262 0 .499-.036.71-.11.213-.075.397-.186.553-.332.155-.146.273-.327.353-.542l1.68.189a2.62 2.62 0 0 1-.607 1.163 2.958 2.958 0 0 1-1.133.766c-.46.179-.988.268-1.581.268Zm11.419-7.786v1.392h-4.514v-1.392h4.514ZM-17.43 67v-8.357c0-.514.106-.941.318-1.283.216-.341.504-.596.865-.766a2.81 2.81 0 0 1 1.204-.253c.311 0 .588.025.83.075.242.05.42.094.537.134l-.358 1.392a3.114 3.114 0 0 0-.289-.07 1.738 1.738 0 0 0-.387-.04c-.335 0-.572.082-.711.244-.136.16-.204.388-.204.686V67h-1.805Zm7.469.15c-.766 0-1.427-.16-1.984-.478a3.233 3.233 0 0 1-1.278-1.362c-.298-.59-.447-1.285-.447-2.083 0-.786.15-1.475.447-2.069a3.384 3.384 0 0 1 1.263-1.392c.54-.334 1.175-.502 1.904-.502.47 0 .915.076 1.333.229.42.149.792.381 1.113.696.325.315.58.716.766 1.203.186.484.278 1.06.278 1.73v.552h-6.259v-1.213h4.534a1.936 1.936 0 0 0-.224-.92 1.626 1.626 0 0 0-.611-.641 1.719 1.719 0 0 0-.905-.234c-.368 0-.69.09-.97.269a1.85 1.85 0 0 0-.65.696c-.153.285-.23.598-.234.94v1.058c0 .444.081.825.243 1.144.163.315.39.556.681.726.292.165.633.248 1.025.248.261 0 .498-.036.71-.11.213-.075.397-.186.552-.332.156-.146.274-.327.353-.542l1.68.189a2.62 2.62 0 0 1-.606 1.163 2.958 2.958 0 0 1-1.133.766c-.461.179-.988.268-1.581.268Zm6.695.004c-.484 0-.92-.086-1.307-.258a2.134 2.134 0 0 1-.915-.776c-.222-.341-.333-.762-.333-1.263 0-.43.08-.787.239-1.069.159-.281.376-.507.65-.676.276-.169.586-.296.93-.383.349-.09.708-.154 1.08-.194.447-.046.81-.087 1.088-.124.279-.04.48-.1.607-.179.129-.083.194-.21.194-.383v-.03c0-.374-.111-.664-.334-.87-.222-.205-.541-.308-.959-.308-.44 0-.79.096-1.049.289a1.43 1.43 0 0 0-.517.68l-1.68-.238c.132-.464.35-.852.656-1.163a2.86 2.86 0 0 1 1.118-.706c.441-.16.928-.239 1.462-.239.368 0 .734.043 1.099.13.364.086.697.228.999.427.302.196.544.462.726.8.186.338.278.761.278 1.268V67h-1.73v-1.049h-.06a2.195 2.195 0 0 1-.462.597 2.21 2.21 0 0 1-.74.442 2.98 2.98 0 0 1-1.04.164Zm.468-1.322c.36 0 .674-.072.94-.214a1.58 1.58 0 0 0 .61-.577c.147-.238.22-.499.22-.78v-.9a.847.847 0 0 1-.289.13 4.082 4.082 0 0 1-.447.103c-.166.03-.33.057-.492.08l-.423.06a3.143 3.143 0 0 0-.72.179 1.2 1.2 0 0 0-.503.348c-.123.145-.184.334-.184.566 0 .332.121.582.363.751.242.17.55.254.925.254Zm8.767-6.468v1.392H1.58v-1.392h4.39Zm-3.306-1.83h1.8v7.17c0 .241.036.427.11.556a.59.59 0 0 0 .297.258c.123.047.259.07.408.07.113 0 .216-.008.308-.025.096-.016.17-.031.22-.044l.302 1.406c-.096.034-.233.07-.412.11a3.39 3.39 0 0 1-.647.07 2.935 2.935 0 0 1-1.218-.204 1.895 1.895 0 0 1-.86-.706c-.208-.319-.311-.716-.308-1.194v-7.467Zm9.259 6.254v-4.424h1.8V67h-1.746v-1.357h-.08a2.297 2.297 0 0 1-.85 1.049c-.39.272-.873.407-1.446.407-.5 0-.943-.11-1.328-.333a2.314 2.314 0 0 1-.895-.98c-.215-.43-.323-.95-.323-1.56v-4.862h1.8v4.583c0 .484.133.869.398 1.154.265.285.613.427 1.044.427.265 0 .522-.064.77-.194.249-.129.453-.321.612-.576.162-.259.243-.582.243-.97ZM15.152 67v-7.636h1.745v1.272h.08c.139-.44.377-.78.715-1.019a1.97 1.97 0 0 1 1.169-.363c.1 0 .21.005.333.015.126.007.23.018.313.035v1.655a1.894 1.894 0 0 0-.363-.07 3.34 3.34 0 0 0-.472-.034c-.328 0-.623.071-.885.214-.259.14-.462.333-.612.582a1.64 1.64 0 0 0-.223.86V67h-1.8Zm8.197.15c-.766 0-1.427-.16-1.984-.478a3.231 3.231 0 0 1-1.277-1.362c-.299-.59-.448-1.285-.448-2.083 0-.786.15-1.475.448-2.069a3.384 3.384 0 0 1 1.262-1.392c.54-.334 1.175-.502 1.904-.502.471 0 .915.076 1.333.229.42.149.792.381 1.114.696.324.315.58.716.765 1.203.186.484.278 1.06.278 1.73v.552h-6.259v-1.213h4.534a1.935 1.935 0 0 0-.223-.92 1.625 1.625 0 0 0-.612-.641 1.719 1.719 0 0 0-.905-.234c-.368 0-.69.09-.97.269a1.848 1.848 0 0 0-.65.696c-.153.285-.23.598-.234.94v1.058c0 .444.081.825.244 1.144.162.315.389.556.68.726a2.05 2.05 0 0 0 1.025.248c.262 0 .499-.036.71-.11.213-.075.397-.186.553-.332.155-.146.273-.327.352-.542l1.68.189a2.62 2.62 0 0 1-.606 1.163 2.958 2.958 0 0 1-1.133.766c-.46.179-.988.268-1.581.268Z"/><rect width="63" height="22" x="43.5" y="51" fill="#DADDE0" rx="11"/><path fill="#939397" d="M56.703 59.364v1.392h-4.514v-1.392h4.514ZM53.317 67v-8.357c0-.514.106-.941.319-1.283.215-.341.503-.596.865-.766a2.8 2.8 0 0 1 1.203-.253c.311 0 .588.025.83.075.242.05.42.094.537.134l-.358 1.392a3.111 3.111 0 0 0-.288-.07 1.739 1.739 0 0 0-.388-.04c-.335 0-.572.082-.711.244-.136.16-.204.388-.204.686V67h-1.805Zm7.469.15c-.766 0-1.427-.16-1.984-.478a3.233 3.233 0 0 1-1.277-1.362c-.299-.59-.448-1.285-.448-2.083 0-.786.15-1.475.448-2.069a3.384 3.384 0 0 1 1.262-1.392c.54-.334 1.175-.502 1.905-.502.47 0 .914.076 1.332.229.42.149.792.381 1.114.696.324.315.58.716.765 1.203.186.484.279 1.06.279 1.73v.552h-6.26v-1.213h4.535a1.936 1.936 0 0 0-.224-.92 1.627 1.627 0 0 0-.612-.641 1.72 1.72 0 0 0-.905-.234c-.367 0-.69.09-.969.269a1.85 1.85 0 0 0-.651.696c-.153.285-.23.598-.234.94v1.058c0 .444.081.825.244 1.144.162.315.39.556.68.726a2.05 2.05 0 0 0 1.025.248c.262 0 .499-.036.71-.11.213-.075.397-.186.553-.332.155-.146.273-.327.353-.542l1.68.189a2.62 2.62 0 0 1-.606 1.163 2.958 2.958 0 0 1-1.134.766c-.46.179-.988.268-1.581.268Zm6.696.004c-.484 0-.92-.086-1.308-.258a2.134 2.134 0 0 1-.915-.776c-.222-.341-.333-.762-.333-1.263 0-.43.08-.787.239-1.069.159-.281.376-.507.651-.676.275-.169.585-.296.93-.383.348-.09.707-.154 1.079-.194.447-.046.81-.087 1.088-.124.279-.04.481-.1.607-.179.13-.083.194-.21.194-.383v-.03c0-.374-.111-.664-.333-.87-.222-.205-.542-.308-.96-.308-.44 0-.79.096-1.049.289a1.43 1.43 0 0 0-.517.68l-1.68-.238c.132-.464.351-.852.656-1.163.305-.315.678-.55 1.119-.706.44-.16.928-.239 1.461-.239.368 0 .734.043 1.099.13a3.09 3.09 0 0 1 1 .427c.3.196.543.462.725.8.186.338.279.761.279 1.268V67h-1.73v-1.049h-.06a2.22 2.22 0 0 1-.463.597 2.21 2.21 0 0 1-.74.442c-.295.11-.642.164-1.04.164Zm.467-1.322c.361 0 .674-.072.94-.214a1.58 1.58 0 0 0 .611-.577 1.47 1.47 0 0 0 .219-.78v-.9a.846.846 0 0 1-.288.13 4.103 4.103 0 0 1-.448.103c-.166.03-.33.057-.492.08l-.423.06a3.142 3.142 0 0 0-.72.179 1.2 1.2 0 0 0-.503.348.85.85 0 0 0-.184.566c0 .332.121.582.363.751.242.17.55.254.925.254Zm8.767-6.468v1.392h-4.39v-1.392h4.39Zm-3.306-1.83h1.8v7.17c0 .241.037.427.11.556a.59.59 0 0 0 .298.258c.122.047.258.07.407.07.113 0 .216-.008.309-.025a2.53 2.53 0 0 0 .218-.044l.304 1.406c-.096.034-.234.07-.413.11-.176.04-.391.063-.646.07a2.934 2.934 0 0 1-1.218-.204 1.895 1.895 0 0 1-.86-.706c-.21-.319-.312-.716-.309-1.194v-7.467Zm9.259 6.254v-4.424h1.8V67h-1.745v-1.357h-.08a2.296 2.296 0 0 1-.85 1.049c-.391.272-.874.407-1.447.407-.5 0-.943-.11-1.327-.333a2.315 2.315 0 0 1-.895-.98c-.216-.43-.323-.95-.323-1.56v-4.862h1.8v4.583c0 .484.132.869.397 1.154.265.285.613.427 1.044.427.265 0 .522-.064.77-.194.25-.129.453-.321.612-.576.163-.259.244-.582.244-.97ZM85.899 67v-7.636h1.745v1.272h.08c.139-.44.378-.78.716-1.019a1.97 1.97 0 0 1 1.168-.363c.1 0 .21.005.333.015.126.007.23.018.313.035v1.655a1.894 1.894 0 0 0-.363-.07 3.34 3.34 0 0 0-.472-.034c-.328 0-.623.071-.885.214a1.57 1.57 0 0 0-.611.582 1.64 1.64 0 0 0-.224.86V67h-1.8Zm8.197.15c-.765 0-1.427-.16-1.984-.478a3.233 3.233 0 0 1-1.277-1.362c-.298-.59-.448-1.285-.448-2.083 0-.786.15-1.475.448-2.069a3.384 3.384 0 0 1 1.263-1.392c.54-.334 1.174-.502 1.904-.502.47 0 .915.076 1.332.229.421.149.792.381 1.114.696.325.315.58.716.765 1.203.186.484.279 1.06.279 1.73v.552h-6.26v-1.213h4.535a1.936 1.936 0 0 0-.224-.92 1.626 1.626 0 0 0-.612-.641 1.719 1.719 0 0 0-.904-.234c-.368 0-.692.09-.97.269a1.85 1.85 0 0 0-.651.696c-.153.285-.23.598-.234.94v1.058c0 .444.081.825.244 1.144.162.315.39.556.68.726.293.165.634.248 1.025.248.262 0 .499-.036.711-.11.212-.075.396-.186.552-.332.156-.146.273-.327.353-.542l1.68.189a2.62 2.62 0 0 1-.606 1.163 2.958 2.958 0 0 1-1.134.766c-.46.179-.988.268-1.58.268Z"/><rect width="42" height="22" x="114.5" y="51" fill="#DADDE0" rx="11"/><path fill="#939397" d="M127.599 59.364v1.392h-4.39v-1.392h4.39Zm-3.306-1.83h1.8v7.17c0 .241.036.427.109.556a.593.593 0 0 0 .299.258c.122.047.258.07.407.07.113 0 .216-.008.309-.025a2.53 2.53 0 0 0 .218-.044l.304 1.406c-.097.034-.234.07-.413.11-.176.04-.391.063-.646.07a2.933 2.933 0 0 1-1.218-.204 1.89 1.89 0 0 1-.86-.706c-.209-.319-.312-.716-.309-1.194v-7.467Zm7.69 9.615c-.765 0-1.427-.159-1.983-.477a3.228 3.228 0 0 1-1.278-1.362c-.298-.59-.448-1.285-.448-2.083 0-.786.15-1.475.448-2.069a3.375 3.375 0 0 1 1.263-1.392c.54-.334 1.175-.502 1.904-.502.47 0 .914.076 1.332.229.421.149.792.381 1.114.696.325.315.58.716.765 1.203.186.484.279 1.06.279 1.73v.552h-6.259v-1.213h4.534a1.942 1.942 0 0 0-.224-.92 1.627 1.627 0 0 0-.612-.641 1.716 1.716 0 0 0-.904-.234c-.368 0-.691.09-.97.269a1.853 1.853 0 0 0-.651.696 1.993 1.993 0 0 0-.234.94v1.058c0 .444.081.825.244 1.144.162.315.389.556.681.726.292.165.633.248 1.024.248.262 0 .499-.036.711-.11.212-.075.396-.186.552-.332a1.39 1.39 0 0 0 .353-.542l1.68.189a2.622 2.622 0 0 1-.606 1.163 2.957 2.957 0 0 1-1.134.766c-.461.179-.988.268-1.581.268Zm10.534-5.767-1.641.18a1.31 1.31 0 0 0-.243-.468 1.216 1.216 0 0 0-.458-.353 1.664 1.664 0 0 0-.706-.135c-.374 0-.689.082-.944.244-.252.163-.377.373-.373.631a.66.66 0 0 0 .243.542c.169.14.448.254.836.343l1.302.279c.723.156 1.26.403 1.611.74.355.339.534.781.537 1.328-.003.48-.144.905-.423 1.273-.275.364-.658.65-1.148.855-.491.205-1.054.308-1.69.308-.935 0-1.687-.195-2.258-.587-.57-.394-.909-.942-1.019-1.645l1.755-.17c.08.346.249.606.507.781.259.176.595.264 1.01.264.427 0 .77-.088 1.029-.264.262-.175.392-.392.392-.65 0-.22-.084-.4-.253-.543-.166-.142-.424-.252-.776-.328l-1.302-.273c-.733-.153-1.275-.41-1.626-.77-.351-.365-.525-.826-.522-1.383-.003-.47.124-.878.383-1.223.262-.348.625-.616 1.089-.805.467-.193 1.006-.289 1.615-.289.895 0 1.6.19 2.113.572.517.381.837.897.96 1.546Zm5.041-2.018v1.392h-4.39v-1.392h4.39Zm-3.306-1.83h1.8v7.17c0 .241.036.427.109.556a.591.591 0 0 0 .298.258c.123.047.259.07.408.07.113 0 .216-.008.308-.025.096-.016.169-.031.219-.044l.303 1.406c-.096.034-.233.07-.412.11a3.39 3.39 0 0 1-.647.07 2.939 2.939 0 0 1-1.218-.204 1.895 1.895 0 0 1-.86-.706c-.209-.319-.311-.716-.308-1.194v-7.467Z"/><rect width="30" height="22" x="164.5" y="51" fill="#DADDE0" rx="11"/><path fill="#939397" d="M180.078 56.818h1.844v6.652c0 .73-.172 1.37-.517 1.924a3.494 3.494 0 0 1-1.441 1.298c-.62.308-1.344.462-2.173.462-.832 0-1.558-.154-2.178-.462a3.494 3.494 0 0 1-1.441-1.298c-.342-.553-.512-1.195-.512-1.924v-6.652h1.844v6.498c0 .424.093.802.278 1.134.189.331.455.591.796.78.341.186.746.278 1.213.278.467 0 .872-.092 1.213-.278.345-.189.61-.449.795-.78a2.28 2.28 0 0 0 .279-1.134v-6.498Zm5.274 0V67h-1.845V56.818h1.845Z"/><rect width="63" height="22" x="202.5" y="51" fill="#DADDE0" rx="11"/><path fill="#939397" d="M213.498 62.526V67h-1.8v-7.636h1.721v1.297h.089a2.19 2.19 0 0 1 .84-1.019c.388-.252.867-.378 1.437-.378.527 0 .986.113 1.377.338.395.226.7.552.915.98.219.427.326.946.323 1.556V67h-1.8v-4.584c0-.51-.132-.91-.397-1.198-.262-.288-.625-.433-1.089-.433-.315 0-.595.07-.84.21a1.447 1.447 0 0 0-.572.59c-.136.26-.204.573-.204.94Zm9.643 4.623c-.746 0-1.392-.164-1.939-.492a3.345 3.345 0 0 1-1.273-1.377c-.298-.59-.447-1.28-.447-2.068 0-.79.149-1.48.447-2.074a3.337 3.337 0 0 1 1.273-1.382c.547-.328 1.193-.492 1.939-.492.745 0 1.392.164 1.939.492.546.328.969.79 1.267 1.383.302.593.453 1.284.453 2.073 0 .788-.151 1.478-.453 2.068a3.312 3.312 0 0 1-1.267 1.377c-.547.328-1.194.492-1.939.492Zm.01-1.442c.404 0 .742-.11 1.014-.333a2 2 0 0 0 .606-.904c.136-.378.204-.8.204-1.263 0-.468-.068-.89-.204-1.268a2 2 0 0 0-.606-.91c-.272-.225-.61-.338-1.014-.338-.415 0-.759.113-1.035.338a2.048 2.048 0 0 0-.611.91 3.8 3.8 0 0 0-.199 1.268c0 .464.066.885.199 1.262.136.378.34.68.611.905.276.222.62.333 1.035.333Zm7.59 1.427a2.89 2.89 0 0 1-1.611-.462c-.474-.308-.848-.756-1.123-1.343-.275-.586-.413-1.299-.413-2.137 0-.849.139-1.565.418-2.148.281-.587.661-1.03 1.138-1.327a2.925 2.925 0 0 1 1.596-.453c.447 0 .815.076 1.104.229.288.149.517.33.686.542.169.209.3.406.393.591h.074v-3.808h1.805V67h-1.77v-1.203h-.109a3.118 3.118 0 0 1-.403.591 2.224 2.224 0 0 1-.696.527c-.289.146-.651.22-1.089.22Zm.502-1.476c.381 0 .706-.103.975-.309.268-.208.472-.498.611-.87.139-.37.209-.803.209-1.297 0-.494-.07-.923-.209-1.288-.136-.364-.338-.648-.606-.85-.266-.202-.592-.303-.98-.303-.401 0-.736.104-1.004.313a1.894 1.894 0 0 0-.607.865 3.629 3.629 0 0 0-.203 1.263c0 .477.067.903.203 1.278a2 2 0 0 0 .612.88c.272.212.605.318.999.318Zm8.443 1.491c-.765 0-1.427-.159-1.983-.477a3.228 3.228 0 0 1-1.278-1.362c-.298-.59-.448-1.285-.448-2.083 0-.786.15-1.475.448-2.069a3.382 3.382 0 0 1 1.263-1.392c.54-.334 1.175-.502 1.904-.502.47 0 .915.076 1.332.229.421.149.792.381 1.114.696.325.315.58.716.765 1.203.186.484.279 1.06.279 1.73v.552h-6.259v-1.213h4.534a1.942 1.942 0 0 0-.224-.92 1.627 1.627 0 0 0-.612-.641 1.716 1.716 0 0 0-.904-.234c-.368 0-.691.09-.97.269a1.853 1.853 0 0 0-.651.696c-.153.285-.23.598-.234.94v1.058c0 .444.081.825.244 1.144.162.315.389.556.681.726.292.165.633.248 1.024.248.262 0 .499-.036.711-.11.212-.075.396-.186.552-.332a1.39 1.39 0 0 0 .353-.542l1.68.189a2.622 2.622 0 0 1-.606 1.163 2.957 2.957 0 0 1-1.134.766c-.46.179-.987.268-1.581.268Zm7.551-7.785h1.8v8.074c0 .55-.105 1.004-.313 1.362a1.926 1.926 0 0 1-.905.8c-.395.176-.874.264-1.437.264-.066 0-.128-.002-.184-.005-.056 0-.118-.002-.184-.005v-1.467c.05.003.095.005.134.005.04.003.081.005.125.005.344 0 .591-.085.74-.254.149-.165.224-.409.224-.73v-8.05Zm.895-1.084c-.288 0-.535-.095-.741-.284a.92.92 0 0 1-.303-.69.91.91 0 0 1 .303-.692c.206-.192.453-.288.741-.288.285 0 .529.096.731.288.205.19.308.42.308.691a.915.915 0 0 1-.308.691 1.032 1.032 0 0 1-.731.284Zm8.371 3.102-1.641.18a1.31 1.31 0 0 0-.243-.468 1.208 1.208 0 0 0-.458-.353 1.664 1.664 0 0 0-.706-.135c-.374 0-.689.082-.944.244-.252.163-.376.373-.373.631a.661.661 0 0 0 .244.542c.169.14.447.254.835.343l1.302.279c.723.156 1.26.403 1.611.74.355.339.534.781.537 1.328-.003.48-.144.905-.423 1.273-.275.364-.657.65-1.148.855-.491.205-1.054.308-1.69.308-.935 0-1.687-.195-2.257-.587-.571-.394-.91-.942-1.02-1.645l1.755-.17c.08.346.249.606.507.781.259.176.595.264 1.01.264.427 0 .77-.088 1.029-.264.262-.175.393-.392.393-.65a.68.68 0 0 0-.254-.543c-.166-.142-.424-.252-.776-.328l-1.302-.273c-.733-.153-1.274-.41-1.626-.77-.351-.365-.525-.826-.522-1.383-.003-.47.124-.878.383-1.223.262-.348.625-.616 1.089-.805.467-.193 1.006-.289 1.616-.289.894 0 1.599.19 2.112.572.517.381.837.897.96 1.546Z"/><rect width="88" height="22" x="273.5" y="51" fill="#DADDE0" rx="11"/><path fill="#939397" d="M284.399 56.818V67h-1.8V56.818h1.8ZM285.829 67v-7.636h1.8V67h-1.8Zm.905-8.72a1.05 1.05 0 0 1-.736-.284.915.915 0 0 1-.308-.69c0-.272.103-.503.308-.692.206-.192.451-.288.736-.288.289 0 .534.096.736.288.205.19.308.42.308.691a.915.915 0 0 1-.308.691 1.037 1.037 0 0 1-.736.284Zm5.657 8.87c-.763 0-1.417-.168-1.964-.503a3.35 3.35 0 0 1-1.258-1.387c-.292-.593-.437-1.276-.437-2.048 0-.776.149-1.46.447-2.054a3.336 3.336 0 0 1 1.263-1.392c.547-.334 1.193-.502 1.939-.502.62 0 1.168.115 1.645.343a2.81 2.81 0 0 1 1.149.96c.285.41.447.891.487 1.441h-1.72a1.651 1.651 0 0 0-.497-.92c-.259-.248-.605-.372-1.039-.372-.368 0-.691.1-.97.298-.278.196-.495.477-.651.845-.153.368-.229.81-.229 1.323 0 .52.076.968.229 1.342.152.371.366.658.641.86.279.2.605.299.98.299.265 0 .502-.05.711-.15.212-.102.389-.25.531-.442.143-.192.241-.426.294-.701h1.72a2.999 2.999 0 0 1-.477 1.437c-.275.414-.65.739-1.124.974-.474.232-1.031.348-1.67.348Zm7.709 0c-.765 0-1.426-.16-1.983-.478a3.228 3.228 0 0 1-1.278-1.362c-.298-.59-.447-1.285-.447-2.083 0-.786.149-1.475.447-2.069a3.389 3.389 0 0 1 1.263-1.392c.54-.334 1.175-.502 1.904-.502.471 0 .915.076 1.332.229.421.149.793.381 1.114.696.325.315.58.716.766 1.203.185.484.278 1.06.278 1.73v.552h-6.259v-1.213h4.534a1.93 1.93 0 0 0-.224-.92 1.625 1.625 0 0 0-.611-.641 1.72 1.72 0 0 0-.905-.234c-.368 0-.691.09-.97.269a1.853 1.853 0 0 0-.651.696c-.152.285-.23.598-.234.94v1.058c0 .444.082.825.244 1.144.162.315.39.556.681.726.292.165.633.248 1.024.248.262 0 .499-.036.711-.11.212-.075.396-.186.552-.332.156-.146.274-.327.353-.542l1.68.189a2.622 2.622 0 0 1-.606 1.163 2.957 2.957 0 0 1-1.134.766c-.46.179-.987.268-1.581.268Zm6.298-4.624V67h-1.799v-7.636h1.72v1.297h.089a2.19 2.19 0 0 1 .84-1.019c.388-.252.867-.378 1.437-.378.527 0 .986.113 1.377.338.395.226.7.552.915.98.219.427.327.946.323 1.556V67h-1.799v-4.584c0-.51-.133-.91-.398-1.198-.262-.288-.625-.433-1.089-.433-.315 0-.595.07-.84.21a1.447 1.447 0 0 0-.572.59c-.136.26-.204.573-.204.94Zm12.347-1.144-1.64.18a1.329 1.329 0 0 0-.244-.468 1.212 1.212 0 0 0-.457-.353 1.667 1.667 0 0 0-.706-.135c-.375 0-.69.082-.945.244-.252.163-.376.373-.373.631a.661.661 0 0 0 .244.542c.169.14.447.254.835.343l1.303.279c.722.156 1.259.403 1.611.74.354.339.533.781.536 1.328-.003.48-.144.905-.422 1.273-.275.364-.658.65-1.149.855-.49.205-1.054.308-1.69.308-.935 0-1.687-.195-2.257-.587-.57-.394-.91-.942-1.019-1.645l1.755-.17c.079.346.248.606.507.781.258.176.595.264 1.009.264.428 0 .771-.088 1.029-.264.262-.175.393-.392.393-.65a.68.68 0 0 0-.254-.543c-.165-.142-.424-.252-.775-.328l-1.303-.273c-.732-.153-1.274-.41-1.625-.77-.352-.365-.526-.826-.522-1.383-.004-.47.124-.878.382-1.223.262-.348.625-.616 1.089-.805.468-.193 1.006-.289 1.616-.289.895 0 1.599.19 2.113.572.517.381.837.897.959 1.546Zm4.609 5.767c-.765 0-1.427-.159-1.984-.477a3.232 3.232 0 0 1-1.277-1.362c-.299-.59-.448-1.285-.448-2.083 0-.786.149-1.475.448-2.069a3.375 3.375 0 0 1 1.263-1.392c.54-.334 1.175-.502 1.904-.502.47 0 .914.076 1.332.229.421.149.792.381 1.114.696.325.315.58.716.765 1.203.186.484.279 1.06.279 1.73v.552h-6.259v-1.213h4.534a1.942 1.942 0 0 0-.224-.92 1.627 1.627 0 0 0-.612-.641 1.716 1.716 0 0 0-.904-.234c-.368 0-.692.09-.97.269a1.853 1.853 0 0 0-.651.696 1.993 1.993 0 0 0-.234.94v1.058c0 .444.081.825.244 1.144.162.315.389.556.681.726.292.165.633.248 1.024.248.262 0 .499-.036.711-.11.212-.075.396-.186.552-.332a1.39 1.39 0 0 0 .353-.542l1.68.189a2.622 2.622 0 0 1-.606 1.163 2.957 2.957 0 0 1-1.134.766c-.461.179-.988.268-1.581.268Zm10.932 0c-.766 0-1.427-.159-1.984-.477a3.234 3.234 0 0 1-1.278-1.362c-.298-.59-.447-1.285-.447-2.083 0-.786.149-1.475.447-2.069a3.389 3.389 0 0 1 1.263-1.392c.54-.334 1.175-.502 1.904-.502.471 0 .915.076 1.333.229.42.149.792.381 1.113.696.325.315.58.716.766 1.203.185.484.278 1.06.278 1.73v.552h-6.259v-1.213h4.534a1.93 1.93 0 0 0-.224-.92 1.618 1.618 0 0 0-.611-.641 1.72 1.72 0 0 0-.905-.234c-.368 0-.691.09-.969.269a1.848 1.848 0 0 0-.652.696c-.152.285-.23.598-.233.94v1.058c0 .444.081.825.243 1.144.163.315.39.556.681.726.292.165.633.248 1.024.248.262 0 .499-.036.711-.11a1.55 1.55 0 0 0 .552-.332c.156-.146.274-.327.353-.542l1.681.189a2.623 2.623 0 0 1-.607 1.163 2.961 2.961 0 0 1-1.133.766c-.461.179-.988.268-1.581.268Zm5.398 2.715a3.61 3.61 0 0 1-.681-.06 2.534 2.534 0 0 1-.493-.13l.418-1.401c.262.076.495.112.701.11a.861.861 0 0 0 .542-.195c.159-.122.293-.328.403-.616l.154-.413-2.77-7.795h1.91l1.76 5.767h.079l1.765-5.767h1.914l-3.057 8.56a3.452 3.452 0 0 1-.567 1.04 2.313 2.313 0 0 1-.865.666c-.338.156-.743.234-1.213.234Zm9.648-2.715c-.765 0-1.426-.159-1.983-.477a3.228 3.228 0 0 1-1.278-1.362c-.298-.59-.447-1.285-.447-2.083 0-.786.149-1.475.447-2.069a3.389 3.389 0 0 1 1.263-1.392c.54-.334 1.175-.502 1.904-.502.471 0 .915.076 1.332.229.421.149.792.381 1.114.696.325.315.58.716.766 1.203.185.484.278 1.06.278 1.73v.552h-6.259v-1.213h4.534a1.942 1.942 0 0 0-.224-.92 1.632 1.632 0 0 0-.611-.641 1.722 1.722 0 0 0-.905-.234c-.368 0-.691.09-.97.269a1.853 1.853 0 0 0-.651.696c-.152.285-.23.598-.234.94v1.058c0 .444.082.825.244 1.144.162.315.389.556.681.726.292.165.633.248 1.024.248.262 0 .499-.036.711-.11.212-.075.396-.186.552-.332a1.39 1.39 0 0 0 .353-.542l1.68.189a2.622 2.622 0 0 1-.606 1.163 2.957 2.957 0 0 1-1.134.766c-.46.179-.987.268-1.581.268Z"/></g><defs><clipPath id="a"><rect width="303" height="96" fill="#fff" rx="8"/></clipPath></defs></svg>