<svg width="303" height="96" viewBox="0 0 303 96" fill="none" xmlns="http://www.w3.org/2000/svg">
<g clip-path="url(#clip0_93_60)">
<rect width="303" height="96" rx="8" fill="#F8F9FA"/>
<rect x="-33.5" y="23" width="72" height="22" rx="11" fill="#DADDE0"/>
<path d="M-24.3568 39V28.8182H-22.5571V32.6264H-22.4825C-22.3897 32.4408 -22.2588 32.2436 -22.0898 32.0348C-21.9208 31.8227 -21.6921 31.642 -21.4037 31.4929C-21.1154 31.3404 -20.7475 31.2642 -20.3 31.2642C-19.7101 31.2642 -19.1781 31.415 -18.7041 31.7166C-18.2269 32.0149 -17.849 32.4574 -17.5706 33.044C-17.2889 33.6274 -17.148 34.3433 -17.148 35.1918C-17.148 36.0303 -17.2856 36.7429 -17.5607 37.3295C-17.8358 37.9162 -18.2103 38.3636 -18.6842 38.6719C-19.1582 38.9801 -19.6951 39.1342 -20.295 39.1342C-20.7325 39.1342 -21.0955 39.0613 -21.3838 38.9155C-21.6722 38.7696 -21.9042 38.594 -22.0798 38.3885C-22.2522 38.1797 -22.3864 37.9825 -22.4825 37.7969H-22.5869V39H-24.3568ZM-22.5919 35.1818C-22.5919 35.6757 -22.5223 36.1082 -22.3831 36.4794C-22.2406 36.8506 -22.0368 37.1406 -21.7716 37.3494C-21.5031 37.5549 -21.1783 37.6577 -20.7972 37.6577C-20.3994 37.6577 -20.0663 37.5516 -19.7979 37.3395C-19.5294 37.1241 -19.3272 36.8307 -19.1913 36.4595C-19.0521 36.085 -18.9825 35.6591 -18.9825 35.1818C-18.9825 34.7079 -19.0505 34.2869 -19.1864 33.919C-19.3223 33.5511 -19.5244 33.2628 -19.7929 33.054C-20.0614 32.8452 -20.3961 32.7408 -20.7972 32.7408C-21.1816 32.7408 -21.5081 32.8419 -21.7766 33.044C-22.045 33.2462 -22.2489 33.5296 -22.3881 33.8942C-22.524 34.2588 -22.5919 34.688 -22.5919 35.1818ZM-13.8406 39.1541C-14.3245 39.1541 -14.7603 39.0679 -15.1481 38.8956C-15.5326 38.7199 -15.8375 38.4614 -16.0629 38.12C-16.2849 37.7786 -16.396 37.3577 -16.396 36.8572C-16.396 36.4264 -16.3164 36.0701 -16.1573 35.7884C-15.9982 35.5066 -15.7812 35.2812 -15.5061 35.1122C-15.231 34.9432 -14.9211 34.8156 -14.5764 34.7294C-14.2284 34.6399 -13.8687 34.5753 -13.4975 34.5355C-13.0501 34.4891 -12.6872 34.4477 -12.4088 34.4112C-12.1303 34.3714 -11.9282 34.3118 -11.8022 34.2322C-11.673 34.1494 -11.6083 34.0218 -11.6083 33.8494V33.8196C-11.6083 33.4451 -11.7194 33.1551 -11.9414 32.9496C-12.1635 32.7441 -12.4833 32.6413 -12.9009 32.6413C-13.3418 32.6413 -13.6914 32.7375 -13.9499 32.9297C-14.2052 33.1219 -14.3775 33.349 -14.467 33.6108L-16.1474 33.3722C-16.0148 32.9081 -15.7961 32.5204 -15.4911 32.2088C-15.1862 31.8939 -14.8133 31.6586 -14.3725 31.5028C-13.9317 31.3438 -13.4445 31.2642 -12.9109 31.2642C-12.543 31.2642 -12.1767 31.3073 -11.8122 31.3935C-11.4476 31.4796 -11.1145 31.6222 -10.8129 31.821C-10.5113 32.0166 -10.2693 32.2834 -10.087 32.6214C-9.90142 32.9595 -9.80861 33.3821 -9.80861 33.8892V39H-11.5387V37.951H-11.5984C-11.7078 38.1631 -11.8619 38.362 -12.0607 38.5476C-12.2563 38.7299 -12.5032 38.8774 -12.8015 38.9901C-13.0965 39.0994 -13.4428 39.1541 -13.8406 39.1541ZM-13.3732 37.8317C-13.012 37.8317 -12.6988 37.7604 -12.4336 37.6179C-12.1685 37.4721 -11.9646 37.2798 -11.8221 37.0412C-11.6763 36.8026 -11.6034 36.5424 -11.6034 36.2607V35.3608C-11.6597 35.4072 -11.7558 35.4503 -11.8917 35.4901C-12.0243 35.5298 -12.1734 35.5646 -12.3392 35.5945C-12.5049 35.6243 -12.6689 35.6508 -12.8313 35.674C-12.9937 35.6972 -13.1346 35.7171 -13.2539 35.7337C-13.5224 35.7701 -13.7627 35.8298 -13.9748 35.9126C-14.1869 35.9955 -14.3543 36.1115 -14.4769 36.2607C-14.5996 36.4065 -14.6609 36.5954 -14.6609 36.8274C-14.6609 37.1589 -14.5399 37.4091 -14.298 37.5781C-14.056 37.7472 -13.7478 37.8317 -13.3732 37.8317ZM-5.08799 39.1491C-5.8503 39.1491 -6.50489 38.9818 -7.05177 38.647C-7.59533 38.3123 -8.0146 37.8499 -8.30958 37.2599C-8.60125 36.6667 -8.74708 35.9839 -8.74708 35.2116C-8.74708 34.4361 -8.59793 33.7517 -8.29964 33.1584C-8.00134 32.5618 -7.58041 32.0978 -7.03685 31.7663C-6.48998 31.4316 -5.84367 31.2642 -5.09793 31.2642C-4.47814 31.2642 -3.92961 31.3786 -3.45234 31.6072C-2.97175 31.8326 -2.58894 32.1525 -2.3039 32.5668C-2.01886 32.9777 -1.85646 33.4583 -1.81668 34.0085H-3.53685C-3.60646 33.6406 -3.77218 33.334 -4.03401 33.0888C-4.29254 32.8402 -4.63889 32.7159 -5.07308 32.7159C-5.44097 32.7159 -5.76413 32.8153 -6.04254 33.0142C-6.32094 33.2098 -6.53804 33.4915 -6.69381 33.8594C-6.84628 34.2273 -6.92251 34.6681 -6.92251 35.1818C-6.92251 35.7022 -6.84628 36.1496 -6.69381 36.5241C-6.54135 36.8954 -6.32757 37.1821 -6.05248 37.3842C-5.77407 37.5831 -5.4476 37.6825 -5.07308 37.6825C-4.80792 37.6825 -4.57094 37.6328 -4.36214 37.5334C-4.15002 37.4306 -3.9727 37.2831 -3.83018 37.0909C-3.68766 36.8987 -3.58988 36.665 -3.53685 36.3899H-1.81668C-1.85977 36.9302 -2.01886 37.4091 -2.29396 37.8267C-2.56905 38.241 -2.94358 38.5658 -3.41754 38.8011C-3.89149 39.0331 -4.44831 39.1491 -5.08799 39.1491ZM0.881747 36.6037L0.876776 34.4311H1.16513L3.90945 31.3636H6.01243L2.63672 35.1222H2.26385L0.881747 36.6037ZM-0.758878 39V28.8182H1.04084V39H-0.758878ZM4.03374 39L1.54794 35.5249L2.76101 34.2571L6.18643 39H4.03374ZM9.85805 39.1491C9.09243 39.1491 8.43121 38.9901 7.87439 38.6719C7.32089 38.3504 6.89499 37.8963 6.59669 37.3097C6.29839 36.7197 6.14925 36.0253 6.14925 35.2266C6.14925 34.4411 6.29839 33.7517 6.59669 33.1584C6.8983 32.5618 7.31923 32.0978 7.85947 31.7663C8.39972 31.4316 9.03443 31.2642 9.76359 31.2642C10.2342 31.2642 10.6784 31.3404 11.096 31.4929C11.5169 31.642 11.8881 31.8741 12.2096 32.1889C12.5344 32.5038 12.7896 32.9048 12.9752 33.392C13.1608 33.8759 13.2537 34.4527 13.2537 35.1222V35.674H6.99442V34.4609H11.5285C11.5252 34.1162 11.4506 33.8097 11.3048 33.5412C11.159 33.2694 10.9551 33.0556 10.6933 32.8999C10.4348 32.7441 10.1331 32.6662 9.78845 32.6662C9.42055 32.6662 9.0974 32.7557 8.81899 32.9347C8.54058 33.1103 8.32349 33.3423 8.16771 33.6307C8.01525 33.9157 7.93736 34.2289 7.93405 34.5703V35.6293C7.93405 36.0734 8.01525 36.4545 8.17766 36.7727C8.34006 37.0876 8.5671 37.3295 8.85876 37.4986C9.15043 37.6643 9.49181 37.7472 9.88291 37.7472C10.1447 37.7472 10.3817 37.7107 10.5938 37.6378C10.806 37.5616 10.9899 37.4505 11.1457 37.3047C11.3015 37.1589 11.4191 36.9782 11.4987 36.7628L13.1791 36.9517C13.073 37.3958 12.8708 37.7836 12.5725 38.1151C12.2776 38.4432 11.8997 38.6984 11.439 38.8807C10.9783 39.0597 10.4513 39.1491 9.85805 39.1491ZM16.1559 34.5256V39H14.3562V31.3636H16.0764V32.6612H16.1659C16.3415 32.2337 16.6216 31.8939 17.0061 31.642C17.3938 31.3902 17.8728 31.2642 18.4429 31.2642C18.9698 31.2642 19.4289 31.3769 19.82 31.6023C20.2144 31.8277 20.5193 32.1541 20.7348 32.5817C20.9535 33.0092 21.0612 33.5279 21.0579 34.1378V39H19.2582V34.4162C19.2582 33.9058 19.1256 33.5064 18.8605 33.218C18.5986 32.9297 18.2357 32.7855 17.7717 32.7855C17.4568 32.7855 17.1768 32.8551 16.9315 32.9943C16.6895 33.1302 16.499 33.3274 16.3598 33.5859C16.2239 33.8445 16.1559 34.1577 16.1559 34.5256ZM25.3013 39.1342C24.7013 39.1342 24.1644 38.9801 23.6905 38.6719C23.2165 38.3636 22.842 37.9162 22.5669 37.3295C22.2918 36.7429 22.1542 36.0303 22.1542 35.1918C22.1542 34.3433 22.2934 33.6274 22.5719 33.044C22.8536 32.4574 23.2331 32.0149 23.7103 31.7166C24.1876 31.415 24.7196 31.2642 25.3062 31.2642C25.7537 31.2642 26.1216 31.3404 26.4099 31.4929C26.6983 31.642 26.927 31.8227 27.096 32.0348C27.265 32.2436 27.396 32.4408 27.4888 32.6264H27.5633V28.8182H29.368V39H27.5981V37.7969H27.4888C27.396 37.9825 27.2617 38.1797 27.0861 38.3885C26.9104 38.594 26.6784 38.7696 26.39 38.9155C26.1017 39.0613 25.7388 39.1342 25.3013 39.1342ZM25.8034 37.6577C26.1845 37.6577 26.5094 37.5549 26.7778 37.3494C27.0463 37.1406 27.2501 36.8506 27.3893 36.4794C27.5285 36.1082 27.5981 35.6757 27.5981 35.1818C27.5981 34.688 27.5285 34.2588 27.3893 33.8942C27.2534 33.5296 27.0513 33.2462 26.7828 33.044C26.5176 32.8419 26.1912 32.7408 25.8034 32.7408C25.4023 32.7408 25.0676 32.8452 24.7991 33.054C24.5307 33.2628 24.3285 33.5511 24.1926 33.919C24.0567 34.2869 23.9888 34.7079 23.9888 35.1818C23.9888 35.6591 24.0567 36.085 24.1926 36.4595C24.3318 36.8307 24.5356 37.1241 24.8041 37.3395C25.0759 37.5516 25.409 37.6577 25.8034 37.6577Z" fill="#939397"/>
<rect x="46.5" y="23" width="115" height="22" rx="11" fill="#DADDE0"/>
<path d="M58.9641 42.0227C58.3178 42.0227 57.7626 41.9349 57.2986 41.7592C56.8346 41.5869 56.4617 41.3549 56.18 41.0632C55.8983 40.7715 55.7027 40.4484 55.5934 40.0938L57.2141 39.701C57.287 39.8501 57.3931 39.9976 57.5323 40.1435C57.6715 40.2926 57.8587 40.4152 58.0941 40.5114C58.3327 40.6108 58.6327 40.6605 58.9939 40.6605C59.5043 40.6605 59.9269 40.5362 60.2617 40.2876C60.5964 40.0424 60.7638 39.638 60.7638 39.0746V37.6278H60.6743C60.5815 37.8134 60.4456 38.004 60.2667 38.1996C60.091 38.3951 59.8573 38.5592 59.5657 38.6918C59.2773 38.8243 58.9144 38.8906 58.4769 38.8906C57.8902 38.8906 57.3583 38.7531 56.881 38.478C56.407 38.1996 56.0292 37.7853 55.7475 37.2351C55.4691 36.6816 55.3299 35.9889 55.3299 35.157C55.3299 34.3184 55.4691 33.6108 55.7475 33.0341C56.0292 32.4541 56.4087 32.0149 56.886 31.7166C57.3632 31.415 57.8952 31.2642 58.4819 31.2642C58.9293 31.2642 59.2972 31.3404 59.5855 31.4929C59.8772 31.642 60.1092 31.8227 60.2816 32.0348C60.4539 32.2436 60.5848 32.4408 60.6743 32.6264H60.7738V31.3636H62.5486V39.1243C62.5486 39.7772 62.3928 40.3175 62.0813 40.745C61.7697 41.1726 61.3438 41.4924 60.8036 41.7045C60.2633 41.9167 59.6502 42.0227 58.9641 42.0227ZM58.979 37.4787C59.3602 37.4787 59.685 37.3859 59.9534 37.2003C60.2219 37.0147 60.4257 36.7479 60.565 36.3999C60.7042 36.0518 60.7738 35.6342 60.7738 35.147C60.7738 34.6664 60.7042 34.2455 60.565 33.8842C60.4291 33.523 60.2269 33.2429 59.9584 33.044C59.6933 32.8419 59.3668 32.7408 58.979 32.7408C58.578 32.7408 58.2432 32.8452 57.9748 33.054C57.7063 33.2628 57.5041 33.5495 57.3682 33.9141C57.2323 34.2753 57.1644 34.6863 57.1644 35.147C57.1644 35.6143 57.2323 36.0237 57.3682 36.375C57.5074 36.723 57.7113 36.9948 57.9797 37.1903C58.2515 37.3826 58.5846 37.4787 58.979 37.4787ZM67.304 39.1491C66.5583 39.1491 65.912 38.9851 65.3651 38.657C64.8182 38.3288 64.394 37.8698 64.0924 37.2798C63.7941 36.6899 63.645 36.0005 63.645 35.2116C63.645 34.4228 63.7941 33.7318 64.0924 33.1385C64.394 32.5452 64.8182 32.0845 65.3651 31.7564C65.912 31.4283 66.5583 31.2642 67.304 31.2642C68.0498 31.2642 68.6961 31.4283 69.243 31.7564C69.7898 32.0845 70.2124 32.5452 70.5107 33.1385C70.8123 33.7318 70.9631 34.4228 70.9631 35.2116C70.9631 36.0005 70.8123 36.6899 70.5107 37.2798C70.2124 37.8698 69.7898 38.3288 69.243 38.657C68.6961 38.9851 68.0498 39.1491 67.304 39.1491ZM67.314 37.7074C67.7183 37.7074 68.0564 37.5964 68.3282 37.3743C68.6 37.1489 68.8021 36.8473 68.9347 36.4695C69.0706 36.0916 69.1386 35.6707 69.1386 35.2067C69.1386 34.7393 69.0706 34.3168 68.9347 33.9389C68.8021 33.5578 68.6 33.2545 68.3282 33.0291C68.0564 32.8037 67.7183 32.6911 67.314 32.6911C66.8997 32.6911 66.555 32.8037 66.2799 33.0291C66.0081 33.2545 65.8043 33.5578 65.6684 33.9389C65.5358 34.3168 65.4695 34.7393 65.4695 35.2067C65.4695 35.6707 65.5358 36.0916 65.6684 36.4695C65.8043 36.8473 66.0081 37.1489 66.2799 37.3743C66.555 37.5964 66.8997 37.7074 67.314 37.7074ZM75.4016 39.1491C74.6559 39.1491 74.0096 38.9851 73.4627 38.657C72.9158 38.3288 72.4916 37.8698 72.19 37.2798C71.8917 36.6899 71.7425 36.0005 71.7425 35.2116C71.7425 34.4228 71.8917 33.7318 72.19 33.1385C72.4916 32.5452 72.9158 32.0845 73.4627 31.7564C74.0096 31.4283 74.6559 31.2642 75.4016 31.2642C76.1474 31.2642 76.7937 31.4283 77.3405 31.7564C77.8874 32.0845 78.31 32.5452 78.6083 33.1385C78.9099 33.7318 79.0607 34.4228 79.0607 35.2116C79.0607 36.0005 78.9099 36.6899 78.6083 37.2798C78.31 37.8698 77.8874 38.3288 77.3405 38.657C76.7937 38.9851 76.1474 39.1491 75.4016 39.1491ZM75.4116 37.7074C75.8159 37.7074 76.154 37.5964 76.4258 37.3743C76.6975 37.1489 76.8997 36.8473 77.0323 36.4695C77.1682 36.0916 77.2361 35.6707 77.2361 35.2067C77.2361 34.7393 77.1682 34.3168 77.0323 33.9389C76.8997 33.5578 76.6975 33.2545 76.4258 33.0291C76.154 32.8037 75.8159 32.6911 75.4116 32.6911C74.9973 32.6911 74.6526 32.8037 74.3775 33.0291C74.1057 33.2545 73.9019 33.5578 73.766 33.9389C73.6334 34.3168 73.5671 34.7393 73.5671 35.2067C73.5671 35.6707 73.6334 36.0916 73.766 36.4695C73.9019 36.8473 74.1057 37.1489 74.3775 37.3743C74.6526 37.5964 74.9973 37.7074 75.4116 37.7074ZM83.002 39.1342C82.4021 39.1342 81.8652 38.9801 81.3912 38.6719C80.9173 38.3636 80.5428 37.9162 80.2677 37.3295C79.9926 36.7429 79.855 36.0303 79.855 35.1918C79.855 34.3433 79.9942 33.6274 80.2726 33.044C80.5544 32.4574 80.9339 32.0149 81.4111 31.7166C81.8884 31.415 82.4204 31.2642 83.007 31.2642C83.4545 31.2642 83.8224 31.3404 84.1107 31.4929C84.3991 31.642 84.6278 31.8227 84.7968 32.0348C84.9658 32.2436 85.0967 32.4408 85.1895 32.6264H85.2641V28.8182H87.0688V39H85.2989V37.7969H85.1895C85.0967 37.9825 84.9625 38.1797 84.7868 38.3885C84.6112 38.594 84.3792 38.7696 84.0908 38.9155C83.8025 39.0613 83.4395 39.1342 83.002 39.1342ZM83.5042 37.6577C83.8853 37.6577 84.2101 37.5549 84.4786 37.3494C84.7471 37.1406 84.9509 36.8506 85.0901 36.4794C85.2293 36.1082 85.2989 35.6757 85.2989 35.1818C85.2989 34.688 85.2293 34.2588 85.0901 33.8942C84.9542 33.5296 84.752 33.2462 84.4836 33.044C84.2184 32.8419 83.892 32.7408 83.5042 32.7408C83.1031 32.7408 82.7684 32.8452 82.4999 33.054C82.2314 33.2628 82.0293 33.5511 81.8934 33.919C81.7575 34.2869 81.6895 34.7079 81.6895 35.1818C81.6895 35.6591 81.7575 36.085 81.8934 36.4595C82.0326 36.8307 82.2364 37.1241 82.5049 37.3395C82.7767 37.5516 83.1098 37.6577 83.5042 37.6577ZM95.4871 31.3636V32.7557H90.9729V31.3636H95.4871ZM92.1015 39V30.6428C92.1015 30.129 92.2076 29.7015 92.4197 29.3601C92.6351 29.0187 92.9235 28.7635 93.2847 28.5945C93.646 28.4254 94.047 28.3409 94.4879 28.3409C94.7994 28.3409 95.0762 28.3658 95.3181 28.4155C95.5601 28.4652 95.739 28.5099 95.855 28.5497L95.4971 29.9418C95.4209 29.9186 95.3247 29.8954 95.2087 29.8722C95.0927 29.8456 94.9635 29.8324 94.821 29.8324C94.4862 29.8324 94.2492 29.9136 94.11 30.076C93.9741 30.2351 93.9062 30.4638 93.9062 30.7621V39H92.1015ZM96.4766 39V31.3636H98.2763V39H96.4766ZM97.3814 30.2798C97.0964 30.2798 96.8511 30.1854 96.6456 29.9964C96.4401 29.8042 96.3374 29.5739 96.3374 29.3054C96.3374 29.0336 96.4401 28.8033 96.6456 28.6143C96.8511 28.4221 97.0964 28.326 97.3814 28.326C97.6698 28.326 97.915 28.4221 98.1172 28.6143C98.3227 28.8033 98.4255 29.0336 98.4255 29.3054C98.4255 29.5739 98.3227 29.8042 98.1172 29.9964C97.915 30.1854 97.6698 30.2798 97.3814 30.2798ZM99.707 39V31.3636H101.452V32.6364H101.532C101.671 32.1955 101.909 31.8558 102.247 31.6172C102.589 31.3752 102.978 31.2543 103.416 31.2543C103.515 31.2543 103.626 31.2592 103.749 31.2692C103.875 31.2758 103.979 31.2874 104.062 31.304V32.9595C103.986 32.933 103.865 32.9098 103.699 32.8899C103.537 32.8667 103.379 32.8551 103.227 32.8551C102.899 32.8551 102.604 32.9264 102.342 33.0689C102.083 33.2081 101.88 33.402 101.73 33.6506C101.581 33.8991 101.507 34.1858 101.507 34.5107V39H99.707ZM110.873 33.3821L109.233 33.5611C109.186 33.3954 109.105 33.2396 108.989 33.0938C108.876 32.9479 108.724 32.8303 108.532 32.7408C108.339 32.6513 108.104 32.6065 107.826 32.6065C107.451 32.6065 107.136 32.6877 106.881 32.8501C106.629 33.0125 106.505 33.223 106.508 33.4815C106.505 33.7036 106.586 33.8842 106.752 34.0234C106.921 34.1626 107.199 34.277 107.587 34.3665L108.89 34.6449C109.612 34.8007 110.149 35.0476 110.5 35.3857C110.855 35.7237 111.034 36.1662 111.037 36.7131C111.034 37.1937 110.893 37.6179 110.615 37.9858C110.34 38.3504 109.957 38.6354 109.466 38.8409C108.976 39.0464 108.412 39.1491 107.776 39.1491C106.841 39.1491 106.089 38.9536 105.519 38.5625C104.949 38.1681 104.609 37.6196 104.5 36.9169L106.255 36.7479C106.334 37.0926 106.503 37.3527 106.762 37.5284C107.02 37.7041 107.357 37.7919 107.771 37.7919C108.199 37.7919 108.542 37.7041 108.8 37.5284C109.062 37.3527 109.193 37.1357 109.193 36.8771C109.193 36.6584 109.108 36.4777 108.939 36.3352C108.774 36.1927 108.515 36.0833 108.164 36.0071L106.861 35.7337C106.129 35.5812 105.587 35.3243 105.235 34.9631C104.884 34.5985 104.71 34.1378 104.713 33.581C104.71 33.1103 104.838 32.7027 105.096 32.358C105.358 32.0099 105.721 31.7415 106.185 31.5526C106.652 31.3603 107.191 31.2642 107.801 31.2642C108.696 31.2642 109.4 31.4548 109.914 31.8359C110.431 32.2171 110.751 32.7325 110.873 33.3821ZM115.915 31.3636V32.7557H111.525V31.3636H115.915ZM112.608 29.5341H114.408V36.7031C114.408 36.9451 114.445 37.1307 114.518 37.2599C114.594 37.3859 114.693 37.4721 114.816 37.5185C114.938 37.5649 115.074 37.5881 115.224 37.5881C115.336 37.5881 115.439 37.5798 115.532 37.5632C115.628 37.5466 115.701 37.5317 115.751 37.5185L116.054 38.9254C115.958 38.9586 115.82 38.995 115.641 39.0348C115.465 39.0746 115.25 39.0978 114.995 39.1044C114.544 39.1177 114.138 39.0497 113.777 38.9006C113.416 38.7481 113.129 38.5128 112.917 38.1946C112.708 37.8764 112.605 37.4787 112.608 37.0014V29.5341ZM120.052 39V31.3636H121.852V39H120.052ZM120.957 30.2798C120.672 30.2798 120.427 30.1854 120.221 29.9964C120.016 29.8042 119.913 29.5739 119.913 29.3054C119.913 29.0336 120.016 28.8033 120.221 28.6143C120.427 28.4221 120.672 28.326 120.957 28.326C121.246 28.326 121.491 28.4221 121.693 28.6143C121.898 28.8033 122.001 29.0336 122.001 29.3054C122.001 29.5739 121.898 29.8042 121.693 29.9964C121.491 30.1854 121.246 30.2798 120.957 30.2798ZM129.318 33.3821L127.678 33.5611C127.631 33.3954 127.55 33.2396 127.434 33.0938C127.321 32.9479 127.169 32.8303 126.977 32.7408C126.784 32.6513 126.549 32.6065 126.271 32.6065C125.896 32.6065 125.581 32.6877 125.326 32.8501C125.074 33.0125 124.95 33.223 124.953 33.4815C124.95 33.7036 125.031 33.8842 125.197 34.0234C125.366 34.1626 125.644 34.277 126.032 34.3665L127.335 34.6449C128.057 34.8007 128.594 35.0476 128.945 35.3857C129.3 35.7237 129.479 36.1662 129.482 36.7131C129.479 37.1937 129.338 37.6179 129.06 37.9858C128.785 38.3504 128.402 38.6354 127.911 38.8409C127.421 39.0464 126.857 39.1491 126.221 39.1491C125.286 39.1491 124.534 38.9536 123.964 38.5625C123.394 38.1681 123.054 37.6196 122.945 36.9169L124.7 36.7479C124.779 37.0926 124.948 37.3527 125.207 37.5284C125.465 37.7041 125.802 37.7919 126.216 37.7919C126.644 37.7919 126.987 37.7041 127.245 37.5284C127.507 37.3527 127.638 37.1357 127.638 36.8771C127.638 36.6584 127.553 36.4777 127.384 36.3352C127.219 36.1927 126.96 36.0833 126.609 36.0071L125.306 35.7337C124.574 35.5812 124.032 35.3243 123.68 34.9631C123.329 34.5985 123.155 34.1378 123.158 33.581C123.155 33.1103 123.283 32.7027 123.541 32.358C123.803 32.0099 124.166 31.7415 124.63 31.5526C125.097 31.3603 125.636 31.2642 126.246 31.2642C127.141 31.2642 127.845 31.4548 128.359 31.8359C128.876 32.2171 129.196 32.7325 129.318 33.3821ZM136.582 33.3821L134.941 33.5611C134.895 33.3954 134.814 33.2396 134.698 33.0938C134.585 32.9479 134.432 32.8303 134.24 32.7408C134.048 32.6513 133.813 32.6065 133.534 32.6065C133.16 32.6065 132.845 32.6877 132.59 32.8501C132.338 33.0125 132.213 33.223 132.217 33.4815C132.213 33.7036 132.295 33.8842 132.46 34.0234C132.629 34.1626 132.908 34.277 133.296 34.3665L134.598 34.6449C135.321 34.8007 135.858 35.0476 136.209 35.3857C136.564 35.7237 136.743 36.1662 136.746 36.7131C136.743 37.1937 136.602 37.6179 136.323 37.9858C136.048 38.3504 135.665 38.6354 135.175 38.8409C134.684 39.0464 134.121 39.1491 133.485 39.1491C132.55 39.1491 131.798 38.9536 131.227 38.5625C130.657 38.1681 130.318 37.6196 130.208 36.9169L131.963 36.7479C132.043 37.0926 132.212 37.3527 132.47 37.5284C132.729 37.7041 133.065 37.7919 133.48 37.7919C133.907 37.7919 134.25 37.7041 134.509 37.5284C134.771 37.3527 134.901 37.1357 134.901 36.8771C134.901 36.6584 134.817 36.4777 134.648 36.3352C134.482 36.1927 134.224 36.0833 133.872 36.0071L132.57 35.7337C131.837 35.5812 131.295 35.3243 130.944 34.9631C130.593 34.5985 130.419 34.1378 130.422 33.581C130.419 33.1103 130.546 32.7027 130.805 32.358C131.067 32.0099 131.43 31.7415 131.894 31.5526C132.361 31.3603 132.9 31.2642 133.509 31.2642C134.404 31.2642 135.109 31.4548 135.622 31.8359C136.139 32.2171 136.459 32.7325 136.582 33.3821ZM142.677 35.7884V31.3636H144.477V39H142.732V37.6428H142.652C142.48 38.0703 142.197 38.42 141.802 38.6918C141.411 38.9635 140.929 39.0994 140.355 39.0994C139.855 39.0994 139.412 38.9884 139.028 38.7663C138.647 38.541 138.349 38.2145 138.133 37.7869C137.918 37.3561 137.81 36.8357 137.81 36.2259V31.3636H139.61V35.9474C139.61 36.4313 139.742 36.8158 140.007 37.1009C140.273 37.3859 140.621 37.5284 141.051 37.5284C141.317 37.5284 141.573 37.4638 141.822 37.3345C142.071 37.2053 142.274 37.013 142.434 36.7578C142.596 36.4993 142.677 36.1761 142.677 35.7884ZM149.288 39.1491C148.523 39.1491 147.861 38.9901 147.305 38.6719C146.751 38.3504 146.325 37.8963 146.027 37.3097C145.729 36.7197 145.579 36.0253 145.579 35.2266C145.579 34.4411 145.729 33.7517 146.027 33.1584C146.328 32.5618 146.749 32.0978 147.29 31.7663C147.83 31.4316 148.465 31.2642 149.194 31.2642C149.664 31.2642 150.109 31.3404 150.526 31.4929C150.947 31.642 151.318 31.8741 151.64 32.1889C151.965 32.5038 152.22 32.9048 152.405 33.392C152.591 33.8759 152.684 34.4527 152.684 35.1222V35.674H146.425V34.4609H150.959C150.955 34.1162 150.881 33.8097 150.735 33.5412C150.589 33.2694 150.385 33.0556 150.123 32.8999C149.865 32.7441 149.563 32.6662 149.219 32.6662C148.851 32.6662 148.528 32.7557 148.249 32.9347C147.971 33.1103 147.754 33.3423 147.598 33.6307C147.445 33.9157 147.368 34.2289 147.364 34.5703V35.6293C147.364 36.0734 147.445 36.4545 147.608 36.7727C147.77 37.0876 147.997 37.3295 148.289 37.4986C148.581 37.6643 148.922 37.7472 149.313 37.7472C149.575 37.7472 149.812 37.7107 150.024 37.6378C150.236 37.5616 150.42 37.4505 150.576 37.3047C150.732 37.1589 150.849 36.9782 150.929 36.7628L152.609 36.9517C152.503 37.3958 152.301 37.7836 152.003 38.1151C151.708 38.4432 151.33 38.6984 150.869 38.8807C150.408 39.0597 149.881 39.1491 149.288 39.1491Z" fill="#939397"/>
<rect x="169.5" y="23" width="105" height="22" rx="11" fill="#DADDE0"/>
<path d="M181.866 39.1491C181.101 39.1491 180.439 38.9901 179.883 38.6719C179.329 38.3504 178.903 37.8963 178.605 37.3097C178.307 36.7197 178.158 36.0253 178.158 35.2266C178.158 34.4411 178.307 33.7517 178.605 33.1584C178.907 32.5618 179.328 32.0978 179.868 31.7663C180.408 31.4316 181.043 31.2642 181.772 31.2642C182.243 31.2642 182.687 31.3404 183.104 31.4929C183.525 31.642 183.896 31.8741 184.218 32.1889C184.543 32.5038 184.798 32.9048 184.984 33.392C185.169 33.8759 185.262 34.4527 185.262 35.1222V35.674H179.003V34.4609H183.537C183.533 34.1162 183.459 33.8097 183.313 33.5412C183.167 33.2694 182.963 33.0556 182.702 32.8999C182.443 32.7441 182.141 32.6662 181.797 32.6662C181.429 32.6662 181.106 32.7557 180.827 32.9347C180.549 33.1103 180.332 33.3423 180.176 33.6307C180.024 33.9157 179.946 34.2289 179.942 34.5703V35.6293C179.942 36.0734 180.024 36.4545 180.186 36.7727C180.348 37.0876 180.575 37.3295 180.867 37.4986C181.159 37.6643 181.5 37.7472 181.891 37.7472C182.153 37.7472 182.39 37.7107 182.602 37.6378C182.814 37.5616 182.998 37.4505 183.154 37.3047C183.31 37.1589 183.427 36.9782 183.507 36.7628L185.187 36.9517C185.081 37.3958 184.879 37.7836 184.581 38.1151C184.286 38.4432 183.908 38.6984 183.447 38.8807C182.987 39.0597 182.46 39.1491 181.866 39.1491ZM188.164 34.5256V39H186.364V31.3636H188.085V32.6612H188.174C188.35 32.2337 188.63 31.8939 189.014 31.642C189.402 31.3902 189.881 31.2642 190.451 31.2642C190.978 31.2642 191.437 31.3769 191.828 31.6023C192.223 31.8277 192.528 32.1541 192.743 32.5817C192.962 33.0092 193.069 33.5279 193.066 34.1378V39H191.266V34.4162C191.266 33.9058 191.134 33.5064 190.869 33.218C190.607 32.9297 190.244 32.7855 189.78 32.7855C189.465 32.7855 189.185 32.8551 188.94 32.9943C188.698 33.1302 188.507 33.3274 188.368 33.5859C188.232 33.8445 188.164 34.1577 188.164 34.5256ZM196.275 34.5256V39H194.476V28.8182H196.236V32.6612H196.325C196.504 32.2304 196.781 31.8906 197.155 31.642C197.533 31.3902 198.014 31.2642 198.597 31.2642C199.127 31.2642 199.59 31.3752 199.984 31.5973C200.379 31.8194 200.684 32.1442 200.899 32.5717C201.118 32.9993 201.227 33.5213 201.227 34.1378V39H199.427V34.4162C199.427 33.9025 199.295 33.5031 199.03 33.218C198.768 32.9297 198.4 32.7855 197.926 32.7855C197.608 32.7855 197.323 32.8551 197.071 32.9943C196.822 33.1302 196.627 33.3274 196.484 33.5859C196.345 33.8445 196.275 34.1577 196.275 34.5256ZM204.839 39.1541C204.355 39.1541 203.919 39.0679 203.532 38.8956C203.147 38.7199 202.842 38.4614 202.617 38.12C202.395 37.7786 202.284 37.3577 202.284 36.8572C202.284 36.4264 202.363 36.0701 202.522 35.7884C202.681 35.5066 202.899 35.2812 203.174 35.1122C203.449 34.9432 203.759 34.8156 204.103 34.7294C204.451 34.6399 204.811 34.5753 205.182 34.5355C205.63 34.4891 205.993 34.4477 206.271 34.4112C206.549 34.3714 206.752 34.3118 206.877 34.2322C207.007 34.1494 207.071 34.0218 207.071 33.8494V33.8196C207.071 33.4451 206.96 33.1551 206.738 32.9496C206.516 32.7441 206.196 32.6413 205.779 32.6413C205.338 32.6413 204.988 32.7375 204.73 32.9297C204.475 33.1219 204.302 33.349 204.213 33.6108L202.532 33.3722C202.665 32.9081 202.884 32.5204 203.189 32.2088C203.493 31.8939 203.866 31.6586 204.307 31.5028C204.748 31.3438 205.235 31.2642 205.769 31.2642C206.137 31.2642 206.503 31.3073 206.868 31.3935C207.232 31.4796 207.565 31.6222 207.867 31.821C208.168 32.0166 208.41 32.2834 208.593 32.6214C208.778 32.9595 208.871 33.3821 208.871 33.8892V39H207.141V37.951H207.081C206.972 38.1631 206.818 38.362 206.619 38.5476C206.423 38.7299 206.176 38.8774 205.878 38.9901C205.583 39.0994 205.237 39.1541 204.839 39.1541ZM205.306 37.8317C205.668 37.8317 205.981 37.7604 206.246 37.6179C206.511 37.4721 206.715 37.2798 206.858 37.0412C207.003 36.8026 207.076 36.5424 207.076 36.2607V35.3608C207.02 35.4072 206.924 35.4503 206.788 35.4901C206.655 35.5298 206.506 35.5646 206.341 35.5945C206.175 35.6243 206.011 35.6508 205.848 35.674C205.686 35.6972 205.545 35.7171 205.426 35.7337C205.157 35.7701 204.917 35.8298 204.705 35.9126C204.493 35.9955 204.325 36.1115 204.203 36.2607C204.08 36.4065 204.019 36.5954 204.019 36.8274C204.019 37.1589 204.14 37.4091 204.382 37.5781C204.624 37.7472 204.932 37.8317 205.306 37.8317ZM212.06 34.5256V39H210.261V31.3636H211.981V32.6612H212.07C212.246 32.2337 212.526 31.8939 212.911 31.642C213.298 31.3902 213.777 31.2642 214.347 31.2642C214.874 31.2642 215.333 31.3769 215.725 31.6023C216.119 31.8277 216.424 32.1541 216.639 32.5817C216.858 33.0092 216.966 33.5279 216.962 34.1378V39H215.163V34.4162C215.163 33.9058 215.03 33.5064 214.765 33.218C214.503 32.9297 214.14 32.7855 213.676 32.7855C213.361 32.7855 213.081 32.8551 212.836 32.9943C212.594 33.1302 212.403 33.3274 212.264 33.5859C212.128 33.8445 212.06 34.1577 212.06 34.5256ZM221.703 39.1491C220.941 39.1491 220.286 38.9818 219.739 38.647C219.196 38.3123 218.776 37.8499 218.481 37.2599C218.19 36.6667 218.044 35.9839 218.044 35.2116C218.044 34.4361 218.193 33.7517 218.491 33.1584C218.79 32.5618 219.211 32.0978 219.754 31.7663C220.301 31.4316 220.947 31.2642 221.693 31.2642C222.313 31.2642 222.861 31.3786 223.339 31.6072C223.819 31.8326 224.202 32.1525 224.487 32.5668C224.772 32.9777 224.934 33.4583 224.974 34.0085H223.254C223.184 33.6406 223.019 33.334 222.757 33.0888C222.498 32.8402 222.152 32.7159 221.718 32.7159C221.35 32.7159 221.027 32.8153 220.748 33.0142C220.47 33.2098 220.253 33.4915 220.097 33.8594C219.945 34.2273 219.868 34.6681 219.868 35.1818C219.868 35.7022 219.945 36.1496 220.097 36.5241C220.25 36.8954 220.463 37.1821 220.738 37.3842C221.017 37.5831 221.343 37.6825 221.718 37.6825C221.983 37.6825 222.22 37.6328 222.429 37.5334C222.641 37.4306 222.818 37.2831 222.961 37.0909C223.103 36.8987 223.201 36.665 223.254 36.3899H224.974C224.931 36.9302 224.772 37.4091 224.497 37.8267C224.222 38.241 223.847 38.5658 223.373 38.8011C222.899 39.0331 222.343 39.1491 221.703 39.1491ZM229.413 39.1491C228.647 39.1491 227.986 38.9901 227.429 38.6719C226.876 38.3504 226.45 37.8963 226.151 37.3097C225.853 36.7197 225.704 36.0253 225.704 35.2266C225.704 34.4411 225.853 33.7517 226.151 33.1584C226.453 32.5618 226.874 32.0978 227.414 31.7663C227.954 31.4316 228.589 31.2642 229.318 31.2642C229.789 31.2642 230.233 31.3404 230.651 31.4929C231.072 31.642 231.443 31.8741 231.764 32.1889C232.089 32.5038 232.344 32.9048 232.53 33.392C232.716 33.8759 232.808 34.4527 232.808 35.1222V35.674H226.549V34.4609H231.083C231.08 34.1162 231.005 33.8097 230.859 33.5412C230.714 33.2694 230.51 33.0556 230.248 32.8999C229.989 32.7441 229.688 32.6662 229.343 32.6662C228.975 32.6662 228.652 32.7557 228.374 32.9347C228.095 33.1103 227.878 33.3423 227.722 33.6307C227.57 33.9157 227.492 34.2289 227.489 34.5703V35.6293C227.489 36.0734 227.57 36.4545 227.732 36.7727C227.895 37.0876 228.122 37.3295 228.413 37.4986C228.705 37.6643 229.046 37.7472 229.438 37.7472C229.699 37.7472 229.936 37.7107 230.149 37.6378C230.361 37.5616 230.545 37.4505 230.7 37.3047C230.856 37.1589 230.974 36.9782 231.053 36.7628L232.734 36.9517C232.628 37.3958 232.426 37.7836 232.127 38.1151C231.832 38.4432 231.454 38.6984 230.994 38.8807C230.533 39.0597 230.006 39.1491 229.413 39.1491ZM233.911 39V31.3636H235.631V32.6612H235.721C235.88 32.2237 236.143 31.8823 236.511 31.6371C236.879 31.3885 237.318 31.2642 237.829 31.2642C238.346 31.2642 238.781 31.3902 239.136 31.642C239.494 31.8906 239.746 32.2304 239.892 32.6612H239.971C240.14 32.237 240.425 31.8989 240.826 31.647C241.231 31.3918 241.71 31.2642 242.263 31.2642C242.966 31.2642 243.539 31.4863 243.983 31.9304C244.427 32.3745 244.65 33.0225 244.65 33.8743V39H242.845V34.1527C242.845 33.6787 242.719 33.3324 242.467 33.1136C242.215 32.8916 241.907 32.7805 241.542 32.7805C241.108 32.7805 240.768 32.9164 240.523 33.1882C240.281 33.4567 240.16 33.8063 240.16 34.2372V39H238.395V34.0781C238.395 33.6837 238.276 33.3688 238.037 33.1335C237.802 32.8982 237.494 32.7805 237.113 32.7805C236.854 32.7805 236.619 32.8468 236.407 32.9794C236.195 33.1087 236.025 33.2926 235.9 33.5312C235.774 33.7666 235.711 34.0417 235.711 34.3565V39H233.911ZM249.436 39.1491C248.67 39.1491 248.009 38.9901 247.452 38.6719C246.899 38.3504 246.473 37.8963 246.175 37.3097C245.876 36.7197 245.727 36.0253 245.727 35.2266C245.727 34.4411 245.876 33.7517 246.175 33.1584C246.476 32.5618 246.897 32.0978 247.437 31.7663C247.978 31.4316 248.612 31.2642 249.342 31.2642C249.812 31.2642 250.256 31.3404 250.674 31.4929C251.095 31.642 251.466 31.8741 251.788 32.1889C252.112 32.5038 252.368 32.9048 252.553 33.392C252.739 33.8759 252.832 34.4527 252.832 35.1222V35.674H246.572V34.4609H251.106C251.103 34.1162 251.029 33.8097 250.883 33.5412C250.737 33.2694 250.533 33.0556 250.271 32.8999C250.013 32.7441 249.711 32.6662 249.366 32.6662C248.999 32.6662 248.675 32.7557 248.397 32.9347C248.119 33.1103 247.901 33.3423 247.746 33.6307C247.593 33.9157 247.515 34.2289 247.512 34.5703V35.6293C247.512 36.0734 247.593 36.4545 247.756 36.7727C247.918 37.0876 248.145 37.3295 248.437 37.4986C248.728 37.6643 249.07 37.7472 249.461 37.7472C249.723 37.7472 249.96 37.7107 250.172 37.6378C250.384 37.5616 250.568 37.4505 250.724 37.3047C250.879 37.1589 250.997 36.9782 251.077 36.7628L252.757 36.9517C252.651 37.3958 252.449 37.7836 252.151 38.1151C251.856 38.4432 251.478 38.6984 251.017 38.8807C250.556 39.0597 250.029 39.1491 249.436 39.1491ZM255.734 34.5256V39H253.934V31.3636H255.654V32.6612H255.744C255.919 32.2337 256.2 31.8939 256.584 31.642C256.972 31.3902 257.451 31.2642 258.021 31.2642C258.548 31.2642 259.007 31.3769 259.398 31.6023C259.792 31.8277 260.097 32.1541 260.313 32.5817C260.531 33.0092 260.639 33.5279 260.636 34.1378V39H258.836V34.4162C258.836 33.9058 258.704 33.5064 258.438 33.218C258.177 32.9297 257.814 32.7855 257.35 32.7855C257.035 32.7855 256.755 32.8551 256.509 32.9943C256.268 33.1302 256.077 33.3274 255.938 33.5859C255.802 33.8445 255.734 34.1577 255.734 34.5256ZM265.859 31.3636V32.7557H261.469V31.3636H265.859ZM262.553 29.5341H264.352V36.7031C264.352 36.9451 264.389 37.1307 264.462 37.2599C264.538 37.3859 264.637 37.4721 264.76 37.5185C264.883 37.5649 265.018 37.5881 265.168 37.5881C265.28 37.5881 265.383 37.5798 265.476 37.5632C265.572 37.5466 265.645 37.5317 265.695 37.5185L265.998 38.9254C265.902 38.9586 265.764 38.995 265.585 39.0348C265.41 39.0746 265.194 39.0978 264.939 39.1044C264.488 39.1177 264.082 39.0497 263.721 38.9006C263.36 38.7481 263.073 38.5128 262.861 38.1946C262.652 37.8764 262.549 37.4787 262.553 37.0014V29.5341Z" fill="#939397"/>
<rect x="282.5" y="23" width="54" height="22" rx="11" fill="#DADDE0"/>
<path d="M293.993 39.1541C293.51 39.1541 293.074 39.0679 292.686 38.8956C292.301 38.7199 291.996 38.4614 291.771 38.12C291.549 37.7786 291.438 37.3577 291.438 36.8572C291.438 36.4264 291.518 36.0701 291.677 35.7884C291.836 35.5066 292.053 35.2812 292.328 35.1122C292.603 34.9432 292.913 34.8156 293.258 34.7294C293.606 34.6399 293.965 34.5753 294.336 34.5355C294.784 34.4891 295.147 34.4477 295.425 34.4112C295.704 34.3714 295.906 34.3118 296.032 34.2322C296.161 34.1494 296.226 34.0218 296.226 33.8494V33.8196C296.226 33.4451 296.115 33.1551 295.893 32.9496C295.67 32.7441 295.351 32.6413 294.933 32.6413C294.492 32.6413 294.143 32.7375 293.884 32.9297C293.629 33.1219 293.456 33.349 293.367 33.6108L291.687 33.3722C291.819 32.9081 292.038 32.5204 292.343 32.2088C292.648 31.8939 293.021 31.6586 293.461 31.5028C293.902 31.3438 294.389 31.2642 294.923 31.2642C295.291 31.2642 295.657 31.3073 296.022 31.3935C296.386 31.4796 296.719 31.6222 297.021 31.821C297.323 32.0166 297.565 32.2834 297.747 32.6214C297.933 32.9595 298.025 33.3821 298.025 33.8892V39H296.295V37.951H296.236C296.126 38.1631 295.972 38.362 295.773 38.5476C295.578 38.7299 295.331 38.8774 295.032 38.9901C294.737 39.0994 294.391 39.1541 293.993 39.1541ZM294.461 37.8317C294.822 37.8317 295.135 37.7604 295.4 37.6179C295.666 37.4721 295.869 37.2798 296.012 37.0412C296.158 36.8026 296.231 36.5424 296.231 36.2607V35.3608C296.174 35.4072 296.078 35.4503 295.942 35.4901C295.81 35.5298 295.661 35.5646 295.495 35.5945C295.329 35.6243 295.165 35.6508 295.003 35.674C294.84 35.6972 294.699 35.7171 294.58 35.7337C294.312 35.7701 294.071 35.8298 293.859 35.9126C293.647 35.9955 293.48 36.1115 293.357 36.2607C293.234 36.4065 293.173 36.5954 293.173 36.8274C293.173 37.1589 293.294 37.4091 293.536 37.5781C293.778 37.7472 294.086 37.8317 294.461 37.8317ZM302.736 42.0227C302.09 42.0227 301.535 41.9349 301.071 41.7592C300.607 41.5869 300.234 41.3549 299.952 41.0632C299.67 40.7715 299.475 40.4484 299.365 40.0938L300.986 39.701C301.059 39.8501 301.165 39.9976 301.304 40.1435C301.443 40.2926 301.631 40.4152 301.866 40.5114C302.105 40.6108 302.405 40.6605 302.766 40.6605C303.276 40.6605 303.699 40.5362 304.034 40.2876C304.368 40.0424 304.536 39.638 304.536 39.0746V37.6278H304.446C304.353 37.8134 304.218 38.004 304.039 38.1996C303.863 38.3951 303.629 38.5592 303.338 38.6918C303.049 38.8243 302.686 38.8906 302.249 38.8906C301.662 38.8906 301.13 38.7531 300.653 38.478C300.179 38.1996 299.801 37.7853 299.519 37.2351C299.241 36.6816 299.102 35.9889 299.102 35.157C299.102 34.3184 299.241 33.6108 299.519 33.0341C299.801 32.4541 300.181 32.0149 300.658 31.7166C301.135 31.415 301.667 31.2642 302.254 31.2642C302.701 31.2642 303.069 31.3404 303.358 31.4929C303.649 31.642 303.881 31.8227 304.054 32.0348C304.226 32.2436 304.357 32.4408 304.446 32.6264H304.546V31.3636H306.321V39.1243C306.321 39.7772 306.165 40.3175 305.853 40.745C305.542 41.1726 305.116 41.4924 304.576 41.7045C304.035 41.9167 303.422 42.0227 302.736 42.0227ZM302.751 37.4787C303.132 37.4787 303.457 37.3859 303.725 37.2003C303.994 37.0147 304.198 36.7479 304.337 36.3999C304.476 36.0518 304.546 35.6342 304.546 35.147C304.546 34.6664 304.476 34.2455 304.337 33.8842C304.201 33.523 303.999 33.2429 303.73 33.044C303.465 32.8419 303.139 32.7408 302.751 32.7408C302.35 32.7408 302.015 32.8452 301.747 33.054C301.478 33.2628 301.276 33.5495 301.14 33.9141C301.004 34.2753 300.936 34.6863 300.936 35.147C300.936 35.6143 301.004 36.0237 301.14 36.375C301.279 36.723 301.483 36.9948 301.752 37.1903C302.023 37.3826 302.357 37.4787 302.751 37.4787ZM311.126 39.1491C310.36 39.1491 309.699 38.9901 309.142 38.6719C308.589 38.3504 308.163 37.8963 307.864 37.3097C307.566 36.7197 307.417 36.0253 307.417 35.2266C307.417 34.4411 307.566 33.7517 307.864 33.1584C308.166 32.5618 308.587 32.0978 309.127 31.7663C309.667 31.4316 310.302 31.2642 311.031 31.2642C311.502 31.2642 311.946 31.3404 312.364 31.4929C312.785 31.642 313.156 31.8741 313.477 32.1889C313.802 32.5038 314.057 32.9048 314.243 33.392C314.429 33.8759 314.521 34.4527 314.521 35.1222V35.674H308.262V34.4609H312.796C312.793 34.1162 312.718 33.8097 312.572 33.5412C312.427 33.2694 312.223 33.0556 311.961 32.8999C311.702 32.7441 311.401 32.6662 311.056 32.6662C310.688 32.6662 310.365 32.7557 310.087 32.9347C309.808 33.1103 309.591 33.3423 309.435 33.6307C309.283 33.9157 309.205 34.2289 309.202 34.5703V35.6293C309.202 36.0734 309.283 36.4545 309.445 36.7727C309.608 37.0876 309.835 37.3295 310.126 37.4986C310.418 37.6643 310.759 37.7472 311.151 37.7472C311.412 37.7472 311.649 37.7107 311.862 37.6378C312.074 37.5616 312.258 37.4505 312.413 37.3047C312.569 37.1589 312.687 36.9782 312.766 36.7628L314.447 36.9517C314.341 37.3958 314.138 37.7836 313.84 38.1151C313.545 38.4432 313.167 38.6984 312.707 38.8807C312.246 39.0597 311.719 39.1491 311.126 39.1491ZM317.424 34.5256V39H315.624V31.3636H317.344V32.6612H317.434C317.609 32.2337 317.889 31.8939 318.274 31.642C318.661 31.3902 319.14 31.2642 319.711 31.2642C320.237 31.2642 320.697 31.3769 321.088 31.6023C321.482 31.8277 321.787 32.1541 322.002 32.5817C322.221 33.0092 322.329 33.5279 322.326 34.1378V39H320.526V34.4162C320.526 33.9058 320.393 33.5064 320.128 33.218C319.866 32.9297 319.503 32.7855 319.039 32.7855C318.724 32.7855 318.444 32.8551 318.199 32.9943C317.957 33.1302 317.767 33.3274 317.627 33.5859C317.492 33.8445 317.424 34.1577 317.424 34.5256ZM327.548 31.3636V32.7557H323.158V31.3636H327.548ZM324.242 29.5341H326.042V36.7031C326.042 36.9451 326.078 37.1307 326.151 37.2599C326.228 37.3859 326.327 37.4721 326.45 37.5185C326.572 37.5649 326.708 37.5881 326.857 37.5881C326.97 37.5881 327.073 37.5798 327.166 37.5632C327.262 37.5466 327.335 37.5317 327.384 37.5185L327.688 38.9254C327.591 38.9586 327.454 38.995 327.275 39.0348C327.099 39.0746 326.884 39.0978 326.629 39.1044C326.178 39.1177 325.772 39.0497 325.411 38.9006C325.049 38.7481 324.763 38.5128 324.55 38.1946C324.342 37.8764 324.239 37.4787 324.242 37.0014V29.5341Z" fill="#939397"/>
<rect x="-58.5" y="51" width="94" height="22" rx="11" fill="#DADDE0"/>
<path d="M-46.0867 67.1491C-46.849 67.1491 -47.5036 66.9818 -48.0504 66.647C-48.594 66.3123 -49.0133 65.8499 -49.3083 65.2599C-49.5999 64.6667 -49.7458 63.9839 -49.7458 63.2116C-49.7458 62.4361 -49.5966 61.7517 -49.2983 61.1584C-49 60.5618 -48.5791 60.0978 -48.0355 59.7663C-47.4886 59.4316 -46.8423 59.2642 -46.0966 59.2642C-45.4768 59.2642 -44.9283 59.3786 -44.451 59.6072C-43.9704 59.8326 -43.5876 60.1525 -43.3026 60.5668C-43.0175 60.9777 -42.8551 61.4583 -42.8154 62.0085H-44.5355C-44.6051 61.6406 -44.7708 61.334 -45.0327 61.0888C-45.2912 60.8402 -45.6376 60.7159 -46.0717 60.7159C-46.4396 60.7159 -46.7628 60.8153 -47.0412 61.0142C-47.3196 61.2098 -47.5367 61.4915 -47.6925 61.8594C-47.8449 62.2273 -47.9212 62.6681 -47.9212 63.1818C-47.9212 63.7022 -47.8449 64.1496 -47.6925 64.5241C-47.54 64.8954 -47.3262 65.1821 -47.0511 65.3842C-46.7727 65.5831 -46.4463 65.6825 -46.0717 65.6825C-45.8066 65.6825 -45.5696 65.6328 -45.3608 65.5334C-45.1487 65.4306 -44.9714 65.2831 -44.8288 65.0909C-44.6863 64.8987 -44.5886 64.665 -44.5355 64.3899H-42.8154C-42.8584 64.9302 -43.0175 65.4091 -43.2926 65.8267C-43.5677 66.241 -43.9422 66.5658 -44.4162 66.8011C-44.8902 67.0331 -45.447 67.1491 -46.0867 67.1491ZM-38.4266 67.1491C-39.1723 67.1491 -39.8186 66.9851 -40.3655 66.657C-40.9124 66.3288 -41.3366 65.8698 -41.6382 65.2798C-41.9365 64.6899 -42.0857 64.0005 -42.0857 63.2116C-42.0857 62.4228 -41.9365 61.7318 -41.6382 61.1385C-41.3366 60.5452 -40.9124 60.0845 -40.3655 59.7564C-39.8186 59.4283 -39.1723 59.2642 -38.4266 59.2642C-37.6808 59.2642 -37.0345 59.4283 -36.4877 59.7564C-35.9408 60.0845 -35.5182 60.5452 -35.2199 61.1385C-34.9183 61.7318 -34.7675 62.4228 -34.7675 63.2116C-34.7675 64.0005 -34.9183 64.6899 -35.2199 65.2798C-35.5182 65.8698 -35.9408 66.3288 -36.4877 66.657C-37.0345 66.9851 -37.6808 67.1491 -38.4266 67.1491ZM-38.4166 65.7074C-38.0123 65.7074 -37.6742 65.5964 -37.4024 65.3743C-37.1307 65.1489 -36.9285 64.8473 -36.7959 64.4695C-36.66 64.0916 -36.5921 63.6707 -36.5921 63.2067C-36.5921 62.7393 -36.66 62.3168 -36.7959 61.9389C-36.9285 61.5578 -37.1307 61.2545 -37.4024 61.0291C-37.6742 60.8037 -38.0123 60.6911 -38.4166 60.6911C-38.8309 60.6911 -39.1756 60.8037 -39.4507 61.0291C-39.7225 61.2545 -39.9263 61.5578 -40.0622 61.9389C-40.1948 62.3168 -40.2611 62.7393 -40.2611 63.2067C-40.2611 63.6707 -40.1948 64.0916 -40.0622 64.4695C-39.9263 64.8473 -39.7225 65.1489 -39.4507 65.3743C-39.1756 65.5964 -38.8309 65.7074 -38.4166 65.7074ZM-33.66 67V59.3636H-31.9149V60.6364H-31.8354C-31.6962 60.1955 -31.4576 59.8558 -31.1195 59.6172C-30.7781 59.3752 -30.3887 59.2543 -29.9512 59.2543C-29.8517 59.2543 -29.7407 59.2592 -29.6181 59.2692C-29.4921 59.2758 -29.3877 59.2874 -29.3049 59.304V60.9595C-29.3811 60.933 -29.5021 60.9098 -29.6678 60.8899C-29.8302 60.8667 -29.9876 60.8551 -30.1401 60.8551C-30.4682 60.8551 -30.7632 60.9264 -31.025 61.0689C-31.2835 61.2081 -31.4874 61.402 -31.6365 61.6506C-31.7857 61.8991 -31.8603 62.1858 -31.8603 62.5107V67H-33.66ZM-25.463 67.1491C-26.2286 67.1491 -26.8898 66.9901 -27.4466 66.6719C-28.0001 66.3504 -28.426 65.8963 -28.7243 65.3097C-29.0226 64.7197 -29.1718 64.0253 -29.1718 63.2266C-29.1718 62.4411 -29.0226 61.7517 -28.7243 61.1584C-28.4227 60.5618 -28.0018 60.0978 -27.4615 59.7663C-26.9213 59.4316 -26.2866 59.2642 -25.5574 59.2642C-25.0868 59.2642 -24.6426 59.3404 -24.225 59.4929C-23.8041 59.642 -23.4329 59.8741 -23.1114 60.1889C-22.7866 60.5038 -22.5314 60.9048 -22.3458 61.392C-22.1602 61.8759 -22.0674 62.4527 -22.0674 63.1222V63.674H-28.3266V62.4609H-23.7925C-23.7958 62.1162 -23.8704 61.8097 -24.0162 61.5412C-24.1621 61.2694 -24.3659 61.0556 -24.6277 60.8999C-24.8863 60.7441 -25.1879 60.6662 -25.5326 60.6662C-25.9005 60.6662 -26.2236 60.7557 -26.502 60.9347C-26.7804 61.1103 -26.9975 61.3423 -27.1533 61.6307C-27.3058 61.9157 -27.3837 62.2289 -27.387 62.5703V63.6293C-27.387 64.0734 -27.3058 64.4545 -27.1434 64.7727C-26.981 65.0876 -26.7539 65.3295 -26.4623 65.4986C-26.1706 65.6643 -25.8292 65.7472 -25.4381 65.7472C-25.1763 65.7472 -24.9393 65.7107 -24.7272 65.6378C-24.515 65.5616 -24.3311 65.4505 -24.1753 65.3047C-24.0195 65.1589 -23.9019 64.9782 -23.8223 64.7628L-22.1419 64.9517C-22.248 65.3958 -22.4502 65.7836 -22.7485 66.1151C-23.0435 66.4432 -23.4213 66.6984 -23.882 66.8807C-24.3427 67.0597 -24.8697 67.1491 -25.463 67.1491ZM-14.0443 59.3636V60.7557H-18.5585V59.3636H-14.0443ZM-17.4299 67V58.6428C-17.4299 58.129 -17.3239 57.7015 -17.1117 57.3601C-16.8963 57.0187 -16.6079 56.7635 -16.2467 56.5945C-15.8854 56.4254 -15.4844 56.3409 -15.0435 56.3409C-14.732 56.3409 -14.4552 56.3658 -14.2133 56.4155C-13.9713 56.4652 -13.7924 56.5099 -13.6764 56.5497L-14.0343 57.9418C-14.1105 57.9186 -14.2067 57.8954 -14.3227 57.8722C-14.4387 57.8456 -14.5679 57.8324 -14.7105 57.8324C-15.0452 57.8324 -15.2822 57.9136 -15.4214 58.076C-15.5573 58.2351 -15.6252 58.4638 -15.6252 58.7621V67H-17.4299ZM-9.96124 67.1491C-10.7269 67.1491 -11.3881 66.9901 -11.9449 66.6719C-12.4984 66.3504 -12.9243 65.8963 -13.2226 65.3097C-13.5209 64.7197 -13.67 64.0253 -13.67 63.2266C-13.67 62.4411 -13.5209 61.7517 -13.2226 61.1584C-12.921 60.5618 -12.5001 60.0978 -11.9598 59.7663C-11.4196 59.4316 -10.7849 59.2642 -10.0557 59.2642C-9.58506 59.2642 -9.14093 59.3404 -8.72332 59.4929C-8.30239 59.642 -7.93118 59.8741 -7.60968 60.1889C-7.28487 60.5038 -7.02966 60.9048 -6.84405 61.392C-6.65845 61.8759 -6.56564 62.4527 -6.56564 63.1222V63.674H-12.8249V62.4609H-8.29079C-8.2941 62.1162 -8.36868 61.8097 -8.51451 61.5412C-8.66034 61.2694 -8.86418 61.0556 -9.12601 60.8999C-9.38454 60.7441 -9.68615 60.6662 -10.0308 60.6662C-10.3987 60.6662 -10.7219 60.7557 -11.0003 60.9347C-11.2787 61.1103 -11.4958 61.3423 -11.6516 61.6307C-11.804 61.9157 -11.8819 62.2289 -11.8852 62.5703V63.6293C-11.8852 64.0734 -11.804 64.4545 -11.6416 64.7727C-11.4792 65.0876 -11.2522 65.3295 -10.9605 65.4986C-10.6689 65.6643 -10.3275 65.7472 -9.93638 65.7472C-9.67455 65.7472 -9.43757 65.7107 -9.22545 65.6378C-9.01333 65.5616 -8.82938 65.4505 -8.6736 65.3047C-8.51782 65.1589 -8.40016 64.9782 -8.32062 64.7628L-6.64022 64.9517C-6.74628 65.3958 -6.94846 65.7836 -7.24675 66.1151C-7.54173 66.4432 -7.91958 66.6984 -8.38028 66.8807C-8.84098 67.0597 -9.36797 67.1491 -9.96124 67.1491ZM-3.26565 67.1541C-3.74955 67.1541 -4.18539 67.0679 -4.57318 66.8956C-4.95765 66.7199 -5.26257 66.4614 -5.48795 66.12C-5.71002 65.7786 -5.82105 65.3577 -5.82105 64.8572C-5.82105 64.4264 -5.7415 64.0701 -5.58241 63.7884C-5.42332 63.5066 -5.20623 63.2812 -4.93113 63.1122C-4.65604 62.9432 -4.34614 62.8156 -4.00145 62.7294C-3.65343 62.6399 -3.29382 62.5753 -2.92261 62.5355C-2.47517 62.4891 -2.11224 62.4477 -1.83383 62.4112C-1.55542 62.3714 -1.35325 62.3118 -1.2273 62.2322C-1.09804 62.1494 -1.03341 62.0218 -1.03341 61.8494V61.8196C-1.03341 61.4451 -1.14444 61.1551 -1.3665 60.9496C-1.58857 60.7441 -1.90841 60.6413 -2.32602 60.6413C-2.76683 60.6413 -3.1165 60.7375 -3.37503 60.9297C-3.63023 61.1219 -3.80258 61.349 -3.89207 61.6108L-5.57247 61.3722C-5.43989 60.9081 -5.22114 60.5204 -4.91622 60.2088C-4.61129 59.8939 -4.23843 59.6586 -3.79761 59.5028C-3.3568 59.3438 -2.86958 59.2642 -2.33596 59.2642C-1.96807 59.2642 -1.60182 59.3073 -1.23724 59.3935C-0.872658 59.4796 -0.539561 59.6222 -0.237951 59.821C0.0636584 60.0166 0.305609 60.2834 0.487901 60.6214C0.673507 60.9595 0.76631 61.3821 0.76631 61.8892V67H-0.963804V65.951H-1.02346C-1.13284 66.1631 -1.28696 66.362 -1.48582 66.5476C-1.68137 66.7299 -1.92829 66.8774 -2.22659 66.9901C-2.52157 67.0994 -2.86792 67.1541 -3.26565 67.1541ZM-2.79832 65.8317C-2.43705 65.8317 -2.12384 65.7604 -1.85869 65.6179C-1.59354 65.4721 -1.3897 65.2798 -1.24718 65.0412C-1.10135 64.8026 -1.02843 64.5424 -1.02843 64.2607V63.3608C-1.08478 63.4072 -1.1809 63.4503 -1.31679 63.4901C-1.44936 63.5298 -1.59851 63.5646 -1.76423 63.5945C-1.92995 63.6243 -2.09401 63.6508 -2.25642 63.674C-2.41882 63.6972 -2.55968 63.7171 -2.679 63.7337C-2.94747 63.7701 -3.18776 63.8298 -3.39988 63.9126C-3.612 63.9955 -3.77938 64.1115 -3.90201 64.2607C-4.02465 64.4065 -4.08596 64.5954 -4.08596 64.8274C-4.08596 65.1589 -3.96499 65.4091 -3.72304 65.5781C-3.48109 65.7472 -3.17285 65.8317 -2.79832 65.8317ZM5.96918 59.3636V60.7557H1.57926V59.3636H5.96918ZM2.66307 57.5341H4.46279V64.7031C4.46279 64.9451 4.49924 65.1307 4.57216 65.2599C4.64839 65.3859 4.74782 65.4721 4.87046 65.5185C4.99309 65.5649 5.12898 65.5881 5.27813 65.5881C5.39082 65.5881 5.49356 65.5798 5.58636 65.5632C5.68248 65.5466 5.7554 65.5317 5.80511 65.5185L6.10838 66.9254C6.01226 66.9586 5.87472 66.995 5.69574 67.0348C5.52008 67.0746 5.30464 67.0978 5.04943 67.1044C4.59868 67.1177 4.19266 67.0497 3.83139 66.9006C3.47012 66.7481 3.18343 66.5128 2.97131 66.1946C2.7625 65.8764 2.65975 65.4787 2.66307 65.0014V57.5341ZM11.9215 63.7884V59.3636H13.7212V67H11.9762V65.6428H11.8967C11.7243 66.0703 11.4409 66.42 11.0465 66.6918C10.6554 66.9635 10.1732 67.0994 9.59978 67.0994C9.09931 67.0994 8.65684 66.9884 8.27237 66.7663C7.89121 66.541 7.59292 66.2145 7.37748 65.7869C7.16205 65.3561 7.05433 64.8357 7.05433 64.2259V59.3636H8.85404V63.9474C8.85404 64.4313 8.98662 64.8158 9.25177 65.1009C9.51692 65.3859 9.86493 65.5284 10.2958 65.5284C10.561 65.5284 10.8178 65.4638 11.0664 65.3345C11.315 65.2053 11.5188 65.013 11.6779 64.7578C11.8403 64.4993 11.9215 64.1761 11.9215 63.7884ZM15.1519 67V59.3636H16.8969V60.6364H16.9765C17.1157 60.1955 17.3543 59.8558 17.6924 59.6172C18.0338 59.3752 18.4232 59.2543 18.8607 59.2543C18.9601 59.2543 19.0712 59.2592 19.1938 59.2692C19.3198 59.2758 19.4242 59.2874 19.507 59.304V60.9595C19.4308 60.933 19.3098 60.9098 19.1441 60.8899C18.9817 60.8667 18.8243 60.8551 18.6718 60.8551C18.3437 60.8551 18.0487 60.9264 17.7868 61.0689C17.5283 61.2081 17.3245 61.402 17.1753 61.6506C17.0262 61.8991 16.9516 62.1858 16.9516 62.5107V67H15.1519ZM23.3489 67.1491C22.5833 67.1491 21.9221 66.9901 21.3653 66.6719C20.8117 66.3504 20.3858 65.8963 20.0876 65.3097C19.7893 64.7197 19.6401 64.0253 19.6401 63.2266C19.6401 62.4411 19.7893 61.7517 20.0876 61.1584C20.3892 60.5618 20.8101 60.0978 21.3503 59.7663C21.8906 59.4316 22.5253 59.2642 23.2545 59.2642C23.7251 59.2642 24.1692 59.3404 24.5868 59.4929C25.0078 59.642 25.379 59.8741 25.7005 60.1889C26.0253 60.5038 26.2805 60.9048 26.4661 61.392C26.6517 61.8759 26.7445 62.4527 26.7445 63.1222V63.674H20.4853V62.4609H25.0194C25.0161 62.1162 24.9415 61.8097 24.7956 61.5412C24.6498 61.2694 24.446 61.0556 24.1841 60.8999C23.9256 60.7441 23.624 60.6662 23.2793 60.6662C22.9114 60.6662 22.5883 60.7557 22.3099 60.9347C22.0314 61.1103 21.8144 61.3423 21.6586 61.6307C21.5061 61.9157 21.4282 62.2289 21.4249 62.5703V63.6293C21.4249 64.0734 21.5061 64.4545 21.6685 64.7727C21.8309 65.0876 22.058 65.3295 22.3496 65.4986C22.6413 65.6643 22.9827 65.7472 23.3738 65.7472C23.6356 65.7472 23.8726 65.7107 24.0847 65.6378C24.2968 65.5616 24.4808 65.4505 24.6366 65.3047C24.7923 65.1589 24.91 64.9782 24.9895 64.7628L26.6699 64.9517C26.5639 65.3958 26.3617 65.7836 26.0634 66.1151C25.7684 66.4432 25.3906 66.6984 24.9299 66.8807C24.4692 67.0597 23.9422 67.1491 23.3489 67.1491Z" fill="#939397"/>
<rect x="43.5" y="51" width="63" height="22" rx="11" fill="#DADDE0"/>
<path d="M56.703 59.3636V60.7557H52.1888V59.3636H56.703ZM53.3174 67V58.6428C53.3174 58.129 53.4234 57.7015 53.6355 57.3601C53.851 57.0187 54.1393 56.7635 54.5006 56.5945C54.8619 56.4254 55.2629 56.3409 55.7037 56.3409C56.0153 56.3409 56.292 56.3658 56.534 56.4155C56.7759 56.4652 56.9549 56.5099 57.0709 56.5497L56.7129 57.9418C56.6367 57.9186 56.5406 57.8954 56.4246 57.8722C56.3086 57.8456 56.1793 57.8324 56.0368 57.8324C55.7021 57.8324 55.4651 57.9136 55.3259 58.076C55.19 58.2351 55.122 58.4638 55.122 58.7621V67H53.3174ZM60.786 67.1491C60.0204 67.1491 59.3592 66.9901 58.8024 66.6719C58.2489 66.3504 57.823 65.8963 57.5247 65.3097C57.2264 64.7197 57.0772 64.0253 57.0772 63.2266C57.0772 62.4411 57.2264 61.7517 57.5247 61.1584C57.8263 60.5618 58.2472 60.0978 58.7874 59.7663C59.3277 59.4316 59.9624 59.2642 60.6916 59.2642C61.1622 59.2642 61.6063 59.3404 62.0239 59.4929C62.4449 59.642 62.8161 59.8741 63.1376 60.1889C63.4624 60.5038 63.7176 60.9048 63.9032 61.392C64.0888 61.8759 64.1816 62.4527 64.1816 63.1222V63.674H57.9224V62.4609H62.4565C62.4532 62.1162 62.3786 61.8097 62.2328 61.5412C62.0869 61.2694 61.8831 61.0556 61.6213 60.8999C61.3627 60.7441 61.0611 60.6662 60.7164 60.6662C60.3485 60.6662 60.0254 60.7557 59.747 60.9347C59.4686 61.1103 59.2515 61.3423 59.0957 61.6307C58.9432 61.9157 58.8653 62.2289 58.862 62.5703V63.6293C58.862 64.0734 58.9432 64.4545 59.1056 64.7727C59.268 65.0876 59.4951 65.3295 59.7867 65.4986C60.0784 65.6643 60.4198 65.7472 60.8109 65.7472C61.0727 65.7472 61.3097 65.7107 61.5218 65.6378C61.7339 65.5616 61.9179 65.4505 62.0737 65.3047C62.2294 65.1589 62.3471 64.9782 62.4266 64.7628L64.107 64.9517C64.001 65.3958 63.7988 65.7836 63.5005 66.1151C63.2055 66.4432 62.8277 66.6984 62.367 66.8807C61.9063 67.0597 61.3793 67.1491 60.786 67.1491ZM67.4816 67.1541C66.9977 67.1541 66.5619 67.0679 66.1741 66.8956C65.7896 66.7199 65.4847 66.4614 65.2593 66.12C65.0372 65.7786 64.9262 65.3577 64.9262 64.8572C64.9262 64.4264 65.0058 64.0701 65.1649 63.7884C65.3239 63.5066 65.541 63.2812 65.8161 63.1122C66.0912 62.9432 66.4011 62.8156 66.7458 62.7294C67.0938 62.6399 67.4534 62.5753 67.8247 62.5355C68.2721 62.4891 68.635 62.4477 68.9134 62.4112C69.1918 62.3714 69.394 62.3118 69.52 62.2322C69.6492 62.1494 69.7139 62.0218 69.7139 61.8494V61.8196C69.7139 61.4451 69.6028 61.1551 69.3808 60.9496C69.1587 60.7441 68.8389 60.6413 68.4212 60.6413C67.9804 60.6413 67.6308 60.7375 67.3722 60.9297C67.117 61.1219 66.9447 61.349 66.8552 61.6108L65.1748 61.3722C65.3074 60.9081 65.5261 60.5204 65.831 60.2088C66.136 59.8939 66.5088 59.6586 66.9497 59.5028C67.3905 59.3438 67.8777 59.2642 68.4113 59.2642C68.7792 59.2642 69.1454 59.3073 69.51 59.3935C69.8746 59.4796 70.2077 59.6222 70.5093 59.821C70.8109 60.0166 71.0529 60.2834 71.2352 60.6214C71.4208 60.9595 71.5136 61.3821 71.5136 61.8892V67H69.7835V65.951H69.7238C69.6144 66.1631 69.4603 66.362 69.2614 66.5476C69.0659 66.7299 68.819 66.8774 68.5207 66.9901C68.2257 67.0994 67.8793 67.1541 67.4816 67.1541ZM67.9489 65.8317C68.3102 65.8317 68.6234 65.7604 68.8886 65.6179C69.1537 65.4721 69.3576 65.2798 69.5001 65.0412C69.6459 64.8026 69.7188 64.5424 69.7188 64.2607V63.3608C69.6625 63.4072 69.5664 63.4503 69.4305 63.4901C69.2979 63.5298 69.1488 63.5646 68.983 63.5945C68.8173 63.6243 68.6533 63.6508 68.4908 63.674C68.3284 63.6972 68.1876 63.7171 68.0683 63.7337C67.7998 63.7701 67.5595 63.8298 67.3474 63.9126C67.1353 63.9955 66.9679 64.1115 66.8452 64.2607C66.7226 64.4065 66.6613 64.5954 66.6613 64.8274C66.6613 65.1589 66.7823 65.4091 67.0242 65.5781C67.2662 65.7472 67.5744 65.8317 67.9489 65.8317ZM76.7164 59.3636V60.7557H72.3265V59.3636H76.7164ZM73.4103 57.5341H75.21V64.7031C75.21 64.9451 75.2465 65.1307 75.3194 65.2599C75.3957 65.3859 75.4951 65.4721 75.6177 65.5185C75.7404 65.5649 75.8762 65.5881 76.0254 65.5881C76.1381 65.5881 76.2408 65.5798 76.3336 65.5632C76.4297 65.5466 76.5027 65.5317 76.5524 65.5185L76.8556 66.9254C76.7595 66.9586 76.622 66.995 76.443 67.0348C76.2673 67.0746 76.0519 67.0978 75.7967 67.1044C75.3459 67.1177 74.9399 67.0497 74.5787 66.9006C74.2174 66.7481 73.9307 66.5128 73.7186 66.1946C73.5098 65.8764 73.407 65.4787 73.4103 65.0014V57.5341ZM82.6688 63.7884V59.3636H84.4685V67H82.7235V65.6428H82.6439C82.4716 66.0703 82.1882 66.42 81.7938 66.6918C81.4027 66.9635 80.9204 67.0994 80.347 67.0994C79.8466 67.0994 79.4041 66.9884 79.0196 66.7663C78.6385 66.541 78.3402 66.2145 78.1247 65.7869C77.9093 65.3561 77.8016 64.8357 77.8016 64.2259V59.3636H79.6013V63.9474C79.6013 64.4313 79.7339 64.8158 79.999 65.1009C80.2642 65.3859 80.6122 65.5284 81.0431 65.5284C81.3082 65.5284 81.5651 65.4638 81.8137 65.3345C82.0622 65.2053 82.2661 65.013 82.4252 64.7578C82.5876 64.4993 82.6688 64.1761 82.6688 63.7884ZM85.8992 67V59.3636H87.6442V60.6364H87.7237C87.863 60.1955 88.1016 59.8558 88.4397 59.6172C88.781 59.3752 89.1705 59.2543 89.608 59.2543C89.7074 59.2543 89.8184 59.2592 89.9411 59.2692C90.067 59.2758 90.1714 59.2874 90.2543 59.304V60.9595C90.1781 60.933 90.0571 60.9098 89.8914 60.8899C89.729 60.8667 89.5715 60.8551 89.4191 60.8551C89.0909 60.8551 88.796 60.9264 88.5341 61.0689C88.2756 61.2081 88.0718 61.402 87.9226 61.6506C87.7735 61.8991 87.6989 62.1858 87.6989 62.5107V67H85.8992ZM94.0962 67.1491C93.3306 67.1491 92.6693 66.9901 92.1125 66.6719C91.559 66.3504 91.1331 65.8963 90.8348 65.3097C90.5365 64.7197 90.3874 64.0253 90.3874 63.2266C90.3874 62.4411 90.5365 61.7517 90.8348 61.1584C91.1364 60.5618 91.5574 60.0978 92.0976 59.7663C92.6378 59.4316 93.2725 59.2642 94.0017 59.2642C94.4724 59.2642 94.9165 59.3404 95.3341 59.4929C95.755 59.642 96.1262 59.8741 96.4477 60.1889C96.7726 60.5038 97.0278 60.9048 97.2134 61.392C97.399 61.8759 97.4918 62.4527 97.4918 63.1222V63.674H91.2325V62.4609H95.7666C95.7633 62.1162 95.6887 61.8097 95.5429 61.5412C95.3971 61.2694 95.1932 61.0556 94.9314 60.8999C94.6729 60.7441 94.3713 60.6662 94.0266 60.6662C93.6587 60.6662 93.3355 60.7557 93.0571 60.9347C92.7787 61.1103 92.5616 61.3423 92.4058 61.6307C92.2534 61.9157 92.1755 62.2289 92.1722 62.5703V63.6293C92.1722 64.0734 92.2534 64.4545 92.4158 64.7727C92.5782 65.0876 92.8052 65.3295 93.0969 65.4986C93.3886 65.6643 93.7299 65.7472 94.121 65.7472C94.3829 65.7472 94.6199 65.7107 94.832 65.6378C95.0441 65.5616 95.228 65.4505 95.3838 65.3047C95.5396 65.1589 95.6573 64.9782 95.7368 64.7628L97.4172 64.9517C97.3111 65.3958 97.109 65.7836 96.8107 66.1151C96.5157 66.4432 96.1378 66.6984 95.6771 66.8807C95.2164 67.0597 94.6895 67.1491 94.0962 67.1491Z" fill="#939397"/>
<rect x="114.5" y="51" width="42" height="22" rx="11" fill="#DADDE0"/>
<path d="M127.599 59.3636V60.7557H123.209V59.3636H127.599ZM124.293 57.5341H126.093V64.7031C126.093 64.9451 126.129 65.1307 126.202 65.2599C126.279 65.3859 126.378 65.4721 126.501 65.5185C126.623 65.5649 126.759 65.5881 126.908 65.5881C127.021 65.5881 127.124 65.5798 127.217 65.5632C127.313 65.5466 127.386 65.5317 127.435 65.5185L127.739 66.9254C127.642 66.9586 127.505 66.995 127.326 67.0348C127.15 67.0746 126.935 67.0978 126.68 67.1044C126.229 67.1177 125.823 67.0497 125.462 66.9006C125.1 66.7481 124.814 66.5128 124.602 66.1946C124.393 65.8764 124.29 65.4787 124.293 65.0014V57.5341ZM131.983 67.1491C131.218 67.1491 130.556 66.9901 130 66.6719C129.446 66.3504 129.02 65.8963 128.722 65.3097C128.424 64.7197 128.274 64.0253 128.274 63.2266C128.274 62.4411 128.424 61.7517 128.722 61.1584C129.023 60.5618 129.444 60.0978 129.985 59.7663C130.525 59.4316 131.16 59.2642 131.889 59.2642C132.359 59.2642 132.803 59.3404 133.221 59.4929C133.642 59.642 134.013 59.8741 134.335 60.1889C134.66 60.5038 134.915 60.9048 135.1 61.392C135.286 61.8759 135.379 62.4527 135.379 63.1222V63.674H129.12V62.4609H133.654C133.65 62.1162 133.576 61.8097 133.43 61.5412C133.284 61.2694 133.08 61.0556 132.818 60.8999C132.56 60.7441 132.258 60.6662 131.914 60.6662C131.546 60.6662 131.223 60.7557 130.944 60.9347C130.666 61.1103 130.449 61.3423 130.293 61.6307C130.14 61.9157 130.062 62.2289 130.059 62.5703V63.6293C130.059 64.0734 130.14 64.4545 130.303 64.7727C130.465 65.0876 130.692 65.3295 130.984 65.4986C131.276 65.6643 131.617 65.7472 132.008 65.7472C132.27 65.7472 132.507 65.7107 132.719 65.6378C132.931 65.5616 133.115 65.4505 133.271 65.3047C133.427 65.1589 133.544 64.9782 133.624 64.7628L135.304 64.9517C135.198 65.3958 134.996 65.7836 134.698 66.1151C134.403 66.4432 134.025 66.6984 133.564 66.8807C133.103 67.0597 132.576 67.1491 131.983 67.1491ZM142.517 61.3821L140.876 61.5611C140.83 61.3954 140.749 61.2396 140.633 61.0938C140.52 60.9479 140.367 60.8303 140.175 60.7408C139.983 60.6513 139.748 60.6065 139.469 60.6065C139.095 60.6065 138.78 60.6877 138.525 60.8501C138.273 61.0125 138.148 61.223 138.152 61.4815C138.148 61.7036 138.23 61.8842 138.395 62.0234C138.564 62.1626 138.843 62.277 139.231 62.3665L140.533 62.6449C141.256 62.8007 141.793 63.0476 142.144 63.3857C142.499 63.7237 142.678 64.1662 142.681 64.7131C142.678 65.1937 142.537 65.6179 142.258 65.9858C141.983 66.3504 141.6 66.6354 141.11 66.8409C140.619 67.0464 140.056 67.1491 139.42 67.1491C138.485 67.1491 137.733 66.9536 137.162 66.5625C136.592 66.1681 136.253 65.6196 136.143 64.9169L137.898 64.7479C137.978 65.0926 138.147 65.3527 138.405 65.5284C138.664 65.7041 139 65.7919 139.415 65.7919C139.842 65.7919 140.185 65.7041 140.444 65.5284C140.706 65.3527 140.836 65.1357 140.836 64.8771C140.836 64.6584 140.752 64.4777 140.583 64.3352C140.417 64.1927 140.159 64.0833 139.807 64.0071L138.505 63.7337C137.772 63.5812 137.23 63.3243 136.879 62.9631C136.528 62.5985 136.354 62.1378 136.357 61.581C136.354 61.1103 136.481 60.7027 136.74 60.358C137.002 60.0099 137.365 59.7415 137.829 59.5526C138.296 59.3603 138.835 59.2642 139.444 59.2642C140.339 59.2642 141.044 59.4548 141.557 59.8359C142.074 60.2171 142.394 60.7325 142.517 61.3821ZM147.558 59.3636V60.7557H143.168V59.3636H147.558ZM144.252 57.5341H146.052V64.7031C146.052 64.9451 146.088 65.1307 146.161 65.2599C146.237 65.3859 146.337 65.4721 146.459 65.5185C146.582 65.5649 146.718 65.5881 146.867 65.5881C146.98 65.5881 147.083 65.5798 147.175 65.5632C147.271 65.5466 147.344 65.5317 147.394 65.5185L147.697 66.9254C147.601 66.9586 147.464 66.995 147.285 67.0348C147.109 67.0746 146.894 67.0978 146.638 67.1044C146.188 67.1177 145.782 67.0497 145.42 66.9006C145.059 66.7481 144.772 66.5128 144.56 66.1946C144.351 65.8764 144.249 65.4787 144.252 65.0014V57.5341Z" fill="#939397"/>
<rect x="164.5" y="51" width="30" height="22" rx="11" fill="#DADDE0"/>
<path d="M180.078 56.8182H181.922V63.4702C181.922 64.1993 181.75 64.8407 181.405 65.3942C181.064 65.9477 180.583 66.3802 179.964 66.6918C179.344 67 178.62 67.1541 177.791 67.1541C176.959 67.1541 176.233 67 175.613 66.6918C174.994 66.3802 174.513 65.9477 174.172 65.3942C173.83 64.8407 173.66 64.1993 173.66 63.4702V56.8182H175.504V63.3161C175.504 63.7403 175.597 64.1181 175.782 64.4496C175.971 64.781 176.237 65.0412 176.578 65.2301C176.919 65.4157 177.324 65.5085 177.791 65.5085C178.258 65.5085 178.663 65.4157 179.004 65.2301C179.349 65.0412 179.614 64.781 179.799 64.4496C179.985 64.1181 180.078 63.7403 180.078 63.3161V56.8182ZM185.352 56.8182V67H183.507V56.8182H185.352Z" fill="#939397"/>
<rect x="202.5" y="51" width="63" height="22" rx="11" fill="#DADDE0"/>
<path d="M213.498 62.5256V67H211.698V59.3636H213.419V60.6612H213.508C213.684 60.2337 213.964 59.8939 214.348 59.642C214.736 59.3902 215.215 59.2642 215.785 59.2642C216.312 59.2642 216.771 59.3769 217.162 59.6023C217.557 59.8277 217.862 60.1541 218.077 60.5817C218.296 61.0092 218.403 61.5279 218.4 62.1378V67H216.6V62.4162C216.6 61.9058 216.468 61.5064 216.203 61.218C215.941 60.9297 215.578 60.7855 215.114 60.7855C214.799 60.7855 214.519 60.8551 214.274 60.9943C214.032 61.1302 213.841 61.3274 213.702 61.5859C213.566 61.8445 213.498 62.1577 213.498 62.5256ZM223.141 67.1491C222.395 67.1491 221.749 66.9851 221.202 66.657C220.655 66.3288 220.231 65.8698 219.929 65.2798C219.631 64.6899 219.482 64.0005 219.482 63.2116C219.482 62.4228 219.631 61.7318 219.929 61.1385C220.231 60.5452 220.655 60.0845 221.202 59.7564C221.749 59.4283 222.395 59.2642 223.141 59.2642C223.886 59.2642 224.533 59.4283 225.08 59.7564C225.626 60.0845 226.049 60.5452 226.347 61.1385C226.649 61.7318 226.8 62.4228 226.8 63.2116C226.8 64.0005 226.649 64.6899 226.347 65.2798C226.049 65.8698 225.626 66.3288 225.08 66.657C224.533 66.9851 223.886 67.1491 223.141 67.1491ZM223.151 65.7074C223.555 65.7074 223.893 65.5964 224.165 65.3743C224.437 65.1489 224.639 64.8473 224.771 64.4695C224.907 64.0916 224.975 63.6707 224.975 63.2067C224.975 62.7393 224.907 62.3168 224.771 61.9389C224.639 61.5578 224.437 61.2545 224.165 61.0291C223.893 60.8037 223.555 60.6911 223.151 60.6911C222.736 60.6911 222.392 60.8037 222.116 61.0291C221.845 61.2545 221.641 61.5578 221.505 61.9389C221.372 62.3168 221.306 62.7393 221.306 63.2067C221.306 63.6707 221.372 64.0916 221.505 64.4695C221.641 64.8473 221.845 65.1489 222.116 65.3743C222.392 65.5964 222.736 65.7074 223.151 65.7074ZM230.741 67.1342C230.141 67.1342 229.604 66.9801 229.13 66.6719C228.656 66.3636 228.282 65.9162 228.007 65.3295C227.732 64.7429 227.594 64.0303 227.594 63.1918C227.594 62.3433 227.733 61.6274 228.012 61.044C228.293 60.4574 228.673 60.0149 229.15 59.7166C229.627 59.415 230.159 59.2642 230.746 59.2642C231.193 59.2642 231.561 59.3404 231.85 59.4929C232.138 59.642 232.367 59.8227 232.536 60.0348C232.705 60.2436 232.836 60.4408 232.929 60.6264H233.003V56.8182H234.808V67H233.038V65.7969H232.929C232.836 65.9825 232.701 66.1797 232.526 66.3885C232.35 66.594 232.118 66.7696 231.83 66.9155C231.541 67.0613 231.179 67.1342 230.741 67.1342ZM231.243 65.6577C231.624 65.6577 231.949 65.5549 232.218 65.3494C232.486 65.1406 232.69 64.8506 232.829 64.4794C232.968 64.1082 233.038 63.6757 233.038 63.1818C233.038 62.688 232.968 62.2588 232.829 61.8942C232.693 61.5296 232.491 61.2462 232.223 61.044C231.957 60.8419 231.631 60.7408 231.243 60.7408C230.842 60.7408 230.507 60.8452 230.239 61.054C229.97 61.2628 229.768 61.5511 229.632 61.919C229.496 62.2869 229.429 62.7079 229.429 63.1818C229.429 63.6591 229.496 64.085 229.632 64.4595C229.772 64.8307 229.975 65.1241 230.244 65.3395C230.516 65.5516 230.849 65.6577 231.243 65.6577ZM239.686 67.1491C238.921 67.1491 238.259 66.9901 237.703 66.6719C237.149 66.3504 236.723 65.8963 236.425 65.3097C236.127 64.7197 235.977 64.0253 235.977 63.2266C235.977 62.4411 236.127 61.7517 236.425 61.1584C236.727 60.5618 237.147 60.0978 237.688 59.7663C238.228 59.4316 238.863 59.2642 239.592 59.2642C240.062 59.2642 240.507 59.3404 240.924 59.4929C241.345 59.642 241.716 59.8741 242.038 60.1889C242.363 60.5038 242.618 60.9048 242.803 61.392C242.989 61.8759 243.082 62.4527 243.082 63.1222V63.674H236.823V62.4609H241.357C241.353 62.1162 241.279 61.8097 241.133 61.5412C240.987 61.2694 240.783 61.0556 240.521 60.8999C240.263 60.7441 239.961 60.6662 239.617 60.6662C239.249 60.6662 238.926 60.7557 238.647 60.9347C238.369 61.1103 238.152 61.3423 237.996 61.6307C237.843 61.9157 237.766 62.2289 237.762 62.5703V63.6293C237.762 64.0734 237.843 64.4545 238.006 64.7727C238.168 65.0876 238.395 65.3295 238.687 65.4986C238.979 65.6643 239.32 65.7472 239.711 65.7472C239.973 65.7472 240.21 65.7107 240.422 65.6378C240.634 65.5616 240.818 65.4505 240.974 65.3047C241.13 65.1589 241.247 64.9782 241.327 64.7628L243.007 64.9517C242.901 65.3958 242.699 65.7836 242.401 66.1151C242.106 66.4432 241.728 66.6984 241.267 66.8807C240.807 67.0597 240.28 67.1491 239.686 67.1491ZM247.237 59.3636H249.037V67.4375C249.037 67.9877 248.932 68.4418 248.724 68.7997C248.515 69.1577 248.213 69.4245 247.819 69.6001C247.424 69.7758 246.945 69.8636 246.382 69.8636C246.316 69.8636 246.254 69.862 246.198 69.8587C246.142 69.8587 246.08 69.857 246.014 69.8537V68.3871C246.064 68.3904 246.109 68.392 246.148 68.392C246.188 68.3954 246.229 68.397 246.273 68.397C246.617 68.397 246.864 68.3125 247.013 68.1435C247.162 67.9777 247.237 67.7341 247.237 67.4126V59.3636ZM248.132 58.2798C247.844 58.2798 247.597 58.1854 247.391 57.9964C247.189 57.8042 247.088 57.5739 247.088 57.3054C247.088 57.0336 247.189 56.8033 247.391 56.6143C247.597 56.4221 247.844 56.326 248.132 56.326C248.417 56.326 248.661 56.4221 248.863 56.6143C249.068 56.8033 249.171 57.0336 249.171 57.3054C249.171 57.5739 249.068 57.8042 248.863 57.9964C248.661 58.1854 248.417 58.2798 248.132 58.2798ZM256.503 61.3821L254.862 61.5611C254.816 61.3954 254.735 61.2396 254.619 61.0938C254.506 60.9479 254.354 60.8303 254.161 60.7408C253.969 60.6513 253.734 60.6065 253.455 60.6065C253.081 60.6065 252.766 60.6877 252.511 60.8501C252.259 61.0125 252.135 61.223 252.138 61.4815C252.135 61.7036 252.216 61.8842 252.382 62.0234C252.551 62.1626 252.829 62.277 253.217 62.3665L254.519 62.6449C255.242 62.8007 255.779 63.0476 256.13 63.3857C256.485 63.7237 256.664 64.1662 256.667 64.7131C256.664 65.1937 256.523 65.6179 256.244 65.9858C255.969 66.3504 255.587 66.6354 255.096 66.8409C254.605 67.0464 254.042 67.1491 253.406 67.1491C252.471 67.1491 251.719 66.9536 251.149 66.5625C250.578 66.1681 250.239 65.6196 250.129 64.9169L251.884 64.7479C251.964 65.0926 252.133 65.3527 252.391 65.5284C252.65 65.7041 252.986 65.7919 253.401 65.7919C253.828 65.7919 254.171 65.7041 254.43 65.5284C254.692 65.3527 254.823 65.1357 254.823 64.8771C254.823 64.6584 254.738 64.4777 254.569 64.3352C254.403 64.1927 254.145 64.0833 253.793 64.0071L252.491 63.7337C251.758 63.5812 251.217 63.3243 250.865 62.9631C250.514 62.5985 250.34 62.1378 250.343 61.581C250.34 61.1103 250.467 60.7027 250.726 60.358C250.988 60.0099 251.351 59.7415 251.815 59.5526C252.282 59.3603 252.821 59.2642 253.431 59.2642C254.325 59.2642 255.03 59.4548 255.543 59.8359C256.06 60.2171 256.38 60.7325 256.503 61.3821Z" fill="#939397"/>
<rect x="273.5" y="51" width="88" height="22" rx="11" fill="#DADDE0"/>
<path d="M284.399 56.8182V67H282.599V56.8182H284.399ZM285.829 67V59.3636H287.629V67H285.829ZM286.734 58.2798C286.449 58.2798 286.204 58.1854 285.998 57.9964C285.793 57.8042 285.69 57.5739 285.69 57.3054C285.69 57.0336 285.793 56.8033 285.998 56.6143C286.204 56.4221 286.449 56.326 286.734 56.326C287.023 56.326 287.268 56.4221 287.47 56.6143C287.675 56.8033 287.778 57.0336 287.778 57.3054C287.778 57.5739 287.675 57.8042 287.47 57.9964C287.268 58.1854 287.023 58.2798 286.734 58.2798ZM292.391 67.1491C291.628 67.1491 290.974 66.9818 290.427 66.647C289.883 66.3123 289.464 65.8499 289.169 65.2599C288.877 64.6667 288.732 63.9839 288.732 63.2116C288.732 62.4361 288.881 61.7517 289.179 61.1584C289.477 60.5618 289.898 60.0978 290.442 59.7663C290.989 59.4316 291.635 59.2642 292.381 59.2642C293.001 59.2642 293.549 59.3786 294.026 59.6072C294.507 59.8326 294.89 60.1525 295.175 60.5668C295.46 60.9777 295.622 61.4583 295.662 62.0085H293.942C293.872 61.6406 293.706 61.334 293.445 61.0888C293.186 60.8402 292.84 60.7159 292.406 60.7159C292.038 60.7159 291.715 60.8153 291.436 61.0142C291.158 61.2098 290.941 61.4915 290.785 61.8594C290.632 62.2273 290.556 62.6681 290.556 63.1818C290.556 63.7022 290.632 64.1496 290.785 64.5241C290.937 64.8954 291.151 65.1821 291.426 65.3842C291.705 65.5831 292.031 65.6825 292.406 65.6825C292.671 65.6825 292.908 65.6328 293.117 65.5334C293.329 65.4306 293.506 65.2831 293.648 65.0909C293.791 64.8987 293.889 64.665 293.942 64.3899H295.662C295.619 64.9302 295.46 65.4091 295.185 65.8267C294.91 66.241 294.535 66.5658 294.061 66.8011C293.587 67.0331 293.03 67.1491 292.391 67.1491ZM300.1 67.1491C299.335 67.1491 298.674 66.9901 298.117 66.6719C297.563 66.3504 297.137 65.8963 296.839 65.3097C296.541 64.7197 296.392 64.0253 296.392 63.2266C296.392 62.4411 296.541 61.7517 296.839 61.1584C297.141 60.5618 297.562 60.0978 298.102 59.7663C298.642 59.4316 299.277 59.2642 300.006 59.2642C300.477 59.2642 300.921 59.3404 301.338 59.4929C301.759 59.642 302.131 59.8741 302.452 60.1889C302.777 60.5038 303.032 60.9048 303.218 61.392C303.403 61.8759 303.496 62.4527 303.496 63.1222V63.674H297.237V62.4609H301.771C301.768 62.1162 301.693 61.8097 301.547 61.5412C301.401 61.2694 301.198 61.0556 300.936 60.8999C300.677 60.7441 300.376 60.6662 300.031 60.6662C299.663 60.6662 299.34 60.7557 299.061 60.9347C298.783 61.1103 298.566 61.3423 298.41 61.6307C298.258 61.9157 298.18 62.2289 298.176 62.5703V63.6293C298.176 64.0734 298.258 64.4545 298.42 64.7727C298.582 65.0876 298.81 65.3295 299.101 65.4986C299.393 65.6643 299.734 65.7472 300.125 65.7472C300.387 65.7472 300.624 65.7107 300.836 65.6378C301.048 65.5616 301.232 65.4505 301.388 65.3047C301.544 65.1589 301.662 64.9782 301.741 64.7628L303.421 64.9517C303.315 65.3958 303.113 65.7836 302.815 66.1151C302.52 66.4432 302.142 66.6984 301.681 66.8807C301.221 67.0597 300.694 67.1491 300.1 67.1491ZM306.398 62.5256V67H304.599V59.3636H306.319V60.6612H306.408C306.584 60.2337 306.864 59.8939 307.248 59.642C307.636 59.3902 308.115 59.2642 308.685 59.2642C309.212 59.2642 309.671 59.3769 310.062 59.6023C310.457 59.8277 310.762 60.1541 310.977 60.5817C311.196 61.0092 311.304 61.5279 311.3 62.1378V67H309.501V62.4162C309.501 61.9058 309.368 61.5064 309.103 61.218C308.841 60.9297 308.478 60.7855 308.014 60.7855C307.699 60.7855 307.419 60.8551 307.174 60.9943C306.932 61.1302 306.741 61.3274 306.602 61.5859C306.466 61.8445 306.398 62.1577 306.398 62.5256ZM318.745 61.3821L317.105 61.5611C317.058 61.3954 316.977 61.2396 316.861 61.0938C316.748 60.9479 316.596 60.8303 316.404 60.7408C316.212 60.6513 315.976 60.6065 315.698 60.6065C315.323 60.6065 315.008 60.6877 314.753 60.8501C314.501 61.0125 314.377 61.223 314.38 61.4815C314.377 61.7036 314.458 61.8842 314.624 62.0234C314.793 62.1626 315.071 62.277 315.459 62.3665L316.762 62.6449C317.484 62.8007 318.021 63.0476 318.373 63.3857C318.727 63.7237 318.906 64.1662 318.909 64.7131C318.906 65.1937 318.765 65.6179 318.487 65.9858C318.212 66.3504 317.829 66.6354 317.338 66.8409C316.848 67.0464 316.284 67.1491 315.648 67.1491C314.713 67.1491 313.961 66.9536 313.391 66.5625C312.821 66.1681 312.481 65.6196 312.372 64.9169L314.127 64.7479C314.206 65.0926 314.375 65.3527 314.634 65.5284C314.892 65.7041 315.229 65.7919 315.643 65.7919C316.071 65.7919 316.414 65.7041 316.672 65.5284C316.934 65.3527 317.065 65.1357 317.065 64.8771C317.065 64.6584 316.98 64.4777 316.811 64.3352C316.646 64.1927 316.387 64.0833 316.036 64.0071L314.733 63.7337C314.001 63.5812 313.459 63.3243 313.108 62.9631C312.756 62.5985 312.582 62.1378 312.586 61.581C312.582 61.1103 312.71 60.7027 312.968 60.358C313.23 60.0099 313.593 59.7415 314.057 59.5526C314.525 59.3603 315.063 59.2642 315.673 59.2642C316.568 59.2642 317.272 59.4548 317.786 59.8359C318.303 60.2171 318.623 60.7325 318.745 61.3821ZM323.354 67.1491C322.589 67.1491 321.927 66.9901 321.37 66.6719C320.817 66.3504 320.391 65.8963 320.093 65.3097C319.794 64.7197 319.645 64.0253 319.645 63.2266C319.645 62.4411 319.794 61.7517 320.093 61.1584C320.394 60.5618 320.815 60.0978 321.356 59.7663C321.896 59.4316 322.531 59.2642 323.26 59.2642C323.73 59.2642 324.174 59.3404 324.592 59.4929C325.013 59.642 325.384 59.8741 325.706 60.1889C326.031 60.5038 326.286 60.9048 326.471 61.392C326.657 61.8759 326.75 62.4527 326.75 63.1222V63.674H320.491V62.4609H325.025C325.021 62.1162 324.947 61.8097 324.801 61.5412C324.655 61.2694 324.451 61.0556 324.189 60.8999C323.931 60.7441 323.629 60.6662 323.285 60.6662C322.917 60.6662 322.593 60.7557 322.315 60.9347C322.037 61.1103 321.82 61.3423 321.664 61.6307C321.511 61.9157 321.433 62.2289 321.43 62.5703V63.6293C321.43 64.0734 321.511 64.4545 321.674 64.7727C321.836 65.0876 322.063 65.3295 322.355 65.4986C322.647 65.6643 322.988 65.7472 323.379 65.7472C323.641 65.7472 323.878 65.7107 324.09 65.6378C324.302 65.5616 324.486 65.4505 324.642 65.3047C324.798 65.1589 324.915 64.9782 324.995 64.7628L326.675 64.9517C326.569 65.3958 326.367 65.7836 326.069 66.1151C325.774 66.4432 325.396 66.6984 324.935 66.8807C324.474 67.0597 323.947 67.1491 323.354 67.1491ZM334.286 67.1491C333.52 67.1491 332.859 66.9901 332.302 66.6719C331.748 66.3504 331.323 65.8963 331.024 65.3097C330.726 64.7197 330.577 64.0253 330.577 63.2266C330.577 62.4411 330.726 61.7517 331.024 61.1584C331.326 60.5618 331.747 60.0978 332.287 59.7663C332.827 59.4316 333.462 59.2642 334.191 59.2642C334.662 59.2642 335.106 59.3404 335.524 59.4929C335.944 59.642 336.316 59.8741 336.637 60.1889C336.962 60.5038 337.217 60.9048 337.403 61.392C337.588 61.8759 337.681 62.4527 337.681 63.1222V63.674H331.422V62.4609H335.956C335.953 62.1162 335.878 61.8097 335.732 61.5412C335.587 61.2694 335.383 61.0556 335.121 60.8999C334.862 60.7441 334.561 60.6662 334.216 60.6662C333.848 60.6662 333.525 60.7557 333.247 60.9347C332.968 61.1103 332.751 61.3423 332.595 61.6307C332.443 61.9157 332.365 62.2289 332.362 62.5703V63.6293C332.362 64.0734 332.443 64.4545 332.605 64.7727C332.768 65.0876 332.995 65.3295 333.286 65.4986C333.578 65.6643 333.919 65.7472 334.31 65.7472C334.572 65.7472 334.809 65.7107 335.021 65.6378C335.234 65.5616 335.417 65.4505 335.573 65.3047C335.729 65.1589 335.847 64.9782 335.926 64.7628L337.607 64.9517C337.501 65.3958 337.298 65.7836 337 66.1151C336.705 66.4432 336.327 66.6984 335.867 66.8807C335.406 67.0597 334.879 67.1491 334.286 67.1491ZM339.684 69.8636C339.438 69.8636 339.211 69.8438 339.003 69.804C338.797 69.7675 338.633 69.7244 338.51 69.6747L338.928 68.2727C339.19 68.349 339.423 68.3854 339.629 68.3821C339.834 68.3788 340.015 68.3142 340.171 68.1882C340.33 68.0656 340.464 67.8601 340.574 67.5717L340.728 67.1591L337.958 59.3636H339.868L341.628 65.1307H341.707L343.472 59.3636H345.386L342.329 67.9247C342.186 68.3291 341.997 68.6754 341.762 68.9638C341.526 69.2554 341.238 69.4775 340.897 69.63C340.559 69.7857 340.154 69.8636 339.684 69.8636ZM349.332 67.1491C348.567 67.1491 347.906 66.9901 347.349 66.6719C346.795 66.3504 346.369 65.8963 346.071 65.3097C345.773 64.7197 345.624 64.0253 345.624 63.2266C345.624 62.4411 345.773 61.7517 346.071 61.1584C346.373 60.5618 346.794 60.0978 347.334 59.7663C347.874 59.4316 348.509 59.2642 349.238 59.2642C349.709 59.2642 350.153 59.3404 350.57 59.4929C350.991 59.642 351.362 59.8741 351.684 60.1889C352.009 60.5038 352.264 60.9048 352.45 61.392C352.635 61.8759 352.728 62.4527 352.728 63.1222V63.674H346.469V62.4609H351.003C350.999 62.1162 350.925 61.8097 350.779 61.5412C350.633 61.2694 350.429 61.0556 350.168 60.8999C349.909 60.7441 349.607 60.6662 349.263 60.6662C348.895 60.6662 348.572 60.7557 348.293 60.9347C348.015 61.1103 347.798 61.3423 347.642 61.6307C347.49 61.9157 347.412 62.2289 347.408 62.5703V63.6293C347.408 64.0734 347.49 64.4545 347.652 64.7727C347.814 65.0876 348.041 65.3295 348.333 65.4986C348.625 65.6643 348.966 65.7472 349.357 65.7472C349.619 65.7472 349.856 65.7107 350.068 65.6378C350.28 65.5616 350.464 65.4505 350.62 65.3047C350.776 65.1589 350.893 64.9782 350.973 64.7628L352.653 64.9517C352.547 65.3958 352.345 65.7836 352.047 66.1151C351.752 66.4432 351.374 66.6984 350.913 66.8807C350.453 67.0597 349.926 67.1491 349.332 67.1491Z" fill="#939397"/>
</g>
<defs>
<clipPath id="clip0_93_60">
<rect width="303" height="96" rx="8" fill="white"/>
</clipPath>
</defs>
</svg>
