<svg xmlns="http://www.w3.org/2000/svg" width="459" height="251" viewBox="352 413 459 251"><defs><marker id="a" stroke-linejoin="miter" stroke-miterlimit="10" color="#000" markerHeight="8" markerUnits="strokeWidth" markerWidth="10" orient="auto" overflow="visible" viewBox="-1 -4 10 8"><path fill="currentColor" stroke="currentColor" d="M8 0 0-3v6Z"/></marker></defs><g fill="none"><path fill="#fff" d="M352 413h459v251H352z"/><path fill="#fff" d="M352.913 413.858h457.795v250H352.913z"/><path fill="#fff" d="M379.008 513.108h102v51.5h-102z"/><path stroke="gray" stroke-linecap="round" stroke-linejoin="round" d="M379.008 513.108h102v51.5h-102z"/><text fill="#000" transform="translate(384.008 529.126)">
          <tspan x="2.92" y="16" font-family="Helvetica Neue" font-size="16" font-weight="700">Application</tspan>
        </text><path fill="#fff" d="M533.508 513.108h102v51.5h-102z"/><path stroke="gray" stroke-linecap="round" stroke-linejoin="round" d="M533.508 513.108h102v51.5h-102z"/><text fill="#000" transform="translate(538.508 519.394)">
          <tspan x="31.176" y="16" font-family="Helvetica Neue" font-size="16" font-weight="700">TLS</tspan>
          <tspan x="19.336" y="35.464" font-family="Helvetica Neue" font-size="16" font-weight="700">Library</tspan>
        </text><path fill="#fff" d="M688.008 513.108h102v51.5h-102z"/><path stroke="gray" stroke-linecap="round" stroke-linejoin="round" d="M688.008 513.108h102v51.5h-102z"/><text fill="#000" transform="translate(693.008 529.126)">
          <tspan x="10.008" y="16" font-family="Helvetica Neue" font-size="16" font-weight="700">Linux API</tspan>
        </text><path fill="#fff" d="M651.758 413.858h20v16h-20zm0 234h20v16h-20z"/><path stroke="#000" stroke-dasharray="4.0,4.0" stroke-linecap="round" stroke-linejoin="round" d="M661.758 429.858v218"/><text fill="#000" transform="translate(384.008 438.108)">
          <tspan x="0" y="16" font-family="Helvetica Neue" font-size="16" font-weight="700">User Space</tspan>
        </text><text fill="#000" transform="translate(682.8 438.108)">
          <tspan x="0" y="16" font-family="Helvetica Neue" font-size="16" font-weight="700">Kernel Space</tspan>
        </text><path stroke="#000" stroke-linecap="round" stroke-linejoin="round" marker-end="url(#a)" d="M481.008 538.858h42.6"/><path stroke="#000" stroke-linecap="round" stroke-linejoin="round" marker-end="url(#a)" d="M635.508 538.858h42.6"/></g></svg>