<svg xmlns="http://www.w3.org/2000/svg" width="800" height="60" fill="none" viewBox="0 0 800 60"><path fill="#3987CD" fill-rule="evenodd" d="M-12 21.75c0-.966.784-1.75 1.75-1.75H.25c.966 0 1.75.784 1.75 1.75v17.5a.75.75 0 0 1-1.218.586L-5 35.21l-5.781 4.625A.75.75 0 0 1-12 39.25v-17.5Zm1.75-.25a.25.25 0 0 0-.25.25v15.94l5.031-4.026a.75.75 0 0 1 .938 0L.5 37.69V21.75a.25.25 0 0 0-.25-.25h-10.5Zm54.97-3.28a.75.75 0 0 1 1.06 0l1.204 1.203A4.982 4.982 0 0 1 49 19c.717 0 1.4.151 2.016.423l1.204-1.203a.75.75 0 0 1 1.06 1.06l-.971.972A4.987 4.987 0 0 1 54 24v1.104a2.755 2.755 0 0 1 1.917 1.974l1.998-.999a.75.75 0 0 1 .67 1.342L56 28.714V31.5l3.25.003a.75.75 0 1 1 0 1.5L56 33.001v1c0 .567-.068 1.133-.204 1.685a.752.752 0 0 1 .04.018l2.75 1.375a.749.749 0 1 1-.671 1.342l-2.638-1.319a7 7 0 0 1-9.897 2.89 7 7 0 0 1-2.577-2.734l-2.758 1.181a.751.751 0 0 1-1.011-.97.75.75 0 0 1 .421-.408l2.795-1.199A7.01 7.01 0 0 1 42 34v-.996h-3.25a.75.75 0 1 1 0-1.5H42v-2.79l-2.585-1.294a.75.75 0 0 1 .67-1.342l1.998 1A2.755 2.755 0 0 1 44 25.103V24a4.989 4.989 0 0 1 1.69-3.748l-.97-.972a.75.75 0 0 1 0-1.06ZM45.5 25h7v-1a3.5 3.5 0 1 0-7 0v1Zm-2 3.266v-.516c0-.69.56-1.25 1.25-1.25h8.5c.69 0 1.25.56 1.25 1.25V34a5.5 5.5 0 0 1-11 0v-5.734Z" clip-rule="evenodd"/><path fill="#3987CD" d="M108.28 27.28a.754.754 0 0 0-.019-1.042.748.748 0 0 0-1.041-.018l-5.97 5.97-2.47-2.47a.75.75 0 0 0-1.06 1.06l3 3a.749.749 0 0 0 1.06 0l6.5-6.5Z"/><path fill="#3987CD" fill-rule="evenodd" d="M103 19c-6.075 0-11 4.925-11 11s4.925 11 11 11 11-4.925 11-11-4.925-11-11-11Zm-9.5 11a9.5 9.5 0 1 1 19 0 9.5 9.5 0 0 1-19 0Z" clip-rule="evenodd"/><path fill="#3987CD" d="M155.3 26.24a.744.744 0 0 1 .2.538.758.758 0 0 1-.24.522l-2.908 2.7 2.908 2.7a.753.753 0 0 1 .24.522.75.75 0 0 1-1.26.578l-3.5-3.25a.74.74 0 0 1-.24-.55.74.74 0 0 1 .24-.55l3.5-3.25a.75.75 0 0 1 1.06.04Zm3.44 1.06a.738.738 0 0 1-.239-.522.749.749 0 0 1 1.259-.578l3.5 3.25a.758.758 0 0 1 .24.55.755.755 0 0 1-.24.55l-3.5 3.25a.75.75 0 1 1-1.02-1.1l2.908-2.7-2.908-2.7Z"/><path fill="#3987CD" fill-rule="evenodd" d="M147 21.75c0-.966.784-1.75 1.75-1.75h16.5c.966 0 1.75.784 1.75 1.75v16.5a1.747 1.747 0 0 1-1.75 1.75h-16.5a1.749 1.749 0 0 1-1.75-1.75v-16.5Zm1.75-.25a.251.251 0 0 0-.25.25v16.5c0 .138.112.25.25.25h16.5a.251.251 0 0 0 .25-.25v-16.5a.25.25 0 0 0-.25-.25h-16.5Z" clip-rule="evenodd"/><g fill="#3987CD" clip-path="url(#a)"><path fill-rule="evenodd" d="M200.75 19a1.749 1.749 0 0 0-1.75 1.75v9.5c0 .966.784 1.75 1.75 1.75H202v1.543a1.457 1.457 0 0 0 2.487 1.03L207.061 32h6.189a1.749 1.749 0 0 0 1.75-1.75v-9.5a1.747 1.747 0 0 0-1.75-1.75h-12.5Zm-.25 1.75a.25.25 0 0 1 .25-.25h12.5a.251.251 0 0 1 .25.25v9.5a.25.25 0 0 1-.25.25h-6.5a.75.75 0 0 0-.53.22l-2.72 2.72v-2.19a.749.749 0 0 0-.75-.75h-2a.251.251 0 0 1-.25-.25v-9.5Z" clip-rule="evenodd"/><path d="M221.5 26.75a.25.25 0 0 0-.25-.25h-3.5a.748.748 0 0 1-.75-.75.749.749 0 0 1 .75-.75h3.5c.966 0 1.75.784 1.75 1.75v9.5a1.747 1.747 0 0 1-1.75 1.75H220v1.543a1.457 1.457 0 0 1-2.487 1.03L214.939 38h-5.189a1.749 1.749 0 0 1-1.75-1.75v-1.465a.749.749 0 0 1 1.28-.53c.141.14.22.331.22.53v1.465c0 .138.112.25.25.25h5.5a.75.75 0 0 1 .53.22l2.72 2.72v-2.19a.749.749 0 0 1 .75-.75h2a.251.251 0 0 0 .25-.25v-9.5Z"/></g><path fill="#3987CD" d="M264.97 24.97a.751.751 0 0 0 0 1.06l2.47 2.47-2.47 2.47a.757.757 0 0 0-.184.83.757.757 0 0 0 .415.414.749.749 0 0 0 .829-.184l3-3a.749.749 0 0 0 0-1.06l-3-3a.748.748 0 0 0-1.06 0Zm-2.94 1.06a.75.75 0 0 0-1.06-1.06l-3 3a.751.751 0 0 0 0 1.06l3 3a.75.75 0 0 0 1.06-1.06l-2.47-2.47 2.47-2.47Z"/><path fill="#3987CD" fill-rule="evenodd" d="M263.5 18c-5.799 0-10.5 4.701-10.5 10.5S257.701 39 263.5 39c2.63 0 5.033-.967 6.875-2.564l4.345 4.344a.752.752 0 0 0 1.079.019.757.757 0 0 0 .22-.544.754.754 0 0 0-.239-.535l-4.344-4.345A10.456 10.456 0 0 0 274 28.5c0-5.799-4.701-10.5-10.5-10.5Zm-9 10.5a9.006 9.006 0 0 1 2.636-6.364 9.003 9.003 0 0 1 12.728 0A8.992 8.992 0 0 1 272.5 28.5a9 9 0 1 1-18 0Zm65.652-9.818a2.25 2.25 0 0 1 2.269 0l.007.004 6.957 4.276a2.278 2.278 0 0 1 1.126 1.964v7.516c0 .81-.432 1.56-1.133 1.968l-.002.001-11.964 7.037-.004.003a2.277 2.277 0 0 1-2.284 0l-.026-.015-6.503-4.502a2.264 2.264 0 0 1-1.096-1.943v-7.553c0-.392.1-.77.284-1.1l.003-.006.014-.026c.197-.342.48-.627.82-.827h.002l11.53-6.798v.001Zm.757 1.295h-.001l-11.26 6.639 6.248 4.247a.777.777 0 0 0 .758-.01h.001l11.633-6.804-6.629-4.074a.75.75 0 0 0-.75.003v-.001ZM325 27.709l-3.25 1.9v7.548l3.25-1.912v-7.536Zm1.5-.878v7.532l2.124-1.25a.774.774 0 0 0 .387-.671v-7.079l-2.511 1.468Zm-9.09 5.316 2.84-1.66v7.552l-3.233 1.902v-7.612c.134-.047.265-.107.391-.18l.002-.002Zm-1.893 7.754V32.33a2.293 2.293 0 0 1-.393-.18l-.023-.014-6.102-4.147v7.003c0 .275.145.528.379.664l.025.014 6.114 4.232v-.001Z" clip-rule="evenodd"/><path fill="#3987CD" d="M372.25 27.331V18.75A.752.752 0 0 1 373 18a.751.751 0 0 1 .75.75v8.58l1.949-2.11a.747.747 0 0 1 1.254.18.74.74 0 0 1 .012.587.76.76 0 0 1-.165.25l-3.25 3.52a.76.76 0 0 1-.551.241.749.749 0 0 1-.551-.241l-3.25-3.52a.742.742 0 0 1-.144-.832.736.736 0 0 1 .428-.395.748.748 0 0 1 .818.21l1.949 2.111h.001Z"/><path fill="#3987CD" fill-rule="evenodd" d="M363.5 21.75a.25.25 0 0 1 .25-.25h5.5a.752.752 0 0 0 .693-1.037.75.75 0 0 0-.693-.463h-5.5a1.749 1.749 0 0 0-1.75 1.75v11.5c0 .966.784 1.75 1.75 1.75h6.204c-.171 1.375-.805 2.652-1.77 3.757A.75.75 0 0 0 368.75 40h8.5a.75.75 0 0 0 .565-1.243c-.964-1.105-1.598-2.382-1.769-3.757h6.204a1.749 1.749 0 0 0 1.75-1.75v-11.5a1.747 1.747 0 0 0-1.75-1.75h-5.5a.748.748 0 0 0-.75.75.749.749 0 0 0 .75.75h5.5a.251.251 0 0 1 .25.25v11.5a.25.25 0 0 1-.25.25h-18.5a.251.251 0 0 1-.25-.25v-11.5ZM371.463 35c-.126 1.266-.564 2.445-1.223 3.5h5.52c-.66-1.055-1.098-2.234-1.223-3.5h-3.074Z" clip-rule="evenodd"/><path fill="#3987CD" d="M427.5 24.75a.749.749 0 0 0-1.28-.53.749.749 0 0 0-.22.53V27h-2.25a.748.748 0 0 0-.75.75.749.749 0 0 0 .75.75H426v2.25a.749.749 0 0 0 1.28.53.749.749 0 0 0 .22-.53V28.5h2.25a.748.748 0 0 0 .75-.75.749.749 0 0 0-.75-.75h-2.25v-2.25ZM423.75 34a.748.748 0 0 0-.75.75.749.749 0 0 0 .75.75h6a.748.748 0 0 0 .75-.75.749.749 0 0 0-.75-.75h-6Z"/><path fill="#3987CD" fill-rule="evenodd" d="M420 19a2 2 0 0 0-2 2v18a2 2 0 0 0 2 2h14a2 2 0 0 0 2-2V25.018a2 2 0 0 0-.586-1.414l-4.018-4.018a2 2 0 0 0-1.414-.586H420Zm-.5 2a.503.503 0 0 1 .5-.5h9.982a.502.502 0 0 1 .354.146l4.018 4.018a.504.504 0 0 1 .146.354V39a.503.503 0 0 1-.5.5h-14a.501.501 0 0 1-.5-.5V21Zm61.685 18.5c4.059 0 7.065-2.84 7.065-6.75 0-2.337-1.093-3.489-2.678-5.158l-.021-.023c-1.44-1.517-3.139-3.351-3.649-6.557a6.14 6.14 0 0 0-1.911 1.76c-.787 1.144-1.147 2.633-.216 4.495.603 1.205.777 2.74-.277 3.794-.657.657-1.762 1.1-2.956.586-.752-.324-1.353-.955-1.838-1.79-.567.706-.954 1.74-.954 2.893 0 3.847 3.288 6.75 7.435 6.75Zm2.08-19.873c-.017-.345-.296-.625-.632-.543-2.337.575-6.605 4.042-4.2 8.854.474.946.392 1.675.004 2.062-.64.64-1.874.684-2.875-1.815-.131-.327-.498-.509-.803-.334-1.547.888-2.509 2.86-2.509 4.899 0 4.829 4.122 8.25 8.935 8.25 4.812 0 8.565-3.438 8.565-8.25 0-2.939-1.466-4.482-3.006-6.102-1.61-1.694-3.479-3.476-3.479-7.021ZM528.75 39a1.749 1.749 0 1 1 0-3.498 1.749 1.749 0 0 1 0 3.498Zm-3.25-1.75a3.248 3.248 0 0 0 3.25 3.25 3.249 3.249 0 1 0 0-6.5 3.249 3.249 0 0 0-3.25 3.25Zm3.25-12.75a1.754 1.754 0 0 1-1.617-1.08 1.749 1.749 0 0 1 2.854-1.907 1.747 1.747 0 0 1 0 2.474 1.749 1.749 0 0 1-1.237.513Zm-3.25-1.75a3.248 3.248 0 0 0 3.25 3.25 3.249 3.249 0 1 0 0-6.5 3.249 3.249 0 0 0-3.25 3.25Zm15.75 1.75a1.754 1.754 0 0 1-1.617-1.08 1.749 1.749 0 0 1 2.854-1.907 1.747 1.747 0 0 1 0 2.474 1.749 1.749 0 0 1-1.237.513ZM538 22.75a3.248 3.248 0 0 0 3.25 3.25 3.249 3.249 0 1 0 0-6.5 3.249 3.249 0 0 0-3.25 3.25Z" clip-rule="evenodd"/><path fill="#3987CD" fill-rule="evenodd" d="M528.75 34.75a.748.748 0 0 0 .75-.75v-8a.749.749 0 0 0-1.28-.53.749.749 0 0 0-.22.53v8c0 .414.336.75.75.75Z" clip-rule="evenodd"/><path fill="#3987CD" fill-rule="evenodd" d="M540.5 26.75v-1h1.5v1a3.75 3.75 0 0 1-3.75 3.75h-7a1.749 1.749 0 0 0-1.75 1.75H528a3.248 3.248 0 0 1 3.25-3.25h7a2.25 2.25 0 0 0 2.25-2.25ZM583.736 22c-2.079 0-4.236 1.88-4.236 4.514 0 3.107 2.324 5.96 4.861 8.12a29.655 29.655 0 0 0 4.566 3.175l.073.041.073-.04c.271-.153.661-.38 1.13-.674.94-.588 2.19-1.441 3.436-2.502 2.537-2.16 4.861-5.013 4.861-8.12 0-2.634-2.157-4.514-4.236-4.514-2.106 0-3.801 1.389-4.553 3.643a.753.753 0 0 1-.711.511.752.752 0 0 1-.711-.511c-.752-2.254-2.448-3.643-4.553-3.643ZM589 38.703l.343.667a.75.75 0 0 1-.686 0l.343-.667Zm-11-12.19c0-3.46 2.829-6.013 5.736-6.013 2.294 0 4.145 1.226 5.264 3.105 1.12-1.879 2.97-3.105 5.264-3.105 2.906 0 5.736 2.552 5.736 6.014 0 3.818-2.801 7.06-5.389 9.262a31.16 31.16 0 0 1-5.233 3.576l-.025.013-.007.003-.002.001-.344-.666-.343.667-.003-.002-.007-.003-.025-.013a31.138 31.138 0 0 1-5.233-3.576C580.8 33.573 578 30.332 578 26.514v-.001Zm75-6.763a.743.743 0 0 0-.393-.66.75.75 0 0 0-.768.033c-.047.03-.094.057-.142.085-.16.092-.324.18-.49.262-.441.22-1.11.519-2.002.82-1.78.6-4.45 1.21-7.955 1.21h-3.75a5.498 5.498 0 0 0-4.609 8.508A5.498 5.498 0 0 0 636 32.293v.457c0 3.06.684 5.505 1.061 6.62.24.71.904 1.13 1.6 1.13h2.013c1.294 0 2.1-1.322 1.732-2.453-.412-1.268-.906-3.268-.906-5.547 0-.03-.002-.06-.005-.088 3.382.028 5.965.644 7.703 1.25.89.313 1.559.62 2 .85.084.043.171.096.261.15.357.214.757.455 1.142.25a.751.751 0 0 0 .399-.662v-14.5Zm-11.5 11.162c3.564.029 6.313.678 8.193 1.335.737.258 1.34.517 1.807.74V20.993c-.467.216-1.073.467-1.815.718-1.878.634-4.624 1.26-8.185 1.288v7.913Zm-4 1.838v-.25h2.5c0 2.486.537 4.648.98 6.01a.397.397 0 0 1-.057.343c-.07.104-.162.147-.249.147h-2.013c-.105 0-.161-.058-.179-.11-.344-1.017-.982-3.293-.982-6.14Zm0-9.75h2.5v8h-2.5a4 4 0 0 1 0-8Zm59.25-4a.748.748 0 0 1 .75.75V22h6.532c.42 0 .826.15 1.143.425l3.187 2.75a1.76 1.76 0 0 1 .607 1.325 1.746 1.746 0 0 1-.607 1.325l-3.187 2.75a1.75 1.75 0 0 1-1.143.425H697.5v9.25a.749.749 0 0 1-1.28.53.749.749 0 0 1-.22-.53V31h-7.25a1.749 1.749 0 0 1-1.75-1.75v-5.5c0-.967.784-1.75 1.75-1.75H696v-2.25a.749.749 0 0 1 .75-.75Zm0 4.5h7.282c.06 0 .118.021.163.06l3.188 2.75a.252.252 0 0 1 .065.295.27.27 0 0 1-.065.085l-3.188 2.75a.249.249 0 0 1-.163.06H688.75a.251.251 0 0 1-.25-.25v-5.5a.25.25 0 0 1 .25-.25h8Z" clip-rule="evenodd"/><path fill="#3987CD" d="M755.53 27.78a.754.754 0 0 0-.019-1.042.748.748 0 0 0-1.041-.018L750 31.19l-1.97-1.97a.75.75 0 0 0-1.06 1.06l2.5 2.5a.749.749 0 0 0 1.06 0l5-5Z"/><path fill="#3987CD" fill-rule="evenodd" d="M751.54 18.637a1.75 1.75 0 0 0-1.08 0l-8.25 2.675a1.746 1.746 0 0 0-1.21 1.664V28c0 6.19 3.77 10.705 9.401 12.83.386.145.812.145 1.198 0C757.229 38.704 761 34.19 761 28v-5.024c0-.76-.49-1.43-1.21-1.664l-8.25-2.675Zm-.617 1.426a.25.25 0 0 1 .154 0l8.25 2.676a.25.25 0 0 1 .173.237V28c0 5.46-3.28 9.483-8.43 11.426a.2.2 0 0 1-.14 0c-5.15-1.943-8.43-5.966-8.43-11.426v-5.024c0-.108.069-.203.173-.237l8.25-2.676Z" clip-rule="evenodd"/><g fill="#3987CD" clip-path="url(#b)"><path fill-rule="evenodd" d="M793.408 33.13a1.997 1.997 0 0 1 .59-2.642l16.04-11.158a1.995 1.995 0 0 1 2.297.01c.223.157.411.359.553.592l2.828 4.644a2.013 2.013 0 0 1 .208 1.613 2.004 2.004 0 0 1-1.059 1.234l-17.762 8.43a2 2 0 0 1-2.59-.807l-1.105-1.916Zm5.263-4.066 7.842-5.455 2.857 4.76-8.712 4.135-1.987-3.44Zm-1.235.86-2.582 1.796a.498.498 0 0 0-.147.66l1.105 1.915a.5.5 0 0 0 .648.201l2.838-1.347-1.862-3.225Zm13.295-2.2-2.984-4.974 3.148-2.19a.498.498 0 0 1 .713.151l2.826 4.644a.507.507 0 0 1 .052.403.508.508 0 0 1-.264.31l-3.49 1.655-.001.001Z" clip-rule="evenodd"/><path d="M810.155 40.87a.747.747 0 0 0 .226-1.036l-4-6.239a.747.747 0 0 0-.941-.278l-2.75 1.25a.756.756 0 0 0-.318.274l-3.25 4.989a.75.75 0 0 0 1.256.819l3.131-4.806.51-.232v5.64a.749.749 0 1 0 1.5 0v-6.22l3.6 5.613a.75.75 0 0 0 1.036.226Z"/></g><defs><clipPath id="a"><path fill="#fff" d="M199 18h24v24h-24z"/></clipPath><clipPath id="b"><path fill="#fff" d="M793 18h24v24h-24z"/></clipPath></defs></svg>