<svg width="800" height="60" viewBox="0 0 800 60" fill="none" xmlns="http://www.w3.org/2000/svg">
<path fill-rule="evenodd" clip-rule="evenodd" d="M-12 21.75C-12 20.784 -11.216 20 -10.25 20H0.25C1.216 20 2 20.784 2 21.75V39.25C1.99999 39.3912 1.96011 39.5296 1.88495 39.6491C1.80979 39.7687 1.70241 39.8646 1.57516 39.9258C1.44791 39.987 1.30596 40.0111 1.16565 39.9952C1.02533 39.9793 0.892346 39.9241 0.782 39.836L-5 35.21L-10.781 39.835C-10.8913 39.9234 -11.0243 39.9788 -11.1646 39.9949C-11.305 40.0109 -11.4471 39.987 -11.5745 39.9259C-11.7019 39.8648 -11.8094 39.7689 -11.8847 39.6493C-11.96 39.5297 -11.9999 39.3913 -12 39.25V21.75ZM-10.25 21.5C-10.3163 21.5 -10.3799 21.5263 -10.4268 21.5732C-10.4737 21.6201 -10.5 21.6837 -10.5 21.75V37.69L-5.469 33.664C-5.33594 33.5574 -5.17051 33.4993 -5 33.4993C-4.82949 33.4993 -4.66406 33.5574 -4.531 33.664L0.5 37.69V21.75C0.5 21.6837 0.473661 21.6201 0.426777 21.5732C0.379893 21.5263 0.316304 21.5 0.25 21.5H-10.25Z" fill="#3987CD"/>
<path fill-rule="evenodd" clip-rule="evenodd" d="M44.72 18.2201C44.8606 18.0796 45.0512 18.0007 45.25 18.0007C45.4488 18.0007 45.6394 18.0796 45.78 18.2201L46.984 19.4231C47.6192 19.1432 48.3059 18.9991 49 19.0001C49.717 19.0001 50.4 19.1511 51.016 19.4231L52.22 18.2201C52.3622 18.0876 52.5502 18.0155 52.7445 18.0189C52.9388 18.0223 53.1242 18.101 53.2616 18.2385C53.399 18.3759 53.4777 18.5612 53.4812 18.7555C53.4846 18.9499 53.4125 19.1379 53.28 19.2801L52.309 20.2521C52.8411 20.7207 53.2671 21.2974 53.5587 21.9437C53.8503 22.59 54.0007 23.291 54 24.0001V25.1041C54.4645 25.2362 54.8861 25.4881 55.2226 25.8346C55.5591 26.1811 55.7985 26.6099 55.917 27.0781L57.915 26.0791C58.0927 25.9921 58.2977 25.9788 58.4851 26.0422C58.6726 26.1057 58.8274 26.2406 58.9158 26.4177C59.0042 26.5947 59.019 26.7996 58.9571 26.9875C58.8951 27.1755 58.7614 27.3313 58.585 27.4211L56 28.7141V31.5001L59.25 31.5031C59.4489 31.5031 59.6397 31.5821 59.7803 31.7227C59.921 31.8634 60 32.0542 60 32.2531C60 32.452 59.921 32.6428 59.7803 32.7834C59.6397 32.9241 59.4489 33.0031 59.25 33.0031L56 33.0011V34.0001C56.0005 34.5683 55.932 35.1344 55.796 35.6861C55.8095 35.6917 55.8228 35.6977 55.836 35.7041L58.586 37.0791C58.6741 37.1231 58.7527 37.1841 58.8172 37.2585C58.8818 37.333 58.931 37.4194 58.9622 37.5128C58.9934 37.6063 59.0058 37.705 58.9988 37.8033C58.9918 37.9015 58.9656 37.9975 58.9215 38.0856C58.8774 38.1737 58.8165 38.2523 58.742 38.3168C58.6676 38.3814 58.5812 38.4306 58.4877 38.4618C58.3943 38.4929 58.2956 38.5054 58.1973 38.4984C58.099 38.4914 58.0031 38.4651 57.915 38.4211L55.277 37.1021C54.6984 38.2726 53.8039 39.2579 52.6947 39.9467C51.5855 40.6356 50.3057 41.0004 49 41.0001C47.7241 41.0003 46.4724 40.6519 45.3802 39.9923C44.288 39.3328 43.3968 38.3873 42.803 37.2581L40.045 38.4391C39.9538 38.4821 39.855 38.5063 39.7542 38.5103C39.6535 38.5143 39.553 38.4979 39.4588 38.4621C39.3645 38.4264 39.2784 38.372 39.2057 38.3022C39.1329 38.2325 39.075 38.1487 39.0353 38.0561C38.9956 37.9634 38.975 37.8637 38.9748 37.7629C38.9745 37.6621 38.9945 37.5623 39.0337 37.4694C39.0729 37.3765 39.1304 37.2925 39.2028 37.2223C39.2752 37.1522 39.3609 37.0973 39.455 37.0611L42.25 35.8621C42.0835 35.2554 41.9994 34.6291 42 34.0001V33.0041H38.75C38.5511 33.0041 38.3603 32.9251 38.2197 32.7844C38.079 32.6438 38 32.453 38 32.2541C38 32.0552 38.079 31.8644 38.2197 31.7237C38.3603 31.5831 38.5511 31.5041 38.75 31.5041H42V28.7141L39.415 27.4201C39.2386 27.3303 39.1049 27.1745 39.0429 26.9865C38.981 26.7986 38.9958 26.5937 39.0842 26.4167C39.1726 26.2396 39.3274 26.1047 39.5149 26.0412C39.7023 25.9778 39.9073 25.9911 40.085 26.0781L42.083 27.0771C42.2016 26.6091 42.4412 26.1805 42.7776 25.8342C43.1141 25.4879 43.5356 25.2361 44 25.1041V24.0001C43.9993 23.2911 44.1496 22.5902 44.4411 21.9439C44.7325 21.2977 45.1582 20.7209 45.69 20.2521L44.72 19.2801C44.5795 19.1394 44.5007 18.9488 44.5007 18.7501C44.5007 18.5513 44.5795 18.3607 44.72 18.2201V18.2201ZM45.5 25.0001H52.5V24.0001C52.5 23.5404 52.4095 23.0853 52.2336 22.6607C52.0577 22.236 51.7999 21.8502 51.4749 21.5252C51.1499 21.2002 50.764 20.9424 50.3394 20.7665C49.9148 20.5906 49.4596 20.5001 49 20.5001C48.5404 20.5001 48.0852 20.5906 47.6606 20.7665C47.236 20.9424 46.8501 21.2002 46.5251 21.5252C46.2001 21.8502 45.9423 22.236 45.7664 22.6607C45.5905 23.0853 45.5 23.5404 45.5 24.0001V25.0001ZM43.5 28.2661V27.7501C43.5 27.0601 44.06 26.5001 44.75 26.5001H53.25C53.94 26.5001 54.5 27.0601 54.5 27.7501V34.0001C54.5 35.4588 53.9205 36.8577 52.8891 37.8892C51.8576 38.9206 50.4587 39.5001 49 39.5001C47.5413 39.5001 46.1424 38.9206 45.1109 37.8892C44.0795 36.8577 43.5 35.4588 43.5 34.0001V28.2661Z" fill="#3987CD"/>
<path d="M108.28 27.2801C108.412 27.1379 108.484 26.9499 108.481 26.7556C108.478 26.5613 108.399 26.3759 108.261 26.2385C108.124 26.1011 107.939 26.0223 107.744 26.0189C107.55 26.0155 107.362 26.0876 107.22 26.2201L101.25 32.1901L98.7798 29.7201C98.6377 29.5876 98.4496 29.5155 98.2553 29.5189C98.061 29.5223 97.8756 29.6011 97.7382 29.7385C97.6008 29.8759 97.5221 30.0613 97.5187 30.2556C97.5152 30.4499 97.5874 30.6379 97.7198 30.7801L100.72 33.7801C100.86 33.9205 101.051 33.9994 101.25 33.9994C101.449 33.9994 101.639 33.9205 101.78 33.7801L108.28 27.2801V27.2801Z" fill="#3987CD"/>
<path fill-rule="evenodd" clip-rule="evenodd" d="M103 19C96.925 19 92 23.925 92 30C92 36.075 96.925 41 103 41C109.075 41 114 36.075 114 30C114 23.925 109.075 19 103 19ZM93.5 30C93.5 27.4804 94.5009 25.0641 96.2825 23.2825C98.0641 21.5009 100.48 20.5 103 20.5C105.52 20.5 107.936 21.5009 109.718 23.2825C111.499 25.0641 112.5 27.4804 112.5 30C112.5 32.5196 111.499 34.9359 109.718 36.7175C107.936 38.4991 105.52 39.5 103 39.5C100.48 39.5 98.0641 38.4991 96.2825 36.7175C94.5009 34.9359 93.5 32.5196 93.5 30V30Z" fill="#3987CD"/>
<path d="M155.3 26.2401C155.367 26.3123 155.419 26.397 155.453 26.4894C155.488 26.5817 155.503 26.6799 155.5 26.7784C155.496 26.8768 155.473 26.9735 155.432 27.0631C155.391 27.1526 155.332 27.2331 155.26 27.3001L152.352 30.0001L155.26 32.7001C155.332 32.7671 155.391 32.8476 155.432 32.9371C155.473 33.0266 155.496 33.1234 155.5 33.2218C155.503 33.3202 155.488 33.4184 155.453 33.5108C155.419 33.6032 155.367 33.6879 155.3 33.7601C155.233 33.8323 155.153 33.8906 155.063 33.9317C154.974 33.9728 154.877 33.9959 154.778 33.9996C154.68 34.0033 154.582 33.9876 154.489 33.9534C154.397 33.9192 154.312 33.8671 154.24 33.8001L150.74 30.5501C150.664 30.4799 150.604 30.3948 150.563 30.3002C150.521 30.2055 150.5 30.1034 150.5 30.0001C150.5 29.8968 150.521 29.7947 150.563 29.7C150.604 29.6054 150.664 29.5203 150.74 29.4501L154.24 26.2001C154.312 26.1331 154.397 26.081 154.489 26.0468C154.582 26.0125 154.68 25.9968 154.778 26.0005C154.877 26.0042 154.974 26.0273 155.063 26.0684C155.153 26.1095 155.233 26.1679 155.3 26.2401V26.2401ZM158.74 27.3001C158.668 27.2331 158.61 27.1526 158.568 27.0631C158.527 26.9735 158.504 26.8768 158.501 26.7784C158.497 26.6799 158.513 26.5817 158.547 26.4894C158.581 26.397 158.633 26.3123 158.7 26.2401C158.767 26.1679 158.848 26.1095 158.937 26.0684C159.027 26.0273 159.123 26.0043 159.222 26.0006C159.32 25.9968 159.418 26.0126 159.511 26.0468C159.603 26.081 159.688 26.1331 159.76 26.2001L163.26 29.4501C163.336 29.5203 163.396 29.6054 163.438 29.7C163.479 29.7947 163.5 29.8968 163.5 30.0001C163.5 30.1034 163.479 30.2055 163.438 30.3002C163.396 30.3948 163.336 30.4799 163.26 30.5501L159.76 33.8001C159.614 33.9354 159.421 34.0071 159.222 33.9996C159.023 33.9921 158.835 33.906 158.7 33.7601C158.565 33.6142 158.493 33.4206 158.501 33.2218C158.508 33.023 158.594 32.8354 158.74 32.7001L161.648 30.0001L158.74 27.3001Z" fill="#3987CD"/>
<path fill-rule="evenodd" clip-rule="evenodd" d="M147 21.75C147 20.784 147.784 20 148.75 20H165.25C166.216 20 167 20.784 167 21.75V38.25C167 38.7141 166.816 39.1592 166.487 39.4874C166.159 39.8156 165.714 40 165.25 40H148.75C148.286 40 147.841 39.8156 147.513 39.4874C147.184 39.1592 147 38.7141 147 38.25V21.75ZM148.75 21.5C148.684 21.5 148.62 21.5263 148.573 21.5732C148.526 21.6201 148.5 21.6837 148.5 21.75V38.25C148.5 38.388 148.612 38.5 148.75 38.5H165.25C165.316 38.5 165.38 38.4737 165.427 38.4268C165.474 38.3799 165.5 38.3163 165.5 38.25V21.75C165.5 21.6837 165.474 21.6201 165.427 21.5732C165.38 21.5263 165.316 21.5 165.25 21.5H148.75Z" fill="#3987CD"/>
<g clip-path="url(#clip0_299_1196)">
<path fill-rule="evenodd" clip-rule="evenodd" d="M200.75 19C200.286 19 199.841 19.1844 199.513 19.5126C199.184 19.8408 199 20.2859 199 20.75V30.25C199 31.216 199.784 32 200.75 32H202V33.543C202 33.8311 202.086 34.1127 202.246 34.3522C202.406 34.5917 202.633 34.7784 202.899 34.8886C203.166 34.9988 203.459 35.0277 203.741 34.9715C204.024 34.9153 204.283 34.7767 204.487 34.573L207.061 32H213.25C213.714 32 214.159 31.8156 214.487 31.4874C214.816 31.1592 215 30.7141 215 30.25V20.75C215 20.2859 214.816 19.8408 214.487 19.5126C214.159 19.1844 213.714 19 213.25 19H200.75ZM200.5 20.75C200.5 20.6837 200.526 20.6201 200.573 20.5732C200.62 20.5263 200.684 20.5 200.75 20.5H213.25C213.316 20.5 213.38 20.5263 213.427 20.5732C213.474 20.6201 213.5 20.6837 213.5 20.75V30.25C213.5 30.3163 213.474 30.3799 213.427 30.4268C213.38 30.4737 213.316 30.5 213.25 30.5H206.75C206.551 30.5002 206.361 30.5793 206.22 30.72L203.5 33.44V31.25C203.5 31.0511 203.421 30.8603 203.28 30.7197C203.14 30.579 202.949 30.5 202.75 30.5H200.75C200.684 30.5 200.62 30.4737 200.573 30.4268C200.526 30.3799 200.5 30.3163 200.5 30.25V20.75Z" fill="#3987CD"/>
<path d="M221.5 26.75C221.5 26.6837 221.474 26.6201 221.427 26.5732C221.38 26.5263 221.316 26.5 221.25 26.5H217.75C217.551 26.5 217.36 26.421 217.22 26.2803C217.079 26.1397 217 25.9489 217 25.75C217 25.5511 217.079 25.3603 217.22 25.2197C217.36 25.079 217.551 25 217.75 25H221.25C222.216 25 223 25.784 223 26.75V36.25C223 36.7141 222.816 37.1592 222.487 37.4874C222.159 37.8156 221.714 38 221.25 38H220V39.543C220 39.8311 219.914 40.1127 219.754 40.3522C219.594 40.5917 219.367 40.7784 219.101 40.8886C218.834 40.9988 218.541 41.0277 218.259 40.9715C217.976 40.9153 217.717 40.7767 217.513 40.573L214.939 38H209.75C209.286 38 208.841 37.8156 208.513 37.4874C208.184 37.1592 208 36.7141 208 36.25V34.785C208 34.5861 208.079 34.3953 208.22 34.2547C208.36 34.114 208.551 34.035 208.75 34.035C208.949 34.035 209.14 34.114 209.28 34.2547C209.421 34.3953 209.5 34.5861 209.5 34.785V36.25C209.5 36.388 209.612 36.5 209.75 36.5H215.25C215.449 36.5002 215.639 36.5793 215.78 36.72L218.5 39.44V37.25C218.5 37.0511 218.579 36.8603 218.72 36.7197C218.86 36.579 219.051 36.5 219.25 36.5H221.25C221.316 36.5 221.38 36.4737 221.427 36.4268C221.474 36.3799 221.5 36.3163 221.5 36.25V26.75V26.75Z" fill="#3987CD"/>
</g>
<path d="M264.97 24.9701C264.83 25.1107 264.751 25.3013 264.751 25.5001C264.751 25.6988 264.83 25.8894 264.97 26.0301L267.44 28.5001L264.97 30.9701C264.897 31.0387 264.838 31.1215 264.797 31.2135C264.756 31.3055 264.734 31.4048 264.732 31.5056C264.73 31.6063 264.748 31.7063 264.786 31.7997C264.824 31.8931 264.88 31.9779 264.951 32.0491C265.022 32.1203 265.107 32.1765 265.201 32.2142C265.294 32.2519 265.394 32.2704 265.495 32.2687C265.596 32.2669 265.695 32.2448 265.787 32.2039C265.879 32.1629 265.962 32.1038 266.03 32.0301L269.03 29.0301C269.171 28.8894 269.25 28.6988 269.25 28.5001C269.25 28.3013 269.171 28.1107 269.03 27.9701L266.03 24.9701C265.89 24.8296 265.699 24.7507 265.5 24.7507C265.302 24.7507 265.111 24.8296 264.97 24.9701V24.9701ZM262.03 26.0301C262.163 25.8879 262.235 25.6999 262.231 25.5055C262.228 25.3112 262.149 25.1259 262.012 24.9885C261.875 24.851 261.689 24.7723 261.495 24.7689C261.301 24.7655 261.112 24.8376 260.97 24.9701L257.97 27.9701C257.83 28.1107 257.751 28.3013 257.751 28.5001C257.751 28.6988 257.83 28.8894 257.97 29.0301L260.97 32.0301C261.112 32.1626 261.301 32.2347 261.495 32.2312C261.689 32.2278 261.875 32.1491 262.012 32.0117C262.149 31.8743 262.228 31.6889 262.231 31.4946C262.235 31.3003 262.163 31.1122 262.03 30.9701L259.56 28.5001L262.03 26.0301Z" fill="#3987CD"/>
<path fill-rule="evenodd" clip-rule="evenodd" d="M263.5 18C257.701 18 253 22.701 253 28.5C253 34.299 257.701 39 263.5 39C266.13 39 268.533 38.033 270.375 36.436L274.72 40.78C274.789 40.8537 274.871 40.9128 274.963 40.9538C275.055 40.9948 275.155 41.0168 275.255 41.0186C275.356 41.0204 275.456 41.0018 275.55 40.9641C275.643 40.9264 275.728 40.8703 275.799 40.799C275.87 40.7278 275.926 40.643 275.964 40.5496C276.002 40.4562 276.02 40.3562 276.019 40.2555C276.017 40.1548 275.995 40.0555 275.954 39.9635C275.913 39.8715 275.854 39.7887 275.78 39.72L271.436 35.375C273.093 33.4682 274.004 31.0261 274 28.5C274 22.701 269.299 18 263.5 18ZM254.5 28.5C254.5 27.3181 254.733 26.1478 255.185 25.0558C255.637 23.9639 256.3 22.9718 257.136 22.136C257.972 21.3003 258.964 20.6374 260.056 20.1851C261.148 19.7328 262.318 19.5 263.5 19.5C264.682 19.5 265.852 19.7328 266.944 20.1851C268.036 20.6374 269.028 21.3003 269.864 22.136C270.7 22.9718 271.363 23.9639 271.815 25.0558C272.267 26.1478 272.5 27.3181 272.5 28.5C272.5 30.8869 271.552 33.1761 269.864 34.864C268.176 36.5518 265.887 37.5 263.5 37.5C261.113 37.5 258.824 36.5518 257.136 34.864C255.448 33.1761 254.5 30.8869 254.5 28.5V28.5Z" fill="#3987CD"/>
<path fill-rule="evenodd" clip-rule="evenodd" d="M320.152 18.682C320.496 18.4809 320.888 18.375 321.287 18.375C321.685 18.375 322.077 18.4809 322.421 18.682L322.428 18.686L329.385 22.962C329.728 23.1626 330.012 23.4495 330.21 23.794C330.407 24.1386 330.511 24.5288 330.511 24.926V32.442C330.511 33.252 330.079 34.002 329.378 34.41L329.376 34.411L317.412 41.448L317.408 41.451C317.061 41.6522 316.667 41.7582 316.266 41.7582C315.865 41.7582 315.471 41.6522 315.124 41.451L315.098 41.436L308.595 36.934C308.26 36.732 307.984 36.447 307.792 36.1065C307.6 35.7661 307.499 35.3818 307.499 34.991V27.438C307.499 27.046 307.599 26.668 307.783 26.338L307.786 26.332L307.8 26.306C307.997 25.964 308.28 25.679 308.62 25.479H308.622L320.152 18.681V18.682ZM320.909 19.977H320.908L309.648 26.616L315.896 30.863C316.013 30.9263 316.144 30.9586 316.276 30.9568C316.409 30.9551 316.539 30.9193 316.654 30.853H316.655L328.288 24.049L321.659 19.975C321.545 19.9096 321.415 19.8755 321.284 19.876C321.152 19.8765 321.023 19.9117 320.909 19.978V19.977ZM325 27.709L321.75 29.609V37.157L325 35.245V27.709ZM326.5 26.831V34.363L328.624 33.113C328.742 33.0447 328.839 32.9469 328.907 32.8291C328.975 32.7114 329.011 32.5779 329.011 32.442V25.363L326.5 26.831ZM317.41 32.147L320.25 30.487V38.039L317.017 39.941V32.329C317.151 32.282 317.282 32.222 317.408 32.149L317.41 32.147ZM315.517 39.901V32.33C315.381 32.2826 315.249 32.2223 315.124 32.15L315.101 32.136L308.999 27.989V34.992C308.999 35.267 309.144 35.52 309.378 35.656L309.403 35.67L315.517 39.902V39.901Z" fill="#3987CD"/>
<path d="M372.25 27.331V18.75C372.25 18.5511 372.329 18.3603 372.469 18.2197C372.61 18.079 372.801 18 373 18C373.198 18 373.389 18.079 373.53 18.2197C373.671 18.3603 373.75 18.5511 373.75 18.75V27.33L375.699 25.22C375.764 25.1432 375.845 25.0804 375.935 25.0354C376.025 24.9903 376.124 24.9641 376.225 24.9581C376.325 24.9521 376.426 24.9665 376.522 25.0005C376.617 25.0345 376.704 25.0873 376.778 25.1558C376.852 25.2243 376.912 25.3071 376.953 25.3992C376.995 25.4913 377.017 25.5909 377.019 25.6918C377.021 25.7928 377.003 25.8931 376.965 25.9868C376.927 26.0805 376.871 26.1656 376.8 26.237L373.55 29.757C373.479 29.833 373.394 29.8937 373.299 29.9352C373.204 29.9768 373.102 29.9982 372.999 29.9982C372.895 29.9982 372.793 29.9768 372.698 29.9352C372.603 29.8937 372.518 29.833 372.448 29.757L369.198 26.237C369.128 26.1652 369.073 26.0801 369.037 25.9869C369.001 25.8937 368.984 25.7942 368.987 25.6942C368.989 25.5942 369.012 25.4958 369.054 25.4048C369.095 25.3137 369.154 25.2319 369.228 25.1641C369.301 25.0962 369.387 25.0438 369.482 25.0098C369.576 24.9758 369.676 24.961 369.775 24.9662C369.875 24.9714 369.973 24.9966 370.063 25.0402C370.153 25.0837 370.234 25.1449 370.3 25.22L372.249 27.331H372.25Z" fill="#3987CD"/>
<path fill-rule="evenodd" clip-rule="evenodd" d="M363.5 21.75C363.5 21.6837 363.526 21.6201 363.573 21.5732C363.62 21.5263 363.684 21.5 363.75 21.5H369.25C369.348 21.5 369.446 21.4806 369.537 21.4429C369.628 21.4052 369.711 21.35 369.78 21.2803C369.85 21.2107 369.905 21.128 369.943 21.037C369.981 20.946 370 20.8485 370 20.75C370 20.6515 369.981 20.554 369.943 20.463C369.905 20.372 369.85 20.2893 369.78 20.2197C369.711 20.15 369.628 20.0948 369.537 20.0571C369.446 20.0194 369.348 20 369.25 20H363.75C363.286 20 362.841 20.1844 362.513 20.5126C362.184 20.8408 362 21.2859 362 21.75V33.25C362 34.216 362.784 35 363.75 35H369.954C369.783 36.375 369.149 37.652 368.184 38.757C368.089 38.8656 368.028 38.9991 368.007 39.1416C367.986 39.2842 368.007 39.4297 368.067 39.5608C368.126 39.6919 368.223 39.803 368.344 39.8809C368.465 39.9588 368.606 40.0002 368.75 40H377.25C377.394 40 377.535 39.9585 377.656 39.8805C377.777 39.8026 377.873 39.6914 377.933 39.5604C377.992 39.4293 378.013 39.2838 377.992 39.1414C377.971 38.9989 377.91 38.8655 377.815 38.757C376.851 37.652 376.217 36.375 376.046 35H382.25C382.714 35 383.159 34.8156 383.487 34.4874C383.816 34.1592 384 33.7141 384 33.25V21.75C384 21.2859 383.816 20.8408 383.487 20.5126C383.159 20.1844 382.714 20 382.25 20H376.75C376.551 20 376.36 20.079 376.22 20.2197C376.079 20.3603 376 20.5511 376 20.75C376 20.9489 376.079 21.1397 376.22 21.2803C376.36 21.421 376.551 21.5 376.75 21.5H382.25C382.316 21.5 382.38 21.5263 382.427 21.5732C382.474 21.6201 382.5 21.6837 382.5 21.75V33.25C382.5 33.3163 382.474 33.3799 382.427 33.4268C382.38 33.4737 382.316 33.5 382.25 33.5H363.75C363.684 33.5 363.62 33.4737 363.573 33.4268C363.526 33.3799 363.5 33.3163 363.5 33.25V21.75ZM371.463 35C371.337 36.266 370.899 37.445 370.24 38.5H375.76C375.1 37.445 374.662 36.266 374.537 35H371.463V35Z" fill="#3987CD"/>
<path d="M427.5 24.75C427.5 24.5511 427.421 24.3603 427.28 24.2197C427.14 24.079 426.949 24 426.75 24C426.551 24 426.36 24.079 426.22 24.2197C426.079 24.3603 426 24.5511 426 24.75V27H423.75C423.551 27 423.36 27.079 423.22 27.2197C423.079 27.3603 423 27.5511 423 27.75C423 27.9489 423.079 28.1397 423.22 28.2803C423.36 28.421 423.551 28.5 423.75 28.5H426V30.75C426 30.9489 426.079 31.1397 426.22 31.2803C426.36 31.421 426.551 31.5 426.75 31.5C426.949 31.5 427.14 31.421 427.28 31.2803C427.421 31.1397 427.5 30.9489 427.5 30.75V28.5H429.75C429.949 28.5 430.14 28.421 430.28 28.2803C430.421 28.1397 430.5 27.9489 430.5 27.75C430.5 27.5511 430.421 27.3603 430.28 27.2197C430.14 27.079 429.949 27 429.75 27H427.5V24.75ZM423.75 34C423.551 34 423.36 34.079 423.22 34.2197C423.079 34.3603 423 34.5511 423 34.75C423 34.9489 423.079 35.1397 423.22 35.2803C423.36 35.421 423.551 35.5 423.75 35.5H429.75C429.949 35.5 430.14 35.421 430.28 35.2803C430.421 35.1397 430.5 34.9489 430.5 34.75C430.5 34.5511 430.421 34.3603 430.28 34.2197C430.14 34.079 429.949 34 429.75 34H423.75Z" fill="#3987CD"/>
<path fill-rule="evenodd" clip-rule="evenodd" d="M420 19C419.47 19 418.961 19.2107 418.586 19.5858C418.211 19.9609 418 20.4696 418 21V39C418 39.5304 418.211 40.0391 418.586 40.4142C418.961 40.7893 419.47 41 420 41H434C434.53 41 435.039 40.7893 435.414 40.4142C435.789 40.0391 436 39.5304 436 39V25.018C436 24.4876 435.789 23.979 435.414 23.604L431.396 19.586C431.021 19.2109 430.512 19.0001 429.982 19H420ZM419.5 21C419.5 20.8674 419.553 20.7402 419.646 20.6464C419.74 20.5527 419.867 20.5 420 20.5H429.982C430.048 20.4999 430.113 20.5127 430.174 20.5378C430.234 20.5628 430.289 20.5996 430.336 20.646L434.354 24.664C434.4 24.7105 434.437 24.7657 434.462 24.8265C434.487 24.8872 434.5 24.9523 434.5 25.018V39C434.5 39.1326 434.447 39.2598 434.354 39.3536C434.26 39.4473 434.133 39.5 434 39.5H420C419.867 39.5 419.74 39.4473 419.646 39.3536C419.553 39.2598 419.5 39.1326 419.5 39V21Z" fill="#3987CD"/>
<path fill-rule="evenodd" clip-rule="evenodd" d="M481.185 39.5C485.244 39.5 488.25 36.66 488.25 32.75C488.25 30.413 487.157 29.261 485.572 27.592L485.551 27.569C484.111 26.052 482.412 24.218 481.902 21.012C481.147 21.4556 480.495 22.0557 479.991 22.772C479.204 23.916 478.844 25.405 479.775 27.267C480.378 28.472 480.552 30.007 479.498 31.061C478.841 31.718 477.736 32.161 476.542 31.647C475.79 31.323 475.189 30.692 474.704 29.857C474.137 30.563 473.75 31.597 473.75 32.75C473.75 36.597 477.038 39.5 481.185 39.5V39.5ZM483.265 19.627C483.248 19.282 482.969 19.002 482.633 19.084C480.296 19.659 476.028 23.126 478.433 27.938C478.907 28.884 478.825 29.613 478.437 30C477.797 30.64 476.563 30.684 475.562 28.185C475.431 27.858 475.064 27.676 474.759 27.851C473.212 28.739 472.25 30.711 472.25 32.75C472.25 37.579 476.372 41 481.185 41C485.997 41 489.75 37.562 489.75 32.75C489.75 29.811 488.284 28.268 486.744 26.648C485.134 24.954 483.265 23.172 483.265 19.627V19.627Z" fill="#3987CD"/>
<path fill-rule="evenodd" clip-rule="evenodd" d="M528.75 39C528.286 39 527.841 38.8156 527.513 38.4874C527.184 38.1592 527 37.7141 527 37.25C527 36.7859 527.184 36.3408 527.513 36.0126C527.841 35.6844 528.286 35.5 528.75 35.5C529.214 35.5 529.659 35.6844 529.987 36.0126C530.316 36.3408 530.5 36.7859 530.5 37.25C530.5 37.7141 530.316 38.1592 529.987 38.4874C529.659 38.8156 529.214 39 528.75 39V39ZM525.5 37.25C525.5 38.112 525.842 38.9386 526.452 39.5481C527.061 40.1576 527.888 40.5 528.75 40.5C529.612 40.5 530.439 40.1576 531.048 39.5481C531.658 38.9386 532 38.112 532 37.25C532 36.388 531.658 35.5614 531.048 34.9519C530.439 34.3424 529.612 34 528.75 34C527.888 34 527.061 34.3424 526.452 34.9519C525.842 35.5614 525.5 36.388 525.5 37.25V37.25ZM528.75 24.5C528.52 24.5 528.293 24.4547 528.08 24.3668C527.868 24.2788 527.675 24.1499 527.513 23.9874C527.35 23.8249 527.221 23.632 527.133 23.4197C527.045 23.2074 527 22.9798 527 22.75C527 22.5202 527.045 22.2926 527.133 22.0803C527.221 21.868 527.35 21.6751 527.513 21.5126C527.675 21.3501 527.868 21.2212 528.08 21.1332C528.293 21.0453 528.52 21 528.75 21C529.214 21 529.659 21.1844 529.987 21.5126C530.316 21.8408 530.5 22.2859 530.5 22.75C530.5 23.2141 530.316 23.6592 529.987 23.9874C529.659 24.3156 529.214 24.5 528.75 24.5V24.5ZM525.5 22.75C525.5 23.612 525.842 24.4386 526.452 25.0481C527.061 25.6576 527.888 26 528.75 26C529.612 26 530.439 25.6576 531.048 25.0481C531.658 24.4386 532 23.612 532 22.75C532 21.888 531.658 21.0614 531.048 20.4519C530.439 19.8424 529.612 19.5 528.75 19.5C527.888 19.5 527.061 19.8424 526.452 20.4519C525.842 21.0614 525.5 21.888 525.5 22.75V22.75ZM541.25 24.5C541.02 24.5 540.793 24.4547 540.58 24.3668C540.368 24.2788 540.175 24.1499 540.013 23.9874C539.85 23.8249 539.721 23.632 539.633 23.4197C539.545 23.2074 539.5 22.9798 539.5 22.75C539.5 22.5202 539.545 22.2926 539.633 22.0803C539.721 21.868 539.85 21.6751 540.013 21.5126C540.175 21.3501 540.368 21.2212 540.58 21.1332C540.793 21.0453 541.02 21 541.25 21C541.714 21 542.159 21.1844 542.487 21.5126C542.816 21.8408 543 22.2859 543 22.75C543 23.2141 542.816 23.6592 542.487 23.9874C542.159 24.3156 541.714 24.5 541.25 24.5V24.5ZM538 22.75C538 23.612 538.342 24.4386 538.952 25.0481C539.561 25.6576 540.388 26 541.25 26C542.112 26 542.939 25.6576 543.548 25.0481C544.158 24.4386 544.5 23.612 544.5 22.75C544.5 21.888 544.158 21.0614 543.548 20.4519C542.939 19.8424 542.112 19.5 541.25 19.5C540.388 19.5 539.561 19.8424 538.952 20.4519C538.342 21.0614 538 21.888 538 22.75V22.75Z" fill="#3987CD"/>
<path fill-rule="evenodd" clip-rule="evenodd" d="M528.75 34.75C528.949 34.75 529.14 34.671 529.28 34.5303C529.421 34.3897 529.5 34.1989 529.5 34V26C529.5 25.8011 529.421 25.6103 529.28 25.4697C529.14 25.329 528.949 25.25 528.75 25.25C528.551 25.25 528.36 25.329 528.22 25.4697C528.079 25.6103 528 25.8011 528 26V34C528 34.414 528.336 34.75 528.75 34.75Z" fill="#3987CD"/>
<path fill-rule="evenodd" clip-rule="evenodd" d="M540.5 26.75V25.75H542V26.75C542 27.7446 541.605 28.6984 540.902 29.4017C540.198 30.1049 539.245 30.5 538.25 30.5H531.25C530.786 30.5 530.341 30.6844 530.013 31.0126C529.684 31.3408 529.5 31.7859 529.5 32.25H528C528 31.388 528.342 30.5614 528.952 29.9519C529.561 29.3424 530.388 29 531.25 29H538.25C538.847 29 539.419 28.7629 539.841 28.341C540.263 27.919 540.5 27.3467 540.5 26.75Z" fill="#3987CD"/>
<path fill-rule="evenodd" clip-rule="evenodd" d="M583.736 22C581.657 22 579.5 23.88 579.5 26.514C579.5 29.621 581.824 32.474 584.361 34.634C585.78 35.833 587.309 36.896 588.927 37.809L589 37.85L589.073 37.81C589.344 37.657 589.734 37.43 590.203 37.136C591.143 36.548 592.393 35.695 593.639 34.634C596.176 32.474 598.5 29.621 598.5 26.514C598.5 23.88 596.343 22 594.264 22C592.158 22 590.463 23.389 589.711 25.643C589.661 25.792 589.565 25.9215 589.438 26.0132C589.31 26.1049 589.157 26.1543 589 26.1543C588.843 26.1543 588.69 26.1049 588.562 26.0132C588.435 25.9215 588.339 25.792 588.289 25.643C587.537 23.389 585.841 22 583.736 22ZM589 38.703L589.343 39.37C589.237 39.4246 589.119 39.453 589 39.453C588.881 39.453 588.763 39.4246 588.657 39.37L589 38.703ZM578 26.513C578 23.053 580.829 20.5 583.736 20.5C586.03 20.5 587.881 21.726 589 23.605C590.12 21.726 591.97 20.5 594.264 20.5C597.17 20.5 600 23.052 600 26.514C600 30.332 597.199 33.574 594.611 35.776C592.993 37.1428 591.239 38.341 589.378 39.352L589.353 39.365L589.346 39.368L589.344 39.369L589 38.703L588.657 39.37L588.654 39.368L588.647 39.365L588.622 39.352C588.071 39.0547 587.53 38.7399 587 38.408C585.735 37.6183 584.528 36.7387 583.389 35.776C580.8 33.573 578 30.332 578 26.514V26.513Z" fill="#3987CD"/>
<path fill-rule="evenodd" clip-rule="evenodd" d="M653 19.7499C653 19.6147 652.964 19.482 652.894 19.3659C652.825 19.2498 652.726 19.1546 652.607 19.0903C652.488 19.0261 652.354 18.9952 652.219 19.0009C652.084 19.0066 651.953 19.0488 651.839 19.1229C651.792 19.1529 651.745 19.1799 651.697 19.2079C651.537 19.3002 651.373 19.3875 651.207 19.4699C650.766 19.6899 650.097 19.9889 649.205 20.2899C647.425 20.8899 644.755 21.4999 641.25 21.4999H637.5C636.172 21.4986 634.888 21.9782 633.886 22.85C632.883 23.7218 632.23 24.927 632.047 26.2428C631.865 27.5586 632.164 28.8961 632.891 30.0082C633.617 31.1203 634.722 31.9319 636 32.2929V32.7499C636 35.8109 636.684 38.2549 637.061 39.3709C637.301 40.0799 637.965 40.4999 638.661 40.4999H640.674C641.968 40.4999 642.774 39.1779 642.406 38.0469C641.994 36.7789 641.5 34.7789 641.5 32.4999C641.5 32.4699 641.498 32.4399 641.495 32.4119C644.877 32.4399 647.46 33.0559 649.198 33.6629C650.088 33.9749 650.757 34.2829 651.198 34.5119C651.282 34.5549 651.369 34.6079 651.459 34.6619C651.816 34.8759 652.216 35.1169 652.601 34.9119C652.722 34.8482 652.822 34.7529 652.893 34.6362C652.963 34.5196 653 34.3861 653 34.2499V19.7499ZM641.5 30.9119C645.064 30.9409 647.813 31.5899 649.693 32.2469C650.43 32.5049 651.033 32.7639 651.5 32.9869V20.9929C651.033 21.2089 650.427 21.4599 649.685 21.7109C647.807 22.3449 645.061 22.9709 641.5 22.9989V30.9119V30.9119ZM637.5 32.7499V32.4999H640C640 34.9859 640.537 37.1479 640.98 38.5099C640.998 38.5676 641.001 38.6285 640.991 38.6879C640.981 38.7474 640.958 38.8038 640.923 38.8529C640.853 38.9569 640.761 38.9999 640.674 38.9999H638.661C638.556 38.9999 638.5 38.9419 638.482 38.8909C638.138 37.8729 637.5 35.5969 637.5 32.7499V32.7499ZM637.5 22.9999H640V30.9999H637.5C636.44 30.9999 635.422 30.5785 634.672 29.8283C633.922 29.0782 633.5 28.0608 633.5 26.9999C633.5 25.939 633.922 24.9216 634.672 24.1715C635.422 23.4213 636.44 22.9999 637.5 22.9999V22.9999Z" fill="#3987CD"/>
<path fill-rule="evenodd" clip-rule="evenodd" d="M696.75 19C696.949 19 697.14 19.079 697.28 19.2197C697.421 19.3603 697.5 19.5511 697.5 19.75V22H704.032C704.452 22 704.858 22.15 705.175 22.425L708.362 25.175C708.552 25.3393 708.705 25.5427 708.81 25.7713C708.915 26 708.969 26.2485 708.969 26.5C708.969 26.7515 708.915 27 708.81 27.2287C708.705 27.4573 708.552 27.6607 708.362 27.825L705.175 30.575C704.857 30.8491 704.452 31 704.032 31H697.5V40.25C697.5 40.4489 697.421 40.6397 697.28 40.7803C697.14 40.921 696.949 41 696.75 41C696.551 41 696.36 40.921 696.22 40.7803C696.079 40.6397 696 40.4489 696 40.25V31H688.75C688.286 31 687.841 30.8156 687.513 30.4874C687.184 30.1592 687 29.7141 687 29.25V23.75C687 22.783 687.784 22 688.75 22H696V19.75C696 19.5511 696.079 19.3603 696.22 19.2197C696.36 19.079 696.551 19 696.75 19V19ZM696.75 23.5H704.032C704.092 23.4999 704.15 23.5212 704.195 23.56L707.383 26.31C707.41 26.3335 707.432 26.3626 707.448 26.3954C707.463 26.4282 707.471 26.4639 707.471 26.5C707.471 26.5361 707.463 26.5718 707.448 26.6046C707.432 26.6374 707.41 26.6665 707.383 26.69L704.195 29.44C704.15 29.4788 704.092 29.5001 704.032 29.5H688.75C688.684 29.5 688.62 29.4737 688.573 29.4268C688.526 29.3799 688.5 29.3163 688.5 29.25V23.75C688.5 23.6837 688.526 23.6201 688.573 23.5732C688.62 23.5263 688.684 23.5 688.75 23.5H696.75Z" fill="#3987CD"/>
<path d="M755.53 27.7801C755.662 27.6379 755.734 27.4499 755.731 27.2556C755.728 27.0613 755.649 26.8759 755.511 26.7385C755.374 26.6011 755.189 26.5223 754.994 26.5189C754.8 26.5155 754.612 26.5876 754.47 26.7201L750 31.1901L748.03 29.2201C747.888 29.0876 747.7 29.0155 747.505 29.0189C747.311 29.0223 747.126 29.1011 746.988 29.2385C746.851 29.3759 746.772 29.5613 746.769 29.7556C746.765 29.9499 746.837 30.1379 746.97 30.2801L749.47 32.7801C749.61 32.9205 749.801 32.9994 750 32.9994C750.199 32.9994 750.389 32.9205 750.53 32.7801L755.53 27.7801Z" fill="#3987CD"/>
<path fill-rule="evenodd" clip-rule="evenodd" d="M751.54 18.6369C751.189 18.523 750.811 18.523 750.46 18.6369L742.21 21.3119C741.858 21.426 741.552 21.6484 741.335 21.9473C741.117 22.2462 741 22.6063 741 22.9759V27.9999C741 34.1899 744.77 38.7049 750.401 40.8299C750.787 40.9749 751.213 40.9749 751.599 40.8299C757.229 38.7039 761 34.1899 761 27.9999V22.9759C761 22.2169 760.51 21.5459 759.79 21.3119L751.54 18.6369ZM750.923 20.0629C750.973 20.0467 751.027 20.0467 751.077 20.0629L759.327 22.7389C759.377 22.7551 759.421 22.7868 759.452 22.8294C759.483 22.8719 759.5 22.9232 759.5 22.9759V27.9999C759.5 33.4609 756.22 37.4829 751.07 39.4259C751.025 39.4428 750.975 39.4428 750.93 39.4259C745.78 37.4829 742.5 33.4599 742.5 27.9999V22.9759C742.5 22.8679 742.569 22.7729 742.673 22.7389L750.923 20.0629V20.0629Z" fill="#3987CD"/>
<g clip-path="url(#clip1_299_1196)">
<path fill-rule="evenodd" clip-rule="evenodd" d="M793.408 33.1301C793.157 32.6959 793.078 32.1834 793.188 31.6941C793.297 31.2048 793.586 30.7744 793.998 30.4881L810.038 19.3301C810.262 19.1743 810.515 19.066 810.783 19.0119C811.05 18.9578 811.326 18.959 811.593 19.0153C811.86 19.0717 812.112 19.1822 812.335 19.3398C812.558 19.4975 812.746 19.699 812.888 19.9321L815.716 24.5761C815.861 24.8154 815.955 25.0826 815.991 25.3604C816.027 25.6382 816.004 25.9205 815.924 26.1889C815.843 26.4573 815.708 26.7059 815.525 26.9185C815.343 27.1311 815.118 27.303 814.865 27.4231L797.103 35.8531C796.649 36.0687 796.13 36.1054 795.65 35.9558C795.17 35.8063 794.764 35.4815 794.513 35.0461L793.408 33.1301ZM798.671 29.0641L806.513 23.6091L809.37 28.3691L800.658 32.5041L798.671 29.0641V29.0641ZM797.436 29.9241L794.854 31.7201C794.751 31.7917 794.679 31.8993 794.652 32.0215C794.624 32.1437 794.644 32.2716 794.707 32.3801L795.812 34.2951C795.875 34.4039 795.976 34.485 796.096 34.5223C796.216 34.5596 796.346 34.5502 796.46 34.4961L799.298 33.1491L797.436 29.9241V29.9241ZM810.731 27.7241L807.747 22.7501L810.895 20.5601C810.951 20.5211 811.014 20.494 811.081 20.4804C811.148 20.4669 811.217 20.4672 811.284 20.4814C811.351 20.4955 811.414 20.5232 811.47 20.5627C811.525 20.6022 811.572 20.6527 811.608 20.7111L814.434 25.3551C814.47 25.4149 814.494 25.4816 814.503 25.5511C814.512 25.6205 814.506 25.6911 814.486 25.7582C814.466 25.8254 814.432 25.8875 814.387 25.9408C814.341 25.994 814.285 26.037 814.222 26.0671L810.732 27.7231L810.731 27.7241Z" fill="#3987CD"/>
<path d="M810.155 40.87C810.323 40.7625 810.441 40.593 810.483 40.3988C810.525 40.2045 810.489 40.0013 810.381 39.834L806.381 33.595C806.284 33.4433 806.136 33.3318 805.963 33.2807C805.79 33.2297 805.605 33.2425 805.44 33.317L802.69 34.567C802.561 34.6262 802.45 34.7212 802.372 34.841L799.122 39.83C799.02 39.9965 798.987 40.1962 799.03 40.3868C799.073 40.5774 799.188 40.7437 799.352 40.8504C799.516 40.9571 799.714 40.9958 799.906 40.9581C800.098 40.9205 800.267 40.8096 800.378 40.649L803.509 35.843L804.019 35.611V41.251C804.019 41.4499 804.098 41.6406 804.239 41.7813C804.38 41.9219 804.571 42.001 804.769 42.001C804.968 42.001 805.159 41.9219 805.3 41.7813C805.44 41.6406 805.519 41.4499 805.519 41.251V35.031L809.119 40.644C809.227 40.8113 809.396 40.9291 809.591 40.9714C809.785 41.0138 809.988 40.9773 810.155 40.87Z" fill="#3987CD"/>
</g>
<defs>
<clipPath id="clip0_299_1196">
<rect width="24" height="24" fill="white" transform="translate(199 18)"/>
</clipPath>
<clipPath id="clip1_299_1196">
<rect width="24" height="24" fill="white" transform="translate(793 18)"/>
</clipPath>
</defs>
</svg>
