<?xml version="1.0" standalone="no"?><!DOCTYPE svg PUBLIC "-//W3C//DTD SVG 1.1//EN" "http://www.w3.org/Graphics/SVG/1.1/DTD/svg11.dtd"><svg t="1544583087265" class="icon" style="" viewBox="0 0 1024 1024" version="1.1" xmlns="http://www.w3.org/2000/svg" p-id="4512" xmlns:xlink="http://www.w3.org/1999/xlink" width="400" height="400"><defs><style type="text/css"></style></defs><path d="M896 64H128c-35.296 0-64 28.704-64 64v768c0 35.296 28.704 64 64 64h592a32 32 0 1 0 0-64H128V128h768v592a32 32 0 1 0 64 0V128c0-35.296-28.704-64-64-64z" p-id="4513" fill="#0091ff"></path><path d="M791.744 746.496A206.752 206.752 0 0 0 832 624c0-114.688-93.312-208-208-208S416 509.312 416 624s93.312 208 208 208a206.752 206.752 0 0 0 122.496-40.256l110.88 110.88a31.904 31.904 0 0 0 45.248 0 31.968 31.968 0 0 0 0-45.248l-110.88-110.88zM480 624c0-79.392 64.608-144 144-144s144 64.608 144 144-64.608 144-144 144-144-64.608-144-144zM800 264a32 32 0 0 0-32-32H256a32 32 0 0 0 0 64h512a32 32 0 0 0 32-32zM256 422.656a32 32 0 0 0 0 64h96a32 32 0 0 0 0-64H256z" p-id="4514" fill="#0091ff"></path></svg>