<?xml version="1.0" encoding="utf-8"?>
<!-- Generator: Adobe Illustrator 22.0.0, SVG Export Plug-In . SVG Version: 6.00 Build 0)  -->
<svg version="1.1" id="图层_1" xmlns="http://www.w3.org/2000/svg" xmlns:xlink="http://www.w3.org/1999/xlink" x="0px" y="0px"
	 viewBox="0 0 131 40" style="enable-background:new 0 0 131 40;" xml:space="preserve">
<style type="text/css">
	.st0{fill-rule:evenodd;clip-rule:evenodd;fill:#00469B;}
</style>
<path class="st0" d="M36.5,8.4c0,0-4.3,5-12.9,6.1c0,0,4.2,1.2,7.5,0C35.5,13,36.5,8.4,36.5,8.4L36.5,8.4z M124.9,39.5l0.4-1.1h3
	v-1.5H126c-0.5,0-0.9-0.4-0.9-0.9v-1.7c0-0.5,0.4-0.9,0.9-0.9h3.8l-0.4,1.1h-2.8v1.5h2.3c0.5,0,0.9,0.4,0.9,0.9v1.7
	c0,0.5-0.4,0.9-0.9,0.9H124.9L124.9,39.5z M118,39.5l0.4-1.1h3v-1.5h-2.3c-0.5,0-0.9-0.4-0.9-0.9v-1.7c0-0.5,0.4-0.9,0.9-0.9h3.8
	l-0.4,1.1h-2.8v1.5h2.3c0.5,0,0.9,0.4,0.9,0.9v1.7c0,0.5-0.4,0.9-0.9,0.9H118L118,39.5z M111.5,39.5v-6.2h4.5l-0.4,1.1H113V36h2.5
	v0.7H113v1.6h3l-0.4,1.1H111.5L111.5,39.5z M107.8,39.5l-1.5-3.1h1.3v-1.9h-2.2v5h-1.5v-6.2h4.2c0.5,0,0.9,0.4,0.9,0.9V36
	c0,0.4-0.3,0.7-0.7,0.7l-0.4,0L108,37l1.3,2.4H107.8L107.8,39.5z M96.6,39.5v-6.2h4.1c0.5,0,0.9,0.4,0.9,0.9v2.2
	c0,0.5-0.4,0.9-0.9,0.9h-2.7v2.1H96.6L96.6,39.5z M98.1,36.3L98.1,36.3h2.1v-1.9h-2.1V36.3L98.1,36.3z M92.9,39.5L92,37h-0.6
	l-0.9,2.4h-1.7l1-2.5c0.1-0.3,0.3-0.4,0.5-0.5l0.9-0.2L90.3,36c-0.2-0.1-0.4-0.2-0.5-0.6l-0.9-2.2h1.6l0.9,2.4H92l0.9-2.4h1.6
	l-0.9,2.2c-0.1,0.3-0.3,0.5-0.5,0.6l-0.9,0.3l0.9,0.2c0.2,0,0.4,0.1,0.5,0.5l1,2.5H92.9L92.9,39.5z M82.3,39.5l0-6.2h4.5l-0.4,1.1
	h-2.6V36h2.5v0.7h-2.5v1.6h3l-0.4,1.1L82.3,39.5L82.3,39.5z M73.7,39.5v-0.9h1.4l-0.9-3.8h-0.8l-1.2,4.8h-1.6l1.7-6.2h3l1.7,6.2
	H73.7L73.7,39.5z M67.3,39.5v-5H65v5h-1.5v-6.2h4.3c0.5,0,0.9,0.4,0.9,0.9v5.3H67.3L67.3,39.5z M59.7,39.5v-6.2h1.5v6.2L59.7,39.5
	L59.7,39.5z M55.9,39.5v-2.5h-2.3v2.5h-1.5v-6.2h1.5v2.5h2.3v-2.5h1.5v6.2H55.9L55.9,39.5z M46.4,39.5c-0.5,0-0.9-0.4-0.9-0.9v-4.4
	c0-0.5,0.4-0.9,0.9-0.9h3.5l-0.4,1.1H47v3.9h2.9l-0.4,1.1H46.4L46.4,39.5z M110.4,27.7v-2.4l8.3,0v-2.9l-6.6,0V20h15.8v2.4l-6.9,0
	v2.9l8.6,0l0,2.4H110.4L110.4,27.7z M129.6,14.9L129.6,14.9h-2.4v-2.2H123l0,3.3c0,0.4,0.2,0.5,0.8,0.5c0.2,0,0.4,0,0.8,0
	c0.1,0,0.1,0,0.1,0c0.7,0,1.6-0.1,1.8-0.2c0.3-0.1,0.4-0.4,0.4-1.2l2.2,0.7c-0.1,1.3-0.3,1.8-0.8,2.2c-0.6,0.4-1.5,0.5-4.1,0.5
	c-2.9,0-3.5-0.3-3.5-1.7v-4.2h-1.9c-0.1,1.8-0.6,3.1-1.5,4.1c-0.7,0.8-1.7,1.5-3,2.1c-0.6,0.3-1.2,0.5-2.4,0.8l-1.4-2
	c2.2-0.4,3.3-0.9,4.3-1.6c1.2-0.9,1.5-1.5,1.7-3.3h-3.5v2.9h-2.4l0-5.1l8,0l0-2h2.4l0,2l8.4,0L129.6,14.9L129.6,14.9z M105.9,25.4
	c0,0.2,0.1,0.3,0.4,0.3c0.2,0,0.3,0,0.4-0.2c0.1-0.2,0.2-1.2,0.2-2.7c0-0.3,0-0.9,0-1.6c0.8,0.5,1,0.6,1.9,0.9
	c-0.1,5.4-0.3,5.9-2.8,5.9c-1.8,0-2.3-0.4-2.3-1.6v-9.4h-2.2c0,4.3-0.1,5.7-0.5,7.4c-0.4,1.8-0.9,2.6-2.2,4.2l-1.6-1.8
	c-0.3,0.8-0.9,1.1-2.6,1.1c-0.3,0-0.5,0-1.1-0.1L93,25.7c0.6,0.2,1.3,0.2,1.9,0.2c0.3,0,0.5-0.1,0.5-0.4v-6.2c-0.2,0-0.3,0-0.4,0
	c-0.4,0-0.4,0-0.6,0.1l0,5.2h-1.8l0-5.1l-0.4,0c-0.3,0-0.3,0-0.5,0.1c-0.1,2.1-0.3,4.2-0.7,5.7c-0.3,1.2-0.6,2.1-1.2,3.2l-1.8-1.7
	c1-1.7,1.4-3.5,1.6-7c-1,0.1-1.4,0.2-1.4,0.2l-0.2-2.2l1.7-0.2c0-1.9,0-2.1,0-3.3c0-2.1,0-2.9-0.1-3.8l2.4,0
	c0.3-0.9,0.5-1.5,0.6-2.3l2.3,0.3c-0.3,0.8-0.5,1.3-0.8,2l3,0l0,6.4l1-0.1v2l-1,0.2v6.9c0,0.3,0,0.5-0.1,0.8
	c1.6-1.5,2.2-3.9,2.2-9.5c0-1.1,0-1.6-0.1-2.3l6.6,0L105.9,25.4L105.9,25.4z M91.8,12.6L91.8,12.6c0,3.2,0,3.5,0,4.9
	c2.2-0.2,2.2-0.2,3.6-0.3v-4.6H91.8L91.8,12.6z M93.6,13l-1.4,0.8c0.6,1.2,0.9,1.9,1.3,3.1l1.6-0.8C94.5,14.9,94.2,14.2,93.6,13
	L93.6,13L93.6,13z M103.8,11.2l0-2.8h-2.2v2.8l-3.8,0v2.3h10.6v-2.3L103.8,11.2L103.8,11.2L103.8,11.2z M82.5,21.5l1,1.3
	c-0.3,0.2-0.5,0.3-0.8,0.6c-0.7,0.6-2,1.5-3.1,2.1c1.8,0.4,4.4,0.7,6.2,0.7c0.3,0,0.5,0,1,0l-1,2.3c-3.7-0.2-6.5-0.8-9-1.8
	c-2.8,1-5.4,1.5-9.3,1.8l-0.9-2.1c2.8-0.1,5.2-0.4,7.6-1c-1-0.6-1.6-1-2.5-1.8c-1.1,0.7-2,1.1-3.7,1.7l-1.3-1.8
	c1.8-0.5,2.8-0.9,4-1.6c0.8-0.5,1.4-0.8,1.9-1.3l-3,0v-8.9l5,0c0.3-0.4,0.3-0.4,0.5-0.8h-8V8.9h19.1v2.2h-8.6
	c-0.3,0.5-0.2,0.4-0.5,0.8l6.7,0v8.9l-8.3,0c-0.5,0.5-0.5,0.4-0.8,0.7H82.5L82.5,21.5z M71.9,14.5L71.9,14.5h9.5v-0.8h-9.5V14.5
	L71.9,14.5z M71.9,16.7L71.9,16.7h9.5v-0.8h-9.5L71.9,16.7L71.9,16.7z M71.9,19L71.9,19h9.5v-0.8h-9.5V19L71.9,19z M74.3,23.3
	L74.3,23.3c0.9,0.6,1.5,0.9,2.7,1.4c1.2-0.5,1.8-0.7,2.8-1.4H74.3L74.3,23.3z M45.2,14.4c2.2-1.5,4.1-3.6,5.6-6.1L53,9.2
	c-0.7,1.1-1.5,2.2-2.2,3.2v8h-2.2v-5.6c-0.7,0.8-1.6,1.5-2.5,2.2L45.2,14.4L45.2,14.4z M45.4,24.5h8.7v4.8h2.2l0-4.8h8.8v-2.2h-8.8
	V20h-2.2v2.3l-8.7,0V24.5L45.4,24.5L45.4,24.5z M51.5,14.5l0.8,2.1c1.2-0.5,2.3-0.9,3.3-1.3v1.5c-0.1,2.1,0.9,3.1,2.9,3h3.1
	c1.8,0.1,2.8-0.6,3.1-2.1c0.2-0.8,0.3-1.7,0.5-2.7L63,14.2c0,0-0.3,1.8-0.4,2.3c-0.2,0.9-0.8,1.3-1.7,1.2h-1.6
	c-1.1,0.1-1.5-0.4-1.5-1.5v-2c2.4-1.2,4.6-2.5,6.6-3.9l-1.3-1.7c-1.8,1.3-3.5,2.4-5.2,3.2V8.6h-2.2V13C54.4,13.4,53,13.9,51.5,14.5
	L51.5,14.5L51.5,14.5z M36.7,0c-1,5.8-2.5,8.4-7.9,10.3c-3.8,1.3-7.6,0.8-10.4,2.1c-2.8,1.3-2.8,4.7-2.4,7.5c0.7,5-2.5,5.9-3.3,6.1
	c-1.3,0.3-3,0.2-5.3-1.2c-2.4-1.6-3.6-1.7-4.7-1.7C1.6,23.1,0,24,0,24c2.2,0.9,4.3,4.2,5.6,5.8c0.1,0.1,0.2,0.2,0.2,0.3
	c-0.4,0.1-0.9,0.3-1.3,0.7c-1.4,1.2-2.5,6,5.6,8c5.8,1.5,14.7,0.2,17.5-1C6.3,40.4,5,34.1,5.7,32.7c0.4-0.8,1.2-1,2-0.9
	c2.8,2.1,5.9,2.7,7.8,2.8c4,0.2,7.6-1.2,7.6-1.2C13,34.4,8.5,30,6.3,27.6C2.8,23.8,0,24,0,24c3.6-4.6,7.4-1.1,9.6-0.5
	c2,0.6,4.6,0.2,4-2.9c-1.1-5.7,0.4-9.1,4-11c2.2-1.2,6.2-1.5,9.8-2.6C34.2,5,36.7,0,36.7,0L36.7,0z M33.1,21.7c0,0-3.6,3.9-13.2,2.6
	c0,0,3.8,2.3,7.6,1.9C31.6,25.7,33.1,21.7,33.1,21.7L33.1,21.7z M35.1,15.3c0,0-1.7,4.5-6.3,5.1c-3.2,0.4-6.1-0.9-6.1-0.9
	C29.8,19.5,35.1,15.3,35.1,15.3z"/>
</svg>
