<svg version="1.1" id="prefix__图层_1" xmlns="http://www.w3.org/2000/svg" x="0" y="0" viewBox="0 0 139 55.1" xml:space="preserve"><style>.prefix__st0{fill:#1d78b5}.prefix__st5{fill:#1e72ab}</style><path class="prefix__st0" d="M98.8 8.3s-1.9 2.3-2.2 2.6c-2.4-1.8-4.6-3.8-6.5-6-1.2 1.3-2.4 2.6-3.8 3.7-1.3.9-2.7 1.6-4.2 2.1v-.9c3-1.1 5.9-7.6 5.9-7.6l2.7 1.3-.2.5c1.6 1.2 3.4 2.2 5.2 3.2 1 .4 2.1.7 3.1 1.1"/><path class="prefix__st0" d="M92.1 13.4h6.1v-1h-6.1V8.9L89 8.1v10.3h-2.4v-6.3l-3.1-.8v7.1h-2v1h17.3v-1h-6.7z"/><linearGradient id="prefix__SVGID_1_" gradientUnits="userSpaceOnUse" x1="101.91" y1="49.04" x2="109.98" y2="49.04" gradientTransform="matrix(1 0 0 -1 0 53.47)"><stop offset="0" stop-color="#24b398"/><stop offset="1" stop-color="#478ac9"/></linearGradient><path d="M106.6 3.6h-1.7c-2.5 0-2.8 1.8-3 2.6h5.7c1.5-.2 2.6-1.6 2.4-3.2 0-.1 0-.2-.1-.3-.9.6-2.1.9-3.3.9" fill="url(#prefix__SVGID_1_)"/><path class="prefix__st0" d="M109.8 13.4l-2.4-.1 1.1 5.7 2.3-.5z"/><path class="prefix__st0" d="M108.4 18.4v-1.5l-3.2.4 1.9-7.5h3.7v-1h-9.1v1h2.4s-1.6 6.9-1.8 7.7.2 2.3 1.3 2c.8-.2 4.9-1.1 4.8-1.1"/><path class="prefix__st0" d="M117.3 6.5H115V2.8l-2.8-.7v4.3h-1.8v1h1.8v4.4c0 1.5-.1 2.9-.3 4.3-.2 1-.6 1.9-1.3 2.7l.4.5c2.8-1.4 4.2-4.5 4-9.1V7.5h.8c.3 0 .6.2.7.6V17c0 .5 0 1.1-.5 1.1h-1.3l-.9 1.3h3.6c1.2-.1 2-1.1 2-2.3V8.2c-.2-1.1-.9-1.7-2.1-1.7M136.4 6.2h-5.5V2.9l-3-.7v4h-5.2v1h5.2c0 2.1-.2 4.2-.8 6.2-.7 1.9-2.4 3.8-5.1 5.5l.3.5c4-1.3 6.6-3.1 7.5-5.6.7-2.1 1.1-4.3 1.1-6.5h4c.6 0 .9.3.9.8v8.7c.1.7-.5 1.3-1.2 1.3H133l-.8 1.3h4c1.4 0 2.5-1.1 2.5-2.5V9c.2-1.4-.8-2.7-2.3-2.8M71.6 5.9V2.1l-3 1.4v9.7h-3.4c-.3 0-.5-.2-.6-.4V7.5c0-.3.2-.5.7-.5H68V6h-4c-1.2-.1-2.2.8-2.4 2v4.2c.1 1.3 1.2 2.2 2.5 2.1h4.6v5.1h3v-5.1h7.1V5.9h-7.2zm4.1 7.3h-4.1V6.9h4.1v6.3zM87.8 30.4c-1 0-1.4-.1-1.4-.9v-5h1.3v3.9c0 .5 0 .9.5.9h1c.4 0 .6-.3.6-.9v-3.9h1.3v3.9c0 .6.2.9.6.9h.8c.4 0 .6-.3.6-.9v-3.9h1.3v4.7c0 1.2-.6 1.1-1.3 1.1l-5.3.1zM99.8 30.3v-4.1c0-.4.2-.8.4-1.1.4-.4.9-.7 1.5-.6h4.9v1.3h-4.9c-.1 0-.6 0-.6.3v1.4h5.5v1.3h-5.5v1.5h-1.3zM132.8 30.4v-5.9h6.1v1.2h-4.8v1.2h4.6V28h-4.6v1.3h4.9v1.1zM127.1 30.4c-.5 0-1-.2-1.4-.5-.4-.3-.6-.7-.6-1.2v-2.4c0-.5.2-.9.6-1.2.4-.3.9-.5 1.4-.5h4.2v1.1h-4.2c-.2 0-.3.1-.4.2-.1.1-.2.3-.2.5v2.4c0 .2.1.3.2.5.1.1.3.2.5.2h4.2v1.1h-4.3zM123 30.5h-.1c-1.7-.4-3.3-1.1-4.7-2.1l-.2-.1v2.3h-1.2v-6h4.4c1-.1 2 .6 2.1 1.7v.2c0 1.6-1.5 1.8-2.3 1.8h-1.3c1 .5 2.1 1 3.3 1.2.2 0 .3.1.4.3.1.1.1.2.1.4 0 .1-.2.3-.5.3m-4.8-3.4h2.9c.9 0 1.1-.3 1.1-.7s-.3-.8-1-.8H118v1.5h.2zM109.8 30.4c-.5 0-1-.2-1.4-.5-.4-.3-.6-.7-.6-1.2v-2.4c0-.5.2-.9.6-1.2.4-.3.9-.5 1.4-.5h3.5c.5 0 1 .2 1.4.5.4.3.6.7.6 1.2v2.4c0 .5-.2.9-.6 1.2-.4.3-.9.5-1.4.5h-3.5zm0-4.8c-.2 0-.3.1-.4.2-.2.1-.3.3-.3.5v2.4c0 .2.1.4.2.5.1.1.3.2.4.2h3.5c.2 0 .3-.1.5-.2.1-.1.2-.3.2-.5v-2.4c0-.2-.1-.3-.2-.5-.1-.1-.3-.2-.4-.2h-3.5zM79.6 30.4c-.5 0-1-.2-1.4-.5-.4-.3-.6-.7-.6-1.2v-2.4c0-.5.2-.9.6-1.2.4-.4.9-.6 1.4-.6h3.5c.5 0 1.1.2 1.5.5.4.3.6.7.6 1.2v2.4c0 .5-.2.9-.6 1.2-.4.3-.9.5-1.5.5l-3.5.1zm0-4.8c-.2 0-.3.1-.4.2-.1.1-.2.2-.2.4v2.4c0 .2.1.4.2.5.1.1.3.2.4.2h3.5c.2 0 .3-.1.5-.2.1-.1.2-.3.2-.5v-2.4c0-.2-.1-.3-.2-.5-.1-.1-.3-.2-.4-.2l-3.6.1zM75.8 30.5h-.1c-1.7-.4-3.3-1.1-4.6-2.2l-.2-.1v2.3h-1.2v-6H74c1-.1 2 .6 2.1 1.7v.2c0 1.6-1.5 1.8-2.3 1.8h-1.3c1 .5 2.1 1 3.3 1.2.2 0 .3.1.4.3.1.1.1.2.1.4 0 .1-.3.3-.5.4M71 27.1h2.9c.9 0 1.1-.3 1.1-.7s-.3-.8-1-.8h-3.2V27l.2.1zM63.3 25.9c.1-.1.3-.2.5-.2h4.4v-1.1h-4.4c-.5 0-1 .2-1.5.5-.4.3-.6.7-.6 1.2v2.4c0 .5.2.9.6 1.2.4.3.9.5 1.5.5h3.6c.6 0 .8-.3.8-.9v-1.4c0-.7-.3-1-1.1-1h-2.2v1.1h1.6c.3 0 .4.1.4.3v.4c0 .2-.1.4-.3.4h-2.8c-.2 0-.3-.1-.5-.2-.1-.1-.2-.3-.2-.5v-2.4c0-.1.1-.2.2-.3"/><linearGradient id="prefix__SVGID_2_" gradientUnits="userSpaceOnUse" x1="0" y1="37.31" x2="33.57" y2="37.31" gradientTransform="matrix(1 0 0 -1 0 53.47)"><stop offset="0" stop-color="#24b398"/><stop offset="1" stop-color="#478ac9"/></linearGradient><path d="M31.9 29.7h-.4c-3.7-.1-7.2-2-9.3-5.1h-10c-1.7-.1-3.3-.8-4.4-2.1-1.7-1.7-2.6-4-2.5-6.3 0-5.7 4.1-8.4 6.9-8.4h9.3c1.2-2.4 3.2-4.3 5.6-5.6H12c-6.6.1-12 6.4-12 14s5.4 13.9 12 14h21.6c-.1-.2-.7-.4-.8-.6l-.9.1z" fill="url(#prefix__SVGID_2_)"/><linearGradient id="prefix__SVGID_3_" gradientUnits="userSpaceOnUse" x1="20.7" y1="38.375" x2="59.281" y2="38.375" gradientTransform="matrix(1 0 0 -1 0 53.47)"><stop offset="0" stop-color="#24b398"/><stop offset="1" stop-color="#478ac9"/></linearGradient><path d="M47.2 24.6H33.7c-2.3-.1-4.3-1.5-6-4.3l-.7-1.2h19.7c3.4.1 6.2-2.5 6.4-5.8v-.6c-1.6.3-3.2.5-4.8.5H26.6l.7-1.2c2.5-4 5.8-4.3 6.7-4.3h19.1c1.8-.1 3.5-1 4.5-2.5 1.1-1.5 1.6-3.4 1.5-5.3-3.2 1.3-6.7 2-10.2 2.1H32.7c-6.6.1-12 6.4-12 14s5.4 13.9 12 14h8.2c3.2.1 5.8-2.3 6.3-5.4z" fill="url(#prefix__SVGID_3_)"/><path class="prefix__st5" d="M7.2 42.1l-.2.3c1.2 1.6 2.9 2.9 5.2 3.8-.2.3-.4.6-.6 1-2.1-1.1-3.9-2.4-5.2-4-1.2 1.6-3 3-5.3 4.3-.2-.3-.4-.6-.7-1 2.4-1.1 4.2-2.6 5.6-4.4h1.2zM1 52.2h1.6v-4.5h1v4.5H6v-6.6h1v2.6h3.6v.9H6.9v3.1h4.7v.9H1v-.9zM21.4 51.9h3.8v-9.7h1v9.7h2.1v-9.7h1v9.7H33v.9H21.4v-.9zm1.4-7.4c.6 1.5 1.3 3.1 1.9 4.8l-1 .4c-.5-1.6-1.1-3.3-1.8-4.9l.9-.3zm6.8 4.9c.8-1.7 1.4-3.3 2-4.8l.9.4c-.7 1.9-1.4 3.5-2.1 4.8l-.8-.4zM42.3 52h5.4v-3h-4.1v-.9h4.1v-2.7h-3.1c-.5.9-1.1 1.8-1.8 2.5-.2-.3-.4-.5-.6-.8 1.1-1.2 2-2.7 2.6-4.5l1 .3c-.2.6-.4 1.1-.7 1.6h2.6V42h1v2.5h4.5v.9h-4.5v2.7h4.1v.9h-4.1v3h5.1v.9H42.3V52zM63.3 46.8h2.1V42h1v4.8h8.3v.9h-5.1c1 2.1 2.8 3.6 5.4 4.4-.3.4-.5.7-.7 1-2.8-1.1-4.7-2.9-5.7-5.4h-2.1V52c.9-.4 1.8-.8 2.8-1.2v1.1l-2.7 1.2-.9.6-.7-1c.3-.2.4-.5.4-.9v-4.1h-2.1v-.9zm3.7-1.4c1.9-.6 3.8-1.6 5.6-3l.6.8c-1.8 1.3-3.7 2.4-5.7 3.1-.1-.3-.3-.6-.5-.9zM84.5 44h1.2c.3-.7.5-1.4.7-1.9l1 .3c-.2.6-.5 1.2-.7 1.7H89v9.3h-.9v-.9h-2.6v1h-.9V44zm3.6.8h-2.6v2.8h2.6v-2.8zm-2.6 6.7h2.6v-3h-2.6v3zm3.7-5.1c.7-1.2 1.4-2.6 1.9-4.3l1 .2c-.2.6-.4 1.1-.6 1.7h3.8c-.1 4-.2 6.5-.2 7.6-.1 1.2-.7 1.8-1.9 1.8-.7 0-1.4 0-2.2-.1 0-.4-.1-.7-.2-1 .8.1 1.5.2 2.1.2.7 0 1.1-.4 1.1-1.1.1-1.2.1-3.3.2-6.5h-3.1c-.3.8-.7 1.4-1.1 2-.2-.2-.4-.4-.8-.5zm1.1.8l.7-.5c.9 1 1.6 1.9 2.1 2.7l-.9.6c-.6-1-1.2-1.9-1.9-2.8zM105.5 44.7h3.8v-2.6h1c0 .8 0 1.7-.1 2.6h5.4c-.1 3.1-.2 5.2-.3 6.5-.1 1.3-.8 2-2.2 2h-2.3c0-.3-.1-.7-.2-1.1 1 .1 1.8.1 2.4.1.8 0 1.2-.4 1.3-1.3.1-1.4.2-3.2.2-5.3h-4.3c-.1 2-.4 3.6-1 4.6-.6 1.1-1.8 2.2-3.6 3.3-.2-.3-.5-.6-.7-.9 1.7-1 2.8-1.9 3.3-2.9.6-.9.9-2.3.9-4.1h-3.8v-.9zM125.9 52.5h5.4v-.7h-4.7v-.6h4.7v-.7h-2.8v.3h-.8v-3.6h8v3.6h-.8v-.3h-2.8v.7h4.7v.6h-4.7v.7h5.4v.6h-11.6v-.6zm.1-6.4h11.4v.6H126v-.6zm1.8-3.6h7.9v3.4h-.8v-.3h-6.3v.3h-.8v-3.4zm.7 6.1h2.8v-.8h-2.8v.8zm0 1.4h2.8v-.8h-2.8v.8zm6.3-6.9h-6.3v.6h6.3v-.6zm-6.2 1.8h6.3v-.6h-6.3v.6zm6.3 3h-2.8v.8h2.8v-.8zm-2.8 2.1h2.8v-.8h-2.8v.8z"/></svg>