<svg xmlns="http://www.w3.org/2000/svg" width="775" height="251" viewBox="257 245 775 251"><defs><marker id="a" stroke-linejoin="miter" stroke-miterlimit="10" color="#000" markerHeight="8" markerUnits="strokeWidth" markerWidth="10" orient="auto" overflow="visible" viewBox="-1 -4 10 8"><path fill="currentColor" stroke="currentColor" d="M8 0 0-3v6Z"/></marker></defs><g fill="none"><path fill="#fff" d="M257 245h775v251H257z"/><path fill="#fff" d="M257 245.75h775v250H257z"/><path fill="#fff" d="M284.5 345h102v51.5h-102z"/><path stroke="gray" stroke-linecap="round" stroke-linejoin="round" d="M284.5 345h102v51.5h-102z"/><text fill="#000" transform="translate(289.5 361.018)">
          <tspan x="6.888" y="16" font-family="Helvetica Neue" font-size="16" font-weight="700">User code</tspan>
        </text><path fill="#fff" d="M439 345h102v51.5H439z"/><path stroke="gray" stroke-linecap="round" stroke-linejoin="round" d="M439 345h102v51.5H439z"/><text fill="#000" transform="translate(444 351.286)">
          <tspan x="13.56" y="16" font-family="Helvetica Neue" font-size="16" font-weight="700">Network </tspan>
          <tspan x="19.336" y="35.464" font-family="Helvetica Neue" font-size="16" font-weight="700">Library</tspan>
        </text><path fill="#fff" d="M593.5 345h102v51.5h-102z"/><path stroke="gray" stroke-linecap="round" stroke-linejoin="round" d="M593.5 345h102v51.5h-102z"/><text fill="#000" transform="translate(598.5 351.286)">
          <tspan x="8.216" y="16" font-family="Helvetica Neue" font-size="16" font-weight="700">Language </tspan>
          <tspan x="32.824" y="35.464" font-family="Helvetica Neue" font-size="16" font-weight="700">API</tspan>
        </text><path fill="#fff" d="M748 345h102v51.5H748z"/><path stroke="gray" stroke-linecap="round" stroke-linejoin="round" d="M748 345h102v51.5H748z"/><text fill="#000" transform="translate(753 361.018)">
          <tspan x="10.008" y="16" font-family="Helvetica Neue" font-size="16" font-weight="700">Linux API</tspan>
        </text><path fill="#fff" d="M902.5 345h102v51.5h-102z"/><path stroke="gray" stroke-linecap="round" stroke-linejoin="round" d="M902.5 345h102v51.5h-102z"/><text fill="#000" transform="translate(907.5 361.018)">
          <tspan x="1.696" y="16" font-family="Helvetica Neue" font-size="16" font-weight="700">Socket Ops</tspan>
        </text><path fill="#fff" d="M711.75 245.75h20v16h-20zm0 234h20v16h-20z"/><path stroke="#000" stroke-dasharray="4.0,4.0" stroke-linecap="round" stroke-linejoin="round" d="M721.75 261.75v218"/><text fill="#000" transform="translate(289.5 270)">
          <tspan x="0" y="16" font-family="Helvetica Neue" font-size="16" font-weight="700">User Space</tspan>
        </text><text fill="#000" transform="translate(897.292 266)">
          <tspan x="0" y="16" font-family="Helvetica Neue" font-size="16" font-weight="700">Kernel Space</tspan>
        </text><path stroke="#000" stroke-linecap="round" stroke-linejoin="round" marker-end="url(#a)" d="M386.5 370.75h42.6"/><path stroke="#000" stroke-linecap="round" stroke-linejoin="round" marker-end="url(#a)" d="M541 370.75h42.6"/><path stroke="#000" stroke-linecap="round" stroke-linejoin="round" marker-end="url(#a)" d="M695.5 370.75h42.6"/><path stroke="#000" stroke-linecap="round" stroke-linejoin="round" marker-end="url(#a)" d="M850 370.75h42.6"/></g></svg>