<svg xmlns="http://www.w3.org/2000/svg" width="744" height="210" viewBox="475 569 744 210"><defs><marker id="a" stroke-linejoin="miter" stroke-miterlimit="10" color="#000" markerHeight="8" markerUnits="strokeWidth" markerWidth="10" orient="auto" overflow="visible" viewBox="-1 -4 10 8"><path fill="currentColor" stroke="currentColor" d="M8 0 0-3v6Z"/></marker><marker id="b" stroke-linejoin="miter" stroke-miterlimit="10" color="#000" markerHeight="8" markerUnits="strokeWidth" markerWidth="10" orient="auto" overflow="visible" viewBox="-9 -4 10 8"><path fill="currentColor" stroke="currentColor" d="m-8 0 8 3v-6Z"/></marker></defs><g fill="none"><path fill="#fff" d="M475 569h744v210H475z"/><path fill="#fff" d="M475.488 569.055h742.677v209.293H475.488z"/><path fill="#fff" d="M625.724 583.937h442.205v179.53H625.724z"/><path stroke="gray" stroke-dasharray="4.0,4.0" stroke-linecap="round" stroke-linejoin="round" d="M625.724 583.937h442.205v179.53H625.724Z"/><text fill="#000" transform="translate(630.724 588.937)">
          <tspan x="177.294" y="16" font-family="Helvetica Neue" font-size="16" font-weight="700">Transform</tspan>
        </text><path fill="#fff" d="M493.228 636.378h102v51.5h-102z"/><path stroke="gray" stroke-linecap="round" stroke-linejoin="round" d="M493.228 636.378h102v51.5h-102z"/><text fill="#000" transform="translate(498.228 642.664)">
          <tspan x="10.728" y="16" font-family="Helvetica Neue" font-size="16" font-weight="700">Connect/</tspan>
          <tspan x="19.04" y="35.464" font-family="Helvetica Neue" font-size="16" font-weight="700">Accept</tspan>
        </text><path fill="#fff" d="M694.961 636.378h102v51.5h-102z"/><path stroke="gray" stroke-linecap="round" stroke-linejoin="round" d="M694.961 636.378h102v51.5h-102z"/><text fill="#000" transform="translate(699.96 652.396)">
          <tspan x="26.152" y="16" font-family="Helvetica Neue" font-size="16" font-weight="700">Read</tspan>
        </text><path fill="#fff" d="M896.693 636.378h102v51.5h-102z"/><path stroke="gray" stroke-linecap="round" stroke-linejoin="round" d="M896.693 636.378h102v51.5h-102z"/><text fill="#000" transform="translate(901.693 652.396)">
          <tspan x="26.008" y="16" font-family="Helvetica Neue" font-size="16" font-weight="700">Write</tspan>
        </text><path fill="#fff" d="M1098.425 636.378h102v51.5h-102z"/><path stroke="gray" stroke-linecap="round" stroke-linejoin="round" d="M1098.425 636.378h102v51.5h-102z"/><text fill="#000" transform="translate(1103.425 652.396)">
          <tspan x="24.232" y="16" font-family="Helvetica Neue" font-size="16" font-weight="700">Close</tspan>
        </text><path stroke="#000" stroke-linecap="round" stroke-linejoin="round" marker-end="url(#a)" d="M595.228 662.128h89.833"/><path stroke="#000" stroke-linecap="round" stroke-linejoin="round" marker-end="url(#a)" marker-start="url(#b)" d="M806.861 662.128h79.932"/><path stroke="#000" stroke-linecap="round" stroke-linejoin="round" marker-end="url(#a)" marker-start="url(#b)" d="M1008.593 662.128h79.932"/><path stroke="#000" stroke-linecap="round" stroke-linejoin="round" d="M745.96 687.878v57.134h88.567v-82.884m113.166 25.75v56.895h96.175v-82.645"/></g></svg>