<svg width="36" height="36" viewBox="0 0 36 36" fill="none" xmlns="http://www.w3.org/2000/svg">
<g clip-path="url(#clip0_270_1170)">
<path d="M0 4C0 1.79086 1.79086 0 4 0H32C34.2091 0 36 1.79086 36 4V32C36 34.2091 34.2091 36 32 36H4C1.79086 36 0 34.2091 0 32V4Z" fill="#3987CD"/>
<path d="M21.9497 12.0503C24.6834 14.7839 24.6834 19.2161 21.9497 21.9497C19.2161 24.6834 14.7839 24.6834 12.0503 21.9497C9.31658 19.2161 9.31658 14.7839 12.0503 12.0503C14.7839 9.31658 19.2161 9.31658 21.9497 12.0503" stroke="white" stroke-width="3" stroke-linecap="round" stroke-linejoin="round"/>
<path d="M2.41421 15.7528C3.19526 16.5338 3.19526 17.8002 2.41421 18.5812C1.63317 19.3623 0.366835 19.3623 -0.414214 18.5812C-1.19526 17.8002 -1.19526 16.5338 -0.414214 15.7528C0.366835 14.9717 1.63317 14.9717 2.41421 15.7528Z" fill="white" fill-opacity="0.5"/>
<path d="M9.41421 15.7528C10.1953 16.5338 10.1953 17.8002 9.41421 18.5812C8.63317 19.3623 7.36683 19.3623 6.58579 18.5812C5.80474 17.8002 5.80474 16.5338 6.58579 15.7528C7.36683 14.9717 8.63317 14.9717 9.41421 15.7528Z" fill="white" fill-opacity="0.5"/>
<path d="M16.4142 15.7528C17.1953 16.5338 17.1953 17.8002 16.4142 18.5812C15.6332 19.3623 14.3668 19.3623 13.5858 18.5812C12.8047 17.8002 12.8047 16.5338 13.5858 15.7528C14.3668 14.9717 15.6332 14.9717 16.4142 15.7528Z" fill="white" fill-opacity="0.5"/>
<path d="M23.4142 15.7528C24.1953 16.5338 24.1953 17.8002 23.4142 18.5812C22.6332 19.3623 21.3668 19.3623 20.5858 18.5812C19.8047 17.8002 19.8047 16.5338 20.5858 15.7528C21.3668 14.9717 22.6332 14.9717 23.4142 15.7528Z" fill="white" fill-opacity="0.5"/>
<path d="M30.4142 15.7528C31.1953 16.5338 31.1953 17.8002 30.4142 18.5812C29.6332 19.3623 28.3668 19.3623 27.5858 18.5812C26.8047 17.8002 26.8047 16.5338 27.5858 15.7528C28.3668 14.9717 29.6332 14.9717 30.4142 15.7528Z" fill="white" fill-opacity="0.5"/>
<path d="M37.4142 15.7528C38.1953 16.5338 38.1953 17.8002 37.4142 18.5812C36.6332 19.3623 35.3668 19.3623 34.5858 18.5812C33.8047 17.8002 33.8047 16.5338 34.5858 15.7528C35.3668 14.9717 36.6332 14.9717 37.4142 15.7528Z" fill="white" fill-opacity="0.5"/>
<path d="M22 22L27.85 27.93" stroke="white" stroke-width="3" stroke-linecap="round" stroke-linejoin="round"/>
</g>
<defs>
<clipPath id="clip0_270_1170">
<path d="M0 4C0 1.79086 1.79086 0 4 0H32C34.2091 0 36 1.79086 36 4V32C36 34.2091 34.2091 36 32 36H4C1.79086 36 0 34.2091 0 32V4Z" fill="white"/>
</clipPath>
</defs>
</svg>
